<svg id="b43b1abf-3536-4741-95c4-35dfb5381023" data-name="Capa 1" xmlns="http://www.w3.org/2000/svg" viewBox="0 0 800 800"><defs><style>.a64101f5-c609-4468-8629-3b943dad2c9d,.b4fa50a9-d905-428e-937f-02cd2e0061aa,.e58f011b-923b-4845-90c5-8cf92649d25e{fill:#1d1d1b;}.b4fa50a9-d905-428e-937f-02cd2e0061aa,.befb3fbf-d9ea-4eef-985b-5a001506ea32{fill-rule:evenodd;}.a04a5862-a23f-4d5b-8157-291200a23e7b,.a533d59e-e0e4-46a8-ac83-851298a26c6f,.befb3fbf-d9ea-4eef-985b-5a001506ea32{fill:#fff;}.a533d59e-e0e4-46a8-ac83-851298a26c6f,.e58f011b-923b-4845-90c5-8cf92649d25e{stroke:#fff;stroke-width:2px;}.e58f011b-923b-4845-90c5-8cf92649d25e{stroke-linejoin:round;}</style></defs><title>abarth</title><path class="b4fa50a9-d905-428e-937f-02cd2e0061aa" d="M403.73,21s-56.45-.56-106.94,8.44-81,1.76-97.25-7.25c-41.49,16.25-88.24,36-88.24,36s.22,27-21.51,54-36,46.75-36,46.75,50.49,43.25,45,63S32.05,436.23,84.3,542.48s132.58,167.06,234,187.25c54,10.76,86.49,50.27,86.49,50.27s32.11-39.82,86.12-50.57c101.41-20.2,181.75-81,234-187.25s-9-300.75-14.49-320.51,45-63,45-63-14.26-19.76-36-46.76-21.51-54-21.51-54-46.76-19.75-88.25-36c-16.24,9-46.75,16.25-97.25,7.25S403.73,21,403.73,21Z"/><path class="a64101f5-c609-4468-8629-3b943dad2c9d" d="M84.63,149.84c18.7-23.52,37.13-44.55,42.42-76.34,14.42-6,43.64-18.16,71.77-29.27,21.18,9.16,53.86,13.83,100.93,5.44,49-8.74,104-8.18,104-8.18,59.64-.9,155.74,24.43,206.6,2.43C638.51,55,667.73,67.16,682.15,73.19c5.32,31.93,23.88,53,42.67,76.65Z"/><path class="befb3fbf-d9ea-4eef-985b-5a001506ea32" d="M433.55,81.2V99.57s24,.38,34.11.38,9-4.09,9-7.86S477.79,82,466.9,82,433.55,81.2,433.55,81.2Zm-58.45,25-13-25.82L348,106.19Zm-174.81,18.2H156.64l-5.93,9.11h-24l38.43-54,28.46-3.62,35.44,53.72V70.81s54.17-4.41,69.57-4.41,17.05,8.06,17.05,18.75-8.51,13.39-9.48,13.39-.75,1.54.08,1.54,10.94-.28,10.94,7.61V120.3l31.72-58,28.79-.2,33.86,66.59V63.21s56.81,1.41,70,2.81,15.19,9.57,15.19,9.57l-.28-8.16s25.87.56,59.9,3.38S610,76.34,610,76.34V99.12l46.87,4.69V84.87L678,88.24v45H656.88l0-15.71s-6.75-1.12-21.65-2-25.44-1.29-25.44-1.29l0,18.82H588.24V89.94s-6.27-1-20.1-1.89-20.68-.81-20.68-.81l0,45.68H525.81V84.73H497.52v4.82c0,18.78-10.55,19.75-12,19.75s-.78,1.26-.1,1.26,10.45-.65,10.45,7v15.82H474.27v-9s2-6.54-8.57-6.54H432.14l.06,15.43-43.5.06L383,122H339.4l-6.12,11.3-23.2-.13s-.31-.44.07-4c-6.35,5.1-11.65,4.13-11.65,4.13l-92.69.13Zm50-39.86s31.29-1.92,38.79-1.92,4.93,10.28,0,10.5-38.79.64-38.79.64ZM249.47,109s29.36-1.28,39-1.5,6.86,11.15.86,11.15H249Zm-84.74,3,26.91-1.23L178.76,90.37Z"/><path class="e58f011b-923b-4845-90c5-8cf92649d25e" d="M732.81,160.12c-3.86,3.73-8.49,8.26-13.2,13.35H520.48V154.34H728.37Q730.61,157.19,732.81,160.12Z"/><path class="e58f011b-923b-4845-90c5-8cf92649d25e" d="M288.73,173.47H89.32c-4.62-5-9.14-9.39-12.93-13,1.55-2.06,3.12-4.09,4.68-6.09H288.73Z"/><rect class="a533d59e-e0e4-46a8-ac83-851298a26c6f" x="288.73" y="154.34" width="231.75" height="19.13"/><path class="b4fa50a9-d905-428e-937f-02cd2e0061aa" d="M453.23,552l26.44-.56,23.63-16.31-1.69,70.88-34.31,2.81-15.75-9.56Zm-4.69,50.81L464.3,613l35.63-1.88L444.8,671.87l-21.76-18L418.93,637Zm-33.37,38.26,4.13,16.5L438.79,676,374.3,687.24l-7.51-18,6.39-14.62Zm-47.89,13.6-4.77,14.35,5.54,19.54-69.31-60.15,16.65-7.08ZM303.05,525l9.56,90.57-44.44,16.87Zm184.31-54,47.85-.56,8.11-7.9-.89,21.91L492,488l4.5,16.53L543,502.82l7.32-7.87-1.69,21.94-48.2,1.93,2.67,9.82-25.33,16.75L452.79,549l-3.72-4.94L415.32,577.8l-18.23-12.64L410,565l29.19-34.16L429.43,518,394.5,553.14l-18-14.54h10.94l31.69-34.31L410,492.12,375.39,526.7,356.7,514.09l10.8-1.1,32-34.75-9.26-12.3L356.42,500.8l-20.21-12.88,11.49.28,29.08-40.15L469,405.68l56.29-.41,6.63-7.81-4.59,23.78-52.71,2.87,4.1,15.06,49.67-.93,8.42-7.53-2.22,22-51.33,3.11ZM348,402.31,377.11,442,215.76,515.48l-23.43-153L304.87,255.36,271,367l54-28.68L272.67,421l-47.81,7.31,22.5,45Zm79.63-42,37.17,41.85-85.51,39-7.85-56,35.07-1.19Zm203.88-33.82-164.09,74.6-.22,0-9.37-49.35L576.66,321,556,276.93l-36.89,31.54L421.87,294l54.89-24.25L372.33,222.93l157.54-15.25Z"/><path class="a04a5862-a23f-4d5b-8157-291200a23e7b" d="M488.09,402.41c8.73,0,20.13.17,35.84.06l5.8-6.83c2.3-2.72,5.58-1.15,4.9,2.35L530,421.77a3.43,3.43,0,0,1-2.61,2.28l-49.23,2.68,2.61,9.59,46.43-.87c1.49-1.33,13.24-13.65,12.31-4.46,0,.08,1,24.16-4.84,24.52l-47.88,2.9,2.67,9.79,44.55-.52c1.57-1.53,12.45-14,12.08-5-.09,2.24,2.31,24.19-3.5,24.6l-47,3.29,3,11.08,43.07-1.61,6.52-7c2.26-2.44,5.12-1.19,4.86,2.13-.15,1.91,1.45,24.3-4.38,24.54L504,521.49c.26.93,3.37,7.65.59,9.49l-2.21,1.47c2-1,3.77.24,3.71,2.78l-1.69,70.88a3.11,3.11,0,0,1-2.34,2.71c1.26.84,1.4,2.56-.07,4.17l-55.13,60.77A2.94,2.94,0,0,1,443,674l-2.29-.09c2.08,2,1.37,4.32-1.45,4.81L374.79,690c-1.36.24-2.89-1.15-4.36-3.33l.32,1.15c5.42,19.1-53.13-39.27-73.86-57.25-2.77-2.41.59-5.56,5.33-8l-33.05,12.55c-2.74,1-4.58-.71-3.68-3.49l34.88-107.44c1.13-3.5,5.09-3.09,5.47.57l9.57,90.56a3.48,3.48,0,0,1-1.8,2.93l-2.75,1c2.78-.69,5.11-.88,6.05-.27l51.89,33.33a3,3,0,0,1,1.17,2.6l.63-1.45a6.32,6.32,0,0,1,1.71-1.55l42-13.51a2.45,2.45,0,0,1,2.12.21l-.23-1a5.22,5.22,0,0,1,.6-2.51L446.42,601a2.77,2.77,0,0,1,2.63-.77,2.71,2.71,0,0,1-.31-1l1.68-47.26a2.22,2.22,0,0,1,.36-1.12,17.71,17.71,0,0,1-2-2.5l-31.46,31.47a3.23,3.23,0,0,1-3.59.32l-18.23-12.64c-2.81-2-1.84-5.1,1.57-5.13l11.6-.1,26.89-31.47-6.41-8.51L396.5,555.13c-4.65,4.67-32-19.34-20-19.34h9.71l29.26-31.68-5.81-7.71-32.28,32.28a3.26,3.26,0,0,1-3.56.35l-18.69-12.6c-8-5.42,10.07-6,11-6.13l29.7-32.24-5.88-7.8-31.53,32.5a3.29,3.29,0,0,1-3.53.42L334.7,490.3c-3-1.9-1.95-5.27,1.58-5.19l10,.24,19.93-27.52-249,113.24c49.58,81.67,119.16,128.73,204.4,145.71,31,6.18,59.78,21.71,83.09,42.75,23.17-21.23,51.88-36.87,82.92-43.06,95.95-19.11,172.08-76.31,222.16-178.15,31.1-63.24,19.91-158,2.26-237.75Z"/><path class="a04a5862-a23f-4d5b-8157-291200a23e7b" d="M99.44,538.63c3.32,6.75,6.78,13.26,10.33,19.62l102.55-46.64L189.55,362.9a5.17,5.17,0,0,1,.84-2.46L302.93,253.32c2.58-2.45,5.66-.55,4.63,2.86L275.64,361.32l48-25.52c3.14-1.67,5.6,1,3.7,4l-52.31,82.69a6.27,6.27,0,0,1-2,1.28l-44,6.72,19.31,38.63,98-69.1a2.91,2.91,0,0,1,3.89.64l25.35,34.56-7-49.72a2.76,2.76,0,0,1,2.69-3.2l33.86-1.15c3.39-3.79,19.55-28.31,24.52-22.72l34.36,38.68.52-.23c-3.75-14.16-9.54-44.66-9.54-44.66a3,3,0,0,1,2.06-3.24l115.5-29.81L555,281.47l-34.08,29.14a6.13,6.13,0,0,1-2.24.64l-97.22-14.43c-3.46-.51-3.92-3.94-.73-5.35l49.12-21.7-98.67-44.28c-3.25-1.45-2.66-5,.88-5.36L529.6,204.88a5.3,5.3,0,0,1,2.41,1L630.82,321.3l77.85-35.4c-4.76-20.19-9.8-39.18-14.51-56.11-4.43-15.92,6.35-33.94,18.87-48.88H95.92c12.63,15,23.58,33.16,19.13,49.18C91.1,316.23,58.32,455,99.44,538.63Z"/></svg>