<svg id="b19e5d71-e3d9-45e7-a915-2e4ddcd6e7d9" data-name="Capa 1" xmlns="http://www.w3.org/2000/svg" viewBox="0 0 472.3 484.14"><title>acura</title><path d="M314.57,527.47c35,12.46,71.34,16.28,108.31,15,27.83-.9,55.3-4.65,81.89-13.63,47.36-16.1,81-46.67,98.2-94.13,9.77-27.07,13.07-55.11,13-87a254.09,254.09,0,0,0-7.86-65.05c-7.18-28-19.73-53.1-40.41-73.77-22.12-22.1-49.21-35.06-79.17-42.46S428,157,397.13,158.13c-25.34,1-50.41,4.13-74.8,11.76-29.88,9.38-56,24.75-76,49.23-16.94,20.6-27.19,44.39-32.75,70.18-7.71,34.56-8.26,69.47-3.4,104.46,3.65,25.21,11,49.18,24.55,71C253.61,495.42,281,515.52,314.57,527.47ZM507,189.4c36.89,17.49,61.16,46.14,74.56,84.38,7,20.37,10.32,41.37,11.34,62.81,1.38,30.18-1,59.94-10.77,88.8-10.18,29.92-26.66,55.47-52.86,74.06-4.86,3.39-10.17,6-15.76,9.26-2.34-15.51-4.46-30.06-6.66-44.57-5-34.34-10.55-68.55-15-102.92-2.37-18.52-9.7-35.26-15.78-52.42-15.77-44.33-32-88.51-47.95-132.72-.39-1.06-.67-2.17-1.14-3.63C455.18,172.67,481.82,177.52,507,189.4ZM403,172.67h17.66v137.5H403Zm-4.94,166.21c1.19-2.66,2.52-3.89,5.68-3.69,5.57.28,11.3.14,16.87,0a3.78,3.78,0,0,1,4.16,2.7q25.49,56.73,51.06,113.45c8.46,18.91,17.06,37.89,25.62,56.84.55,1.49,1.24,3,2.19,5.12-26.54,10.8-54.12,15.59-82.28,16.61-35.12,1.31-69.1-5.39-102.55-17.51,3.52-7.75,6.71-14.62,9.83-21.51Q363.4,415,398.06,338.88ZM238.12,286.1c8.63-31.77,24.37-59.07,50.59-79.68,22.2-17.52,47.86-27.26,75.72-31.4,10.28-1.57,20.88-2.15,32.18-3.21-4.74,13.49-9,25.76-13.32,38.06C367.82,254.19,352,298.4,337,342.84c-3,9.08-3.66,19-5.29,28.52q-9.42,58-18.78,116.16c-1.07,6.4-2.09,12.81-3.24,20-4.72-2.56-9.06-4.5-13.05-7.11-23.39-15.15-39.21-36.43-50.23-61.65-10.85-25.07-15.39-51.59-16-78.78C229.67,335,231.49,310.29,238.12,286.1Z" transform="translate(-178.7 -157.84)"/><path d="M544.78,595.44c.28-10.61-6.78-22.53-21.4-22.49-20.42.09-40.89,0-61.32,0-.46,0-.94,0-1.43.09v68.75h16.9V587.88h40.93c.8,0,1.64,0,2.47,0,3.79.25,6.34,2.14,6.87,5.48.77,4.85-.79,8.47-6.24,9.29a23.36,23.36,0,0,1-3.23.15H483.26c-.5,0-1,.07-1.61.09,1,4.44,2,8.66,2.83,12.94.31,1.55.92,1.86,2.41,1.85,10.06-.06,20.11-.05,30.17-.05,5.4,0,9.13,3,10.06,8.28.48,2.86.39,5.81.59,8.73.09,2.37.21,4.73.26,7.12h16.5c0-4.35,0-8.57,0-12.8a34.71,34.71,0,0,0-.64-5.35c-1-4.72-3.15-8.75-7.54-11.41C542,608,544.6,602.31,544.78,595.44Z" transform="translate(-178.7 -157.84)"/><path d="M239.47,573.83a1.62,1.62,0,0,0-1.64-.85c-5.58,0-11.14,0-16.66,0a1.58,1.58,0,0,0-1.58.9Q199.31,607.46,179,641a5.64,5.64,0,0,0-.32.88c6.44,0,12.77,0,19.08,0A1.85,1.85,0,0,0,199,641q3.17-4.8,6.23-9.63a2.06,2.06,0,0,1,2-1.12q19.49,0,39,0H248c-.49-.84-.85-1.44-1.24-2-2-3.28-4.13-6.55-6.11-9.86a2.29,2.29,0,0,0-2.25-1.26c-7.76.05-15.53,0-23.29,0h-2c5.55-9.32,10.9-18.36,16.4-27.55,2.56,4.25,5,8.31,7.37,12.35q11.66,19.54,23.28,39.08a1.59,1.59,0,0,0,1.61.88c5.94,0,11.92,0,17.87,0a10,10,0,0,0,1.09-.1c-.22-.38-.32-.62-.48-.84Q259.89,607.41,239.47,573.83Z" transform="translate(-178.7 -157.84)"/><path d="M643.45,629.35Q626.62,601.7,609.84,574a1.9,1.9,0,0,0-1.86-1c-5.5,0-11,0-16.54,0a1.79,1.79,0,0,0-1.7,1Q570.15,606.48,550.46,639c-.54.89-1.06,1.81-1.64,2.79a4.65,4.65,0,0,0,.6.1c6.14,0,12.3,0,18.41,0a2.08,2.08,0,0,0,1.41-.92c2.15-3.18,4.25-6.37,6.23-9.62a2.05,2.05,0,0,1,2-1q19.56,0,39,0h1.74a13.21,13.21,0,0,0-.75-1.34c-2.2-3.54-4.45-7.08-6.6-10.65a2.22,2.22,0,0,0-2.2-1.18c-7.8.05-15.62,0-23.41,0h-1.87c5.53-9.31,10.89-18.36,16.38-27.53l.71,1.12q14.85,24.94,29.67,49.89a2.32,2.32,0,0,0,2.34,1.31c5.66-.05,11.29,0,16.93,0,.48,0,1,0,1.6-.06-.37-.7-.71-1.23-1-1.76Q646.71,634.73,643.45,629.35Z" transform="translate(-178.7 -157.84)"/><path d="M449,573.07H432.17v1.64q0,22,0,44a21.49,21.49,0,0,1-.1,2.54,6.76,6.76,0,0,1-5.3,6.41,20.82,20.82,0,0,1-5,.75c-8.25.08-16.52.12-24.8.06a31,31,0,0,1-6.67-.88,6.31,6.31,0,0,1-4.76-5.17,16.27,16.27,0,0,1-.34-3.32c0-14.84,0-29.69,0-44.53v-1.48H367.92v1.77c0,13.76,0,27.53,0,41.29a41.74,41.74,0,0,0,.52,7c1.09,6.85,4.39,12.31,10.69,15.64a27.35,27.35,0,0,0,12.62,3.13c10.26.12,20.49.12,30.76.07a46.37,46.37,0,0,0,7.52-.65c6.08-1,11.3-3.65,14.86-8.92a26.11,26.11,0,0,0,4-14.88c0-14.22,0-28.44,0-42.64Z" transform="translate(-178.7 -157.84)"/><path d="M305.93,573c-1.33,0-2.7,0-4.05.09-6.29.46-12,2.25-16.35,7-3.94,4.32-5.62,9.63-5.88,15.32-.31,6.51-.22,13-.2,19.55a43.57,43.57,0,0,0,.46,6.85c.92,6.46,3.38,12.12,9,16a25,25,0,0,0,14.46,4.11c17.74,0,35.41,0,53.09,0h1.61V627.67h-2.24q-25,0-50,0a21.91,21.91,0,0,1-2.3-.08c-3.16-.46-5.37-2.14-6.13-5.29a26.89,26.89,0,0,1-.78-5.72c-.08-6.16,0-12.3,0-18.47a22.84,22.84,0,0,1,.34-3.88c.71-4.33,3-6.44,7.4-6.92a19.14,19.14,0,0,1,2-.08h51.65V573H305.93Z" transform="translate(-178.7 -157.84)"/></svg>