<svg id="bf79d812-5cf9-4fd5-ba23-8d126077c827" data-name="Capa 1" xmlns="http://www.w3.org/2000/svg" viewBox="0 0 768 765.39"><title>alfaromeo</title><path d="M19.78,459.11l7.32,32.43,10,32,13.1,30.76,15.2,29.59L83.58,612l20.33,26.46,22.68,24.59,24.65,22.65,26.64,20.16L206,724l29.85,15.31,30.87,13,32,9.85,32.6,7.3,33.43,4.27L398,775.14l33.49-1.49,33.37-4.32,32.51-7.28,31.94-10,31-12.93L590,723.83l28.27-18.08,26.6-20.15,24.72-22.71,22.71-24.53,20.33-26.56,18.1-28.08L746,554.09l12.82-30.82,10-31.83,7.35-32.56,4.26-33.32L782,392.31l-1.58-33.24-4.26-33.2-7.41-32.54-10-31.93L746,230.72l-15.39-29.58L712.45,173l-20.39-26.51-22.74-24.66L644.57,99.18,617.94,79.05,590,60.93,560.1,45.65,529.26,32.84l-31.94-10-32.78-7.32-33.34-4.3L398,9.75l-33.49,1.56-33.4,4.29L298.47,23l-31.92,10-31,12.8L206,61.08,177.75,79.17,151.12,99.35,126.52,122l-22.8,24.71-20.2,26.48-18.2,27.95L50,230.94,37,261.68,27,293.52l-7.23,32.59-4.3,33.21L14,392.5l1.48,33.32ZM21,359.82l4.17-32.68,7.23-32.2,9.8-31.39,12.79-30.29L70.08,204l17.86-27.56,20-26.09,22.4-24.41,24.31-22.34,26.27-19.9,27.71-17.81,29.29-15.09L268.4,38.06l31.43-9.77L332.05,21,365,16.75l33-1.52,32.85,1.48,32.84,4.22,32.23,7.26L527.35,38l30.4,12.64L587.26,65.7l27.56,17.84,26.29,19.89,24.38,22.3,22.4,24.35,20,26.09,17.86,27.7L740.91,233,753.6,263.3l9.86,31.42,7.26,32.11L775,359.56l1.57,32.75L775,425.12l-4.21,32.82L763.55,490l-9.88,31.38L741,551.77,725.92,581,708,608.68l-19.89,26.19L665.64,659l-24.4,22.32L615,701.28l-27.74,17.83L558,734.17l-30.65,12.77-31.42,9.8-32,7.2L431,768.19l-33,1.45-32.71-1.42L332.3,764l-32.23-7.16L268.62,747l-30.46-12.74-29.29-15.07-27.75-17.79-26.39-19.85L130.54,659.2,108.05,635,88.12,608.84,70.23,581.07,55,552l-12.7-30.34-9.88-31.52-7.27-31.94L21,425.37,19.56,392.5Z" transform="translate(-14 -9.75)"/><path d="M302.79,649.07l22.83-3.59,22.47-5.72,21.59-7.69,21.17-9.64,19.83-11.54,18.94-13.28,17.55-15,16.16-16.39L478,548.33l12.76-19.05,11.15-20.21L511.31,488l7.11-21.84,5.1-22.49,3.27-22.8,1.05-23-1.05-23L523.52,352l-5.1-22.33-7.11-21.89-9.42-21.08-11.15-20.27L478,247.3l-14.65-17.77L447.17,213l-17.55-15-18.94-13.18-19.83-11.58-21.17-9.71L348.09,156l-22.47-5.76-22.83-3.62-23.11-1.54-11.46.14V650.39l11.46.4Zm-17-340,2.26-3.54,3.27-2.75,3.62-1.9,4-1.13,4.2-.11,4,.87,3.8,1.87,3.27,2.56,2.35,3.35h3.49l-.18-3.63-.37-3.78-.62-3.71-.84-3.63-5-1.69-8.37-3.55-3.22-2-2.16-2.51-1.14-2.59-.16-3.08.93-2.94,1.61-2.59,2.59-1.93,2.94-1.24,3.15-.62,3.43.29,2.41,1,2.5,1.19,2.32,1.51,2.65,2.12,4.11,2.83,4.55,2.69,5.43,2.53-.33,6.35.83,6.37,2,6.33,3.24,5.59,4.11,4.85,5.16,4-5.06,4-3.87,4.76-3.3,5.43-2,6-.74,6.11.4,7-5.35,1.64-5.28,2.49-4.85,3-4.45,3.48-3.71,2.9-2.81,1-3,.16-3-.9-2.32-1.84-1.64-2.56-.8-2.88.31-3,1.23-2.79,3.09-4.08,5.32-3.71,5.93-3.06,2.53-1.31,1-3,.56-4.73.18-4.82-3.27-.2L314.35,329l-3.16,2.57-3.86,2-4.17.81-4.14,0-4-1.11-3.62-1.89-3.06-2.78L286,325.2l-1.54-4-.68-4.08.68-4.06Zm167.46-39.23,5.66,6.07,5,6.51,4.63,6.84,4.11,7.11,3.53,7.55,2.75,7.58,2.31,7.9,1.05,8.06.75,7.68-.35,7.88-1.17,7.79-1.76,8.57-3,8.16-4.33,7.81-5.37,7-6.64,6.26-5.35,4.15-7.17,3.57-7.57,2.5-7.9,1.26H353.8l-1.17.52-1.05,1-.68,1.14-.25,1.43.25,1.23.68,1.11,1.05,1,1.17.52H421l7,.22,6.79,1.23,6.59,2.35,6.08,3.53,5.53,4.29,4.7,5.14,3.71,6,2.9,6.37,1.61,6.8.65,7.05-.65,6.83-1.61,6.89-2.9,6.31-3.71,5.91L453,482.1l-5.53,4.37-6.08,3.34-6.59,2.45L428,493.5l-7,.11h-66.3l-1.05.63-1,.8-.65,1.1v2.52l.65,1,1,.94,1.05.5,1.48.08h51.16l5.63.65,5,1.63,4.61,2.95,3.89,3.87,3,4.58,1.57,5,.74,5.47-.74,5.36-1.57,5.14-3,4.56-3.89,3.8-4.61,2.86-5,1.88-5.63.57H374l-.49.25-.56.33-.5.75-.27.65.27.78.5.74.56.31.49.24H400l2.44.25,2.57.74,1.88,1.31,1.73,2,.93,2.27.4,2.48-.31,2.34-.83,2.31-2.17,3.8-3.82,3.47-4.3,3.28-2.32,1.31-1,.79,1-2v-2.1l-.58-2.2L394.12,572l-2.07-.92H369.16l-4.51-.1L360,569.86l-4.11-2.29-3.46-3.16-2.65-3.74-1.61-4.5-.71-4.65.71-4.57,1.61-4.48,2.65-3.78,3.46-3.16,4.11-2.27,4.61-1,4.51-.2h33l1.32-.2,1.27-.74.78-1.05.27-1.3-.27-1.45-.78-1-1.27-.72-1.32-.14H349.07l-6.64-.37L336,523.41l-6-3-5.07-4.08-4.32-5-3.21-5.73-2-6.29-.74-6.53.74-6.57,2-6.38,3.21-5.81,4.32-4.89,5.07-4,6-2.86,6.43-1.73,6.64-.45h68l1.3-.78.92-1.32.28-1.39-.28-1.57-.92-1.15-1.3-.74-1.58-.2h-66.4l-8.55-.88-8.16-2.39-7.66-3.76-7-5-6-6.09-4.79-7.07-3.52-7.68-2.07-8.27-.8-8.45.8-8.57,2.07-8,3.52-7.81,4.79-7,6-6.09,7-4.95,7.66-3.82,8.16-2.22,8.55-1.21H384l2.93-.08,1.92-.25,1.67-1.14,1.08-1.65.43-1.78-.43-1.71-.93-.77-1.33-.59H342.49l.28-6.52,1.61-6.31,3.4-5.54,4.85-4.4,5.62-3.22,6.4-1.33h16v-5.22h-16l-6.4-.74-5.87-2.59-5-4.08-3.58-5.49-1.82-6.11.06-6.52h34.26l1.64-5.6,2.16-3.55,1.06-1.59h55.11l11.44-12.64Zm-28.12-16.77H334.34v-8.81h90.83Zm0,1.56v9H334.34v-9ZM409,219.15l.5-1.81.71-1.6,1.27-1.52,1.48-1.16,1.89-.77,1.79-.24,1.82.15,1.82.49,1.7.87,1.42,1.41,1,1.54.68,1.79.25,1.81-.25,2-.68,1.62-1,1.73L422,226.64l-1.7,1.09-1.82.46-1.82.06-1.79-.28-1.89-.73L411.52,226l-1.27-1.33-.71-1.73-.5-1.81Zm-18.69,0,.28-1.81.87-1.6,1.26-1.52,1.55-1.16,1.67-.77,2-.24,1.76.15,1.86.49,1.73.87,1.3,1.41,1.17,1.54.56,1.79.15,1.81-.15,2-.56,1.62-1.17,1.73-1.3,1.19-1.73,1.09-1.86.46-1.76.06-2-.28-1.67-.73L392.76,226l-1.26-1.33-.87-1.73-.28-1.81Zm-19,0,.44-1.81.89-1.6,1.24-1.52,1.54-1.16,1.7-.77,1.89-.24,1.91.15,1.86.49,1.66.87L385.9,215l.81,1.54.83,1.79.19,1.81-.19,2-.83,1.62-.81,1.73-1.39,1.19-1.66,1.09-1.86.46-1.91.06-1.89-.28-1.7-.73L374,226l-1.24-1.33-.89-1.73-.44-1.81Zm-18.75,0,.49-1.81.84-1.6,1.2-1.52,1.49-1.16,1.73-.77,1.85-.24,2,.15,1.7.49,1.67.87L367,215l1.08,1.54.56,1.79.34,1.81-.34,2-.56,1.62L367,225.45l-1.32,1.19L364,227.73l-1.7.46-2,.06-1.85-.28-1.73-.73L355.16,226l-1.2-1.33-.84-1.73-.49-1.81Zm-18.79,0,.5-1.81.74-1.6,1.24-1.52,1.48-1.16,1.88-.77,1.83-.24,1.76.15,1.88.49,1.64.87,1.42,1.41,1.05,1.54.65,1.79.28,1.81-.28,2-.65,1.62-1.05,1.73-1.42,1.19-1.64,1.09-1.88.46-1.76.06-1.83-.28-1.88-.73L336.32,226l-1.24-1.33-.74-1.73-.5-1.81Zm0,14.38h91v8.81h-91Z" transform="translate(-14 -9.75)"/><polygon points="366.62 93.8 368.04 96.66 370.02 99.23 372.31 101.42 374.87 103.18 377.9 104.42 380.96 105.33 384.23 105.48 387.38 105.2 390.41 104.42 393.38 103.03 395.94 101.13 398.23 98.87 400.08 96.17 401.38 93.34 402.31 90.3 402.8 87.08 402.8 84.03 402.12 80.91 401.29 77.88 399.59 74.94 397.61 72.55 395.2 70.38 392.26 68.75 389.18 67.7 385.78 67.08 384.23 67.08 382.69 67.08 379.47 67.7 376.63 68.84 373.88 70.57 371.32 72.62 369.18 75.31 367.49 78.31 366.13 81.49 365.57 84.52 365.23 87.75 365.69 90.88 366.62 93.8"/><polygon points="383.58 66.58 385.22 66.51 386.89 65.8 388.37 64.78 389.67 63.28 390.69 61.44 391.19 59.12 391.19 57.34 390.69 55.35 389.36 53.36 387.94 52.12 386.33 51.27 384.3 50.78 383.09 50.78 377.13 50.66 376.91 66.51 383.09 66.58 383.58 66.58"/><path d="M37.17,455.88l6.83,31,9.67,30.43,12.14,29.43,14.8,28.29,8.1,12.45L98,602l19.24,25.22,21.66,23.55,3.22,2.89,14.15,12.8,6.27,5.7,25.33,19.47,27,17.19,8.31,4.3,20.05,10.41,29.57,12.19,30.4,9.59,31.27,6.83,31.64,4.29L398,757.73l1-.08,31-1.24,31.74-4.29,31.08-6.83,6-1.88,24.47-7.71,29.66-12.19L581.2,708.8l27.07-17.19,25.37-19.3L654,653.7l3.31-2.91,21.47-23.56L698.18,602l12.42-19.3,4.85-7.61,14.74-28.29,12.33-29.34L752,487l7-31.16,4.17-31.56,1.42-31.95-1.42-31.63L759,329.05l-7-31.13-9.48-30.22-12.33-29.55-14.74-28.21-4.85-7.57-12.42-19.29-19.44-25.26L657.27,134.2,654,131.3l-20.32-18.53L608.27,93.42,581.2,76.22,552.93,61.47,523.27,49.36,498.8,41.54,493,39.73l-31.29-6.79L430,28.61l-31-1.27h-.92l-32,1.27-31.64,4.33-31.15,6.79-30.52,9.63L243.19,61.47,223.14,71.93l-8.31,4.32-27,17.17-25.33,19.26-6.27,5.78L142.13,131.3l-3.28,3-21.41,23.54L98,183.08l-9.24,14.34-8.1,12.52L65.87,238.15,53.67,267.7l-9.61,30.22-6.89,31.13-4.32,31.69-1.3,31.63,1.3,31.95Zm688-139.25,3.58,1.82,3.4,2.24,3.21,2.78,2.88,3.32,2.47,3.71,2,3.88,1.76,4.43,1.24,4.58.65,4.65.21,4.86-.31,4.74-.74,4.56-1.17,4.07-1.7,4-2,3.79-2.81,3.51-3.25,3.12-3.67,2.78-3.77,2.08-4.3,1.89-4.29,1.15-4.36.62-3.55.12H710l-4.2-.12-4.14-.69-3.89-1.44-4.18-1.9-3.76-2.32L686.5,380l-3.06-3.33-2.63-3.82-2.07-4-1.88-4.11-1.15-4.23-.77-4.36-.43-4.77.28-4.65.59-4.76,1.2-4.12,1.51-3.94,2-3.59,2.48-3.63,2.9-3.23,3.27-2.81,3.68-2.32,3.65-1.93,4-1.26,3.83-1,4.32-.32h4.42l4.45.32,4.14,1.14Zm-23.48-98.5,18.69,37.23-13.28,6.75-10.2-20.44-10.13,5.24,8.64,17-13.59,6.85-8.8-17-10.7,5.45,10.36,20.37-14.31,7.12-18.91-37.37Zm-96-107.73,15.45,13.74L606.6,160.66,641,142.05l15.39,13.65L619.3,215.52l-14.43-12.67,23.88-36.22L589.36,189l-7.79-6.86L598,139.56l-32.38,28.29-14.52-12.92ZM460.92,93.49l.5-4.06.83-4,1.48-4.08,1.86-3.91,2.5-3.72,2.81-3.27,3-2.77,3.12-2.36,3.46-2.21,4.05-1.53,4.11-1L493,60l4.57-.2,1.21.07,3.46.2,4.7,1,4.6,1.52,4.36,1.82,4.23,2.45,3.58,2.66,3.31,3,2.78,3.34,2.57,3.49,1.82,4.08,1.39,4.29.92,4.35.28,4.46-.28,4.56-.92,4.37-1.39,4.08-1.55,3.78-2,3.76-2.56,3.12-3.06,3.19-3.4,2.78-3.86,2.26-4.17,1.82-4.2,1.28-4.51.68-4.64.13-1.48-.13-2.93-.18-4.48-.74-4.21-1.33-4.38-1.7-4.33-2.27-3.8-2.54-3.31-3-2.87-3-2.41-3.43L464,110.08l-1.55-4-1-4.32-.68-4.24ZM374.38,44.78l24.62.28h1.83l5,.25,3.37,1,3.4,1,2.6,1.56,2.71,1.81,2.14,2.07,1.85,2.52L423.38,58l1.05,3.06.68,3,.06,2.86L424.93,70l-.56,3-1,2.46-1.23,2.37-1.67,2.47-2,2L416.18,84l-2.53,1.38-2.47.86,21.66,28.6-22.9-.31-17.45-25.8-.31,25.52-18.54-.15Zm-82.62,105.9,21.69-8.34L335.76,136l22.62-4.46,23.17-2.38,17.45-.37,5.6-.1,23.29,1.29,22.93,3.54L473.44,139l21.93,7.21,3.43,1.53,17.8,7.77,20.42,11,19.5,12.64,18.22,14.24,16.87,15.93,15.54,17.19,13.94,18.43,12.27,19.56L644,285.16l8.9,21.32L654,310.2l5.66,18.42,4.94,22.48,3.06,23,.83,23-.83,23.08-3.06,23-4.94,22.62L654,484.2l-1.08,3.58L644,509.27l-10.62,20.5-12.27,19.57L607.15,568l-15.54,17.06L574.74,600.9l-18.38,14.24L537,628l-20.42,10.9-17.8,7.71L495.37,648l-21.93,7.36-22.62,5.33-22.93,3.57-23.29,1.48-5.6-.08-17.45-.39-23.17-2.57-22.62-4.38L313.45,652l-21.75-8.2L271,633.58l-20-11.89-18.69-13.47-9.18-7.79-8.59-7.3-16.16-16.52-14.8-17.76-13.1-19-11.37-20.27-2.9-6.09-7-14.86-7.16-20.05-.5-1.73-6-22.33-3.93-22.8-2-23.05V385.59l2-22.89,3.93-22.82,6-22.28.5-1.77,7.16-20.22,7-14.88,2.9-6.1,11.37-20,13.1-19.05,14.8-17.88,16.16-16.54,8.59-7.22,9.18-7.81L251,172.54l20-11.88Zm-91.2-44.27,62.78,40.21-15.95,11.45-11.3-7.3-21,15.21L219,178.75l-15.88,11.42-20.36-70.94Zm-57.17,48.35,11.34,9.59-14,16.69,8.49,7.15,11.93-14.12,12,9.84-11.77,14,21.5,18-12.2,14.62-53.46-44.36ZM82.84,244.63l47.86,22.58,9.14-19,2.29,1.1,12.54,6-17.3,36.2L74.53,261.68ZM53.89,336.88l72.51-17.5-2.78,19.56-12.94,3-3.5,25.54L119,373.6l-2.63,19.2L50.83,358.2Z" transform="translate(-14 -9.75)"/><polygon points="387.38 323.55 384.02 323.31 383.74 323.31 380.37 323.55 377.34 324.32 374.44 325.56 371.56 327.21 369.31 329.39 367.55 331.95 366 334.8 365.14 337.84 364.64 340.9 364.83 344.1 365.38 347.31 366.68 350.2 368.26 352.95 370.51 355.28 373.05 357.32 375.86 358.8 378.89 359.79 381.98 360.24 384.02 360.24 385.22 360.24 388.37 359.79 391.34 358.8 394.24 357.32 396.74 355.5 399.1 353.23 401.07 350.48 402.31 347.6 403.11 344.38 403.36 341.26 402.86 338.04 402.06 334.8 400.57 331.74 398.66 329.39 396.25 327.21 393.38 325.56 390.6 324.32 387.38 323.55"/><polygon points="394.8 351.42 396.87 335.17 371.16 339.97 394.8 351.42"/><polygon points="393.9 133.15 394.74 132.59 393.9 132.02 373.39 117.39 381.3 142.19 393.9 133.15"/><polygon points="266.24 366.9 265.59 379.5 265.5 392.05 265.99 404.66 374.38 404.66 374.38 595.27 385.65 603.63 397.61 610.91 410.37 617.3 424 623.34 424 404.66 502.6 404.66 502.6 354.26 424 354.26 424 159.64 424 154.73 412.6 158.98 392.05 169.64 374.38 180.55 374.38 354.26 267.56 354.26 266.24 366.9"/></svg>