<svg id="Capa_1" data-name="Capa 1" xmlns="http://www.w3.org/2000/svg" viewBox="0 0 175.75 108.71"><defs><style>.cls-1{fill:#1d1d1b;fill-rule:evenodd;}</style></defs><path class="cls-1" d="M459.59,454V430.63H450V454Z" transform="translate(-311.5 -346.02)"/><path class="cls-1" d="M408.61,444.28V431h-9.33v10.16a18.64,18.64,0,0,1-.3,4.54c-.65,2.13-2.89,3.08-5.19,3.08-3.19,0-4.67-1.24-5.26-3.19a11.47,11.47,0,0,1-.3-2.07c-.06-.77,0-1.6,0-2.48V431h-9.45v13.35a8.89,8.89,0,0,0,2.66,6.79c2.84,2.78,7.62,3.6,12.05,3.6,5.38,0,9.51-.77,12.46-3.66a8.65,8.65,0,0,0,2.66-6.79Z" transform="translate(-311.5 -346.02)"/><path class="cls-1" d="M362.77,442.62a7.84,7.84,0,0,0-1.41-.11H350.72a8.38,8.38,0,0,0-1.41.11,9,9,0,0,0,.88-1L355,433.7a13.71,13.71,0,0,0,1.06-2.06,16.48,16.48,0,0,0,1.06,2.12l4.91,8a6.17,6.17,0,0,0,.76.88ZM380.61,454l-21.26-31.89H347.42l3.13,3.72a1.22,1.22,0,0,0,.29.18,1,1,0,0,0-.29.17L332,454h10.75l2.89-4.78a1.55,1.55,0,0,0,.18-.59,5.92,5.92,0,0,0,.71.12h19.2a1.59,1.59,0,0,0,.65-.12.78.78,0,0,0,.12.47l3,4.9Z" transform="translate(-311.5 -346.02)"/><path class="cls-1" d="M447.36,442c0-2.6-1.06-5.61-4.37-9.8l-8-10.1H423.91l6.32,7.09a21.67,21.67,0,0,0,2.42,2.24,10.44,10.44,0,0,0-5-1.24,22,22,0,0,0-10.69,2.6,10.62,10.62,0,0,0-5.91,9.51,11,11,0,0,0,3.37,7.8c4.25,4.25,12,4.66,14.83,4.66,4.19,0,10.75-.94,14.47-4.31a11.1,11.1,0,0,0,3.66-8.45Zm-9.21.3a6,6,0,0,1-3.61,5.26,11.4,11.4,0,0,1-5.31,1.12,12.58,12.58,0,0,1-5.38-1.18,6,6,0,0,1-3.54-5.08c0-2.54,1.95-4.55,4.25-5.56a11.25,11.25,0,0,1,4.49-.88,13.59,13.59,0,0,1,4.67.77c2.65,1.12,4.43,3.25,4.43,5.55Z" transform="translate(-311.5 -346.02)"/><path class="cls-1" d="M456.53,346a30.62,30.62,0,0,0-19,6.62,30.72,30.72,0,0,0-38.1,0,30.72,30.72,0,0,0-38.1,0,30.73,30.73,0,1,0,0,48.21,30.72,30.72,0,0,0,38.1,0,30.72,30.72,0,0,0,38.1,0,30.72,30.72,0,1,0,19-54.83ZM356.25,395.83a23.69,23.69,0,1,1,0-38.17,30.71,30.71,0,0,0,0,38.17Zm5-5a23.67,23.67,0,0,1,0-28.15,23.71,23.71,0,0,1,0,28.15Zm33.07,5a23.72,23.72,0,0,1-28.05,0,30.71,30.71,0,0,0,0-38.17,23.72,23.72,0,0,1,28.05,0,30.75,30.75,0,0,0,0,38.17Zm5-5a23.67,23.67,0,0,1,0-28.15,23.71,23.71,0,0,1,0,28.15Zm33.07,5a23.72,23.72,0,0,1-28.05,0,30.71,30.71,0,0,0,0-38.17,23.72,23.72,0,0,1,28.05,0,30.75,30.75,0,0,0,0,38.17Zm5-5a23.67,23.67,0,0,1,0-28.15,23.71,23.71,0,0,1,0,28.15Zm19,9.61a23.8,23.8,0,0,1-14-4.6,30.75,30.75,0,0,0,0-38.17,23.68,23.68,0,1,1,14,42.77Z" transform="translate(-311.5 -346.02)"/></svg>