<svg id="fe916be8-95c2-451c-a68c-fc08ea73ac49" data-name="Capa 1" xmlns="http://www.w3.org/2000/svg" viewBox="0 0 357.5 219.46"><title>audi</title><path d="M396.07,424.32l14.78,16.45c-1.27,0-2.47-.08-3.74-.08-20.58,0-37.32,7.84-37.32,24.72,0,13.61,16.74,24.73,37.32,24.73s37.32-11.12,37.32-24.73c0-13-17-30.45-25.64-41.09Zm28.81,40.6c0,7-8,12.77-17.77,12.77s-17.82-5.73-17.82-12.77,8-12.76,17.82-12.76S424.88,457.89,424.88,464.92Z" transform="translate(-165.94 -271.79)"/><path d="M346.34,468.62c0,13.52-22.16,13.52-22.16,0V442.09H305.1v28.34c0,27.64,59.86,27.88,59.86,0V442.09H346.34Z" transform="translate(-165.94 -271.79)"/><rect x="282.91" y="170.31" width="20.5" height="47.87"/><path d="M239.76,426l6.63,8.07L209.57,490h22.1l6-9.88h42.05L286,490H309.1l-44.22-64Zm5.83,41,12.66-20.93L271.48,467Z" transform="translate(-165.94 -271.79)"/><path d="M460.93,271.79A62.9,62.9,0,0,0,421.5,285a63.08,63.08,0,0,0-77,.1A63.27,63.27,0,0,0,267.6,285a63.34,63.34,0,1,0,.09,100.65,63.06,63.06,0,0,0,76.93-.21,63.07,63.07,0,0,0,77,0,63.33,63.33,0,1,0,39.29-113.62Zm-1.61,119.43a56.07,56.07,0,0,1-37.73-15.28c-10.87,9.79-24.06,15.61-39.28,15.38a55.52,55.52,0,0,1-37.63-15.24,57,57,0,0,1-39.41,15.33,56.37,56.37,0,0,1-37.58-15.11,57,57,0,0,1-5.59,4.55,56,56,0,0,1-84.53-23.68,28.24,28.24,0,0,1-5.76-1.09,61,61,0,0,1,55.31-81.72,27.8,27.8,0,0,1,2.67,4.93h.27a56.11,56.11,0,0,1,38.48,16.13l-.45-7.93a60.94,60.94,0,0,1,35.79-13.17,28,28,0,0,1,2.88,4.92,58.45,58.45,0,0,1,38.52,16l-.42-7.55a60.07,60.07,0,0,1,36-13.44,28.44,28.44,0,0,1,2.67,4.91h.26c14.21.19,28.4,6.69,38.56,16.39l-.52-8a61.17,61.17,0,0,1,36.06-13.46c.48.73,2.57,4.93,2.92,4.93,30.11,1.4,54.15,19.44,55.38,56.89C517.16,366.82,490.22,391.64,459.32,391.22Z" transform="translate(-165.94 -271.79)"/><path d="M248.56,356A59.59,59.59,0,0,1,245,334.51a60.58,60.58,0,0,1,13.13-36.95c3.11-.09,6.27-.14,8.07-.14A52.94,52.94,0,1,0,217.65,387c.81-1,1.72-2.15,2.61-3.29a50.82,50.82,0,0,0,8.35.81,48.85,48.85,0,0,0,30.15-9.93l7.35.14a57,57,0,0,1-11.83-17.69A27.86,27.86,0,0,1,248.56,356Zm-19.9,26a46.63,46.63,0,1,1,27-85.07,63.1,63.1,0,0,0,0,76.76C250,377.47,240.35,382.17,228.66,382Z" transform="translate(-165.94 -271.79)"/><path d="M276.07,320.25a9.66,9.66,0,0,1,2.86-4c-1.72-6.14-6.68-12.59-11.2-17.22a53.86,53.86,0,0,0-14.67,35.63c-.25,9.35,3.35,24.14,10.47,32.4a39.91,39.91,0,0,0,4.28,5l.19-6.72a46.32,46.32,0,0,0,10.47-29.21A49,49,0,0,0,276.07,320.25Zm-8.38,41.61a46.46,46.46,0,0,1-.05-53,46.6,46.6,0,0,1,8.3,27.16A46.14,46.14,0,0,1,267.69,361.86Z" transform="translate(-165.94 -271.79)"/><path d="M352.74,320.18a9.64,9.64,0,0,1,2.89-4c-1.49-5.24-6.82-12.9-11.06-17.13a52.77,52.77,0,0,0,.29,72.81l.16-6.28c5.7-9.15,10-18,10.11-29.54A48.14,48.14,0,0,0,352.74,320.18Zm-8.17,41.37a46.6,46.6,0,0,1-.05-52.48,46.65,46.65,0,0,1,.05,52.48Z" transform="translate(-165.94 -271.79)"/><path d="M402.59,355.82a60.93,60.93,0,0,1,9.53-58.44l7.94,0c-9.88-9.28-22.37-14.92-36.27-15.11a52.8,52.8,0,0,0-37.11,14.52,55.67,55.67,0,0,1,15.39,39.26,56.89,56.89,0,0,1-15.16,37.77,52.51,52.51,0,0,0,24.51,13c.81-1.07,1.72-2.19,2.61-3.33a51.14,51.14,0,0,0,8.35.82c12,.18,22.11-4.21,30.69-10l6.76-.19a57.31,57.31,0,0,1-11.5-17.32A26.68,26.68,0,0,1,402.59,355.82Zm-20.15,26a46.49,46.49,0,0,1-26-8.3,63.11,63.11,0,0,0-.08-76.48,46.43,46.43,0,0,1,53.23-.12,63.13,63.13,0,0,0,.1,76.52C404,377.21,394.25,382,382.44,381.84Z" transform="translate(-165.94 -271.79)"/><path d="M509.73,316c-4.21-14.94-25.43-33.8-48.93-33.8a53.08,53.08,0,0,0-37.09,14.49A56.44,56.44,0,0,1,439.21,336c-.19,13.54-5.66,28.06-15.31,37.78a53.6,53.6,0,0,0,24.54,13c.81-1,1.71-2.16,2.62-3.34a46.16,46.16,0,0,0,8.34.85A49,49,0,0,0,506.83,320,9.44,9.44,0,0,1,509.73,316Zm-50.29,65.78a46.25,46.25,0,0,1-25.93-8.29,63,63,0,0,0-.09-76.52,46.61,46.61,0,1,1,26,84.81Z" transform="translate(-165.94 -271.79)"/><path d="M429.8,320.08a10,10,0,0,1,2.9-4c-1.69-6-6.68-12.59-11.2-17.18a52.87,52.87,0,0,0,.59,73.14l.1-6.47c6.77-9.23,9.86-17.45,10.05-29.64A48.74,48.74,0,0,0,429.8,320.08Zm-8.21,41.43a46.67,46.67,0,0,1-.09-52.58,46.3,46.3,0,0,1,.09,52.58Z" transform="translate(-165.94 -271.79)"/><path d="M325.62,356A61.36,61.36,0,0,1,322,334.42a60.69,60.69,0,0,1,13.19-36.95l7.58-.17c-10.07-9.3-21.94-14.72-36.07-14.9a52.29,52.29,0,0,0-36.81,14.43,55.58,55.58,0,0,1,15.52,39.35,56.21,56.21,0,0,1-15.52,37.9A53.26,53.26,0,0,0,294.39,387c.82-1.08,1.67-2.2,2.63-3.36a47.82,47.82,0,0,0,8.34.82c9.93.16,22.85-3.19,30.41-10.05l7.13,0A56.85,56.85,0,0,1,331.36,357,28.1,28.1,0,0,1,325.62,356Zm-20.22,26a46.17,46.17,0,0,1-25.75-8.15,63.06,63.06,0,0,0-.09-76.83,46.58,46.58,0,0,1,53.06.1,63.07,63.07,0,0,0,.05,76.44C327,377.28,317.22,382.13,305.4,381.94Z" transform="translate(-165.94 -271.79)"/></svg>