<svg id="aef891a4-d3b5-4f64-9815-4dfd69db428c" data-name="Capa 1" xmlns="http://www.w3.org/2000/svg" viewBox="0 0 552 178.71"><title>bentli</title><path d="M117.49,291.41c.57.31,5.07,2.57,6.62,3.41s7.91,4,7.91,4a3.74,3.74,0,0,0-.09.58c-.12.28-.55,2.39-.8,3.66s-.83,4-1,4.67-.22,1.53.6,1.91,4.82,2.31,6.52,3.07,8.27,3.76,8.27,3.76a24.69,24.69,0,0,0,0,2.72c0,.91.33,3.91.46,4.59s.08,2,1.12,2.66a21.17,21.17,0,0,0,4.52,1.91c1.85.49,2.55.76,5.2,1.48s6,1.59,6,1.59.33,1.82.89,4a37.14,37.14,0,0,0,1.57,5.95,3.51,3.51,0,0,0,1.92,1.88,45.71,45.71,0,0,0,5.1,1.13c1.21.27,3.83.68,5.68.94s5.89.59,5.89.59l.41.78a44.16,44.16,0,0,0,2.56,3.87,23.47,23.47,0,0,0,2.5,3.41c.87.93,1.39,1.8,2.39,2.11a60.5,60.5,0,0,0,7.08,1.43c2.37.33,6.75.87,8.85,1.09s6.15.27,6.15.27.37,1.57.86,2.94a12.56,12.56,0,0,0,2.17,3.9,5.07,5.07,0,0,0,3.56,2.28,59.23,59.23,0,0,0,6,.53c1.28.06,7.48.1,8.66.1s5.68-.1,5.68-.1.19.71.41,1.27a28.88,28.88,0,0,0,1.88,3.42,11.75,11.75,0,0,0,2.12,2.5,5.65,5.65,0,0,0,3.27,1.56,29.81,29.81,0,0,0,6-.37,62,62,0,0,0,7.31-1.33c1.52-.34,5.47-1.33,5.47-1.33a26.68,26.68,0,0,0,1.7,2.81,14.3,14.3,0,0,0,2.28,2.65c.63.46,1.09.93,3.65,1.07s5.39-.69,7.89-1.26,6.13-1.78,6.13-1.78.07.45.34,1.53,1.42,3.87,2.69,7a70.27,70.27,0,0,0,3.67,7.85,61.61,61.61,0,0,0,4.77,7.78c2,2.65,4.27,5.46,5.72,7.09s7.59,7.71,9.41,9.3,6.41,4.93,8.42,6.34,5.36,3.41,7.36,4.5,6.8,3.43,9.05,4.44c2,1,5.23,2.21,5.23,2.21s.63,1.33,1,2.28,2.31,4.59,2.61,5.1c.13.4.91.51,1.44.4s3.34-1.22,4.27-1.6,3.63-1.41,3.63-1.41,1.38,2.17,2,3.12,2.11,3,2.33,3.46a1.26,1.26,0,0,0,1.26.27c.33-.16,2.07-1.27,3.3-1.91s4.09-2.15,4.09-2.15,1.48,1.78,1.87,2.31,2.86,3.3,3.17,3.74a1,1,0,0,0,1.25.26c.41-.17,2.58-1.89,3.42-2.52s3.33-2.39,3.33-2.39,2,2.07,2.74,2.76a30.77,30.77,0,0,0,3.33,2.91.77.77,0,0,0,.82,0,8,8,0,0,0,.66-.62c.21-.27,1.95-1.88,2.66-2.62s2.67-2.56,2.67-2.56a10.22,10.22,0,0,0,1.08.83c.58.33,2.28,1.73,3.34,2.47a10.61,10.61,0,0,0,2.39,1.67c.42.21.76.26,1,0s2.31-2.61,3-3.49c.81-1.09,2.3-2.88,2.3-2.88s2.63,1.47,3.27,1.87,3.71,2.05,4,2.14.94.28,1.24,0,1.8-2.57,2.36-3.41,2.13-3.23,2.13-3.23l3.4,1.41c1.05.38,3.91,1.47,4.49,1.68a1.29,1.29,0,0,0,1.41-.38c.25-.36,1.4-2.6,2-3.92s1.81-3.72,1.81-3.72,3-1.18,5.56-2.34,8.55-4.4,11.8-6.41a119.15,119.15,0,0,0,9.8-6.89c2.33-1.9,6.64-5.78,7.65-6.78s2.65-2.78,3.76-4a97.87,97.87,0,0,0,7.06-8.78c1-1.41,4.15-6.6,4.78-7.79s2.61-5.32,3-6.29,1.89-5.32,1.89-5.32a22,22,0,0,0,2.5.94,29.55,29.55,0,0,0,4.34,1.08,11.84,11.84,0,0,0,3,.22,9.74,9.74,0,0,0,2.72-1.55,17.06,17.06,0,0,0,2.27-2.39,24.48,24.48,0,0,0,1.41-2.43s.87.33,1.6.54,3.75,1.09,5,1.46,4,.92,5.31,1.11a16.74,16.74,0,0,0,4.4.3c1.5-.19,2.44-1.34,3.24-2.05a12,12,0,0,0,2.13-3,18.12,18.12,0,0,0,1.12-2.65,18.05,18.05,0,0,0,1.91.74,51.82,51.82,0,0,0,5.84,1.12,65.07,65.07,0,0,0,6.65.49,32.36,32.36,0,0,0,4.46-.24,3.16,3.16,0,0,0,2.32-1.26,7.77,7.77,0,0,0,1.55-2.3,24.46,24.46,0,0,0,1.41-3.5c.29-1,.76-2.81.76-2.81s1.64,0,2.65,0,4.06.06,5.58.06,7.25-.16,8.16-.18a30.74,30.74,0,0,0,3.83-.44,3.93,3.93,0,0,0,2.44-1.37,8.28,8.28,0,0,0,1.59-2.47,25.34,25.34,0,0,0,1-3.33c.15-.61.56-3.07.56-3.07a13.3,13.3,0,0,0,1.79.33c1.27.11,3.18.32,4.91.45s5.37.09,6.56.09a24.62,24.62,0,0,0,4.17-.28,8,8,0,0,0,2.24-1.48,22.31,22.31,0,0,0,2.74-3.15,27.86,27.86,0,0,0,2.14-4.15c.38-1,1.25-4.18,1.25-4.18s1.14,0,2.3-.11,4.53-.47,6.26-.65,3.62-.62,5.07-.94a5.88,5.88,0,0,0,2.82-1.49,8.34,8.34,0,0,0,1.88-3.07,21.37,21.37,0,0,0,.77-4c.14-1.14.22-3.68.22-3.68s.72,0,1.59,0,2.86-.43,4.3-.74a28.06,28.06,0,0,0,5.15-1.55,9.49,9.49,0,0,0,2.61-1.73,12.1,12.1,0,0,0,1.72-3.47,21.75,21.75,0,0,0,.41-4.17c.05-1.27-.11-3.41-.11-3.41l4.25-1.11c1.55-.4,4.94-1.86,5.85-2.22s3.21-1.73,3.4-1.83A10.16,10.16,0,0,0,656,305a22.32,22.32,0,0,0-1-4.35c-.39-1.12-1.55-3.84-1.55-3.84s3.89-1.65,5.39-2.22,6.11-3,6.54-3.25a3,3,0,0,0,1.12-.86A27,27,0,0,0,668,288c.14-.31-.11-.57-.62-1.11s-1.84-2.42-3.14-3.95a62.87,62.87,0,0,0-5-4.83c-.35-.32-1.22-.32-3.34-.13-1.86.13-13,1-18.18,1.55s-15.53,1-18.54,1.09-13-.36-17.74-.6-28.14-1.63-33.47-1.6-31.29,1.27-35.65,1.54-19.25.87-23.88.93a131.61,131.61,0,0,1-16.46-1c-2.84-.33-13-1.32-17.19-1.44a98.32,98.32,0,0,0-10.46.5A122.19,122.19,0,0,0,450.77,281c-3.9.83-8.54,2.26-8.54,2.26s-6.37-2.89-9.34-4.06a144.14,144.14,0,0,0-17.72-5.07,125.21,125.21,0,0,0-23.82-2.32,128.91,128.91,0,0,0-20.71,1.89,131.15,131.15,0,0,0-18.56,4.52c-3.29,1.11-9.74,3.65-9.74,3.65a54.29,54.29,0,0,0-7.3-1.72c-3.37-.6-18.47-1.56-23.26-1.56s-29,1-34.08,1.23-20.41-.62-26-1-28.16-1.12-33-1.08-25.06.37-28.53.58-19.3,1.16-21.43,1.16H152.88c-3.73,0-13.24-.44-15.38-.7s-10.2-1.08-11-1.15a2.9,2.9,0,0,0-2.41.91c-.76.77-1.65,1.81-2.83,3.12s-5.28,6.13-5.28,6.13l.41,1.52A3.15,3.15,0,0,0,117.49,291.41Zm29.41,18.86c-.67-.3-5.14-2.28-6.39-2.86s-3.44-1.45-3.84-2-.19-1.25-.19-1.9a2.47,2.47,0,0,0-.75-2.08c-.73-.61-1.64-1.26-1.64-1.26l.31-1.45s4,0,5.2,0,8.54.33,11.11.33,10.49.24,12.42.16,12.67.16,15,.16l15.89.06c2.32.08,15.19.11,17.19.11s12.58,0,15,.05,13.12-.05,15.5-.05,8.54.08,9.88.05a15.29,15.29,0,0,0,2.68-.22c.24-.08,1.12-.49,1.63-.21a2.67,2.67,0,0,1,1,1.14,7.21,7.21,0,0,0,1,.84,3.73,3.73,0,0,1,1.19,1,3,3,0,0,0,.92.91c.54.43.67.61.46.86s-1,1.25-1.38,1.85-.47,1.09-.65,1.27a6.09,6.09,0,0,1-1.38.32s.69-.56.6-1a3,3,0,0,0-2.61-1.67,68.33,68.33,0,0,0-7.82.48c-1.89.21-14.41,1.3-16.58,1.49s-19.56,1.43-22.52,1.7-16.67,1-19.28,1.19-12.95.72-16.1.91-10.54.53-13.36.68-8.29.23-9.35.11A11.24,11.24,0,0,1,146.9,310.27Zm175,66.84c.15.4.32.77.05.88s-1.26.76-1.5.87a1.14,1.14,0,0,1-1.34-.48c-.21-.39-1.25-.46-2-1.11a1.41,1.41,0,0,1-.69-1.63,21.29,21.29,0,0,0,.21-3.53l-.69-1.51s1.17-2.79,1.45-3.3a10.24,10.24,0,0,0,.68-1.33,14.41,14.41,0,0,0,.6,2.15,20.91,20.91,0,0,1,1.18,2.16c.18.54,1.34,3.55,1.53,4.06a2.93,2.93,0,0,1,.44,1.65A1.49,1.49,0,0,0,321.87,377.11Zm-12.37-30.2c-.63-1.13-1-1.18-1.54-1.35s-.77.07-1.56-.34-1.28-1.3-1.8-1.41-.47-.17-.9,0a1.12,1.12,0,0,1-1.06.08s2.58-2.37,3.84-3.65,3.66-3.64,4.74-4.67,3-2.93,3-2.93a1.76,1.76,0,0,0,1.31.72c.91.08,1.77.19,2.43.21a3.68,3.68,0,0,0,2.17-.24,1.88,1.88,0,0,1,.84-.5l-1.21,1.61c-.73.91-2.59,3.55-3.65,5.14s-3.44,5.14-3.83,5.81-1.3,2.05-1.6,2.52a10,10,0,0,0-.61.8A3.32,3.32,0,0,0,309.5,346.91Zm-1.35-30.13s-2,1.56-2.69,2.21a28.28,28.28,0,0,1-2.09,1.92c-.3.14-1.3-.39-1.95-.72a14.12,14.12,0,0,0-2.61-.75c-.58,0-1,0-1,0s1.43-1.28,2.43-2.07,2.8-2,3.61-2.66,1.58-1,1.82-1.11a1.09,1.09,0,0,1,.8.31c.14.19.71.19.87.59s0,.92.14,1.16.57.19.66.44A2.3,2.3,0,0,1,308.15,316.78Zm0,1.88,2-1.54s.61.06.54.43.35.44.56.44a10,10,0,0,1,1.18-.13c.21.13.5.26.5.66s0,.78.22.84.54-.06.57.13.08.41.08.41-2.22,2.25-3.15,3.06-2.41,2.41-2.57,2.66-.32.43-.32.43a4.34,4.34,0,0,0-1.14-1.6,3.8,3.8,0,0,0-1.8-1.11,6.22,6.22,0,0,0-1.48-.22s1.7-1.59,2.53-2.32S307.57,319.21,308.18,318.66Zm-5.11-7.41a6.28,6.28,0,0,1-1.33,1.78c-1,.94-1.71,1.33-2.29,1.86a6.53,6.53,0,0,1-2,1.33c-.46.1-1.21-.34-1.61-.43a11.07,11.07,0,0,1-1.85-.71,2.11,2.11,0,0,0-1.11-.33c-.34,0-1.39.26-1.39.26l0-.77s2.39-1.31,3.2-1.77,3.32-1.7,4.36-2.35a8.05,8.05,0,0,1,2.95-1c.65.09,1.2.3,1.26.58A2.23,2.23,0,0,1,303.07,311.25Zm-3.95-4.89c-.43.22-2.93,1.63-3.87,2a27.4,27.4,0,0,1-3.65,1.52,5.71,5.71,0,0,1-2-.36,10.54,10.54,0,0,0-1.14-.3c-.33,0-1,0-1,0a1.32,1.32,0,0,0,.08-.4,2.2,2.2,0,0,1,.08-.49s2.1-1.14,3.86-1.89,5.35-2,6.11-2.21,1.56-.48,2-.17.8.47.68.78A3.94,3.94,0,0,1,299.12,306.36Zm-.74-6.5c-.22.13-.26.27-.7.7a4.1,4.1,0,0,1-1.3,1.25c-.5.17-1.67.46-3,.86s-3.43,1-4.21,1.15a2.86,2.86,0,0,1-2.1.27l-2.05-.47a1,1,0,0,0-.84.11.42.42,0,0,1-.38,0v-.55c0-.21,0-.4,0-.4s2.19-1,3.71-1.5,4.47-1.18,5.8-1.48,2.24-.65,2.71-.46a6.32,6.32,0,0,0,1.54.14l.68-.11S298.54,299.75,298.38,299.86Zm-13.51,7.57c.74.32,1.45.63,1.54,1.06a2,2,0,0,1-.43,1.57,3.14,3.14,0,0,0-.37,1.08,3.61,3.61,0,0,0-.12.94,2,2,0,0,1-.94.43l-.78.22a1.33,1.33,0,0,0-.32-.94,2.36,2.36,0,0,0-2-.61c-.67.22-3.22,1.27-4.23,1.66s-3.8,1.74-4.71,2.13a4.91,4.91,0,0,1-2.59.63,10.63,10.63,0,0,1-2.57-.63c-.74-.35-1.74-.85-2.06-1s-1.06-.22-1.06-.22a1.89,1.89,0,0,1,.47-1c.33-.29,1.25-.46,1.74-.76s2-.68,3.48-1.24,4.41-1.4,5.59-1.72,3.87-1.2,4.52-1.49,1.54-.81,2.19-.75A10.63,10.63,0,0,1,284.87,307.43Zm-14.48,13.15,3.33-1.59c1.12-.54,5.47-2.5,6.81-3.18s3.51-1.67,4-1.82a7.06,7.06,0,0,1,1.54-.65,17.3,17.3,0,0,1,2.51.44c.7.15,1.7.28,1.91.65a2.76,2.76,0,0,1,.26,1.63,4.56,4.56,0,0,0-.35,1.52c0,.41.13,1.3.13,1.3l-1,.48a8.28,8.28,0,0,1-1.17.57,2.28,2.28,0,0,0-.62-.94,2,2,0,0,0-1.86-.39c-.41.13-3,1.59-4,2.2s-3.32,2.13-3.68,2.32a2.49,2.49,0,0,1-2,.65,5.62,5.62,0,0,1-2.3-.53,20.42,20.42,0,0,1-2.11-1.38c-.33-.22-1.55-.52-1.55-.87S270.39,320.58,270.39,320.58Zm11,5.06c1.45-.86,5-2.81,6.34-3.61s2.7-1.76,3.44-1.89,2.45-.05,3.36-.05,1.55,0,1.62.46a4.11,4.11,0,0,1-.12,1.31,11.8,11.8,0,0,0,0,1.48l-6.81,5.36c-1.1.81-3.72,3.14-3.84,3.18s-1.06-.66-2.09-1.06a8,8,0,0,0-2.12-.57,8.7,8.7,0,0,1-1.75-.7,6.19,6.19,0,0,0-1.33-.53,3.8,3.8,0,0,0-1.43.33l-.12-.62S280,326.55,281.43,325.64Zm6.23,6.54c1.2-1.09,4.78-4,5.75-4.76s3.34-2.64,3.7-2.92a1.62,1.62,0,0,1,1.14-.32c.44,0,1.5-.3,2-.3s1.32-.08,1.43.57.36,1.84.32,2.32a2.64,2.64,0,0,0,.14,1.28,4.21,4.21,0,0,0,.34.5l-1.06,1.09c-.7.61-2.72,2.56-3.62,3.43s-2.75,2.64-3.4,3.31-1.74,1.76-1.74,1.76a3.69,3.69,0,0,0-.87-1.59,5.44,5.44,0,0,0-2.89-.8c-.91,0-2-.9-2.45-1a1.52,1.52,0,0,0-.92.14s-.54.19-.72-.25C284.77,334.66,286.51,333.17,287.66,332.18ZM298,335.07c.87-.91,3.9-3.74,4.63-4.47a9.15,9.15,0,0,1,2.05-1.79c.84-.26,1.79-.76,2.19-.59a2,2,0,0,1,1,1.33,3,3,0,0,0,1.87,1.89,6.57,6.57,0,0,0,2.31.4l.79-.07-1.74,1.71c-.54.61-2.32,2.31-3.32,3.24s-3.67,3.63-4.38,4.28-1.82,1.63-1.82,1.63a1.89,1.89,0,0,0-.57-1.23,3.12,3.12,0,0,0-2.56-.59,2.49,2.49,0,0,1-1.93-.65c-.52-.41-.93-.87-1.2-.9a2.39,2.39,0,0,0-1,.37,3.07,3.07,0,0,1-.87.1ZM316,329l.26-.4s1.34-1.63,2.45-2.81l2.76-2.95a7,7,0,0,0,.8-1,21.92,21.92,0,0,0-.9,2.54,16.58,16.58,0,0,0-.36,3,11.87,11.87,0,0,1-.45,2.23,10.47,10.47,0,0,0-.13,1.53,6.61,6.61,0,0,1-1,.55,6.58,6.58,0,0,0-.85.55,4.34,4.34,0,0,0-.56-1.88,2.63,2.63,0,0,0-1.08-1A2.88,2.88,0,0,0,316,329ZM311.66,354a18.78,18.78,0,0,0,2.6-.33,18.13,18.13,0,0,1,3.09-.45c.39.17.39.45.43.82s.05,3.69.09,4.8a22.82,22.82,0,0,1-.17,4.38c-.22.91-2.83,5.9-3.44,7.34s-2.24,4.43-2.48,5a2.92,2.92,0,0,1-.6,1c-.22.22-.65-.52-1.26-1.28a2.28,2.28,0,0,0-2.68-.68c-.91.22-6,1.63-6.87,1.77a12.78,12.78,0,0,1-3.31.52,2.44,2.44,0,0,1-1.62-1.42,1.76,1.76,0,0,0-1.45-1.08,3.4,3.4,0,0,1-1.07-.17l5.77-6.12c1.06-1.07,6.77-7.22,8-8.6s3.29-3.8,3.8-4.45S311.4,354,311.66,354Zm6.95-5.08a8.73,8.73,0,0,0-.65,1.49l-.15.9a6.16,6.16,0,0,1-.87.54l-.83.19v-.76a10.32,10.32,0,0,0-.8-1.44,2.55,2.55,0,0,1-.26-2.25c.31-1,.82-2.28,1.15-3.19s.74-1.76,1.36-3.22a17.73,17.73,0,0,1,1.88-3.7c.76-1.12,1.08-1.69,1.4-2.13a1.75,1.75,0,0,1,.77-.61s.31.53.61.94.76.81.68,1.13-1.51,3.14-1.85,3.91-1.29,4-1.53,5.05A31.53,31.53,0,0,1,318.61,348.88Zm3.09-28.74c-.93,1.09-4,4.39-5.2,5.84s-2.21,2.64-2.59,3a9.93,9.93,0,0,0-1,1.19h-.37a2.17,2.17,0,0,0,.33-1.36,3.43,3.43,0,0,0-1.21-2c-.56-.29-.71-.38-1.11-.29a8.24,8.24,0,0,1-1,.37c-.29.07-.5.1-.5.1s1.38-1.55,2-2.19,2.33-2.21,2.92-2.8a3,3,0,0,1,1.39-1,4.41,4.41,0,0,0,1.91.13,4.27,4.27,0,0,0,2-2.41,2.72,2.72,0,0,0-1-2.21,3.76,3.76,0,0,0-2-.75,4.78,4.78,0,0,0-1.84.51,4.12,4.12,0,0,1-.81.24s0-.43.11-1.07a2.72,2.72,0,0,0-.6-1.84,2.76,2.76,0,0,0-2-1.18c-.82-.09-1.23.12-1.54-.09s-.08-.74-.37-1.41a3.08,3.08,0,0,0-1.47-1.83,7.42,7.42,0,0,0-2-.46c-.37,0-.37-.25-.37-.76a3,3,0,0,0-2.43-3.51c-.54-.11-.93-.22-.93-.53a10.65,10.65,0,0,0,.36-1.61,2.23,2.23,0,0,0-.89-2c-.7-.54-1.53-.76-1.89-1.33a3.77,3.77,0,0,0-1-1.09,6.87,6.87,0,0,0-1.3,0c-.46,0-1.62.25-2.43.39s-1.25.34-1.69.22a7.44,7.44,0,0,0-2-.46c-.61,0-2.14.07-3.14.18a27.16,27.16,0,0,1-2.93.19,6,6,0,0,1-2.07-.59,9.53,9.53,0,0,1-1.25-.62,2.91,2.91,0,0,1-.6-.46s0-.33.11-.59a3.31,3.31,0,0,1,.27-.58s3.07-.14,5.33-.22a44.55,44.55,0,0,1,6.54.26,38.84,38.84,0,0,0,4.91.28c.94,0,2.36-.16,4.67-.1s6.37.25,9.09.62a42.51,42.51,0,0,1,7.38,1.73c2.22.73,6.26,2.44,7.55,4s2.23,2.78,2.12,4.76a16.44,16.44,0,0,1-1.59,5.26c-.65,1.23-2.18,3.87-2.47,4.3S322.66,319.06,321.7,320.14Zm-39.51-18.38c.44.32.91.94.76,1.23a3.37,3.37,0,0,1-.57.89,1.83,1.83,0,0,0-.22.81,5.6,5.6,0,0,0-.08.94,12.66,12.66,0,0,1-1.38.41,2.17,2.17,0,0,0-.53.1s.31-.84.09-1a4.42,4.42,0,0,0-2-.79,16.82,16.82,0,0,0-4.17.81c-.82.33-3.95,1.17-5.09,1.54a11,11,0,0,1-3.19.8,8.88,8.88,0,0,1-2.62-.92c-.77-.36-1-.55-1.26-.68a9.32,9.32,0,0,0-.87-.52,8.17,8.17,0,0,1,1-1.19,26.25,26.25,0,0,1,2.7-.9c.69-.24,4-1.05,5.53-1.34s4.37-.87,5.69-1.25,2.61-.82,3-.82a2.53,2.53,0,0,1,1.45.56C280.89,300.75,281.73,301.41,282.19,301.76Zm-2.05-5.39a6.84,6.84,0,0,0-.68,1.51c-.22.48-.07,1-.35,1.05a13.48,13.48,0,0,1-1.55.28s.22-.56-.11-.85a4.27,4.27,0,0,0-2-.48c-.76,0-4.51.37-5.69.48s-4.52.57-5.18.68a3.74,3.74,0,0,1-1.9-.2,25.53,25.53,0,0,1-2.85-1.3,2.9,2.9,0,0,0-.93-.63l-.79-.15.35-1c.15-.3.44-.79.44-.79h9.56c2.14.06,8.43.06,9,.06a12.91,12.91,0,0,1,1.89.32l.67.08S280.38,296.19,280.14,296.37ZM157.82,323.88c-2-.49-5.12-1.39-5.63-1.89a3.16,3.16,0,0,1-.93-1.68,4.84,4.84,0,0,0-1.68-2.19l-1.7-.94v-1.12a26.88,26.88,0,0,0,2.83-.14c1-.19,4.88-.19,7.48-.3s12.75-.54,15.93-.73,17.77-1,20.49-1.14,21.79-1.52,24.48-1.78,18.45-1.48,20.9-1.7,10.77-1,13.67-1.26a18.86,18.86,0,0,0,3.9-.65c.46-.06.81-.33,1.29.21a15.42,15.42,0,0,0,2,2c.63.4,2.45,1.6,2.5,2.18a4.26,4.26,0,0,1-.84,1.88,6,6,0,0,0-.22,1.67l-1.9.36a4.56,4.56,0,0,0,.22-.73,1.68,1.68,0,0,0-1.06-1.33,6.32,6.32,0,0,0-3.44-.29c-1.26.29-7.17,1.29-9.58,1.7s-16.28,2.74-19.69,3.22-16.77,2.67-20,3.07-15.51,2.07-19.83,2.46-9.55,1-12.41,1.12a56.45,56.45,0,0,1-8,.22C164.53,325.86,159.87,324.42,157.82,323.88Zm20.29,15.56c-2.36-.34-5-.87-5.85-1.05a2.29,2.29,0,0,1-2.2-1.38c-.38-1.09-.32-1.87-1-2.59a7.5,7.5,0,0,0-2.05-1.78c-.54-.18-1.38-.15-1.52-.44a3.31,3.31,0,0,1-.15-1.16,7.9,7.9,0,0,0,1.67,0c.84-.06,1.59-.47,2.6-.53l5.79-.26c1.66,0,6.62-.55,8.37-.7s9.94-1,12.65-1.33,17.32-2.41,19.77-2.82,14.68-2.16,18-2.76,14.55-2.59,17.41-3.12,6.37-1.07,7.67-1.36,2.13-.85,2.87-.7a20.26,20.26,0,0,1,2.35,1.2c.87.4,2.28.86,3,1.13a3,3,0,0,1,1.56.95,3.84,3.84,0,0,1-.33,2,5.1,5.1,0,0,0-.62,1.58,9.93,9.93,0,0,0-.18,1.11l-1.78.68s.3-.82,0-1.22-1.22-1.09-1.72-1a8.79,8.79,0,0,0-2.15.39c-.82.3-11.46,3.53-13.13,3.95l-12.67,3.51c-1.58.49-11.58,2.94-14.36,3.51s-13.34,2.72-15.93,3.19-12.4,1.74-14.92,1.88a25.77,25.77,0,0,1-5,.13A74,74,0,0,1,178.11,339.44Zm36.55,13.71a76.09,76.09,0,0,1-9.19-.65c-2.28-.31-8.68-1.3-9.55-1.5a4,4,0,0,1-1.92-1.28,6,6,0,0,0-1.81-1.52c-.87-.37-1.9-1-2.61-1.2s-1-.4-1.52-.62a5,5,0,0,1-1.23-.44.87.87,0,0,1-.37-.53s7.17-.73,8.77-1,12.62-1.78,15.26-2.3,14-3,16-3.57,14.48-3.69,17-4.34,10.77-3.06,13-3.74,8.89-2.67,9.64-3a4.57,4.57,0,0,1,2.26-.77,31.32,31.32,0,0,1,3.65,1c.81.24,2.84.58,3.22.95a1.11,1.11,0,0,1,.4,1.18c-.06.56,0,3.52,0,3.78s.8,1,.8,1l-1.87.71c-.41.19-1.25.52-1.25.52s.19-.87,0-1.12a4.73,4.73,0,0,0-1.45-.91,2.85,2.85,0,0,0-1.52.29,40.1,40.1,0,0,0-4,1.7c-1.08.46-7.34,2.93-9.2,3.65s-9.55,3.73-12,4.56-13.51,4.67-15.57,5.3-9.29,2.66-11,3.15A18.41,18.41,0,0,1,214.66,353.15ZM235.57,363c-2.26.07-6.84-.08-8.28-.15a21.58,21.58,0,0,1-4.55-.49c-1.08-.5-1.27-1.06-1.93-1.82a6.38,6.38,0,0,0-2.56-1.74,3.8,3.8,0,0,0-1.88-.19c-.19,0-.27-.89-.27-.89a17.37,17.37,0,0,0,3-.88c.64-.25,4.4-1.38,5.55-1.73s5.41-1.45,7.19-2.06,10-3.4,11.59-4,11.49-4.18,13.39-4.95,12.87-5.2,14.46-5.81a40,40,0,0,0,3.66-1.66,14.23,14.23,0,0,1,3.17-1.44,13.22,13.22,0,0,1,3.22-.43c.76,0,1.31-.06,1.63.3a2.1,2.1,0,0,1,.38,1.45,3.58,3.58,0,0,0,.82,2.55,7.42,7.42,0,0,0,2.86,1.28,17.12,17.12,0,0,0,2.59.47,3.08,3.08,0,0,0,.68,0s-2.21,1.37-2.81,1.63l-2.89,1.44s-.22-.61-.46-.73a9,9,0,0,0-2.23,0,8,8,0,0,0-2.52.84c-.75.5-8.32,4.54-9.81,5.28s-13.06,6.81-14.62,7.53-9.05,4.34-10.21,4.94a10.12,10.12,0,0,1-3.1,1.09C240.5,363,237.9,363,235.57,363Zm24.34,7.46c-2.19.4-6.81,1.18-7.73,1.23a3.48,3.48,0,0,1-3-.8c-.8-.79-1.23-2.06-2.27-2.57a4.91,4.91,0,0,0-2.44-.77c-1.4.22-1.51-.29-1.51-.29s9-4.56,10.35-5.09,14.84-7.49,16.55-8.47l13.7-7.43c2.13-1.22,5.11-2.81,5.54-3.15s.83-.75,1.41-.9a8.43,8.43,0,0,1,1-.28l1.29,1.66a5.23,5.23,0,0,0,2.74,1.8,10,10,0,0,0,2.52.12,16.2,16.2,0,0,0,2-.34s-3.27,3.1-3.83,3.56-7.75,6.37-9.16,7.63-6.64,5.34-7.82,6.24a70.54,70.54,0,0,1-5.75,4.19,28.86,28.86,0,0,1-4.21,1.55C268.05,368.77,262.07,370,259.91,370.5Zm31.69,2.67a2.78,2.78,0,0,1-2.28-.37c-.87-.54-1.69-.11-2.81.15s-3.06.88-4.35,1.2a41.53,41.53,0,0,1-5.12,1,3.43,3.43,0,0,1-2.26-.59,9.65,9.65,0,0,0-2.22-2.13,2.54,2.54,0,0,0-1.64-.27c-.31.22-1.55,1-1.79.41,0,0,4.89-3.57,5.93-4.44s5.47-4.32,6.61-5.28,6.43-5.15,8-6.43,6.32-5.31,7.55-6.39,3.65-3.45,3.65-3.45a2.9,2.9,0,0,0,.59,1.34,12.11,12.11,0,0,0,2.06,1.5,9.43,9.43,0,0,0,3.44.42c1,0,2-.14,2.39-.14s1.07.18,1.07.87.12,1.14.12,1.44a1.82,1.82,0,0,0,.1.62l-7.23,8c-1.41,1.57-5.47,5.94-6.77,7.29S292,372.84,291.6,373.17Zm55.62,58.62-1,1.71-.91-.43s.68-.55.43-1.06a2.67,2.67,0,0,0-1.3-1.33c-.68-.4-4-1.73-5.37-2.43s-7.59-4-9.8-5.42-7.63-5.22-10.25-7.28-8.05-7.5-9.9-9.55a97.69,97.69,0,0,1-6.87-8.93c-1.21-1.79-4.54-7.86-5.27-9.49a10.09,10.09,0,0,0-1.75-3.29c-.65-.62-.84-.77-1.14-.77a7.23,7.23,0,0,0-1-.1s-.21-.52-.55-1.6c-.29-.8-.53-1.63-.53-1.63s1.48,1.85,2.37,1.82a6.35,6.35,0,0,0,1.71-.38,2.41,2.41,0,0,1,1.59,0,1.65,1.65,0,0,1,.83,1.39,7.42,7.42,0,0,0,.74,2.82c.5,1.07,2.53,5.25,3.72,7.16s4.6,6.81,6,8.55,6.31,7.05,7.57,8.17,7.63,6.33,9.93,7.89a115.48,115.48,0,0,0,11,6.74c3.27,1.63,7.36,3.5,8.45,4s1.73.46,2,.8a2.84,2.84,0,0,0,.56.62Zm2-3.57a.28.28,0,0,1-.52,0c-.13-.22.44-.84.44-1.59a3.69,3.69,0,0,0-.9-2.32,8.7,8.7,0,0,0-2.43-1.39c-.73-.34-4.17-2-5.91-2.88s-5.24-2.9-7.53-4.42-5.3-3.55-7.33-5.09-4.72-4.06-6.44-5.72a84,84,0,0,1-6.41-7.25,80.21,80.21,0,0,1-5.39-7.77c-1.28-2.31-2.58-5.06-3-5.53a5.72,5.72,0,0,0-2-1.53,11.75,11.75,0,0,0-1.82-.5c-.41,0-1.12,0-1.18-.34a1.7,1.7,0,0,1,0-.5,8.14,8.14,0,0,0,2.38-.51c1.08-.43,4-1.26,5.2-1.59s2.54-.91,3.12-1.06a3.15,3.15,0,0,1,1.39-.28c.34.07.53.28.93.8a13.24,13.24,0,0,0,1.39,2.17,3.21,3.21,0,0,0,2.44,1,14.06,14.06,0,0,0,3.17-.6c.89-.38,2.56-1.5,3-1.74s.92-.58,1.11-.41.46.59.76.65a1.62,1.62,0,0,1,.8.74c.16.28,2.61,3.81,3.94,5.44a62.36,62.36,0,0,0,4.6,5.09c1.33,1.25,5.2,4.63,6.73,5.75s6,4.09,8,5.14,4.46,2.38,6.4,3.18,4.06,1.63,4.6,1.92A3.16,3.16,0,0,1,360,408c.43.28.65.69.46,1.08s-2.23,3.61-3.13,5.28-2.53,4.31-3.27,5.5c-.59,1.17-2.42,4-2.88,5S349.28,428,349.23,428.22Zm11.79,4c-.37.91-1.49,3.62-1.85,4.38s-.61,1.37-.61,1.37l-1.44.47s.39-.62.12-1a3.16,3.16,0,0,0-1.4-1.14,4.78,4.78,0,0,0-1.56.27c-.6.25-1.37.25-1.62-.27a16.27,16.27,0,0,1-1.14-2.31,1.81,1.81,0,0,1,.06-1.59c.35-.76,2.92-5.5,3.47-6.36s3.55-5.87,4.23-7.09,2.32-4,2.6-4.67.55-1.08.3-1.61-.26-.72-.51-.85a5.14,5.14,0,0,0-.76-.19l1.52-2.53a6.41,6.41,0,0,0,1.63.26,9.23,9.23,0,0,1,2.62.22c1,.28,2.24,1,2.4,1.51s-.27,1.49-.81,2.77-3.09,8-3.71,9.42S361.38,431.3,361,432.2Zm12.19.69c-.22,1.05-1,4.56-1.26,5.35s-.7,2.25-.76,2.39a6.33,6.33,0,0,1-1.51.88l-.65.27s.43-.57.27-1a1.41,1.41,0,0,0-1.2-.82c-.59,0-1.27.45-1.74.32a2.71,2.71,0,0,1-1.75-1.74,3.2,3.2,0,0,1-.4-2.5c.21-1,2.62-6.78,3.15-8.18s2.75-7.1,3.24-8.44,1.35-3.18,1.26-3.75a3.57,3.57,0,0,0-.72-1.71c-.28-.29-.65-.47-.81-.41a.44.44,0,0,1-.34-.12l.77-2.12s1.19.14,1.73.14a7.77,7.77,0,0,1,2.52.16c1.1.19,2.37.39,2.52.86a3.33,3.33,0,0,1,.11,2c-.26,1-2.18,8.68-2.44,10.06S373.43,431.87,373.21,432.89Zm12.67-12.32c-.11,1.17-.8,9.13-.8,9.86s-.21,4.2-.32,5.35c-.08.83-.38,3-.46,3.84s-.51,2.2-.51,2.38a1.08,1.08,0,0,1-.11.38,18.35,18.35,0,0,1-2,1.47c-.5.21-.5-.29-.84-.6a11.75,11.75,0,0,0-1.52-.75,7.67,7.67,0,0,1-2.38-2.2,3.32,3.32,0,0,1-.38-2.85c.34-1.32,1.47-5.8,1.8-7.41s1.44-6.13,1.76-7.68a38.64,38.64,0,0,0,1-4.94,2.88,2.88,0,0,0-.76-2.09,2.81,2.81,0,0,0-.87-.61,4.9,4.9,0,0,1-.62-.26l.36-1.68s1.16,0,1.71-.06a14.66,14.66,0,0,1,2-.1,6.18,6.18,0,0,1,2.26.25,1.39,1.39,0,0,1,1.12,1.7C386.29,415.62,386,419.51,385.88,420.57Zm-67-63c0-28.69,31-54,72.09-54s72.09,25.3,72.09,54S432,411.67,391,411.67,318.89,386.4,318.89,357.61Zm36.67-68.8a6.2,6.2,0,0,0-2.5-1.3,7.51,7.51,0,0,1-1.46-.12,3.68,3.68,0,0,1-1-.65l2.72-1c.82-.35,4.52-1.65,7-2.33s5.07-1.37,8.19-2,7.8-1.33,11.54-1.71a111.57,111.57,0,0,1,11.31-.64c2.83,0,9.39.39,12.06.69s7.87.93,11,1.66,9,2.13,11.47,3,5.64,1.85,5.95,2.17a3.12,3.12,0,0,0,1.16.86,7.14,7.14,0,0,1,.93.53,21.59,21.59,0,0,0-2.13,2.85c-2.5,4.31.48,9.74,4.46,12.74,5.21,3.84,14.69,9.71,16.32,18.49a33.16,33.16,0,0,1,.28,5.76s-.79-.9-1.26-1.37-.58-2.65-1.11-3.8a22.61,22.61,0,0,0-3.44-4.82,40,40,0,0,0-7.32-5.9,64.72,64.72,0,0,0-12.17-6.3,84.5,84.5,0,0,0-12.43-4A111.2,111.2,0,0,0,396.06,299a122.94,122.94,0,0,0-17.83.91,84.73,84.73,0,0,0-15.74,3.56,55.37,55.37,0,0,0-8.56,3.31,71.22,71.22,0,0,0-7.46,3.95c-1.52,1-4,2.69-5.47,3.63s-1.76,1.7-2.69,1.48a2.37,2.37,0,0,1-1.62-1.48s1.11-1.28,2.19-2.35,3.53-3.2,5.12-4.49,4.63-3.94,5.15-4.43S351,301,351,301s.44.94,1.23.65a5.91,5.91,0,0,0,2.79-2.32c.76-1.18,2.07-3.93,1.73-6.22S356.15,289.21,355.56,288.81Zm168.07,11a3.45,3.45,0,0,0-2-1.46,32,32,0,0,0-5.93-.56c-1.26,0-4.45.1-5.93,0a9.19,9.19,0,0,1-3.52-.62c-.65-.25-.43-.13-.73-.25a.81.81,0,0,0-.79.18,6.68,6.68,0,0,1-.25-1,2.27,2.27,0,0,1,.06-.4,13.79,13.79,0,0,0,2.72-.14c1.13-.14,4.34-.67,6.44-.95s6-1,7.31-1.3,2.9-.51,3.45-.22a1.57,1.57,0,0,1,1,1.3,21.3,21.3,0,0,0,.68,2.26,5.71,5.71,0,0,1,.49,1.54,6.49,6.49,0,0,1-1.22,1.49c-.5.43-1.62,1.56-1.62,1.56A2.53,2.53,0,0,0,523.63,299.8Zm-18.73.8c1,.13,5.16.66,6.81.9s6.06.88,7.32,1.06,3.19,0,3.8.22c1.09.21.9,1.22,1,1.84a7.72,7.72,0,0,1,.13,2,5,5,0,0,1-1.35,1.34,14.29,14.29,0,0,1-1.55,1c-.39.21.11-.84-.29-1.22a3.6,3.6,0,0,0-1.88-.74c-1-.21-2.54-.58-3.46-.74s-4.59-1-6-1.2a23.72,23.72,0,0,1-4.08-.87c-1-.5-1.63-1.3-2.18-1.49a4.53,4.53,0,0,0-1.23-.4l0-.73s.91-.85,1.16-.85A10.85,10.85,0,0,1,504.9,300.6Zm12.32,16a7.56,7.56,0,0,0-2.93-1.44c-1.06-.27-4-1.19-5.62-1.7s-4.28-1.38-5.17-1.63a10.66,10.66,0,0,1-2.6-.91c-.62-.43-1.3-1.12-1.6-1.26a2.63,2.63,0,0,0-1-.26s-.1-1.87.19-2,1,.19,1.4.15a8.33,8.33,0,0,1,2.25.19c.9.24,5.84,1.5,7.85,1.87s4.57,1.09,6.26,1.35,2.74.28,3.07.89a5.4,5.4,0,0,1,.31,2.5,13.52,13.52,0,0,1,0,2.32c-.06.19-.92.53-1.51.75s-.84.37-.84.37A1.32,1.32,0,0,0,517.22,316.6ZM514.29,325c-.22.22-.55.3-1.23.38a7.48,7.48,0,0,0-1.08.22s.6-.63.06-1.14a5,5,0,0,0-2-1.33c-1.24-.41-3.27-1.26-4.17-1.63s-4.81-2.13-5.91-2.5a44.07,44.07,0,0,1-4.11-1.68c-.82-.44-1.13-.6-1.37-.93s-1-.43-1-.43a11.19,11.19,0,0,0,.27-1.33c.12-.69,0-1.09.19-1.16s.65.19,1.15.1a2.1,2.1,0,0,1,1.35.15c.41.22,2.12.8,3,1.12s5.39,1.95,6.89,2.5,4.15,1.59,5.37,1.92a11.24,11.24,0,0,1,2.41,1,2.19,2.19,0,0,1,.77,1.78c0,.82.12,1-.22,1.4a7,7,0,0,0-.43.66C514.14,324.35,514.48,324.78,514.29,325Zm-6.49,6.37c-.24.22-.94.26-1.37.41a3.17,3.17,0,0,1-.9.15.75.75,0,0,0,.33-.72,1.77,1.77,0,0,0-1.28-1.21c-.87-.22-1.8-.26-2.56-.44a9.55,9.55,0,0,1-2.53-1.15c-1.15-.61-3.47-2.06-4.71-2.68s-3.44-1.84-4.22-2.33a10.23,10.23,0,0,0-1.47-.86,2,2,0,0,0-1.15-.06,4.28,4.28,0,0,1-1.12-.15s1.09-.07,1.31-.51a10.57,10.57,0,0,0,.21-2c.1-.49.07-.73.25-.76s.72.27,1.23.33a4.26,4.26,0,0,1,2,.43c.84.42,4.38,2.31,6.19,3.14s5.57,2.69,6.74,3.12,3,1.09,3.28,1.71a1.32,1.32,0,0,1,.06,1.51c-.28.46-.49.8-.37,1.09S508.05,331.14,507.8,331.36Zm-11.91,5a11.34,11.34,0,0,0-2.44-.68,14,14,0,0,1-3-1.88c-.82-.59-2.9-2.21-3.87-2.86s-2.43-1.88-3.1-2.2a12,12,0,0,0-2.8-.58c-.73-.05-1.63,0-1.75,0s-.41.8-.75.58a3.71,3.71,0,0,0-.83-.58c-.39-.24-.43-.33-.43-.33l0-.77a4.2,4.2,0,0,1,1.19-.18,5.36,5.36,0,0,0,2.07-.2,4.89,4.89,0,0,0,1.22-.52c.51-.31.76-.4,1.26-.75s.41-.73.69-.8a6.87,6.87,0,0,1,1.57,0c.28.21,2.28,1.79,3.46,2.54s4.75,2.88,6.09,3.71a36.38,36.38,0,0,1,4,2.54c.68.58,1.1.87,1.07,1.44s-.49.95-.71,1.37a7,7,0,0,0-.36,1.25,3.63,3.63,0,0,0-.29.65l-1.64.32s.46-.36.35-.8A1.83,1.83,0,0,0,495.89,336.32Zm-8.06,6.16a13.57,13.57,0,0,0-2-1.12,29.65,29.65,0,0,1-3.12-2.31c-1-.76-3.68-3.3-4.24-3.85a26.19,26.19,0,0,0-2.94-2.35,15.8,15.8,0,0,0-2.35-.48l-1.27-.32s-.34.56-.49.56c-.35,0-.27,0-.27,0s0,0-.27-.27-.54-.57-.54-.57a2.93,2.93,0,0,0,.16-.7c.06-.36.11-.87.35-.83a9.18,9.18,0,0,0,1.81.51c.68,0,.77-.15.77-.15a1.7,1.7,0,0,1,1.16-.74,8.11,8.11,0,0,1,1.38-.19,3,3,0,0,1,1.55.28,35.73,35.73,0,0,1,4.17,3c.9.7,4.55,3.6,5.55,4.43s2.22,1.6,2.54,1.88,1.33,1.31,1.12,1.74a12.18,12.18,0,0,0-.9,1.41c-.11.51-.14,1.16-.22,1.4s-.65.41-.91.37-1.08-.07-1.08-.07a2.16,2.16,0,0,0,.58-.65C488.53,343.16,488.26,342.85,487.83,342.48Zm-8.76,4.43c-.53-.34-1.12-.63-2-1.09a8.39,8.39,0,0,1-2.11-1.71c-.57-.71-1.94-2.5-2.59-3.3s-2.28-2.78-3-3.46a5.17,5.17,0,0,0-2.47-1.6,8.53,8.53,0,0,0-1.38-.22c-.23,0-.58.57-.5.76s-.41-.22-.76-.72-1.38-2.06-1.38-2.06a9.63,9.63,0,0,0,2.28.53,9.83,9.83,0,0,0,1.71,0,2.94,2.94,0,0,1,1.29-.9,2.86,2.86,0,0,1,2.42.46c.81.63,4.75,4.61,5.32,5.1s3.15,3.06,3.91,3.77a16.3,16.3,0,0,1,2.34,2.54c.21.54.33.94.12,1.24a2.52,2.52,0,0,0-.56.85c-.16.3-.22,1.09-.41,1.3a1.13,1.13,0,0,1-1,.51,7.35,7.35,0,0,1-1.13-.1s.61-.31.61-.69A1.33,1.33,0,0,0,479.07,346.91Zm24.55-49.74a1.82,1.82,0,0,0-.22,1v.37a4.82,4.82,0,0,0-.54.35c-.26.19-1.59.93-1.59.93a2.1,2.1,0,0,0-.22-.76,2.32,2.32,0,0,0-1.53-1.06,25,25,0,0,0-3.44-.29c-.87,0-2.93-.12-3.8-.19s-1.18-.17-1.56-.17a1.59,1.59,0,0,0-1,.24c-.35.25-.46.52-.65.56s-.55,0-.72,0-.43.21.07.69a4.36,4.36,0,0,0,2.79,1c1,.15,2.39.41,3.39.59s2.44.43,3.31.65a10.65,10.65,0,0,0,2.09.24c.32.1.84.32.84.63s-.14.61-.23.91a2,2,0,0,0-.1,1,.53.53,0,0,1-.25.65c-.26.17-1.23.48-1.48.63a1.58,1.58,0,0,1-.65.07s.12-.66,0-.72a2.09,2.09,0,0,0-1.24-.79c-.72-.22-2.72-.76-3.65-.95s-2.54-.64-3.62-.83-1.78-.56-2.07-.24-.39.48-.61.48-.46-.05-.68.11-.47.48-.27.7a3.81,3.81,0,0,0,1.59.89c.69.31,3.05.87,4,1.25s2.84,1,3.77,1.22,2,.48,2.14,1a1.17,1.17,0,0,1-.18,1.31,3.23,3.23,0,0,0-.56.9c-.05.22-.22.73-.22.73a7.07,7.07,0,0,1-1.08.65l-.82.37a1.1,1.1,0,0,0,0-1.06c-.3-.69-1.05-1.05-2.11-1.55s-3.06-1.23-3.83-1.52l-4-1.55a4.63,4.63,0,0,0-1.78-.32c-.56.16-.82.49-.68.76s.58.38.58.72,0,.58-.15.68-.19.09-.19.09a15.76,15.76,0,0,0,2.22,1.32c.93.46,3.19,1.59,3.79,1.95s2.43,1.16,2.83,1.49,1.33.84,1.16,1.27-.29,1.12-.37,1.36.08.41-.32.6S490,316,490,316a3,3,0,0,0-.1-.54c-.06-.22-.36-.6-1.16-1.06s-3.53-2.09-4.27-2.46a25,25,0,0,1-2.89-1.66A12.21,12.21,0,0,0,479.8,309c-.32-.17-1-.53-1.48-.06s-.58,1.11-.37,1.37a9.51,9.51,0,0,0,.81.76s-.47.37-.41.55a16.25,16.25,0,0,0,2.28,1.76c.91.72,3.4,2.36,4,2.79s2,1.3,2.42,1.67.54.76.21,1.12a1.65,1.65,0,0,0-.43.74s0,.39,0,.61a1.07,1.07,0,0,1-.08.42,1.47,1.47,0,0,1-.69.3l-1.26.13a1.06,1.06,0,0,1-.15-.6c0-.4-.29-.62-.83-1.08s-2.5-1.89-3.49-2.54-2.77-1.93-3.21-2.39-1.22-1.58-1.65-2-1-.72-1.54-.54-1.08.58-1.11,1.09-.19.83.15,1,.72.48.72.65-.48.29-.38.55a20.47,20.47,0,0,0,2.5,2.12c.79.66,3.31,2.63,3.92,3.16a8.09,8.09,0,0,1,2,2.21,2.84,2.84,0,0,1-.1,1.7,2.26,2.26,0,0,1-1.28.43c-.53.11-1.18.19-1.18.19s.26-.58.09-.84a15.66,15.66,0,0,0-2-1.6l-4.23-3.57a8.45,8.45,0,0,1-2.18-2.39c-.35-.65-.91-1.59-1.65-1.59a2.46,2.46,0,0,0-2.08.76c-.46.64-.46,1.32-.11,1.6s1,.68.8.78l-.72.43a11.3,11.3,0,0,1,1.7,1.28c1.09.9,3,2.46,3.68,3.11s2.15,2.06,2.44,2.28a2.42,2.42,0,0,1,.66,1.44,5.15,5.15,0,0,1-.3,1.49c-.18.29,0,.44-.36.65a3.5,3.5,0,0,1-1.41.22,1.27,1.27,0,0,1-.5-.12s.64-.46.61-.71a7.54,7.54,0,0,0-1.43-1.57c-.48-.46-3.2-2.75-4.18-3.65a12.75,12.75,0,0,1-2.73-3.14,11.87,11.87,0,0,0-.81-2.68c-.52-.73-1.67-1.6-2.13-2.36a44,44,0,0,1-3-4.91c-.82-1.59-1.65-2.84-1.82-4.24s0-2.2-.3-2.64-.79-1.12-1-1.12S455,302,455,302a8,8,0,0,1,2.26-2.1,23.5,23.5,0,0,1,5.14-2.37,69.77,69.77,0,0,1,9-1.85c2.4-.19,8.74-.22,10.81-.27s6.05.08,7.35.05,3.28,0,4.69,0,4.13-.05,5-.05a18.05,18.05,0,0,1,3,.05c.49.1,1.36.25,1.44.6S503.86,296.76,503.62,297.17ZM464,324.53c.59.46,1.72,1.19,2,1.37a12.73,12.73,0,0,1,2.07,2c.38.45,1.25,1.25,1.19,1.76a5.31,5.31,0,0,1-.74,2.2,2.28,2.28,0,0,1-1.21.8c-.36,0-1.09-.06-1.09-.06s.87-.27.87-.66-.14-.67-.8-1.32a13,13,0,0,1-1.54-1.79A19.27,19.27,0,0,1,463.6,327l-.43.15-.49.07s-.19-1.49-.31-2.35-.49-1.52-.63-1.9-.41-1.35-.41-1.35S463.48,324.05,464,324.53ZM462.15,336l.09-.63,1.33,1.75a19.36,19.36,0,0,1,1.74,1.76c.45.5,2.22,2.79,2.95,3.87s2.85,3.84,3.29,4.42,1.56,2.16,1.49,2.65a8.23,8.23,0,0,1-.41,1.55c-.24.46-.49,1-.7,1.06s-1.39,0-1.39,0a1.89,1.89,0,0,0,.33-.7,2.49,2.49,0,0,0-1.24-1.53,18.53,18.53,0,0,1-2.39-1.47c-.32-.39-1.32-2.91-1.74-3.81a31.77,31.77,0,0,0-2.11-3.73c-.56-.84-.93-1.71-1.19-1.81s-.13.12-.46.17a.83.83,0,0,1-.62-.17,10.73,10.73,0,0,0,.62-1.78A14.12,14.12,0,0,1,462.15,336Zm22.2,43.45a17.29,17.29,0,0,0-2.93-1.44c-.86-.33-2.81-.94-4.08-1.45a5.77,5.77,0,0,1-2.36-1.4,40,40,0,0,1-2.69-4.46c-.72-1.35-2.9-5.47-3.46-6.55a7.11,7.11,0,0,1-.91-2.44c-.09-.67-.14-3.1-.35-3.76a6.58,6.58,0,0,0-1.37-2,2.89,2.89,0,0,0-.81-.56,5.57,5.57,0,0,0-.86-.31s-.09-.87-.09-1a3,3,0,0,0-.05-.48s1.68.18,2.66.18a16.35,16.35,0,0,1,2.36,0c.41.08,1,0,1.4.54a10,10,0,0,1,.93,2,56.47,56.47,0,0,0,3.8,5.64c.5.66,2.78,3.74,3.72,5l4.45,5.74c.79,1,2.38,2.65,2.76,3.22s1.41,2,1.57,2.37-.24.74-.47,1.08-.72.86-1.18,1.35a7.2,7.2,0,0,1-1.39,1c-.16.08.08-.56.13-.9S485,379.94,484.35,379.43Zm-17.11,1.19a4.74,4.74,0,0,0-1.63-1.33c-.73-.38-2.13-1.12-2.28-1.56a2.21,2.21,0,0,1,.15-1.74,5,5,0,0,0,.22-3.21,4.58,4.58,0,0,0-.53-1.44,1.43,1.43,0,0,0-.53-.56s.6-2,.69-2.54l.44-1.75s1.08,1.78,1.49,2.4A29.69,29.69,0,0,1,467.2,372c.5,1,2.09,3.57,2.5,4.45a4.65,4.65,0,0,1,.9,2.57,6.68,6.68,0,0,1-1.05,2.39c-.26.43-.26.87-.82,1.3a3.26,3.26,0,0,1-1.46.57,2.34,2.34,0,0,0,.65-1A3.15,3.15,0,0,0,467.24,380.62Zm-2,3.52a11.39,11.39,0,0,0,2.74.18,2.12,2.12,0,0,0,1.94-.9,9.87,9.87,0,0,0,1.42-2.32l.59-1.34s1.27.51,2.05.86l3.81,1.31a13.5,13.5,0,0,1,3.11,1.06c.59.43.76.74.72,1.21a12,12,0,0,1-.86,2.28c-.41.78-1.9,3.92-2.46,5s-3,4.87-4.23,6.61a79,79,0,0,1-6.6,8,25.34,25.34,0,0,1-4.25,3.76c-1.09.55-2.76.87-3.94,1.55l-6,3.74c-1.55,1-3.8,2.3-5.42,3.14s-5.62,2.82-6.86,3.44-2.85,1.28-3.62,1.66a4.46,4.46,0,0,1-2.05.58,1.55,1.55,0,0,1-1.33-1c-.3-.48-2.22-3.82-2.92-5.07s-3.41-5.95-3.94-6.77a3.32,3.32,0,0,0-2-1.74,4.38,4.38,0,0,0-1.41-.44,3.16,3.16,0,0,1-1.22-.1,1.12,1.12,0,0,1-.62-.59s2.66-1,3.88-1.6,3.58-1.51,5.12-2.23,5.81-3.11,7.63-4.19a72.66,72.66,0,0,0,6-4.31c1.89-1.64,4.92-4.41,6.15-5.58a54.28,54.28,0,0,0,4.92-5.87C456.53,383.3,458,381,458,381l3.26,1.64A16.76,16.76,0,0,0,465.26,384.14Zm-68.55,56.53c0,.68,0,1.45,0,1.45s-1.85,1.88-2.39,2.38l-2.73,2.32a7.56,7.56,0,0,1,.65-1.34c.29-.36.56-1,.31-1.38a19.89,19.89,0,0,0-2.32-2.49,3.2,3.2,0,0,1-1.26-2.11c-.1-.75.3-6.22.58-8.53s.51-7.42.68-9.2.38-3.87.08-4.63a4.44,4.44,0,0,0-1.38-1.88,9.19,9.19,0,0,0-1.18-.4l0-1.59a18.65,18.65,0,0,0,1.92,0,12.81,12.81,0,0,1,3-.34c1.08.1,2.24.34,2.35,1s.11,2.48.15,3.65.5,7.3.53,8.28.6,7.77.69,9.4S396.74,440,396.71,440.67Zm12.4.43a18.63,18.63,0,0,1-1.87,2.37c-.59.57-2.68,3.21-2.68,3.21a1.85,1.85,0,0,1,.06-1.15c.3-.31.88-.84.81-1.43a4.43,4.43,0,0,0-1.17-2.13c-.46-.5-1.61-1.11-2.17-1.67a3.29,3.29,0,0,1-.91-2.22c-.05-1.36-.61-8.19-.79-10.4s-.62-8.51-.76-9.46a4.36,4.36,0,0,0-.95-2.52,5.32,5.32,0,0,0-1.61-1,3.34,3.34,0,0,0-.79-.18l-.06-1.3s1.54-.19,2.15-.34a13.85,13.85,0,0,1,3.16-.5c.9,0,1.8.22,2,.84s.41,2.24.52,3,1.82,8,2,9,2.11,8.89,2.33,10,.83,3.88.8,4.53A6.9,6.9,0,0,1,409.11,441.1Zm11.19,0c-.57.87-2.5,3.44-2.5,3.44a3.54,3.54,0,0,1,.1-1.34,2.16,2.16,0,0,0,.27-1.34,4.75,4.75,0,0,0-1.17-1.95c-.54-.48-1.7-.84-2.27-1.37a3.68,3.68,0,0,1-1.27-2.47c-.48-1.7-1.56-6.35-1.88-7.7s-1.82-7.93-2.14-9.22-.64-3.06-1.2-3.72a6.57,6.57,0,0,0-2-1.66,4.91,4.91,0,0,0-1.13-.07,2.89,2.89,0,0,0-.43.07l-.3-1.33a6.42,6.42,0,0,0,1.75-.22,22.14,22.14,0,0,1,3.48-1.15c.78-.08,2-.08,2.14.24a17.58,17.58,0,0,1,.86,2.05c.32,1,2.67,6.9,3.18,8.49s3.16,7.85,3.65,9.12,1.71,4.16,1.86,4.78a9.5,9.5,0,0,1,.57,2.64A16.44,16.44,0,0,1,420.3,441.1Zm14.23-6.26c-.22.55-1.49,2.83-1.74,3.45s-1.53,2.73-1.53,2.73a12.42,12.42,0,0,0-.44-2.6,3.06,3.06,0,0,0-1.29-1.84,21.64,21.64,0,0,0-2.33-1.07,4.74,4.74,0,0,1-1.48-1.86c-.61-1.17-2.18-5.47-2.7-6.8-.58-1.52-2.57-6.49-3.26-8.08a37.41,37.41,0,0,0-2.27-5.19,5.66,5.66,0,0,0-2.25-1.67,6.79,6.79,0,0,0-1.2-.16,5.24,5.24,0,0,1-.68.08l-.45-1s2.17-.49,3.26-.8a27.23,27.23,0,0,1,3-1c.76-.15,1.1-.19,1.46.22a4.85,4.85,0,0,1,1,1.63c.2.57,2.4,4.41,3.12,5.64s2.84,4.95,3.49,6.09,2.85,4.77,3.29,5.57,1,1.79,1.48,2.44,1,2.08,1.3,2.73S434.71,434.37,434.53,434.84ZM488.8,383c-.21.7-1,2.9-1.57,4.06s-2.32,4.63-3,5.79-3.46,5.63-4.66,7.26-4.73,6-5.86,7.24-5.46,5.45-6.52,6.51-8.76,6.05-10.24,7-6.43,3.76-7.56,4.35-4.65,2.34-5.79,2.91a44.42,44.42,0,0,1-5,2.21,7,7,0,0,1-2.3-.11,8.19,8.19,0,0,0-1.2-.08c-.22,0-1.13.12-1.13.12l-.31-.55s2.85-1.16,4.33-1.89,7.72-3.57,9.49-4.63,5.42-3.07,7.35-4.35,6.4-4.59,8-6,6.4-6.06,7.25-7.07,4.55-4.56,5.43-5.43a31.42,31.42,0,0,0,3.46-3.87,76.16,76.16,0,0,0,4.16-6.91c.51-1.25,1.08-2.14,1-2.67s-.17-1-.32-1-1-.34-1-.34l.34-1.09a3,3,0,0,0,.21-.58,4.06,4.06,0,0,0,1.41-.19,10.29,10.29,0,0,0,2.4-1.82,12.39,12.39,0,0,0,1.88-2.09,5,5,0,0,1,.41-.6s.39.12.39.34A28.8,28.8,0,0,1,488.8,383Zm16.92-6.36a18,18,0,0,1-1.64,2.32c-.54.46-1.74,1.3-1.74,1.3s.44-.84.33-1.23a2.94,2.94,0,0,0-1.62-1.43c-.62-.24-3.34-.88-4.53-1.29a18.38,18.38,0,0,1-4.46-2c-.72-.53-3.8-4.22-4.56-5.13s-3.39-4.4-4.34-5.62-3-4.16-4.16-5.61-2.93-3.76-3.37-4.22-.57-.72-1-1a5.29,5.29,0,0,1-.63-.55l.33-1.15a3.13,3.13,0,0,0,.11-.7,19.22,19.22,0,0,0,2.5,0,8.47,8.47,0,0,1,2.64-.35,1.77,1.77,0,0,1,1.84,1.18,17,17,0,0,0,2.86,3.45c1,1,5.76,5.33,7.21,6.72s6.05,5.8,7.67,7.21,3.79,3.37,4.42,3.94,1.95,2,2.28,2.35A1.76,1.76,0,0,1,505.72,376.65Zm23.07-4.39a30.9,30.9,0,0,1-2,3.52,9.54,9.54,0,0,1-1.63,1.61,1.62,1.62,0,0,1-.61.37s.65-.76.5-1.22a2.53,2.53,0,0,0-1.18-1.67,33.64,33.64,0,0,0-3.53-.91c-1.14-.22-5.53-1.29-7.26-1.81a11.58,11.58,0,0,1-4.17-1.63c-1.05-.79-3.79-3.32-5.18-4.63s-4.15-3.83-5.78-5.28-4.92-4.59-6.08-5.7-4.4-4-5-4.62a30.4,30.4,0,0,0-2.29-2.28c-.4-.35-.72-.31-.94-.79a1.2,1.2,0,0,1,0-1.06,3.14,3.14,0,0,1,.26-.5,9.49,9.49,0,0,0,2.2-.06,17.92,17.92,0,0,1,2.5-.51,4.43,4.43,0,0,1,2.08.18,24.18,24.18,0,0,1,3.76,2.28c1,.82,5.31,4.15,6.65,5.13s7.78,5.54,9.13,6.44,7.11,4.79,8.67,5.77,4.51,2.67,5.91,3.5a24.32,24.32,0,0,1,3.43,2.11C528.66,370.9,529.2,371.34,528.79,372.26Zm24.69-6.42c-.34.7-1.09,2.77-1.41,3.42a15.86,15.86,0,0,1-1.44,2.47c-.54.42-.8.69-1.07.75s-.38,0-.38,0,.59-.69.59-.94a2.52,2.52,0,0,0-2.44-2.17,32.67,32.67,0,0,1-3.65-.18,56,56,0,0,1-5.91-.87,28.13,28.13,0,0,1-4.63-1.19c-1.52-.68-4.92-2.5-6.7-3.52s-7.34-4.48-9.15-5.67c-1.65-1.1-9.73-6.85-11-7.75s-4.11-3-5.32-3.88a35.21,35.21,0,0,0-3.5-2.56c-.68-.29-2.69-1-3.34-1.31s-1.42-.47-1.63-.94a2.22,2.22,0,0,1-.1-1s2.78-.67,3.52-1a7.74,7.74,0,0,1,2.82-.51,29.48,29.48,0,0,1,3.87,1.74c1.2.71,6.59,3.55,8.31,4.5s8.88,4.52,10.46,5.28,6.84,3.41,8.72,4.22,8.44,3.75,10.3,4.47c1.7.76,4.44,1.74,6,2.31S550,362.67,551,363s2.6.73,2.72,1.13A2.84,2.84,0,0,1,553.48,365.84Zm25.92-10.38c-.19.52-.62,2.08-.95,3a10.13,10.13,0,0,1-1.33,2.74,4.35,4.35,0,0,1-1.68.82,1.27,1.27,0,0,0,.53-1.06,1.52,1.52,0,0,0-.75-1.14,2.06,2.06,0,0,0-1.43-.6c-.66-.08-2.39.11-3.73.16s-5.93.1-7.74.1-3.61.12-5,0a27.49,27.49,0,0,1-5.05-1c-2.11-.59-7.25-2.43-9.56-3.37s-9.06-3.9-10.9-4.74-8.54-4.17-10.79-5.31-5.41-2.69-7.15-3.62-5.47-3-6.41-3.52a23.35,23.35,0,0,0-2.91-1,10.68,10.68,0,0,1-2.35-.75,8.86,8.86,0,0,0-1.23-.43l.12-1.12a41,41,0,0,0,4-1.08,9.89,9.89,0,0,1,3.87-.95,33,33,0,0,1,5.51,1.6c1.51.57,7,2.51,8.42,3.11s14,4.75,16,5.34,12.8,3.84,15.11,4.53,12.75,3.27,15.21,3.82,6.55,1.18,7.84,1.48,2.43.47,2.55,1.08A3.91,3.91,0,0,1,579.4,355.46Zm24.35-9.68a16.7,16.7,0,0,1-2,3.53,10.43,10.43,0,0,1-2,2,3.47,3.47,0,0,1-.72.5s.48-.72.37-1.18a2,2,0,0,0-1.55-1.2,27.64,27.64,0,0,0-3.78,0,80.66,80.66,0,0,1-9.92-.8c-4-.62-10-1.5-14-2.5s-9.85-2.34-14-3.5-11-3.15-15.22-4.56-9.81-3.27-12.2-4.13-9.47-3.37-10.56-3.77a8.32,8.32,0,0,0-2.63-.71,23.1,23.1,0,0,1-2.76,0,11.15,11.15,0,0,1-2.38-.54c-.43-.19-.84-.22-1-.59a1,1,0,0,1-.12-.69,18,18,0,0,0,2.13-.22c.67-.19,2.38-.53,3.1-.74s1.05-.41,1.11-.78-.06-1.45,0-1.91.36-.91.36-.91,1.59.38,2.24.45a25.56,25.56,0,0,1,3.91.68c1,.24,11.7,2.93,13.43,3.43s14,3.37,16.07,3.83,12.17,2.62,14.4,3,17.18,3.25,19.67,3.68,11,1.71,12.94,1.89,4.93.54,5.56.67,1.11.42,1,1.1A17.51,17.51,0,0,1,603.75,345.78ZM624.09,333a11.29,11.29,0,0,1-1,2.71,4.16,4.16,0,0,1-1.18,1.45l-.83.37s.42-.85.22-1.31a3.06,3.06,0,0,0-1.64-1.34,29.31,29.31,0,0,0-3.72.5c-1.35.22-3.73.46-5.34.6s-3.67.27-4.7.24-3-.24-4.62-.47-7.89-1.13-10.14-1.48-9.4-1.63-12.46-2.11-13.77-2.74-15.84-3.26-10.05-2.17-12.05-2.65-10.75-2.52-12.74-3-7.59-1.84-9.09-2.17-4.56-1.11-5.4-1.29a5.72,5.72,0,0,0-2.44-.15c-.72.15-2.22.59-2.65.75a2,2,0,0,1-1.23.12,2,2,0,0,1-1.15-.54,17.3,17.3,0,0,0,2.35-.87c.83-.33,2.12-.69,2.53-1.37s.5-.8.43-1.28a3.58,3.58,0,0,0-.15-.79s2.59.11,3.61.22,5.94.83,7.48,1.05,9.07,1.33,11.11,1.63,15.86,2.2,18.59,2.58,14.63,1.84,16.83,2.11,15.58,1.7,17.63,1.89,9.62.9,12.2,1.09,8.14.53,10.56.57A35.24,35.24,0,0,1,624,327c.62.22,1.1.65,1,1.08S624.31,332.31,624.09,333Zm16.31-14.52a9.53,9.53,0,0,1-1.79,3.55,7.71,7.71,0,0,1-1.44.95s.32-.74.1-1.16a2.31,2.31,0,0,0-1.68-1.06c-.57,0-4.07.95-5.78,1.12a52.8,52.8,0,0,1-6.77.48c-2.17,0-7.12-.25-9.69-.41s-9.33-.68-12.76-1.08-12.76-1.39-17.07-1.88-13-1.6-16.15-2-13-1.72-15.74-2.13-9.77-1.33-11.75-1.62-8.15-1.22-9.9-1.48-2.88-.47-3.67-.47-1.41-.07-2.39,0a11.94,11.94,0,0,1-1.37.08,8.43,8.43,0,0,1-1.06-.08,6.79,6.79,0,0,1-.69-.14s1.8-1.12,2.59-1.74,1.67-1.19,1.89-1.79a2.86,2.86,0,0,0,.19-.87s5.52.19,6.8.32l9,.61,14.43,1c3.07.22,16.83,1.13,19.63,1.3s13.71.83,16.42,1,13.2.7,16.61.84,15.37.51,17.41.55,8.76.09,10,0,2.6-.17,3.41-.17,1.66,0,1.7.89A27.79,27.79,0,0,1,640.4,318.52Zm13.37-14.33c0,.62.3,1.44.14,1.63a11,11,0,0,1-1.86,1,2.76,2.76,0,0,1-.63.18.94.94,0,0,0,.07-.86,2.94,2.94,0,0,0-1.51-1.05,5.17,5.17,0,0,0-2.3.48,58.27,58.27,0,0,1-5.67,1.62,22.87,22.87,0,0,1-5.36.68c-2.86.05-9.48.05-12.34-.1s-11.22-.36-15.2-.55-13.78-.72-17.21-.86-14-.79-16.49-.95-14.79-.94-17.41-1-15.38-1-17.47-1.25-6.56-.49-7.93-.57a27.16,27.16,0,0,1-4-.48c-.68-.17-.68-.46-1.28-.58a12.82,12.82,0,0,0-1.3-.12s1.52-1.68,1.93-2.12a6.33,6.33,0,0,1,1-1.17,11.5,11.5,0,0,0,2-.12c.84-.34,6.12-.22,7.56-.34h13.32c2.13,0,16-.22,18.24-.19s12.32,0,14.88-.05,14.9,0,17.83-.15,18.32-.17,20.88-.26,14.44-.24,16.58-.31,6.47-.09,7.83-.19a19.6,19.6,0,0,1,3.06-.14c.52,0,.59.57.78.86s.83,2.71,1.22,3.84A15.92,15.92,0,0,1,653.77,304.19ZM452.22,282.26c2.42-.46,9.33-1.67,12.17-1.87s7.75-.44,10.09-.44c2.57,0,7.49.25,11.17.57,3.85.41,9.1,1.18,12.57,1.37s9.36.37,12,.3,7.33-.3,9.91-.34,12.06-.36,15.22-.58,11.7-.68,14.88-.78,12.92-.38,15.71-.38,14.88.52,17.95.7,10.61.58,13.38.73,6.82.31,9.12.45,9.24-.1,10.72-.1,6.73,0,9.61-.09,10.48-.78,13.31-1,9.87-1,12.21-1.16a48.08,48.08,0,0,1,5.51-.32,4.87,4.87,0,0,1,2.44,1.22c.32.38,1.66,1.8,2.62,2.9A17,17,0,0,1,665,286c.15.4.8,1.3.64,1.59s-.22.95-.56,1.17l-2,.87a1.34,1.34,0,0,0-.66-1,3.38,3.38,0,0,0-2.2-.38c-.68.31-3,1.27-4.3,1.86a25.76,25.76,0,0,1-4.57,1.7c-1.06.14-5,.32-7.71.36s-10.48.07-13.86.18-14.83.18-17.26.22-12.89.17-16.22.17-12.71.19-15.73.15-16.45.22-19.41.18-11.29,0-13.54.08-5.28.14-8.21.33-7,.65-8.15.68A11.58,11.58,0,0,1,528,294a5.09,5.09,0,0,0-.93-.33l-1.36-.21-.21-.52s1.3-.24,2.35-.5,2-.69,3.88-1.1,6.61-1.26,9-1.64,13-2.29,16.1-2.69,11-1.29,13.82-1.51,10.74-.81,13.57-.94,9-.44,10.6-.4,7,.13,9.09.25,3.3.15,3.3.15l.39-1.42s-2.28-.11-4.13-.22-6.77-.22-8.43-.22-7.63,0-9.9.19-5.38-.27-8-.32c-3.19-.17-10.29,0-13.21.13s-11.11,1-13.72,1.39-11.5,1.57-15.6,2.35-10.45,2-13.45,2.55-6.78,1.3-10.24,1.67-10.3.48-12.81.41-10-.22-13.74-.19-10,.09-13.67.53a46.31,46.31,0,0,0-8.61,1.79,19.25,19.25,0,0,0-5.11,2.24,4.09,4.09,0,0,0-1.89,2.36c.06.32.14.59.14.59l1,.31s-.95.77-1.52,1.21a5.38,5.38,0,0,0-1.36,2.52c-.15.94-.48,3.19-.53,4.16a3.82,3.82,0,0,0,.17,2.1c.31.76,1.83,3.44,2.4,4.57s2.17,3.66,2.61,4.37,1.23,1.82,1.82,2.75a15.83,15.83,0,0,1,1.72,3.72,13.91,13.91,0,0,1,.17,2.79V332a2.87,2.87,0,0,1-.28,1.64c-.17.22-.65.63-.68,1.06s-.32,1.41-.4,1.94-.53,1.6-.53,1.6a14.62,14.62,0,0,1-.61-1.43,21,21,0,0,0,.08-2.68c-.08-1.48-2.34-6.26-2.87-11.07-.34-3-2.14-6.09-3.55-8.13s-2.26-4.09-3.85-6.75-6-5.28-8.74-7.29c-2.19-1.48-5-4.88-5-7.52,0-1.23-.66-3.14-2.14-2.31a6,6,0,0,1,1.6-1.92,25,25,0,0,1,6.53-3.73C443.87,284.42,449.81,282.84,452.22,282.26ZM348.63,281.2c1.43-.57,8.61-3,10.86-3.61,2.72-.72,9.06-2.2,12.86-2.81a130.06,130.06,0,0,1,18.88-1.47,146.15,146.15,0,0,1,15.21.87c3.08.41,9.26,1.49,11.77,2.06s6.72,1.72,9.11,2.5,6,2.07,7.43,2.68a15.64,15.64,0,0,1,2.56,1.1c.25.17.29.57,1,.93s1.86.75,1.86.75a3.93,3.93,0,0,1-1,.6c-.6.24-1.36.57-1.91.81s-1.17.59-1.17.59,0-.83-.33-1.09a21.78,21.78,0,0,0-4-1.91c-1.8-.65-4.43-1.62-7.08-2.35s-7.19-2.11-10.34-2.64-6.41-1.16-9.45-1.45-10-.87-13.6-.84-10.51.41-13.94.87A115.64,115.64,0,0,0,365,278.92c-3.3.84-7.73,1.93-9.41,2.47a28.36,28.36,0,0,1-4.53,1.48,23.48,23.48,0,0,1-2.53-.14,4.42,4.42,0,0,0-1.28.11c-.22.07-1,.46-1.29.33l-.95-.52S347.22,281.85,348.63,281.2Zm-225.39.72c.87-1,2-2.38,2.39-2.49a14.62,14.62,0,0,1,3.51-.08c1.16.08,8.4.76,9.85.87s7.59.3,9.21.37,9.49.12,12.05.22,10.77.24,13.19.15,9.22-.74,11.32-.85,8.63-.59,11.69-.68,9.37,0,11.37-.13,10-.19,12.7-.19,10.53.32,13.14.32,13.94.74,16.88.87,17.57.66,20.81.72,8,.22,10.54.07,14.86-.68,18.58-.79,13.54-.24,17.53-.13,13.48,1,16.7,1.41,6.4,1.18,7.36,1.26,2.32.11,2.85.61,1,1.53,2,2.1,2.35.84,2.81,1.45.53,1.94.81,2.5a11.08,11.08,0,0,1,1.54,3.61,8.3,8.3,0,0,1-.76,4.64,26.62,26.62,0,0,1-3.5,4.42c-1.46,1.49-3.71,3.08-5.63,4.78s-5.2,4.19-6.87,6.51-2.74,3.9-3.12,6.22-.14,3.71-.27,4.09a4.63,4.63,0,0,1-1,2c-.53.62-3,3.36-3.78,4.53s-2.32,3.26-2.66,3.84a8.67,8.67,0,0,0-.68,1.14l-.57-1a17.43,17.43,0,0,0,1.37-1.74c.44-.57.16-2.24.44-5,.64-7.26,9.72-15.4,8.46-22.83-1.09-5.82-8.3-10.78-15.57-11.9C313.72,292,300,291,297,290.92c-3.71-.12-13.65-.27-16.78-.34s-11.32-.06-13.74-.19a62.84,62.84,0,0,1-9.37-.74,78.76,78.76,0,0,1-10.6-2.69c-3.93-1.16-7-2.11-10.08-2.76a78.48,78.48,0,0,0-9.61-1.55c-2.73-.24-7.93-.63-12-.73s-13.76,0-16.91.07-12.88.36-15.45.36-5.28,0-6.56.06-.89.65-1.44.76-3.54,0-5.25,0-3-.11-3.52-.16-1.51,0-1.51,0a.62.62,0,0,0,.48.73c.61.18,2.09.27,2.59.36s4.54.25,5.94.32,3.84.12,5.4.22,4.28.15,6.08.19,9.12,0,11.85.05,7.7.13,10.11.19,8.37.29,13,.85a102.11,102.11,0,0,1,13,2.15c4.42,1.06,9.67,2.72,12.23,3.54s6.09,1.72,7.93,2.15,3.51.47,4,.9A1,1,0,0,1,257,296c-.26.61-.51.83-.74,1.38s-.35,1-.35,1h-1.67a1.38,1.38,0,0,0,.35-.73c.06-.34-.94-.89-1.95-1.15s-5.71-.6-6.94-.76a76,76,0,0,0-8.37-.55c-2.51.06-12.34-.06-14.87,0s-11.7-.1-14,0-10.38,0-12.61,0-7.33,0-9.37,0-8.94,0-11.38-.06-10.8-.22-12.38-.19-6.2-.07-8.46-.07-10.12-.34-12.25-.34a28.57,28.57,0,0,1-5.61-.43c-.83-.22-5.28-2.53-7.13-3.44s-5.21-2.62-6.15-3.15-1.89-1.11-2.13-1.22-1.52,1.13-1.9,1.59-1,0-1,0S122.37,283,123.24,281.92Z" transform="translate(-116 -271.83)"/><path d="M461.74,357.78c0-25.8-28.23-51.68-69.74-51.68S322.3,332,322.3,357.78s28.2,51.71,69.7,51.71S461.74,383.6,461.74,357.78Zm-112,25.28c0-2.46,4.95-5,4.9-7.2h0v-36.2c0-1.85-5.17-2.68-5.17-6.15a3.87,3.87,0,0,1,.13-.78c1.22-2.88,8.87-9.12,21.24-13a76.39,76.39,0,0,1,20.72-3.15,80.79,80.79,0,0,1,11.57.76c15.8,2.32,26.93,9.85,28,19.62a21.85,21.85,0,0,1,.12,2.43c0,5.64-2.64,10.61-11.29,15.5V355a22.61,22.61,0,0,1,13.43,20.18c-.15,12.27-14.21,22.6-38.8,22.73-1.73,0-3.47,0-5.1-.13C364.56,396.55,349.72,385.5,349.72,383.06Z" transform="translate(-116 -271.83)"/><path d="M410.31,375.6c0-13.51-9.22-16.7-17.87-16.76-9.13.06-18.72,2.81-18.72,16.76s9.74,16.24,18.35,16.24h.65C401.78,391.84,410.31,387.75,410.31,375.6Z" transform="translate(-116 -271.83)"/><path d="M392,353.35c9.6-.07,16.58-3.78,16.58-15.21,0-11-6.64-15.06-16.58-15.12-9.11.06-16.63,4.55-16.63,15.12C375.4,350,382.85,353.28,392,353.35Z" transform="translate(-116 -271.83)"/></svg>