<svg id="Layer_1" data-name="Layer 1" xmlns="http://www.w3.org/2000/svg" viewBox="0 0 82.9 74.1"><defs><style>.cls-1{fill:#1d1d1b;fill-rule:evenodd;}</style></defs><path class="cls-1" d="M381.87,192.24c-22.9,0-41.45,16.59-41.45,37s18.55,37,41.45,37,41.45-16.59,41.45-37-18.56-37-41.45-37m-1.82,61.08c0,6.17-4,7.62-6.53,7.62-3.62,0-9.94-2.61-15-7.69A35.64,35.64,0,0,1,347.87,231c-.61-12.62,3-15.79,5-15.79S357,217,358,220.67s1.67,7.91,1.67,7.91c.73,4.68,1.76,8.12,4.28,11.25,3.76,4.67,6.67,4.86,11.46,6.53S380.05,249.19,380.05,253.32Zm0-14.07c0,2-1.19,2.91-2.53,2.91s-4.74.14-7.43-1.94c-3.34-2.5-4.77-6.16-6-10.52a27.23,27.23,0,0,1-1.13-7.86c0-4.23,1.91-5.41,4.12-5.41h8.77c2.1,0,4.23,1,4.23,4.31Zm.1-31.68c0,2.78-1.53,4.17-3.85,4.17H363.42c-2.74,0-3.71-1.8-4.65-3s-2.42-1.07-2.42-1.58,3.31-4.29,9.36-7.41,10.1-3.28,10.8-3.28a4.26,4.26,0,0,1,3.68,4.44Zm3.35-6.72a4.28,4.28,0,0,1,3.69-4.44c.7,0,4.74.17,10.79,3.29s9.37,6.89,9.37,7.4-1.48.35-2.42,1.59-1.91,3-4.66,3H387.39c-2.32,0-3.85-1.4-3.85-4.17Zm16.1,28.83c-1.27,4.36-2.69,8-6,10.53-2.69,2.07-6.09,1.94-7.43,1.94s-2.53-.92-2.53-2.91V220.72c0-3.34,2.13-4.31,4.22-4.31h8.78c2.21,0,4.12,1.19,4.12,5.41A27.66,27.66,0,0,1,399.64,229.68Zm5.47,23.6c-5.08,5.08-11.39,7.69-15,7.69-2.54,0-6.53-1.45-6.53-7.62,0-4.13-.15-5.29,4.64-7s7.71-1.86,11.47-6.53c2.51-3.13,3.55-6.57,4.28-11.25a80.32,80.32,0,0,1,1.67-7.9c1-3.66,3.19-5.52,5.15-5.52s5.58,3.17,5,15.79A35.7,35.7,0,0,1,405.11,253.28Z" transform="translate(-340.42 -192.24)"/></svg>