<svg id="fc384b9b-9d69-4ab5-b975-e1630a01499e" data-name="Capa 1" xmlns="http://www.w3.org/2000/svg" viewBox="0 0 516.99 263.58"><title>bugatti</title><path d="M399.7,241c-142.41,0-258.48,58.47-258.48,131.81S257.29,504.61,399.7,504.61s258.51-58.43,258.51-131.77S542.13,241,399.7,241Zm0,261.35c-142.69,0-256.27-58.52-256.27-129.54S257,243.28,399.7,243.28,656,301.85,656,372.84,542.41,502.38,399.7,502.38Z" transform="translate(-141.22 -241.03)"/><path d="M399.7,264.83c-145.41,0-234.75,59.51-234.75,108S254.29,480.89,399.7,480.89s234.77-59.56,234.77-108S545.11,264.83,399.7,264.83Zm0,213.81c-145.66,0-232.53-59.6-232.53-105.8S254,267,399.7,267s232.55,59.59,232.55,105.81S545.34,478.64,399.7,478.64Z" transform="translate(-141.22 -241.03)"/><path d="M399.7,248.08a6,6,0,1,1-5.92,6A6,6,0,0,1,399.7,248.08Z" transform="translate(-141.22 -241.03)"/><path d="M380.09,248.43a6,6,0,1,1-5.93,6A6,6,0,0,1,380.09,248.43Z" transform="translate(-141.22 -241.03)"/><path d="M360.51,249.59a6,6,0,1,1-6,5.93A6,6,0,0,1,360.51,249.59Z" transform="translate(-141.22 -241.03)"/><path d="M341,251.53a5.92,5.92,0,1,1-5.92,5.89A5.9,5.9,0,0,1,341,251.53Z" transform="translate(-141.22 -241.03)"/><path d="M321.55,254.25a6,6,0,0,1,5.95,6,5.94,5.94,0,1,1-5.95-6Z" transform="translate(-141.22 -241.03)"/><path d="M302.27,257.91a5.94,5.94,0,1,1,0,11.88,5.94,5.94,0,1,1,0-11.88Z" transform="translate(-141.22 -241.03)"/><path d="M283.21,262.45a5.94,5.94,0,1,1-6,6A5.94,5.94,0,0,1,283.21,262.45Z" transform="translate(-141.22 -241.03)"/><path d="M264.38,268a6,6,0,1,1-5.92,5.95A5.93,5.93,0,0,1,264.38,268Z" transform="translate(-141.22 -241.03)"/><path d="M245.94,274.7a5.94,5.94,0,1,1-6,5.93A5.94,5.94,0,0,1,245.94,274.7Z" transform="translate(-141.22 -241.03)"/><path d="M228,282.58A5.92,5.92,0,1,1,222,288.5,5.93,5.93,0,0,1,228,282.58Z" transform="translate(-141.22 -241.03)"/><path d="M210.67,291.84a5.95,5.95,0,1,1-5.93,5.94A5.93,5.93,0,0,1,210.67,291.84Z" transform="translate(-141.22 -241.03)"/><path d="M194.35,302.67a6,6,0,1,1-5.93,6A6,6,0,0,1,194.35,302.67Z" transform="translate(-141.22 -241.03)"/><path d="M179.44,315.46a5.93,5.93,0,1,1-5.93,5.9A5.91,5.91,0,0,1,179.44,315.46Z" transform="translate(-141.22 -241.03)"/><path d="M166.77,330.35a6,6,0,1,1-5.94,5.95A5.93,5.93,0,0,1,166.77,330.35Z" transform="translate(-141.22 -241.03)"/><path d="M157.65,347.66a5.95,5.95,0,1,1-5.93,5.94A6,6,0,0,1,157.65,347.66Z" transform="translate(-141.22 -241.03)"/><path d="M399.71,485.69a5.94,5.94,0,1,1-5.93,6A5.93,5.93,0,0,1,399.71,485.69Z" transform="translate(-141.22 -241.03)"/><path d="M380.09,485.34a5.93,5.93,0,1,1-5.92,5.94A5.91,5.91,0,0,1,380.09,485.34Z" transform="translate(-141.22 -241.03)"/><path d="M360.51,484.16a6,6,0,1,1-6,6A6,6,0,0,1,360.51,484.16Z" transform="translate(-141.22 -241.03)"/><path d="M341,482.29a5.92,5.92,0,1,1-5.91,5.91A5.9,5.9,0,0,1,341,482.29Z" transform="translate(-141.22 -241.03)"/><path d="M321.56,479.52a6,6,0,1,1-5.93,6A6,6,0,0,1,321.56,479.52Z" transform="translate(-141.22 -241.03)"/><path d="M302.27,475.89a5.93,5.93,0,1,1-5.93,5.92A5.94,5.94,0,0,1,302.27,475.89Z" transform="translate(-141.22 -241.03)"/><path d="M283.21,471.32a5.95,5.95,0,1,1-6,5.94A5.93,5.93,0,0,1,283.21,471.32Z" transform="translate(-141.22 -241.03)"/><path d="M264.38,465.75a6,6,0,1,1-5.92,6A6,6,0,0,1,264.38,465.75Z" transform="translate(-141.22 -241.03)"/><path d="M245.94,459.11a5.94,5.94,0,1,1-6,5.94A5.95,5.95,0,0,1,245.94,459.11Z" transform="translate(-141.22 -241.03)"/><path d="M228,451.2a5.95,5.95,0,1,1-5.93,5.95A5.94,5.94,0,0,1,228,451.2Z" transform="translate(-141.22 -241.03)"/><path d="M210.67,441.94a5.94,5.94,0,1,1-5.93,5.95A6,6,0,0,1,210.67,441.94Z" transform="translate(-141.22 -241.03)"/><path d="M194.35,431.11a5.93,5.93,0,1,1-5.95,5.94A5.91,5.91,0,0,1,194.35,431.11Z" transform="translate(-141.22 -241.03)"/><path d="M179.43,418.35a5.94,5.94,0,1,1-5.92,6A6,6,0,0,1,179.43,418.35Z" transform="translate(-141.22 -241.03)"/><path d="M166.75,403.43a5.92,5.92,0,1,1-5.92,5.93A5.92,5.92,0,0,1,166.75,403.43Z" transform="translate(-141.22 -241.03)"/><path d="M157.64,386.11a5.93,5.93,0,1,1-5.92,5.93A5.93,5.93,0,0,1,157.64,386.11Z" transform="translate(-141.22 -241.03)"/><path d="M154.19,366.87a6,6,0,1,1-5.95,6A6,6,0,0,1,154.19,366.87Z" transform="translate(-141.22 -241.03)"/><path d="M645.25,366.87a6,6,0,0,1,0,11.92,6,6,0,0,1,0-11.92Z" transform="translate(-141.22 -241.03)"/><path d="M641.76,386.11a5.93,5.93,0,1,1,0,11.85,5.93,5.93,0,0,1,0-11.85Z" transform="translate(-141.22 -241.03)"/><path d="M632.68,403.43a5.92,5.92,0,1,1-5.92,5.93A5.93,5.93,0,0,1,632.68,403.43Z" transform="translate(-141.22 -241.03)"/><path d="M620,418.35a5.94,5.94,0,1,1-5.94,6A5.95,5.95,0,0,1,620,418.35Z" transform="translate(-141.22 -241.03)"/><path d="M605.08,431.11a5.93,5.93,0,1,1-6,5.94A5.92,5.92,0,0,1,605.08,431.11Z" transform="translate(-141.22 -241.03)"/><path d="M588.76,441.94a5.94,5.94,0,1,1-6,5.95A5.95,5.95,0,0,1,588.76,441.94Z" transform="translate(-141.22 -241.03)"/><path d="M571.48,451.2a5.95,5.95,0,0,1,0,11.89,5.95,5.95,0,1,1,0-11.89Z" transform="translate(-141.22 -241.03)"/><path d="M553.51,459.11a5.94,5.94,0,1,1-6,5.94A5.93,5.93,0,0,1,553.51,459.11Z" transform="translate(-141.22 -241.03)"/><path d="M535,465.75a6,6,0,1,1-5.93,6A6,6,0,0,1,535,465.75Z" transform="translate(-141.22 -241.03)"/><path d="M516.23,471.32a5.95,5.95,0,1,1-6,5.94A5.93,5.93,0,0,1,516.23,471.32Z" transform="translate(-141.22 -241.03)"/><path d="M497.17,475.89a5.93,5.93,0,1,1-6,5.92A5.91,5.91,0,0,1,497.17,475.89Z" transform="translate(-141.22 -241.03)"/><path d="M477.85,479.52a6,6,0,1,1-5.93,6A5.95,5.95,0,0,1,477.85,479.52Z" transform="translate(-141.22 -241.03)"/><path d="M458.44,482.29a5.92,5.92,0,1,1-5.94,5.91A5.93,5.93,0,0,1,458.44,482.29Z" transform="translate(-141.22 -241.03)"/><path d="M438.93,484.16a6,6,0,1,1-6,6A6,6,0,0,1,438.93,484.16Z" transform="translate(-141.22 -241.03)"/><path d="M419.31,485.34a5.93,5.93,0,1,1-5.88,5.94A5.91,5.91,0,0,1,419.31,485.34Z" transform="translate(-141.22 -241.03)"/><path d="M419.33,248.43a6,6,0,1,1,0,11.91,6,6,0,0,1,0-11.91Z" transform="translate(-141.22 -241.03)"/><path d="M438.93,249.59a6,6,0,1,1-5.93,5.93A6,6,0,0,1,438.93,249.59Z" transform="translate(-141.22 -241.03)"/><path d="M458.44,251.53a5.92,5.92,0,1,1-5.94,5.89A5.92,5.92,0,0,1,458.44,251.53Z" transform="translate(-141.22 -241.03)"/><path d="M477.85,254.25a6,6,0,0,1,5.95,6,5.94,5.94,0,0,1-11.88,0A6,6,0,0,1,477.85,254.25Z" transform="translate(-141.22 -241.03)"/><path d="M497.18,257.91a5.94,5.94,0,0,1,0,11.88,5.94,5.94,0,1,1,0-11.88Z" transform="translate(-141.22 -241.03)"/><path d="M516.23,262.45a5.94,5.94,0,1,1-5.93,6A5.93,5.93,0,0,1,516.23,262.45Z" transform="translate(-141.22 -241.03)"/><path d="M535,268a6,6,0,1,1-5.9,5.95A6,6,0,0,1,535,268Z" transform="translate(-141.22 -241.03)"/><path d="M553.51,274.7a5.94,5.94,0,1,1-6,5.93A5.92,5.92,0,0,1,553.51,274.7Z" transform="translate(-141.22 -241.03)"/><path d="M571.48,282.58a5.92,5.92,0,1,1-6,5.92A5.9,5.9,0,0,1,571.48,282.58Z" transform="translate(-141.22 -241.03)"/><path d="M588.76,291.84a5.95,5.95,0,1,1-6,5.94A5.91,5.91,0,0,1,588.76,291.84Z" transform="translate(-141.22 -241.03)"/><path d="M605.08,302.67a6,6,0,1,1-6,6A6,6,0,0,1,605.08,302.67Z" transform="translate(-141.22 -241.03)"/><path d="M620,315.46a5.93,5.93,0,1,1-5.91,5.9A5.92,5.92,0,0,1,620,315.46Z" transform="translate(-141.22 -241.03)"/><path d="M632.66,330.35a6,6,0,1,1-5.9,5.95A5.94,5.94,0,0,1,632.66,330.35Z" transform="translate(-141.22 -241.03)"/><path d="M641.76,347.66a5.95,5.95,0,1,1-5.91,6A5.95,5.95,0,0,1,641.76,347.66Z" transform="translate(-141.22 -241.03)"/><path d="M239,360.16c0-7.21-4.7-11.31-10.06-11.31h-8.07v22.58h8.07C235.43,371.43,239,366.67,239,360.16Zm-8.8-2H236l.57,0a13.07,13.07,0,0,1,.14,1.93c0,5.14-2.38,8.44-6.57,9Z" transform="translate(-141.22 -241.03)"/><path d="M252.31,382c4.51-3.25,7.19-10.69,7.19-15.75a21.9,21.9,0,0,0-3.75-11.83,45.89,45.89,0,0,0-3.56-4.52c-1.7-1.93-3.6-3.65-4.68-4.67a23.56,23.56,0,0,0-4.58-3.44,18.84,18.84,0,0,0-10.1-2.79H207.44v76.5l7.09,7.16h27.38c11.7,0,19.57-12.31,19.57-22.16,0-7.13-2.56-12.17-6.06-15.48Zm-17.52,31.29H209.63v-72h23.2c12,0,17.34,10.59,17.34,17.91,0,4.86-2.78,11.79-6.76,14.26l-3.29,2,3.4,1.86c4.56,2.49,8.61,7.5,8.61,16.12C252.13,402.45,244.81,413.26,234.79,413.26Z" transform="translate(-141.22 -241.03)"/><path d="M230.88,379h-10v26.65h10c7,0,10.06-7.45,10.06-13.28C240.94,385.8,236.79,379,230.88,379Zm7.79,13.37c0,5.57-2.84,11-7.79,11h-.7V388.35h8A15.06,15.06,0,0,1,238.67,392.39Z" transform="translate(-141.22 -241.03)"/><path d="M300.46,339v55a7.6,7.6,0,0,1-7.81,7.65H292v-55.5L284.81,339H269.17v55a22.92,22.92,0,0,0,5.28,14.6A36.9,36.9,0,0,0,283,418c5.61,4.19,11.3,6.46,16.77,6.46a23.6,23.6,0,0,0,23.46-23.29v-55L316.11,339Zm13.41,55a21.23,21.23,0,0,1-42.45,0V341.22h11.19V394a10,10,0,0,0,20.07,0V341.22h11.19V394Z" transform="translate(-141.22 -241.03)"/><path d="M379.47,348.31a40.78,40.78,0,0,0-6.1-5.63,24.76,24.76,0,0,0-5.19-3.13,28,28,0,0,0-11.91-2.33c-12.64,0-23.61,10.49-23.61,23.32V394a22.91,22.91,0,0,0,5.1,14.35,39.58,39.58,0,0,0,8.71,9.62c5.64,4.24,11.15,6.46,16.92,6.46,15.93,0,23.31-9.37,23.31-23.29V382.35l-7.13-7.14H358v12.1l7.13,7.08h.75c-.18,5.31-4.05,8.67-9.6,8.12-.24,0-.48,0-.73-.06a7.62,7.62,0,0,1-.11-1.33v-33.5a8.91,8.91,0,0,1,8-9.06,7.37,7.37,0,0,1,2.38.28,9.38,9.38,0,0,1,.13,1.7v1.54l7.13,7.13H386.7v-1.59a27.09,27.09,0,0,0-2.91-13A36.35,36.35,0,0,0,379.47,348.31Zm-11.38,11.61c-.28-6.42-5.13-11.21-12-10.63a11,11,0,0,0-10,11.25V394a10.93,10.93,0,0,0,10,10.73c7,.64,12-3.87,12-10.77V385.1h-7.89v-7.65h17.17V394c0,12.83-6.56,21.11-21.1,21.11-11.48,0-21.4-9.54-21.4-21.11V360.54c0-11.6,9.92-21.11,21.4-21.11,14.31,0,20.87,8,21.09,20.49Z" transform="translate(-141.22 -241.03)"/><path d="M432.12,339H410.68l-19.56,76.5,7.08,7.16h16.23l3.2-14.12h14.59l1.41,7,7.15,7.16h16.73l-18.24-76.5Zm3.32,74.29-2.85-14.07H408.74l-3.19,14.07H394l18.41-72h18l16.59,72Z" transform="translate(-141.22 -241.03)"/><path d="M419.05,353.63l-8.28,36.59h20l-7.44-36.54ZM428,388h-5.78l3.07-13.53Z" transform="translate(-141.22 -241.03)"/><path d="M453,339v14.12l7.11,7.13h8.53v55.43l7.11,7.12h15.67V360.22H507V346.13L499.84,339Zm44.68,12H482v62.5H470.8v-62.5H455.17v-9.71h42.47v9.71Z" transform="translate(-141.22 -241.03)"/><path d="M510.21,339v14.12l7.1,7.13h8.52v55.43l7.11,7.12h15.63V360.22h15.65V346.13L557.08,339Zm44.66,12H539.28v62.5H528v-62.5H512.41v-9.71h42.46v9.71Z" transform="translate(-141.22 -241.03)"/><path d="M569.15,339v76.5l7.1,7.16H591.9v-76.5L584.8,339Zm13.43,74.29h-11.2v-72h11.2Z" transform="translate(-141.22 -241.03)"/><path d="M416.81,325.31a14.5,14.5,0,0,0,10.41-24.62,13.82,13.82,0,0,0-10.41-22.9H368.09v11.53h7.7v-3.86h18.49v10.86H387v-3.06h-7.69v15.18H387v-3h7.32v12.21H375.79V313.8h-7.7v11.51ZM404.4,285.46h12.41a5.43,5.43,0,1,1,0,10.86H404.4Zm0,20h12.41a6.11,6.11,0,0,1,0,12.21H404.4Z" transform="translate(-141.22 -241.03)"/></svg>