<?xml version="1.0" encoding="UTF-8" standalone="no"?>
<!-- Created with Inkscape (http://www.inkscape.org/) -->

<svg
   xmlns:dc="http://purl.org/dc/elements/1.1/"
   xmlns:cc="http://creativecommons.org/ns#"
   xmlns:rdf="http://www.w3.org/1999/02/22-rdf-syntax-ns#"
   xmlns:svg="http://www.w3.org/2000/svg"
   xmlns="http://www.w3.org/2000/svg"
   xmlns:sodipodi="http://sodipodi.sourceforge.net/DTD/sodipodi-0.dtd"
   xmlns:inkscape="http://www.inkscape.org/namespaces/inkscape"
   width="290mm"
   height="210mm"
   viewBox="0 0 744.09449 1052.3622"
   id="svg7272"
   version="1.1"
   inkscape:version="0.91 r13725"
   sodipodi:docname="car-wash.svg">
  <defs
     id="defs7274" />
  <sodipodi:namedview
     id="base"
     pagecolor="#ffffff"
     bordercolor="#666666"
     borderopacity="1.0"
     inkscape:pageopacity="0.0"
     inkscape:pageshadow="2"
     inkscape:zoom="0.35"
     inkscape:cx="-126.42857"
     inkscape:cy="520"
     inkscape:document-units="px"
     inkscape:current-layer="layer1"
     showgrid="false"
     inkscape:window-width="1920"
     inkscape:window-height="1018"
     inkscape:window-x="-8"
     inkscape:window-y="-8"
     inkscape:window-maximized="1" />
  <metadata
     id="metadata7277">
    <rdf:RDF>
      <cc:Work
         rdf:about="">
        <dc:format>image/svg+xml</dc:format>
        <dc:type
           rdf:resource="http://purl.org/dc/dcmitype/StillImage" />
        <dc:title></dc:title>
      </cc:Work>
    </rdf:RDF>
  </metadata>
  <g
     inkscape:label="Capa 1"
     inkscape:groupmode="layer"
     id="layer1">
    <g
       transform="matrix(12.385705,0,0,12.321688,-498.73702,-1842.3775)"
       id="g1059">
      <g
         id="g1061">
        <g
           id="g1063">
          <g
             id="g1065">
            <path
               style="fill:#231f20"
               inkscape:connector-curvature="0"
               d="m 104.473,197.885 c -1.187,0.08 -7.091,0.425 -7.576,1.607 -0.777,-1.696 -5.609,-12.62 -8.368,-13.273 -6.09,-1.44 -31.512,-1.555 -37.927,0.304 -3.233,0.937 -6.723,11.284 -7.499,12.98 -0.485,-1.182 -6.39,-1.528 -7.576,-1.605 -1.188,-0.079 -0.707,2.997 -0.54,3.643 0.148,0.57 5.957,2.8 5.957,2.8 0,0 -3.964,7.508 -3.885,8.741 0.078,1.234 1.208,18.214 1.208,18.214 l 7.251,0.201 0.113,-5.082 24.494,0.162 0,-0.013 24.24,-0.16 0.113,5.082 7.253,-0.2 c 0,0 1.128,-16.981 1.206,-18.215 0.08,-1.233 -3.884,-8.74 -3.884,-8.74 0,0 5.809,-2.231 5.957,-2.801 0.168,-0.646 0.65,-3.722 -0.537,-3.645 z"
               id="path1067" />
            <path
               style="fill:#231f20"
               inkscape:connector-curvature="0"
               d="m 45.603,231.583 -0.086,-0.002 -7.329,-0.203 -0.005,-0.078 c -0.011,-0.169 -1.131,-16.995 -1.208,-18.215 -0.077,-1.185 3.391,-7.827 3.85,-8.701 -1.152,-0.444 -5.772,-2.256 -5.919,-2.823 -0.102,-0.396 -0.524,-2.725 0.074,-3.497 0.141,-0.182 0.332,-0.263 0.555,-0.253 l 0.114,0.008 c 4.372,0.282 6.872,0.786 7.444,1.5 0.126,-0.295 0.306,-0.752 0.523,-1.308 1.371,-3.499 4.223,-10.777 6.963,-11.571 3.546,-1.027 12.55,-1.393 19.793,-1.393 8.247,0 15.381,0.427 18.177,1.088 1.214,0.288 3.637,2.776 8.28,12.999 l 0.079,0.175 c 0.567,-0.71 3.059,-1.214 7.416,-1.5 l 0.144,-0.01 c 0.017,-0.001 0.033,-0.001 0.049,-0.001 0.204,0 0.374,0.085 0.504,0.253 0.596,0.769 0.176,3.101 0.074,3.499 -0.147,0.566 -4.767,2.38 -5.919,2.824 0.459,0.874 3.925,7.515 3.849,8.7 -0.077,1.22 -1.195,18.046 -1.206,18.215 l -0.005,0.078 -7.416,0.204 -0.113,-5.083 -24.072,0.16 -0.085,0.013 -24.41,-0.162 -0.115,5.084 z m -7.255,-0.371 7.088,0.196 0.113,-5.08 0.083,0 24.415,0.162 0.078,-0.013 24.324,-0.161 0.002,0.084 0.111,4.996 7.089,-0.195 c 0.083,-1.248 1.127,-16.961 1.201,-18.137 0.077,-1.196 -3.834,-8.62 -3.874,-8.695 l -0.045,-0.084 0.09,-0.035 c 2.23,-0.856 5.805,-2.358 5.905,-2.743 0.141,-0.545 0.474,-2.685 -0.043,-3.351 -0.106,-0.136 -0.237,-0.205 -0.408,-0.186 l -0.144,0.009 c -5.712,0.375 -7.155,1.047 -7.358,1.544 l -0.074,0.182 -0.228,-0.5 c -4.615,-10.16 -6.987,-12.625 -8.165,-12.904 -2.784,-0.658 -9.903,-1.084 -18.138,-1.084 -7.231,0 -16.216,0.365 -19.746,1.387 -2.66,0.771 -5.598,8.269 -6.853,11.47 -0.259,0.661 -0.463,1.183 -0.592,1.464 l -0.082,0.179 -0.074,-0.182 c -0.168,-0.41 -1.353,-1.156 -7.389,-1.545 l -0.114,-0.007 c -0.175,-0.013 -0.304,0.05 -0.409,0.187 -0.519,0.669 -0.184,2.805 -0.043,3.35 0.1,0.384 3.675,1.885 5.905,2.742 l 0.09,0.035 -0.045,0.084 c -0.04,0.075 -3.952,7.5 -3.875,8.695 0.076,1.176 1.122,16.888 1.205,18.136 z"
               id="path1069" />
          </g>
          <g
             id="g1071">
            <path
               style="fill:#ffffff"
               inkscape:connector-curvature="0"
               d="m 90.681,218.927 c 3.282,-6.313 9.478,-8.753 10.13,-6.19 0.65,2.564 -0.204,4.237 -0.978,4.806 -2.039,1.5 -9.152,1.384 -9.152,1.384 z"
               id="path1073" />
            <path
               style="fill:#231f20"
               inkscape:connector-curvature="0"
               d="m 91.035,219.014 c -0.228,0 -0.356,-0.002 -0.356,-0.002 l -0.137,-0.002 0.063,-0.123 c 2.325,-4.472 6.318,-7.24 8.685,-7.24 0.858,0 1.427,0.379 1.603,1.069 0.61,2.405 -0.096,4.224 -1.01,4.896 -1.769,1.301 -7.219,1.402 -8.848,1.402 z m -0.214,-0.171 c 0.056,0 0.128,0 0.214,0 1.615,0 7.02,-0.099 8.748,-1.369 0.625,-0.459 1.625,-2.036 0.946,-4.717 -0.198,-0.777 -0.891,-0.94 -1.438,-0.94 -2.296,0 -6.166,2.683 -8.47,7.026 z"
               id="path1075" />
          </g>
          <g
             id="g1077">
            <path
               style="fill:#ffffff"
               inkscape:connector-curvature="0"
               d="m 87.942,188.32 c -2.162,-1.195 -33.439,-1.12 -35.88,-0.02 -4.566,2.058 -8.203,14.342 -7.372,14.315 3.371,-0.105 23.024,-0.291 25.208,-0.312 l 0,0.018 c 0,0 21.844,0.201 25.414,0.313 0.832,0.027 -2.992,-11.895 -7.37,-14.314 z"
               id="path1079" />
            <path
               style="fill:#231f20"
               inkscape:connector-curvature="0"
               d="m 95.314,202.721 0,0 -0.004,0 c -3.528,-0.112 -25.194,-0.312 -25.412,-0.313 l -0.084,-10e-4 0,-0.016 c -2.6,0.024 -21.792,0.207 -25.121,0.311 l 0,0 c -0.059,0 -0.152,-0.025 -0.189,-0.195 -0.297,-1.384 3.252,-12.359 7.523,-14.283 1.309,-0.59 10.449,-0.859 18.388,-0.859 7.369,0 16.393,0.231 17.569,0.881 4.106,2.269 7.853,12.969 7.507,14.306 -0.038,0.147 -0.127,0.169 -0.177,0.169 z m -25.331,-0.483 c 1.49,0.014 21.896,0.205 25.327,0.313 0.011,-0.015 0.053,-0.097 0.017,-0.431 -0.265,-2.472 -3.722,-11.679 -7.426,-13.725 -1.075,-0.594 -9.557,-0.859 -17.487,-0.859 -7.921,0 -17.032,0.264 -18.317,0.843 -3.811,1.717 -7.031,10.796 -7.405,13.492 -0.082,0.585 10e-4,0.663 0.003,0.664 3.362,-0.109 22.977,-0.293 25.202,-0.314 l 0.086,-0.001 0,0.018 z"
               id="path1081" />
          </g>
          <g
             id="g1083">
            <polygon
               style="fill:#ffffff"
               points="69.785,213.446 49.063,213.551 51.308,218.79 70.041,218.706 70.041,218.695 88.692,218.779 90.936,213.541 69.785,213.434 "
               id="polygon1085" />
            <path
               style="fill:#231f20"
               inkscape:connector-curvature="0"
               d="m 51.252,218.875 -0.022,-0.051 -2.296,-5.357 0.128,0 20.638,-0.107 0.085,-0.012 21.279,0.107 -2.316,5.408 -0.056,0 -18.572,-0.083 -0.079,0.01 -18.789,0.085 z m -2.06,-5.24 2.172,5.07 18.677,-0.095 18.595,0.083 2.17,-5.069 -20.942,-0.106 -0.079,0.012 -20.593,0.105 z"
               id="path1087" />
          </g>
          <g
             id="g1089">
            <path
               style="fill:#ffffff"
               inkscape:connector-curvature="0"
               d="m 49.417,218.937 c -3.282,-6.312 -9.479,-8.751 -10.13,-6.188 -0.652,2.564 0.203,4.237 0.978,4.806 2.04,1.498 9.152,1.382 9.152,1.382 z"
               id="path1091" />
            <path
               style="fill:#231f20"
               inkscape:connector-curvature="0"
               d="m 49.063,219.024 c -1.628,0 -7.078,-0.101 -8.848,-1.401 -0.915,-0.672 -1.622,-2.491 -1.01,-4.896 0.175,-0.689 0.745,-1.069 1.603,-1.069 2.367,0 6.36,2.768 8.686,7.239 l 0.064,0.123 -0.138,0.002 c -0.001,0 -0.13,0.002 -0.357,0.002 z m -8.256,-7.195 c -0.546,0 -1.24,0.164 -1.438,0.94 -0.682,2.681 0.32,4.258 0.946,4.717 1.728,1.27 7.132,1.368 8.747,1.368 0.086,0 0.159,0 0.215,0 -2.303,-4.343 -6.174,-7.025 -8.47,-7.025 z"
               id="path1093" />
          </g>
          <g
             id="g1095">
            <rect
               style="fill:#ffffff"
               x="58.674"
               y="220.548"
               width="22.650999"
               height="4.4520001"
               id="rect1097" />
            <path
               style="fill:#231f20"
               inkscape:connector-curvature="0"
               d="m 81.772,225.448 -23.546,0 0,-5.348 23.546,0 0,5.348 z m -22.65,-0.895 21.755,0 0,-3.557 -21.755,0 0,3.557 z"
               id="path1099" />
          </g>
          <g
             id="g1101">
            <g
               id="g1103">
              <path
                 style="fill:#ffffff"
                 inkscape:connector-curvature="0"
                 d="m 74.939,191.336 -9.906,0 c -0.709,0 0.73,-2.43 1.437,-2.43 l 6.886,0 c 0.71,0 2.4,2.494 1.583,2.43 z"
                 id="path1105" />
              <path
                 style="fill:#231f20"
                 inkscape:connector-curvature="0"
                 d="m 74.969,191.729 -9.937,-0.001 c -0.185,0 -0.347,-0.075 -0.454,-0.21 -0.086,-0.109 -0.13,-0.247 -0.13,-0.41 0,-0.713 1.123,-2.595 2.02,-2.595 l 6.886,0 c 0.849,0 2.195,1.882 2.195,2.622 0,0.203 -0.078,0.333 -0.143,0.407 -0.105,0.122 -0.26,0.187 -0.437,0.187 z m -9.712,-0.786 9.465,0 c -0.201,-0.538 -1.053,-1.598 -1.374,-1.645 l -6.878,0 c -0.305,0.052 -1.069,1.123 -1.213,1.645 z"
                 id="path1107" />
            </g>
            <g
               id="g1109">
              <rect
                 style="fill:#231f20"
                 x="69.286003"
                 y="186.345"
                 width="1.434"
                 height="2.1760001"
                 id="rect1111" />
              <path
                 style="fill:#231f20"
                 inkscape:connector-curvature="0"
                 d="m 71.112,188.914 -2.219,0 0,-2.961 2.219,0 0,2.961 z m -1.433,-0.786 0.648,0 0,-1.391 -0.648,0 0,1.391 z"
                 id="path1113" />
            </g>
          </g>
        </g>
        <g
           id="g1115">
          <rect
             style="fill:#ffffff"
             x="49.306"
             y="215"
             width="41.91"
             height="0.61900002"
             id="rect1117" />
          <rect
             style="fill:#231f20"
             x="48.901001"
             y="214.59599"
             width="42.719002"
             height="1.429"
             id="rect1119" />
        </g>
        <g
           id="g1121">
          <rect
             style="fill:#ffffff"
             x="49.921001"
             y="217.00301"
             width="40.525002"
             height="0.56699997"
             id="rect1123" />
          <rect
             style="fill:#231f20"
             x="49.533001"
             y="216.616"
             width="41.300999"
             height="1.3430001"
             id="rect1125" />
        </g>
        <g
           id="g1127">
          <path
             style="fill:#231f20"
             inkscape:connector-curvature="0"
             d="m 81.661,208.433 c -4.33,0 -7.853,-2.632 -7.853,-5.867 0,-3.235 3.523,-5.868 7.853,-5.868 4.33,0 7.853,2.632 7.853,5.868 0,3.236 -3.523,5.867 -7.853,5.867 z m 0,-9.694 c -3.15,0 -5.811,1.752 -5.811,3.826 0,2.074 2.661,3.826 5.811,3.826 3.15,0 5.811,-1.752 5.811,-3.826 0,-2.074 -2.661,-3.826 -5.811,-3.826 z"
             id="path1129" />
        </g>
      </g>
      <g
         id="g1131">
        <path
           style="fill:#231f20"
           inkscape:connector-curvature="0"
           d="m 120.442,231.677 -8.076,0 0,-52.005 c 0,-6.889 -5.239,-12.494 -11.678,-12.494 l -60.576,0 c -6.44,0 -11.68,5.605 -11.68,12.494 l 0,52.005 -8.075,0 0,-52.005 c 0,-11.342 8.862,-20.569 19.755,-20.569 l 60.576,0 c 10.893,0 19.754,9.228 19.754,20.569 l 0,52.005 z"
           id="path1133" />
      </g>
      <g
         id="g1135">
        <g
           id="g1137">
          <path
             style="fill:#231f20"
             inkscape:connector-curvature="0"
             d="m 31.7,181.136 c 0,1.047 -0.931,1.896 -2.08,1.896 l -11.784,0 c -1.148,0 -2.078,-0.849 -2.078,-1.896 l 0,0 c 0,-1.047 0.93,-1.896 2.078,-1.896 l 11.784,0 c 1.149,0 2.08,0.849 2.08,1.896 l 0,0 z"
             id="path1139" />
          <path
             style="fill:#ffffff"
             inkscape:connector-curvature="0"
             d="m 29.62,183.464 -11.784,0 c -1.385,0 -2.511,-1.044 -2.511,-2.328 0,-1.284 1.126,-2.329 2.511,-2.329 l 11.784,0 c 1.385,0 2.512,1.044 2.512,2.329 0,1.285 -1.127,2.328 -2.512,2.328 z m -11.784,-3.791 c -0.907,0 -1.646,0.656 -1.646,1.463 0,0.807 0.739,1.463 1.646,1.463 l 11.784,0 c 0.908,0 1.647,-0.657 1.647,-1.463 0,-0.807 -0.739,-1.463 -1.647,-1.463 l -11.784,0 z"
             id="path1141" />
        </g>
        <g
           id="g1143">
          <path
             style="fill:#231f20"
             inkscape:connector-curvature="0"
             d="m 31.7,185.151 c 0,1.047 -0.931,1.897 -2.08,1.897 l -11.784,0 c -1.148,0 -2.078,-0.85 -2.078,-1.897 l 0,0 c 0,-1.047 0.93,-1.896 2.078,-1.896 l 11.784,0 c 1.149,0 2.08,0.849 2.08,1.896 l 0,0 z"
             id="path1145" />
          <path
             style="fill:#ffffff"
             inkscape:connector-curvature="0"
             d="m 29.62,187.48 -11.784,0 c -1.385,0 -2.511,-1.045 -2.511,-2.33 0,-1.284 1.126,-2.328 2.511,-2.328 l 11.784,0 c 1.385,0 2.512,1.044 2.512,2.328 0,1.286 -1.127,2.33 -2.512,2.33 z m -11.784,-3.792 c -0.907,0 -1.646,0.657 -1.646,1.463 0,0.808 0.739,1.465 1.646,1.465 l 11.784,0 c 0.908,0 1.647,-0.657 1.647,-1.465 0,-0.807 -0.739,-1.463 -1.647,-1.463 l -11.784,0 z"
             id="path1147" />
        </g>
        <g
           id="g1149">
          <path
             style="fill:#231f20"
             inkscape:connector-curvature="0"
             d="m 31.7,189.316 c 0,1.047 -0.931,1.896 -2.08,1.896 l -11.784,0 c -1.148,0 -2.078,-0.85 -2.078,-1.896 l 0,0 c 0,-1.047 0.93,-1.897 2.078,-1.897 l 11.784,0 c 1.149,0 2.08,0.85 2.08,1.897 l 0,0 z"
             id="path1151" />
          <path
             style="fill:#ffffff"
             inkscape:connector-curvature="0"
             d="m 29.62,191.645 -11.784,0 c -1.385,0 -2.511,-1.044 -2.511,-2.329 0,-1.285 1.126,-2.33 2.511,-2.33 l 11.784,0 c 1.385,0 2.512,1.045 2.512,2.33 0,1.285 -1.127,2.329 -2.512,2.329 z m -11.784,-3.794 c -0.907,0 -1.646,0.657 -1.646,1.465 0,0.807 0.739,1.464 1.646,1.464 l 11.784,0 c 0.908,0 1.647,-0.657 1.647,-1.464 0,-0.808 -0.739,-1.465 -1.647,-1.465 l -11.784,0 z"
             id="path1153" />
        </g>
        <g
           id="g1155">
          <path
             style="fill:#231f20"
             inkscape:connector-curvature="0"
             d="m 31.7,193.48 c 0,1.047 -0.931,1.896 -2.08,1.896 l -11.784,0 c -1.148,0 -2.078,-0.848 -2.078,-1.896 l 0,0 c 0,-1.048 0.93,-1.897 2.078,-1.897 l 11.784,0 c 1.149,0 2.08,0.849 2.08,1.897 l 0,0 z"
             id="path1157" />
          <path
             style="fill:#ffffff"
             inkscape:connector-curvature="0"
             d="m 29.62,195.809 -11.784,0 c -1.385,0 -2.511,-1.044 -2.511,-2.328 0,-1.285 1.126,-2.33 2.511,-2.33 l 11.784,0 c 1.385,0 2.512,1.045 2.512,2.33 0,1.284 -1.127,2.328 -2.512,2.328 z m -11.784,-3.793 c -0.907,0 -1.646,0.657 -1.646,1.464 0,0.807 0.739,1.463 1.646,1.463 l 11.784,0 c 0.908,0 1.647,-0.657 1.647,-1.463 0,-0.808 -0.739,-1.464 -1.647,-1.464 l -11.784,0 z"
             id="path1159" />
        </g>
        <g
           id="g1161">
          <path
             style="fill:#231f20"
             inkscape:connector-curvature="0"
             d="m 31.7,197.794 c 0,1.046 -0.931,1.895 -2.08,1.895 l -11.784,0 c -1.148,0 -2.078,-0.849 -2.078,-1.895 l 0,0 c 0,-1.049 0.93,-1.897 2.078,-1.897 l 11.784,0 c 1.149,0 2.08,0.848 2.08,1.897 l 0,0 z"
             id="path1163" />
          <path
             style="fill:#ffffff"
             inkscape:connector-curvature="0"
             d="m 29.62,200.121 -11.784,0 c -1.385,0 -2.511,-1.044 -2.511,-2.327 0,-1.285 1.126,-2.33 2.511,-2.33 l 11.784,0 c 1.385,0 2.512,1.045 2.512,2.33 0,1.283 -1.127,2.327 -2.512,2.327 z m -11.784,-3.792 c -0.907,0 -1.646,0.657 -1.646,1.465 0,0.806 0.739,1.462 1.646,1.462 l 11.784,0 c 0.908,0 1.647,-0.656 1.647,-1.462 0,-0.808 -0.739,-1.465 -1.647,-1.465 l -11.784,0 z"
             id="path1165" />
        </g>
        <g
           id="g1167">
          <path
             style="fill:#231f20"
             inkscape:connector-curvature="0"
             d="m 31.7,201.659 c 0,1.048 -0.931,1.897 -2.08,1.897 l -11.784,0 c -1.148,0 -2.078,-0.849 -2.078,-1.897 l 0,0 c 0,-1.047 0.93,-1.895 2.078,-1.895 l 11.784,0 c 1.149,0 2.08,0.847 2.08,1.895 l 0,0 z"
             id="path1169" />
          <path
             style="fill:#ffffff"
             inkscape:connector-curvature="0"
             d="m 29.62,203.988 -11.784,0 c -1.385,0 -2.511,-1.045 -2.511,-2.33 0,-1.284 1.126,-2.327 2.511,-2.327 l 11.784,0 c 1.385,0 2.512,1.043 2.512,2.327 0,1.285 -1.127,2.33 -2.512,2.33 z m -11.784,-3.792 c -0.907,0 -1.646,0.656 -1.646,1.462 0,0.808 0.739,1.464 1.646,1.464 l 11.784,0 c 0.908,0 1.647,-0.657 1.647,-1.464 0,-0.806 -0.739,-1.462 -1.647,-1.462 l -11.784,0 z"
             id="path1171" />
        </g>
        <g
           id="g1173">
          <path
             style="fill:#231f20"
             inkscape:connector-curvature="0"
             d="m 31.7,205.675 c 0,1.047 -0.931,1.897 -2.08,1.897 l -11.784,0 c -1.148,0 -2.078,-0.85 -2.078,-1.897 l 0,0 c 0,-1.047 0.93,-1.896 2.078,-1.896 l 11.784,0 c 1.149,0 2.08,0.848 2.08,1.896 l 0,0 z"
             id="path1175" />
          <path
             style="fill:#ffffff"
             inkscape:connector-curvature="0"
             d="m 29.62,208.004 -11.784,0 c -1.385,0 -2.511,-1.044 -2.511,-2.329 0,-1.284 1.126,-2.329 2.511,-2.329 l 11.784,0 c 1.385,0 2.512,1.044 2.512,2.329 0,1.284 -1.127,2.329 -2.512,2.329 z m -11.784,-3.793 c -0.907,0 -1.646,0.656 -1.646,1.463 0,0.807 0.739,1.464 1.646,1.464 l 11.784,0 c 0.908,0 1.647,-0.657 1.647,-1.464 0,-0.807 -0.739,-1.463 -1.647,-1.463 l -11.784,0 z"
             id="path1177" />
        </g>
        <g
           id="g1179">
          <path
             style="fill:#231f20"
             inkscape:connector-curvature="0"
             d="m 31.7,209.69 c 0,1.047 -0.931,1.896 -2.08,1.896 l -11.784,0 c -1.148,0 -2.078,-0.849 -2.078,-1.896 l 0,0 c 0,-1.047 0.93,-1.896 2.078,-1.896 l 11.784,0 c 1.149,10e-4 2.08,0.85 2.08,1.896 l 0,0 z"
             id="path1181" />
          <path
             style="fill:#ffffff"
             inkscape:connector-curvature="0"
             d="m 29.62,212.019 -11.784,0 c -1.385,0 -2.511,-1.044 -2.511,-2.329 0,-1.285 1.126,-2.328 2.511,-2.328 l 11.784,0 c 1.385,0 2.512,1.044 2.512,2.328 0,1.284 -1.127,2.329 -2.512,2.329 z m -11.784,-3.792 c -0.907,0 -1.646,0.657 -1.646,1.463 0,0.807 0.739,1.464 1.646,1.464 l 11.784,0 c 0.908,0 1.647,-0.657 1.647,-1.464 0,-0.807 -0.739,-1.463 -1.647,-1.463 l -11.784,0 z"
             id="path1183" />
        </g>
        <g
           id="g1185">
          <path
             style="fill:#231f20"
             inkscape:connector-curvature="0"
             d="m 31.7,213.707 c 0,1.047 -0.931,1.895 -2.08,1.895 l -11.784,0 c -1.148,0 -2.078,-0.848 -2.078,-1.895 l 0,0 c 0,-1.047 0.93,-1.897 2.078,-1.897 l 11.784,0 c 1.149,0 2.08,0.849 2.08,1.897 l 0,0 z"
             id="path1187" />
          <path
             style="fill:#ffffff"
             inkscape:connector-curvature="0"
             d="m 29.62,216.034 -11.784,0 c -1.385,0 -2.511,-1.043 -2.511,-2.327 0,-1.285 1.126,-2.33 2.511,-2.33 l 11.784,0 c 1.385,0 2.512,1.045 2.512,2.33 0,1.283 -1.127,2.327 -2.512,2.327 z m -11.784,-3.792 c -0.907,0 -1.646,0.657 -1.646,1.464 0,0.806 0.739,1.462 1.646,1.462 l 11.784,0 c 0.908,0 1.647,-0.656 1.647,-1.462 0,-0.807 -0.739,-1.464 -1.647,-1.464 l -11.784,0 z"
             id="path1189" />
        </g>
        <g
           id="g1191">
          <path
             style="fill:#231f20"
             inkscape:connector-curvature="0"
             d="m 31.7,217.87 c 0,1.047 -0.931,1.896 -2.08,1.896 l -11.784,0 c -1.148,0 -2.078,-0.849 -2.078,-1.896 l 0,0 c 0,-1.048 0.93,-1.896 2.078,-1.896 l 11.784,0 c 1.149,0 2.08,0.848 2.08,1.896 l 0,0 z"
             id="path1193" />
          <path
             style="fill:#ffffff"
             inkscape:connector-curvature="0"
             d="m 29.62,220.198 -11.784,0 c -1.385,0 -2.511,-1.044 -2.511,-2.328 0,-1.284 1.126,-2.328 2.511,-2.328 l 11.784,0 c 1.385,0 2.512,1.044 2.512,2.328 0,1.284 -1.127,2.328 -2.512,2.328 z m -11.784,-3.791 c -0.907,0 -1.646,0.657 -1.646,1.463 0,0.806 0.739,1.463 1.646,1.463 l 11.784,0 c 0.908,0 1.647,-0.657 1.647,-1.463 0,-0.806 -0.739,-1.463 -1.647,-1.463 l -11.784,0 z"
             id="path1195" />
        </g>
      </g>
      <g
         id="g1197">
        <g
           id="g1199">
          <path
             style="fill:#231f20"
             inkscape:connector-curvature="0"
             d="m 125.385,181.434 c 0,1.048 -0.93,1.896 -2.078,1.896 l -11.784,0 c -1.148,0 -2.079,-0.848 -2.079,-1.896 l 0,0 c 0,-1.047 0.931,-1.896 2.079,-1.896 l 11.784,0 c 1.148,0 2.078,0.848 2.078,1.896 l 0,0 z"
             id="path1201" />
          <path
             style="fill:#ffffff"
             inkscape:connector-curvature="0"
             d="m 123.307,183.762 -11.784,0 c -1.385,0 -2.512,-1.044 -2.512,-2.329 0,-1.285 1.126,-2.328 2.512,-2.328 l 11.784,0 c 1.385,0 2.511,1.044 2.511,2.328 0,1.284 -1.126,2.329 -2.511,2.329 z m -11.784,-3.792 c -0.908,0 -1.647,0.657 -1.647,1.463 0,0.807 0.739,1.463 1.647,1.463 l 11.784,0 c 0.907,0 1.646,-0.656 1.646,-1.463 0,-0.807 -0.739,-1.463 -1.646,-1.463 l -11.784,0 z"
             id="path1203" />
        </g>
        <g
           id="g1205">
          <path
             style="fill:#231f20"
             inkscape:connector-curvature="0"
             d="m 125.385,185.449 c 0,1.048 -0.93,1.896 -2.078,1.896 l -11.784,0 c -1.148,0 -2.079,-0.848 -2.079,-1.896 l 0,0 c 0,-1.047 0.931,-1.895 2.079,-1.895 l 11.784,0 c 1.148,0 2.078,0.847 2.078,1.895 l 0,0 z"
             id="path1207" />
          <path
             style="fill:#ffffff"
             inkscape:connector-curvature="0"
             d="m 123.307,187.778 -11.784,0 c -1.385,0 -2.512,-1.044 -2.512,-2.329 0,-1.284 1.126,-2.328 2.512,-2.328 l 11.784,0 c 1.385,0 2.511,1.044 2.511,2.328 0,1.284 -1.126,2.329 -2.511,2.329 z m -11.784,-3.792 c -0.908,0 -1.647,0.656 -1.647,1.462 0,0.807 0.739,1.464 1.647,1.464 l 11.784,0 c 0.907,0 1.646,-0.657 1.646,-1.464 0,-0.807 -0.739,-1.462 -1.646,-1.462 l -11.784,0 z"
             id="path1209" />
        </g>
        <g
           id="g1211">
          <path
             style="fill:#231f20"
             inkscape:connector-curvature="0"
             d="m 125.385,189.613 c 0,1.047 -0.93,1.897 -2.078,1.897 l -11.784,0 c -1.148,0 -2.079,-0.85 -2.079,-1.897 l 0,0 c 0,-1.047 0.931,-1.895 2.079,-1.895 l 11.784,0 c 1.148,0 2.078,0.848 2.078,1.895 l 0,0 z"
             id="path1213" />
          <path
             style="fill:#ffffff"
             inkscape:connector-curvature="0"
             d="m 123.307,191.942 -11.784,0 c -1.385,0 -2.512,-1.044 -2.512,-2.329 0,-1.284 1.126,-2.328 2.512,-2.328 l 11.784,0 c 1.385,0 2.511,1.044 2.511,2.328 0,1.285 -1.126,2.329 -2.511,2.329 z m -11.784,-3.791 c -0.908,0 -1.647,0.656 -1.647,1.462 0,0.807 0.739,1.464 1.647,1.464 l 11.784,0 c 0.907,0 1.646,-0.657 1.646,-1.464 0,-0.807 -0.739,-1.462 -1.646,-1.462 l -11.784,0 z"
             id="path1215" />
        </g>
        <g
           id="g1217">
          <path
             style="fill:#231f20"
             inkscape:connector-curvature="0"
             d="m 125.385,193.778 c 0,1.047 -0.93,1.895 -2.078,1.895 l -11.784,0 c -1.148,0 -2.079,-0.848 -2.079,-1.895 l 0,0 c 0,-1.047 0.931,-1.897 2.079,-1.897 l 11.784,0 c 1.148,0 2.078,0.849 2.078,1.897 l 0,0 z"
             id="path1219" />
          <path
             style="fill:#ffffff"
             inkscape:connector-curvature="0"
             d="m 123.307,196.105 -11.784,0 c -1.385,0 -2.512,-1.043 -2.512,-2.327 0,-1.285 1.126,-2.33 2.512,-2.33 l 11.784,0 c 1.385,0 2.511,1.045 2.511,2.33 0,1.284 -1.126,2.327 -2.511,2.327 z m -11.784,-3.792 c -0.908,0 -1.647,0.657 -1.647,1.464 0,0.806 0.739,1.462 1.647,1.462 l 11.784,0 c 0.907,0 1.646,-0.656 1.646,-1.462 0,-0.808 -0.739,-1.464 -1.646,-1.464 l -11.784,0 z"
             id="path1221" />
        </g>
        <g
           id="g1223">
          <path
             style="fill:#231f20"
             inkscape:connector-curvature="0"
             d="m 125.385,198.09 c 0,1.048 -0.93,1.896 -2.078,1.896 l -11.784,0 c -1.148,0 -2.079,-0.847 -2.079,-1.896 l 0,0 c 0,-1.047 0.931,-1.896 2.079,-1.896 l 11.784,0 c 1.148,0 2.078,0.849 2.078,1.896 l 0,0 z"
             id="path1225" />
          <path
             style="fill:#ffffff"
             inkscape:connector-curvature="0"
             d="m 123.307,200.418 -11.784,0 c -1.385,0 -2.512,-1.044 -2.512,-2.328 0,-1.284 1.126,-2.329 2.512,-2.329 l 11.784,0 c 1.385,0 2.511,1.044 2.511,2.329 0,1.285 -1.126,2.328 -2.511,2.328 z m -11.784,-3.791 c -0.908,0 -1.647,0.656 -1.647,1.463 0,0.807 0.739,1.463 1.647,1.463 l 11.784,0 c 0.907,0 1.646,-0.657 1.646,-1.463 0,-0.807 -0.739,-1.463 -1.646,-1.463 l -11.784,0 z"
             id="path1227" />
        </g>
        <g
           id="g1229">
          <path
             style="fill:#231f20"
             inkscape:connector-curvature="0"
             d="m 125.385,201.958 c 0,1.047 -0.93,1.896 -2.078,1.896 l -11.784,0 c -1.148,0 -2.079,-0.849 -2.079,-1.896 l 0,0 c 0,-1.048 0.931,-1.896 2.079,-1.896 l 11.784,0 c 1.148,0 2.078,0.847 2.078,1.896 l 0,0 z"
             id="path1231" />
          <path
             style="fill:#ffffff"
             inkscape:connector-curvature="0"
             d="m 123.307,204.286 -11.784,0 c -1.385,0 -2.512,-1.044 -2.512,-2.328 0,-1.284 1.126,-2.329 2.512,-2.329 l 11.784,0 c 1.385,0 2.511,1.044 2.511,2.329 0,1.283 -1.126,2.328 -2.511,2.328 z m -11.784,-3.792 c -0.908,0 -1.647,0.656 -1.647,1.463 0,0.807 0.739,1.463 1.647,1.463 l 11.784,0 c 0.907,0 1.646,-0.657 1.646,-1.463 0,-0.807 -0.739,-1.463 -1.646,-1.463 l -11.784,0 z"
             id="path1233" />
        </g>
        <g
           id="g1235">
          <path
             style="fill:#231f20"
             inkscape:connector-curvature="0"
             d="m 125.385,205.972 c 0,1.047 -0.93,1.897 -2.078,1.897 l -11.784,0 c -1.148,0 -2.079,-0.85 -2.079,-1.897 l 0,0 c 0,-1.047 0.931,-1.897 2.079,-1.897 l 11.784,0 c 1.148,0 2.078,0.85 2.078,1.897 l 0,0 z"
             id="path1237" />
          <path
             style="fill:#ffffff"
             inkscape:connector-curvature="0"
             d="m 123.307,208.302 -11.784,0 c -1.385,0 -2.512,-1.045 -2.512,-2.33 0,-1.285 1.126,-2.329 2.512,-2.329 l 11.784,0 c 1.385,0 2.511,1.044 2.511,2.329 0,1.285 -1.126,2.33 -2.511,2.33 z m -11.784,-3.794 c -0.908,0 -1.647,0.657 -1.647,1.464 0,0.808 0.739,1.464 1.647,1.464 l 11.784,0 c 0.907,0 1.646,-0.657 1.646,-1.464 0,-0.807 -0.739,-1.464 -1.646,-1.464 l -11.784,0 z"
             id="path1239" />
        </g>
        <g
           id="g1241">
          <path
             style="fill:#231f20"
             inkscape:connector-curvature="0"
             d="m 125.385,209.988 c 0,1.047 -0.93,1.896 -2.078,1.896 l -11.784,0 c -1.148,0 -2.079,-0.849 -2.079,-1.896 l 0,0 c 0,-1.047 0.931,-1.897 2.079,-1.897 l 11.784,0 c 1.148,0 2.078,0.85 2.078,1.897 l 0,0 z"
             id="path1243" />
          <path
             style="fill:#ffffff"
             inkscape:connector-curvature="0"
             d="m 123.307,212.316 -11.784,0 c -1.385,0 -2.512,-1.044 -2.512,-2.328 0,-1.285 1.126,-2.33 2.512,-2.33 l 11.784,0 c 1.385,0 2.511,1.045 2.511,2.33 0,1.284 -1.126,2.328 -2.511,2.328 z m -11.784,-3.793 c -0.908,0 -1.647,0.657 -1.647,1.465 0,0.807 0.739,1.463 1.647,1.463 l 11.784,0 c 0.907,0 1.646,-0.657 1.646,-1.463 0,-0.808 -0.739,-1.465 -1.646,-1.465 l -11.784,0 z"
             id="path1245" />
        </g>
        <g
           id="g1247">
          <path
             style="fill:#231f20"
             inkscape:connector-curvature="0"
             d="m 125.385,214.003 c 0,1.048 -0.93,1.898 -2.078,1.898 l -11.784,0 c -1.148,0 -2.079,-0.85 -2.079,-1.898 l 0,0 c 0,-1.046 0.931,-1.896 2.079,-1.896 l 11.784,0 c 1.148,0 2.078,0.85 2.078,1.896 l 0,0 z"
             id="path1249" />
          <path
             style="fill:#ffffff"
             inkscape:connector-curvature="0"
             d="m 123.307,216.333 -11.784,0 c -1.385,0 -2.512,-1.045 -2.512,-2.331 0,-1.284 1.126,-2.328 2.512,-2.328 l 11.784,0 c 1.385,0 2.511,1.044 2.511,2.328 0,1.286 -1.126,2.331 -2.511,2.331 z m -11.784,-3.793 c -0.908,0 -1.647,0.657 -1.647,1.463 0,0.808 0.739,1.465 1.647,1.465 l 11.784,0 c 0.907,0 1.646,-0.657 1.646,-1.465 0,-0.807 -0.739,-1.463 -1.646,-1.463 l -11.784,0 z"
             id="path1251" />
        </g>
        <g
           id="g1253">
          <path
             style="fill:#231f20"
             inkscape:connector-curvature="0"
             d="m 125.385,218.167 c 0,1.047 -0.93,1.896 -2.078,1.896 l -11.784,0 c -1.148,0 -2.079,-0.849 -2.079,-1.896 l 0,0 c 0,-1.048 0.931,-1.896 2.079,-1.896 l 11.784,0 c 1.148,0 2.078,0.848 2.078,1.896 l 0,0 z"
             id="path1255" />
          <path
             style="fill:#ffffff"
             inkscape:connector-curvature="0"
             d="m 123.307,220.496 -11.784,0 c -1.385,0 -2.512,-1.044 -2.512,-2.329 0,-1.285 1.126,-2.328 2.512,-2.328 l 11.784,0 c 1.385,0 2.511,1.044 2.511,2.328 0,1.284 -1.126,2.329 -2.511,2.329 z m -11.784,-3.792 c -0.908,0 -1.647,0.657 -1.647,1.463 0,0.807 0.739,1.463 1.647,1.463 l 11.784,0 c 0.907,0 1.646,-0.656 1.646,-1.463 0,-0.807 -0.739,-1.463 -1.646,-1.463 l -11.784,0 z"
             id="path1257" />
        </g>
      </g>
      <g
         id="g1259">
        <g
           id="g1261">
          <path
             style="fill:#231f20"
             inkscape:connector-curvature="0"
             d="m 53.13,154.106 c 0.985,0 1.783,0.99 1.783,2.211 l 0,12.532 c 0,1.221 -0.798,2.21 -1.783,2.21 l 0,0 c -0.985,0 -1.783,-0.989 -1.783,-2.21 l 0,-12.532 c 0,-1.221 0.798,-2.211 1.783,-2.211 l 0,0 z"
             id="path1263" />
          <path
             style="fill:#ffffff"
             inkscape:connector-curvature="0"
             d="m 53.13,171.492 c -1.222,0 -2.215,-1.186 -2.215,-2.643 l 0,-12.532 c 0,-1.458 0.994,-2.644 2.215,-2.644 1.221,0 2.215,1.186 2.215,2.644 l 0,12.532 c 0,1.458 -0.994,2.643 -2.215,2.643 z m 0,-16.954 c -0.745,0 -1.351,0.798 -1.351,1.779 l 0,12.532 c 0,0.98 0.606,1.778 1.351,1.778 0.745,0 1.35,-0.798 1.35,-1.778 l 0,-12.532 c 0,-0.981 -0.605,-1.779 -1.35,-1.779 z"
             id="path1265" />
        </g>
        <g
           id="g1267">
          <path
             style="fill:#231f20"
             inkscape:connector-curvature="0"
             d="m 56.905,154.106 c 0.984,0 1.784,0.99 1.784,2.211 l 0,12.532 c 0,1.221 -0.8,2.21 -1.784,2.21 l 0,0 c -0.984,0 -1.783,-0.989 -1.783,-2.21 l 0,-12.532 c 10e-4,-1.221 0.799,-2.211 1.783,-2.211 l 0,0 z"
             id="path1269" />
          <path
             style="fill:#ffffff"
             inkscape:connector-curvature="0"
             d="m 56.905,171.492 c -1.222,0 -2.215,-1.186 -2.215,-2.643 l 0,-12.532 c 0,-1.458 0.994,-2.644 2.215,-2.644 1.222,0 2.216,1.186 2.216,2.644 l 0,12.532 c 10e-4,1.458 -0.994,2.643 -2.216,2.643 z m 0,-16.954 c -0.745,0 -1.35,0.798 -1.35,1.779 l 0,12.532 c 0,0.98 0.605,1.778 1.35,1.778 0.745,0 1.352,-0.798 1.352,-1.778 l 0,-12.532 c 0,-0.981 -0.607,-1.779 -1.352,-1.779 z"
             id="path1271" />
        </g>
        <g
           id="g1273">
          <path
             style="fill:#231f20"
             inkscape:connector-curvature="0"
             d="m 60.821,154.106 c 0.984,0 1.783,0.99 1.783,2.211 l 0,12.532 c 0,1.221 -0.798,2.21 -1.783,2.21 l 0,0 c -0.985,0 -1.783,-0.989 -1.783,-2.21 l 0,-12.532 c 0.001,-1.221 0.798,-2.211 1.783,-2.211 l 0,0 z"
             id="path1275" />
          <path
             style="fill:#ffffff"
             inkscape:connector-curvature="0"
             d="m 60.821,171.492 c -1.221,0 -2.215,-1.186 -2.215,-2.643 l 0,-12.532 c 0,-1.458 0.994,-2.644 2.215,-2.644 1.222,0 2.215,1.186 2.215,2.644 l 0,12.532 c 10e-4,1.458 -0.993,2.643 -2.215,2.643 z m 0,-16.954 c -0.745,0 -1.35,0.798 -1.35,1.779 l 0,12.532 c 0,0.98 0.605,1.778 1.35,1.778 0.745,0 1.351,-0.798 1.351,-1.778 l 0,-12.532 c 0,-0.981 -0.606,-1.779 -1.351,-1.779 z"
             id="path1277" />
        </g>
        <g
           id="g1279">
          <path
             style="fill:#231f20"
             inkscape:connector-curvature="0"
             d="m 64.737,154.106 c 0.983,0 1.783,0.99 1.783,2.211 l 0,12.532 c 0,1.221 -0.799,2.21 -1.783,2.21 l 0,0 c -0.986,0 -1.784,-0.989 -1.784,-2.21 l 0,-12.532 c 10e-4,-1.221 0.798,-2.211 1.784,-2.211 l 0,0 z"
             id="path1281" />
          <path
             style="fill:#ffffff"
             inkscape:connector-curvature="0"
             d="m 64.737,171.492 c -1.222,0 -2.216,-1.186 -2.216,-2.643 l 0,-12.532 c 0,-1.458 0.995,-2.644 2.216,-2.644 1.221,0 2.215,1.186 2.215,2.644 l 0,12.532 c 0.001,1.458 -0.993,2.643 -2.215,2.643 z m 0,-16.954 c -0.745,0 -1.351,0.798 -1.351,1.779 l 0,12.532 c 0,0.98 0.606,1.778 1.351,1.778 0.745,0 1.351,-0.798 1.351,-1.778 l 0,-12.532 c 0,-0.981 -0.606,-1.779 -1.351,-1.779 z"
             id="path1283" />
        </g>
        <g
           id="g1285">
          <path
             style="fill:#231f20"
             inkscape:connector-curvature="0"
             d="m 68.791,154.106 c 0.985,0 1.784,0.99 1.784,2.211 l 0,12.532 c 0,1.221 -0.798,2.21 -1.784,2.21 l 0,0 c -0.985,0 -1.782,-0.989 -1.782,-2.21 l 0,-12.532 c 0,-1.221 0.797,-2.211 1.782,-2.211 l 0,0 z"
             id="path1287" />
          <path
             style="fill:#ffffff"
             inkscape:connector-curvature="0"
             d="m 68.791,171.492 c -1.221,0 -2.214,-1.186 -2.214,-2.643 l 0,-12.532 c 0,-1.458 0.993,-2.644 2.214,-2.644 1.222,0 2.216,1.186 2.216,2.644 l 0,12.532 c 0,1.458 -0.994,2.643 -2.216,2.643 z m 0,-16.954 c -0.744,0 -1.349,0.798 -1.349,1.779 l 0,12.532 c 0,0.98 0.605,1.778 1.349,1.778 0.745,0 1.352,-0.798 1.352,-1.778 l 0,-12.532 c 0,-0.981 -0.607,-1.779 -1.352,-1.779 z"
             id="path1289" />
        </g>
        <g
           id="g1291">
          <path
             style="fill:#231f20"
             inkscape:connector-curvature="0"
             d="m 72.428,154.106 c 0.983,0 1.782,0.99 1.782,2.211 l 0,12.532 c 0,1.221 -0.799,2.21 -1.782,2.21 l 0,0 c -0.985,0 -1.784,-0.989 -1.784,-2.21 l 0,-12.532 c 0,-1.221 0.799,-2.211 1.784,-2.211 l 0,0 z"
             id="path1293" />
          <path
             style="fill:#ffffff"
             inkscape:connector-curvature="0"
             d="m 72.428,171.492 c -1.222,0 -2.216,-1.186 -2.216,-2.643 l 0,-12.532 c 0,-1.458 0.995,-2.644 2.216,-2.644 1.221,0 2.214,1.186 2.214,2.644 l 0,12.532 c 0,1.458 -0.993,2.643 -2.214,2.643 z m 0,-16.954 c -0.745,0 -1.351,0.798 -1.351,1.779 l 0,12.532 c 0,0.98 0.606,1.778 1.351,1.778 0.744,0 1.35,-0.798 1.35,-1.778 l 0,-12.532 c -0.001,-0.981 -0.607,-1.779 -1.35,-1.779 z"
             id="path1295" />
        </g>
        <g
           id="g1297">
          <path
             style="fill:#231f20"
             inkscape:connector-curvature="0"
             d="m 76.202,154.106 c 0.984,0 1.783,0.99 1.783,2.211 l 0,12.532 c 0,1.221 -0.799,2.21 -1.783,2.21 l 0,0 c -0.984,0 -1.783,-0.989 -1.783,-2.21 l 0,-12.532 c 0,-1.221 0.799,-2.211 1.783,-2.211 l 0,0 z"
             id="path1299" />
          <path
             style="fill:#ffffff"
             inkscape:connector-curvature="0"
             d="m 76.202,171.492 c -1.221,0 -2.215,-1.186 -2.215,-2.643 l 0,-12.532 c 0,-1.458 0.994,-2.644 2.215,-2.644 1.222,0 2.215,1.186 2.215,2.644 l 0,12.532 c 0,1.458 -0.993,2.643 -2.215,2.643 z m 0,-16.954 c -0.745,0 -1.35,0.798 -1.35,1.779 l 0,12.532 c 0,0.98 0.605,1.778 1.35,1.778 0.745,0 1.351,-0.798 1.351,-1.778 l 0,-12.532 c 0,-0.981 -0.606,-1.779 -1.351,-1.779 z"
             id="path1301" />
        </g>
        <g
           id="g1303">
          <path
             style="fill:#231f20"
             inkscape:connector-curvature="0"
             d="m 79.978,154.106 c 0.985,0 1.783,0.99 1.783,2.211 l 0,12.532 c 0,1.221 -0.798,2.21 -1.783,2.21 l 0,0 c -0.985,0 -1.782,-0.989 -1.782,-2.21 l 0,-12.532 c 0,-1.221 0.797,-2.211 1.782,-2.211 l 0,0 z"
             id="path1305" />
          <path
             style="fill:#ffffff"
             inkscape:connector-curvature="0"
             d="m 79.978,171.492 c -1.221,0 -2.214,-1.186 -2.214,-2.643 l 0,-12.532 c 0,-1.458 0.993,-2.644 2.214,-2.644 1.221,0 2.215,1.186 2.215,2.644 l 0,12.532 c 0,1.458 -0.994,2.643 -2.215,2.643 z m 0,-16.954 c -0.744,0 -1.35,0.798 -1.35,1.779 l 0,12.532 c 0,0.98 0.606,1.778 1.35,1.778 0.745,0 1.35,-0.798 1.35,-1.778 l 0,-12.532 c 0,-0.981 -0.605,-1.779 -1.35,-1.779 z"
             id="path1307" />
        </g>
        <g
           id="g1309">
          <path
             style="fill:#231f20"
             inkscape:connector-curvature="0"
             d="m 83.753,154.106 c 0.984,0 1.783,0.99 1.783,2.211 l 0,12.532 c 0,1.221 -0.799,2.21 -1.783,2.21 l 0,0 c -0.985,0 -1.783,-0.989 -1.783,-2.21 l 0,-12.532 c 0.001,-1.221 0.798,-2.211 1.783,-2.211 l 0,0 z"
             id="path1311" />
          <path
             style="fill:#ffffff"
             inkscape:connector-curvature="0"
             d="m 83.753,171.492 c -1.222,0 -2.215,-1.186 -2.215,-2.643 l 0,-12.532 c 0,-1.458 0.994,-2.644 2.215,-2.644 1.221,0 2.215,1.186 2.215,2.644 l 0,12.532 c 10e-4,1.458 -0.993,2.643 -2.215,2.643 z m 0,-16.954 c -0.745,0 -1.351,0.798 -1.351,1.779 l 0,12.532 c 0,0.98 0.606,1.778 1.351,1.778 0.745,0 1.35,-0.798 1.35,-1.778 l 0,-12.532 c 0.001,-0.981 -0.605,-1.779 -1.35,-1.779 z"
             id="path1313" />
        </g>
        <g
           id="g1315">
          <path
             style="fill:#231f20"
             inkscape:connector-curvature="0"
             d="m 87.668,154.106 c 0.985,0 1.784,0.99 1.784,2.211 l 0,12.532 c 0,1.221 -0.799,2.21 -1.784,2.21 l 0,0 c -0.985,0 -1.783,-0.989 -1.783,-2.21 l 0,-12.532 c 10e-4,-1.221 0.798,-2.211 1.783,-2.211 l 0,0 z"
             id="path1317" />
          <path
             style="fill:#ffffff"
             inkscape:connector-curvature="0"
             d="m 87.668,171.492 c -1.222,0 -2.215,-1.186 -2.215,-2.643 l 0,-12.532 c 0,-1.458 0.994,-2.644 2.215,-2.644 1.221,0 2.216,1.186 2.216,2.644 l 0,12.532 c 0.001,1.458 -0.994,2.643 -2.216,2.643 z m 0,-16.954 c -0.745,0 -1.351,0.798 -1.351,1.779 l 0,12.532 c 0,0.98 0.606,1.778 1.351,1.778 0.745,0 1.351,-0.798 1.351,-1.778 l 0,-12.532 c 10e-4,-0.981 -0.605,-1.779 -1.351,-1.779 z"
             id="path1319" />
        </g>
      </g>
    </g>
  </g>
</svg>
