<svg id="Capa_1" data-name="Capa 1" xmlns="http://www.w3.org/2000/svg" viewBox="0 0 800 800"><defs><style>.cls-1{fill:#565d68;}</style></defs><title>Mesa de trabajo 1 copia</title><path id="Trazado_171" data-name="Trazado 171" class="cls-1" d="M691.26,334.4,641.83,201.19a58,58,0,0,0-54-37.55h-353a57.76,57.76,0,0,0-54,37.55L132.17,332.74l-20.29,18.78A79.34,79.34,0,0,0,84,411.84V605.93a57.72,57.72,0,0,0,57.7,57.43h36.45a57.71,57.71,0,0,0,57.69-57.43V577.78H578.19v28.15a57.72,57.72,0,0,0,57.71,57.43h36.44A57.71,57.71,0,0,0,730,605.93V406.73a80,80,0,0,0-24.7-57.48ZM206.79,210.57a29.84,29.84,0,0,1,28-19.33H588a30,30,0,0,1,28,19.33l43.07,116H626.92a94.69,94.69,0,0,0-187.32,0H163.78Zm391.9,116H467.48a67.1,67.1,0,0,1,131.28,0ZM208.22,605.93a30,30,0,0,1-30.1,29.81H141.7a30,30,0,0,1-30.1-29.81V569.77a56.1,56.1,0,0,0,30.1,8h66.52Zm464.1,29.81H635.9a30.11,30.11,0,0,1-30.1-29.81V577.78h66.54a56.09,56.09,0,0,0,30.09-8v36.16a30,30,0,0,1-30.09,29.81Zm30.11-115.16a29.86,29.86,0,0,1-30.09,29.54H141.7a29.79,29.79,0,0,1-30.09-29.48v-.06h0V411.84A51.85,51.85,0,0,1,130,372.37l.56-.56,18.78-17.68H672.07l13.25,14.28c.14.27.55.41.68.69a52,52,0,0,1,16.29,37.69V520.58Z"/><path id="Trazado_172" data-name="Trazado 172" class="cls-1" d="M280,423.16a13.85,13.85,0,0,0-13.81-13.8H162.68a13.84,13.84,0,0,0-13.8,13.8V495a13.84,13.84,0,0,0,13.8,13.81H266.21A13.85,13.85,0,0,0,280,495Zm-27.62,58H176.49V437h75.93Z"/><path id="Trazado_173" data-name="Trazado 173" class="cls-1" d="M665.16,423.16a13.86,13.86,0,0,0-13.81-13.8H547.82a13.84,13.84,0,0,0-13.8,13.8V495a13.84,13.84,0,0,0,13.8,13.81H651.35A13.86,13.86,0,0,0,665.16,495Zm-27.62,58H561.61V437h75.93Z"/><path id="Trazado_174" data-name="Trazado 174" class="cls-1" d="M473.71,467.34H340.35a13.81,13.81,0,0,0,0,27.61H473.71a13.81,13.81,0,0,0,0-27.61Z"/><path id="Trazado_175" data-name="Trazado 175" class="cls-1" d="M473.71,424.54H340.35a13.81,13.81,0,0,0,0,27.61H473.71a13.81,13.81,0,0,0,0-27.61Z"/></svg>