<svg id="bc14dbd9-7930-4576-97ac-e4c0dbe9419f" data-name="Capa 1" xmlns="http://www.w3.org/2000/svg" viewBox="0 0 301.54 267.37"><title>chery</title><path d="M294.19,501.76a29.81,29.81,0,0,1-7.91,1,20.1,20.1,0,0,1-9.3-2.14,16.56,16.56,0,0,1-6.4-5.73,15,15,0,0,1,.31-16.49,17,17,0,0,1,7-5.65,21.61,21.61,0,0,1,9.31-2,24.77,24.77,0,0,1,9.79,1.78,58.44,58.44,0,0,1,8.4,4.39V461.74c-8.23-2.9-15.6-4.39-22.12-4.39a43.52,43.52,0,0,0-12.4,1.76,31.36,31.36,0,0,0-10.5,5.45,24.83,24.83,0,0,0-7.16,9.25,30.38,30.38,0,0,0-2.57,12.95,31.27,31.27,0,0,0,2.18,11.81,25.12,25.12,0,0,0,6.54,9.42,28.34,28.34,0,0,0,10.26,6.13,41.57,41.57,0,0,0,13.41,2.06,63.94,63.94,0,0,0,7.83-.48,46,46,0,0,0,7.5-1.61,44.22,44.22,0,0,0,7.28-3V496.54a51.45,51.45,0,0,1-5.21,3A40.78,40.78,0,0,1,294.19,501.76Z" transform="translate(-248.8 -248.81)"/><polygon points="108.34 230.36 82.36 230.36 82.36 209.41 65.07 209.41 65.07 266.63 82.36 266.63 82.36 244.32 108.34 244.32 108.34 266.63 125.67 266.63 125.67 209.41 108.34 209.41 108.34 230.36"/><polygon points="153.92 242.94 177.96 242.94 177.96 231.31 153.92 231.31 153.92 221.03 179.11 221.03 179.11 209.41 136.57 209.41 136.57 266.63 179.81 266.63 179.81 255.08 153.92 255.08 153.92 242.94"/><path d="M481.7,494.07a16.59,16.59,0,0,0-4.57-3.84,32,32,0,0,0,4.2-2.6,12.69,12.69,0,0,0,3.5-4.35,14.57,14.57,0,0,0,1.69-7.3,18.44,18.44,0,0,0-2-7.9,17.64,17.64,0,0,0-6.58-7c-3-1.9-6.92-2.87-11.66-2.87H436.81v57.22h17.31v-22.3h1.95a13.5,13.5,0,0,1,4.86.72,9.54,9.54,0,0,1,3.88,3.29,41.24,41.24,0,0,1,4.51,8.15l4.51,10.14h18.56L486.61,503A46.87,46.87,0,0,0,481.7,494.07Zm-15.11-12.53c-1.58.92-4.49,1.38-8.71,1.38h-3.76V469.25h3.66c3.92,0,6.81.53,8.52,1.55s2.62,2.86,2.62,5.46S468.14,480.63,466.59,481.54Z" transform="translate(-248.8 -248.81)"/><polygon points="269.97 227.41 256.82 209.41 238.85 209.41 261.71 240.74 261.71 266.63 279.05 266.63 279.05 240.43 301.54 209.41 283.17 209.41 269.97 227.41"/><path d="M399.11,333.23c-7.66,0-15.13-.22-22.45-.6l25.95-73.69,52.76,114.43h35.05l-17.21-28,2.14,3.22c44-9.39,73.55-26.63,73.55-46.4,0-24.66-46.27-45.49-109.4-51.82l.14.21q-8-.83-16.31-1.3l.47.51h-.05l7.57,10.1s15.92,1.37,29,3.09c35.76,5.9,60.84,16.82,64.42,29.57a9.83,9.83,0,0,1,.32,2.61c0,11.07-15.83,21-41.11,27.93l.19.28c-6.58,1.78-13.81,3.33-21.56,4.69l-48.12-78.44H391.13l-42.25,80.46c-9.6-1.26-18.59-2.85-26.74-4.73l.19-.16c-29.74-6.87-49-17.59-49.34-29.68.32-14.56,28.44-27.11,69.37-33.24,14.5-1.87,33.58-3.43,33.58-3.43l8.11-10.07a82.82,82.82,0,0,0-8.3.41c-5,.27-10,.66-14.9,1.08l.08-.1A317.82,317.82,0,0,0,313.78,258a5,5,0,0,1-.79.17c-1.13.32-2.25.59-3.37.89-.94.26-1.89.55-2.89.79a1.1,1.1,0,0,1-.44.15c-35,9.83-57.49,25.13-57.49,42.32s22.6,32.54,57.74,42.43l.11-.17a275.38,275.38,0,0,0,31.06,6.76l-11.62,22.17h36.16L368.79,355c9.76.73,19.91,1.15,30.32,1.15,11.14,0,22-.48,32.52-1.3l-8.56-22C417.11,333,405.32,333.23,399.11,333.23Z" transform="translate(-248.8 -248.81)"/></svg>