<svg id="f634bfa0-98cd-4304-ab4c-56df12958279" data-name="Capa 1" xmlns="http://www.w3.org/2000/svg" viewBox="0 0 729 600.62"><title>daihatsu</title><path d="M221.13,619.64c-1.91-5.42-8.27-23.71-12.12-34.39s-10.32-30.42-11.42-33.8-1.19-4.91-4.86-5.36-13.12-1-17.94-.59a3.18,3.18,0,0,0-3,2.53c-.69,2.37-7.94,24.51-11,33.65s-12.14,35.46-13.28,39-9.23,27.53-10.64,31.59c-1.26,4.14-1.45,5.31,1.15,5.31s4.58.16,7.2.16,3.81.12,4.7-1.93c1.07-2.48,9.39-27.54,9.39-27.54h19.16c8.27,0,19.62-.11,19.62-.11s1.48,2.58,4.82,13.31S207.32,658,212.33,658h17.55c2.49,0,3.2-1,3.2-2.85s-1.91-6.38-1.91-6.38Zm-42.28-3.21c-9.47,0-15.82-.29-15.82-.29s1.43-4.85,7.42-23.14,8-23.8,8-23.8,2.45,6.22,8.65,25.34,6.85,21.8,6.85,21.8S188.39,616.43,178.85,616.43Z" transform="translate(-31 -60.81)"/><path d="M497.62,619.64c-1.81-5.42-8.18-23.71-12.11-34.39s-10.3-30.42-11.33-33.8-1.19-4.91-5-5.36-13.09-1-17.94-.59c-.76.09-2.19.14-3,2.53s-8,24.51-11,33.65-12.21,35.46-13.28,39c-1.22,3.57-9.23,27.53-10.54,31.59s-1.53,5.31,1.14,5.31,4.51.16,7.11.16,3.86.12,4.67-1.93c1.1-2.48,9.45-27.54,9.45-27.54h19.05c8.33,0,19.68-.11,19.68-.11s1.48,2.58,4.86,13.31S483.79,658,488.87,658h17.56c2.45,0,3.17-1,3.17-2.85s-1.91-6.38-1.91-6.38Zm-42.23-3.21c-9.54,0-15.79-.29-15.79-.29S441,611.29,447,593s7.94-23.8,7.94-23.8,2.51,6.22,8.64,25.34,6.94,21.8,6.94,21.8S464.9,616.43,455.39,616.43Z" transform="translate(-31 -60.81)"/><path d="M276.8,548.82c0-3.15-5.37-3-8.45-3s-7.24-.11-11.44-.11-5.39,1.95-5.39,6.57.26,25.51.26,34.5.31,59.59.31,65.32,2.6,6.16,6.68,6.22,10.16-.25,14.24-.25,4.55-2.25,4.55-7.4-.31-42.68-.31-50.83S276.8,552,276.8,548.82Z" transform="translate(-31 -60.81)"/><path d="M390.73,545.7c-4,0-8.09.11-10.92.11s-8.11-.14-8.11,3c0,2.63-.29,30.64-.29,44.63,0,0-7.89.16-19.58.16s-17.44-.16-17.44-.16c-.16-14-.42-42-.42-44.63,0-3.15-5.23-3-8.09-3s-7-.11-11-.11-5.13,1.95-5.13,6.57.29,25.51.29,34.5.21,59.59.21,65.32,2.6,6.16,6.49,6.22,9.7-.25,13.52-.25,4.34-2.25,4.34-7.4c0-4.32-.17-31.46-.22-44.88,0,0,12.1-.08,17.3-.08s19.58.08,19.58.08c0,13.42-.19,40.56-.19,44.88,0,5.15.45,7.4,4.34,7.4s9.61.29,13.5.25,6.44-.46,6.44-6.22.19-56.32.19-65.32.33-29.85.33-34.5S394.73,545.7,390.73,545.7Z" transform="translate(-31 -60.81)"/><path d="M584.91,547.29c-3.24-.19-24.7-.61-29.35-.69s-22.25-.06-25.67,0S505,547,503.28,547s-2.34,1.83-2.34,5.8.33,6.46,2.5,6.46,18.87,0,23.38.13c2.31,0,3.19,0,3.88,0s1.48-.08,1.48.59.43,16.43.43,22.46-.26,22.07-.26,28.46.38,27.56.38,30.23,0,9.1.34,12.61,0,4.24,1.62,4.58a123.87,123.87,0,0,0,12.42,1.2c4.56.19,10.4,1.06,10.4-5.29s0-28,0-30-.14-24-.14-25.9V560.8c0-1,.26-1.36,1.53-1.36s13.55.29,18.32.29h7.74c1.15,0,2.51.31,2.68-1.53s.5-5.63.59-7.51S588.09,547.48,584.91,547.29Z" transform="translate(-31 -60.81)"/><path d="M612.27,569.51c0-6.46,4.68-11.94,15.79-11.94,16.84,0,21.39,7.66,24.52,7.66.95,0,1.64-.86,1.64-2v-8.26c0-1.69-.47-2.68-3.46-4.15s-11.94-4.29-23.89-4.29c-14.89,0-33.37,4.49-33.37,29.25,0,33.69,46.79,38.63,46.79,62.57,0,4.36-1.85,11.24-13.8,11.24-21,0-25.93-7.12-30.49-7.12-1.4,0-1.66,2.63-1.66,4.92v4.52c0,1.46,0,3.29,2.86,4.16s16.84,4.74,27.4,4.74c15.81,0,36.11-6.18,36.11-29.88C660.71,597.26,612.27,588.69,612.27,569.51Z" transform="translate(-31 -60.81)"/><path d="M755.47,548.77c-2.46,0-6.35-.14-7.9-.14s-2,1-2,3.2.21,13.32.21,20.57c.12,13.63.55,46.82.55,55.62,0,22.55-16.88,22.51-21.34,22.51-23.33,0-21.42-21.2-21.42-32.57,0-6.23-.1-20.25-.1-24.51s.19-27.25.19-36.07-2.26-9.23-4.55-9.25-4.82-.1-7.75-.1-5.15.27-8.54.27-3.63,1.64-3.63,3.83.38,53.82.38,72.4,11.86,36.91,46.49,36.91S760,635.85,760,628.88V595.31c0-31.54-.46-43.09-.46-44.81S758,548.77,755.47,548.77Z" transform="translate(-31 -60.81)"/><path d="M73.6,545H36c-3.17,0-5,.15-5,3.65s.12,36.43.12,55.41.45,46.34.45,49,.07,3.87,6.54,4.28,31.79.07,39.3.07c30.67,0,46.32-22,46.32-53.57C123.73,551.56,94.49,545,73.6,545ZM70,645.85c-6.37,0-14-.41-14-.41V560c0-2.8,2.39-2.55,3.87-2.55h8.84c13.62,0,29.89.32,29.89,43.22S84,645.85,70,645.85Z" transform="translate(-31 -60.81)"/><path d="M31,492.27H760V60.81H31Zm88.39-326.75,166.3,165.81s408.36-35.92,408.36-78.92c0-25.83-182.35-48.57-271.6-55.87-79.85-6.55-168-6.14-168-6.14L377.94,313.58l-88,8.95-157.52-157S235.25,159.19,422.45,176s291,45.4,291,75.44c0,79.88-506.84,158-506.84,158l45.32-70.59L78.17,167.48Z" transform="translate(-31 -60.81)"/></svg>