<svg id="Capa_1" data-name="Capa 1" xmlns="http://www.w3.org/2000/svg" viewBox="0 0 205.09 218.68"><defs><style>.cls-1{fill:#ccc;}</style></defs><path class="cls-1" d="M604.6,399.8" transform="translate(-158.84 -304.64)"/><path d="M160.73,441.12c0,.28,0,.56,0,.84,0,44.93,45.24,81.35,101,81.35s101-36.42,101-81.35q0-1.32-.06-2.64C295.24,438.45,228.36,439.78,160.73,441.12Z" transform="translate(-158.84 -304.64)"/><path d="M360.86,383.34c-1.74-43.7-46.28-78.7-101-78.7-55.46,0-100.47,36-101,80.5C226.47,383.8,293.36,382.47,360.86,383.34Z" transform="translate(-158.84 -304.64)"/><path d="M165.7,429.27V393.15h13.48a20,20,0,0,1,7.84,1.43,16.31,16.31,0,0,1,5.62,3.86,16.07,16.07,0,0,1,3.4,5.73,22.16,22.16,0,0,1-.12,14.44,16.06,16.06,0,0,1-3.64,5.7,16.25,16.25,0,0,1-5.7,3.66,20.1,20.1,0,0,1-7.4,1.3Zm23-18.11a14.2,14.2,0,0,0-.63-4.35,9.81,9.81,0,0,0-1.86-3.38,8,8,0,0,0-3-2.19,10.11,10.11,0,0,0-4-.76H174v21.46h5.14a9.73,9.73,0,0,0,4.07-.81,8.28,8.28,0,0,0,3-2.26,10.63,10.63,0,0,0,1.83-3.41A14,14,0,0,0,188.69,411.16Z" transform="translate(-158.84 -304.64)"/><path d="M210.67,393.15h7.53l13.17,36.12h-8.54l-2.8-8.09H208.79L206,429.27h-8.55Zm8,22.28-4.22-12.76-4.32,12.76Z" transform="translate(-158.84 -304.64)"/><path d="M258.89,400.48h-11v28.79h-8.34V400.48h-11v-7.33h30.37Z" transform="translate(-158.84 -304.64)"/><path d="M284.63,403.73a5.2,5.2,0,0,0-1.07-.76,20.78,20.78,0,0,0-2.29-1.17,21.87,21.87,0,0,0-3-1.07,12.19,12.19,0,0,0-3.25-.45q-4.49,0-4.48,3a2.36,2.36,0,0,0,.48,1.52,4.32,4.32,0,0,0,1.43,1.1,12.93,12.93,0,0,0,2.36.89l3.31.91a44.25,44.25,0,0,1,4.68,1.55,12.49,12.49,0,0,1,3.53,2.09,8.44,8.44,0,0,1,2.24,3,10.4,10.4,0,0,1,.79,4.27,10.64,10.64,0,0,1-1.15,5.16,9.68,9.68,0,0,1-3,3.41,12.94,12.94,0,0,1-4.33,1.88,21.44,21.44,0,0,1-5,.59,27.25,27.25,0,0,1-4.07-.31,28.88,28.88,0,0,1-4.07-.89,31.37,31.37,0,0,1-3.84-1.4,21.25,21.25,0,0,1-3.43-1.88l3.66-7.27a6.6,6.6,0,0,0,1.32,1,20.09,20.09,0,0,0,2.77,1.43,28.32,28.32,0,0,0,3.69,1.27,15.62,15.62,0,0,0,4.12.56q4.42,0,4.43-2.7a2.28,2.28,0,0,0-.66-1.68,6.29,6.29,0,0,0-1.84-1.19,18.67,18.67,0,0,0-2.77-1l-3.48-1a30.85,30.85,0,0,1-4.33-1.65,11.44,11.44,0,0,1-3-2.06,7.44,7.44,0,0,1-1.78-2.7,9.91,9.91,0,0,1-.59-3.56,11.39,11.39,0,0,1,1.07-5,10.9,10.9,0,0,1,2.9-3.68,12.68,12.68,0,0,1,4.25-2.27,16.81,16.81,0,0,1,5.11-.76,19.2,19.2,0,0,1,3.71.36,27.31,27.31,0,0,1,3.51.91,25.53,25.53,0,0,1,3.13,1.27c1,.48,1.86.95,2.67,1.43Z" transform="translate(-158.84 -304.64)"/><path d="M309.76,422.15a6.93,6.93,0,0,0,3.61-.89,7,7,0,0,0,2.39-2.37,10.22,10.22,0,0,0,1.3-3.38,20.12,20.12,0,0,0,.38-3.89V393.15h8.34v18.47a25.08,25.08,0,0,1-.94,7,16.21,16.21,0,0,1-2.9,5.69,13.69,13.69,0,0,1-5,3.85,19.15,19.15,0,0,1-14.57-.08,13.7,13.7,0,0,1-5-3.94,16.39,16.39,0,0,1-2.8-5.73,25.85,25.85,0,0,1-.89-6.81V393.15h8.35v18.47a18.89,18.89,0,0,0,.4,4,10.26,10.26,0,0,0,1.33,3.35,6.78,6.78,0,0,0,2.36,2.34A6.87,6.87,0,0,0,309.76,422.15Z" transform="translate(-158.84 -304.64)"/><path d="M340.58,408.62v20.65h-8.34V393.15h6.51l16.84,21.22V393.15h8.34v36.12h-6.71Z" transform="translate(-158.84 -304.64)"/></svg>