<svg id="bf43d360-a668-487d-b3e6-21b808bd919c" data-name="Capa 1" xmlns="http://www.w3.org/2000/svg" xmlns:xlink="http://www.w3.org/1999/xlink" viewBox="0 0 312.62 312.62"><defs><style>.b79bd433-9e7b-4e1b-a060-8c89e5caa1de{fill:none;}.a016f930-d032-4c67-b9f4-6b98deac0690{fill:#fc3e3e;}.a1a44608-1f9a-4108-a13c-b7ec2e42982c{clip-path:url(#f8270a7c-0d23-4f8b-b1f3-7737bf9a2885);}.e2b27a38-65ae-4555-9a13-715f76c7ac59{fill:#fff;}</style><clipPath id="f8270a7c-0d23-4f8b-b1f3-7737bf9a2885" transform="translate(-179.91 -228.05)"><rect class="b79bd433-9e7b-4e1b-a060-8c89e5caa1de" x="237.41" y="261.32" width="190.83" height="235.36"/></clipPath></defs><title>deleted_1</title><g id="bb523cbb-eb01-4c04-92bf-3a7239cce66a" data-name="Grupo 813"><rect id="bf65173c-aceb-480f-b98c-b712c1c12004" data-name="Rectángulo 451" class="a016f930-d032-4c67-b9f4-6b98deac0690" width="312.62" height="312.62" rx="67.96"/><g id="b01bec2e-4902-44af-916e-919af17c7344" data-name="Grupo 786"><g id="fca09589-4b6d-4211-ad92-a334976b76ed" data-name="Grupo 137"><g class="a1a44608-1f9a-4108-a13c-b7ec2e42982c"><g id="ae1c48e7-7955-41d0-aee8-8c1232a6614b" data-name="Grupo 136"><path id="ed93f2d2-3c40-4ab7-8d79-967e9158d526" data-name="Trazado 163" class="e2b27a38-65ae-4555-9a13-715f76c7ac59" d="M400.83,289.5H364.2a31.85,31.85,0,0,0-63.27,0h-36.7a26.91,26.91,0,0,0-26.82,26.88v1.36a26.92,26.92,0,0,0,17,25v127a26.93,26.93,0,0,0,26.89,26.89H383.84a26.93,26.93,0,0,0,26.89-26.89v-127a26.91,26.91,0,0,0,17-25v-1.36a26.9,26.9,0,0,0-26.88-26.88Zm-68.27-15.44a19.14,19.14,0,0,1,18.76,15.44H313.81A19.14,19.14,0,0,1,332.56,274.06ZM398,469.78a14.14,14.14,0,0,1-14.13,14.14H281.29a14.15,14.15,0,0,1-14.14-14.14v-125H398Zm17-152a14.14,14.14,0,0,1-14.13,14.13H264.3a14.15,14.15,0,0,1-14.14-14.13v-1.36A14.15,14.15,0,0,1,264.3,302.3H400.83A14.15,14.15,0,0,1,415,316.44Z" transform="translate(-179.91 -228.05)"/></g></g></g><path id="a6b78afe-feec-4c63-a863-268755580546" data-name="Trazado 164" class="e2b27a38-65ae-4555-9a13-715f76c7ac59" d="M298.4,467.6a6.38,6.38,0,0,0,6.38-6.38V389.43a6.38,6.38,0,1,0-12.75,0v71.78a6.37,6.37,0,0,0,6.37,6.37Z" transform="translate(-179.91 -228.05)"/><path id="b554f24e-4d2d-4c13-918b-1146c134f756" data-name="Trazado 165" class="e2b27a38-65ae-4555-9a13-715f76c7ac59" d="M332.57,467.6a6.38,6.38,0,0,0,6.38-6.38V389.43a6.38,6.38,0,1,0-12.75,0v71.78a6.35,6.35,0,0,0,6.34,6.37h0Z" transform="translate(-179.91 -228.05)"/><path id="f4520dbe-6555-4cf4-a18d-77d674b9a8ef" data-name="Trazado 166" class="e2b27a38-65ae-4555-9a13-715f76c7ac59" d="M366.74,467.6a6.38,6.38,0,0,0,6.38-6.38V389.43a6.38,6.38,0,1,0-12.75,0v71.78a6.37,6.37,0,0,0,6.37,6.37Z" transform="translate(-179.91 -228.05)"/></g></g></svg>