<svg id="b386e1f6-759b-44f3-b3ce-6e926be36102" data-name="Capa 1" xmlns="http://www.w3.org/2000/svg" viewBox="0 0 24.56 26.17"><title>dodge</title><path d="M32.3,153c3.18,0,4.86,4.14,4.86,4.14l.37-1.24s-1.43-3.59-4.77-3.59a4.07,4.07,0,0,0-3.83,2.51A4,4,0,0,1,32.3,153Z" transform="translate(-25.44 -148.06)"/><path d="M31.41,164.11c-2.16,0-3-5.43-3-5.43H27.9c0,.35-.18,6.7,3.28,6.7A1.45,1.45,0,0,0,32.77,164a3.33,3.33,0,0,0-.5-1.75S32.84,164.11,31.41,164.11Z" transform="translate(-25.44 -148.06)"/><path d="M43.12,153a4.05,4.05,0,0,1,3.38,1.82,4.07,4.07,0,0,0-3.83-2.51c-3.34,0-4.77,3.59-4.77,3.59l.37,1.24S40,153,43.12,153Z" transform="translate(-25.44 -148.06)"/><path d="M47,158.68s-.82,5.43-3,5.43c-1.43,0-.86-1.91-.86-1.91a3.33,3.33,0,0,0-.5,1.75,1.45,1.45,0,0,0,1.59,1.43c3.46,0,3.28-6.35,3.28-6.7Z" transform="translate(-25.44 -148.06)"/><path d="M42.72,158.54s.28-.8.86-.8c1,0,.88,1.74.43,3.2s-.09,1.71.18,1.71.88-.28,1.55-1.51a10,10,0,0,0,.92-2.75h.49c0-3-1.8-3.58-2.79-3.58-3.17,0-4.35,4.42-4.35,4.42l.63.45-.3,1.51-1.19.49-.22,1.49.59-.71.62-.25-.2,1-1.07.44-.37,2.57.26.82-1,.41-1-.41.26-.82-.37-2.57-1.07-.44-.2-1,.62.25.59.71-.22-1.49-1.19-.49-.3-1.51.63-.45s-1.18-4.42-4.35-4.42c-1,0-2.79.54-2.79,3.58h.49a10.44,10.44,0,0,0,.92,2.75c.67,1.23,1.28,1.51,1.55,1.51s.63-.22.18-1.71-.58-3.2.43-3.2c.58,0,.86.8.86.8s-.73,1.92.66,2.54l1,.44c.27,1.14.58,2.44.64,2.67a3.87,3.87,0,0,0,.41.85l.67,1.15.31,1.53c.09.4.17.8,1.15.8h.33c1,0,1.07-.4,1.15-.8l.31-1.53L40,165a3.87,3.87,0,0,0,.41-.85c.06-.23.37-1.53.65-2.67l1-.44C43.45,160.46,42.72,158.54,42.72,158.54Zm-8.79,2.19a1.16,1.16,0,0,1-.82-1.19,4.79,4.79,0,0,1,.1-1l.72,1.12.27,1.17Zm7.57,0-.28.11.28-1.17.72-1.12a4.72,4.72,0,0,1,.1,1A1.16,1.16,0,0,1,41.5,160.73Z" transform="translate(-25.44 -148.06)"/><path d="M47.57,148.45c-.75,0-5.57-.39-9.85-.39s-9.11.34-9.86.39c-.94.07-2.42.67-2.42,3,0,1.93.22,9,.41,12s1.2,4.76,3,6c.82.56,3.2,1.86,5.38,3,1.41.76,2.74,1.45,3.49,1.84.74-.39,2.07-1.08,3.48-1.84,2.18-1.16,4.56-2.46,5.38-3,1.8-1.21,2.8-2.83,3-6s.41-10.06.41-12C50,149.12,48.51,148.52,47.57,148.45Zm.92,14.88c-.18,2.86-1.05,4.15-2.52,5.15-1.22.83-6,3.37-8.25,4.52-2.22-1.15-7-3.69-8.26-4.52-1.47-1-2.34-2.29-2.52-5.15s-.41-10-.41-11.92c0-1.57.87-1.83,1.41-1.87.74,0,5.52-.4,9.78-.4s9,.35,9.77.4c.54,0,1.41.3,1.41,1.87C48.91,153.33,48.68,160.34,48.49,163.33Z" transform="translate(-25.44 -148.06)"/></svg>