<svg xmlns="http://www.w3.org/2000/svg" width="100" height="115" viewBox="0 0 100 115">
  <defs>
    <style>
      .cls-1 {
        fill-rule: evenodd;
      }
    </style>
  </defs>
  <path class="cls-1" d="M9.272,7.977l41.06,31.908,40.4-31.908v3.988l-3.311,2.659-1.987,1.994-1.987,1.994-1.325,1.994L79.47,23.266,78.146,24.6l-1.987,2.659-1.987,2.659-1.987,1.994-1.325,3.324L70.2,37.89l-0.662,3.988L70.2,45.2l1.325,3.989,2.649,5.318,4.636,5.983,4.636,5.318,7.285,7.977a2.91,2.91,0,0,1,.662,1.329c-0.136.3-.662,1.329-0.662,1.329l-7.285,5.983-10.6,8.642-9.272,7.312-6.623,4.653-4.636,3.988-1.987,1.33v-3.324l4.636-5.318,3.973-3.989,5.3-5.983,4.636-5.318,1.987-3.989,1.325-2.659,0.662-3.989-0.662-3.324L68.874,64.48l-3.311-4.653-3.974-5.318-3.973-4.653-3.974-3.988-3.974-3.324L9.272,74.451V7.977Z"/>
</svg>
