<svg id="a767dabd-4381-4c08-906e-6774e01f4698" data-name="Capa 1" xmlns="http://www.w3.org/2000/svg" xmlns:xlink="http://www.w3.org/1999/xlink" viewBox="0 0 312.62 312.62"><defs><style>.a09be58a-58bf-4425-8646-921fb01d7fda{fill:none;}.ae129cd1-224f-485f-a062-1a953c01aa8f{fill:#005dff;}.fa8e5e15-c73b-4c69-955b-dbecfed9ec48{clip-path:url(#ff55ed2b-55a2-4666-8719-d464824ae303);}.ee3ff632-0d69-42f2-bc4f-03889e5bf156{fill:#fff;stroke:#fff;stroke-width:0.3px;}</style><clipPath id="ff55ed2b-55a2-4666-8719-d464824ae303" transform="translate(-98.81 -71.05)"><rect class="a09be58a-58bf-4425-8646-921fb01d7fda" x="153.18" y="98.23" width="217.47" height="217.47"/></clipPath></defs><title>edit_1</title><g id="be32f02d-1365-47b4-b2aa-dee94f3e3518" data-name="Grupo 811"><rect id="e7152938-5164-4378-a76a-456ac6ab3e6f" data-name="Rectángulo 453" class="ae129cd1-224f-485f-a062-1a953c01aa8f" width="312.62" height="312.62" rx="67.96"/><g id="be402962-3c29-44bb-80d4-56a31cbc3f5e" data-name="Grupo 785"><g id="ba7b4a67-a6cc-4f09-81f8-962778a24ea1" data-name="Grupo 134"><g class="fa8e5e15-c73b-4c69-955b-dbecfed9ec48"><g id="edd1b6ff-5322-49d0-8b1a-ecf50a3c03f7" data-name="Grupo 132"><path id="e305e484-ae93-4bfc-8dd2-7549c12ff19d" data-name="Trazado 161" class="ee3ff632-0d69-42f2-bc4f-03889e5bf156" d="M354.79,236.52a5.44,5.44,0,0,0-5.44,5.44h0v48.17A16.31,16.31,0,0,1,333,306.44H180.93a16.32,16.32,0,0,1-16.31-16.31h0V148.77a16.31,16.31,0,0,1,16.31-16.31h48.12a5.44,5.44,0,0,0,0-10.88H180.93a27.18,27.18,0,0,0-27.18,27.19V290.13a27.18,27.18,0,0,0,27.18,27.18H333.16a27.18,27.18,0,0,0,27.19-27.18V241.94a5.45,5.45,0,0,0-5.44-5.44h0Z" transform="translate(-98.81 -71.05)"/></g></g><g class="fa8e5e15-c73b-4c69-955b-dbecfed9ec48"><g id="a4d71d20-cd0d-4349-bb8e-c43366046436" data-name="Grupo 133"><path id="a06128b5-cb63-45e2-b297-65c0019e4882" data-name="Trazado 162" class="ee3ff632-0d69-42f2-bc4f-03889e5bf156" d="M358.08,107.65a24.47,24.47,0,0,0-34.52,0l-96.79,96.79a5.35,5.35,0,0,0-1.36,2.39l-12.73,46a5.45,5.45,0,0,0,3.82,6.67,5.34,5.34,0,0,0,2.86,0l45.95-12.72a5.48,5.48,0,0,0,2.4-1.36l96.77-96.79a24.47,24.47,0,0,0,0-34.52ZM238.59,208l79.15-79.16,25.55,25.55-79.16,79.11Zm-5.11,10.24,20.39,20.38-28.23,7.82Zm123.28-77.33L351,146.62l-25.55-25.55,5.76-5.75a13.59,13.59,0,0,1,19.18,0l6.36,6.36a13.59,13.59,0,0,1,0,19.18Z" transform="translate(-98.81 -71.05)"/></g></g></g></g></g></svg>