<svg id="Capa_1" data-name="Capa 1" xmlns="http://www.w3.org/2000/svg" viewBox="0 0 324.72 328.01"><defs><style>.cls-1{fill:#ccc;}.cls-2{fill:#e3e3e3;}.cls-3{fill:#e82934;}.cls-4{fill:#fff;}</style></defs><path class="cls-1" d="M604.6,399.8" transform="translate(-237.44 -235.8)"/><path class="cls-2" d="M530.37,502.89c-23.28,47.61-82.76,60.32-130.57,60.92-47.81-.6-107.28-13.31-130.57-60.92s-58.65-192.35,1.21-235.07,198.84-42.7,258.71,0,24.49,187.46,1.22,235.07Z" transform="translate(-237.44 -235.8)"/><path class="cls-2" d="M530.37,502.89" transform="translate(-237.44 -235.8)"/><path class="cls-3" d="M498.58,512.63c-9.35,20.81-56.52,29.47-98.78,30.08-42.26-.61-89.43-9.27-98.78-30.08s-62.34-202-15.15-232.69,180.68-30.73,227.86,0-5.8,211.87-15.15,232.69Zm0,0" transform="translate(-237.44 -235.8)"/><path class="cls-4" d="M300.34,325.35l4.08,148.53,18.19.37V406.3h15.23V389.22H322.61v-45.3H343V325.35Zm0,0" transform="translate(-237.44 -235.8)"/><path class="cls-4" d="M355.92,325.35h19.95l-.27,148.9H356.66Zm0,0" transform="translate(-237.44 -235.8)"/><path class="cls-4" d="M391.68,325.63H434.5s10.61,22.78,14.27,54.76c4.55,39.72,2.09,93.67,2.09,93.67h-16l-.08-68.47h-23.6L411,474.25H393.2Zm42.23,64.08s-1.89-17.62-5.53-30.88A54.28,54.28,0,0,0,421,342.66H410.32v46.47Zm0,0" transform="translate(-237.44 -235.8)"/><path class="cls-4" d="M455,325.63H505.7v15.59H490.55l-2.62,132.84H468.37L471,341.5H454.77Zm0,0" transform="translate(-237.44 -235.8)"/></svg>