<svg id="affede6c-aafa-4251-a1d5-5c1b6c8cfc88" data-name="Capa 1" xmlns="http://www.w3.org/2000/svg" viewBox="0 0 654 481.03"><title>fiat</title><path d="M385.55,466.16c2.21-.14,3.79-.41,5.43-.41,23.1,0,46.14.27,69.23-.25,5.79-.17,6.92,2.78,6.9,10.83-.19,55-.12,110-.1,165,0,4,.33,8,.44,12.4H528v-9.24c0-69-.15-138.15.11-207.3a613.39,613.39,0,0,0-4.59-81.49c-8.88-68.2-28.59-127.56-61.2-176.71-2.89-4.28-5.86-6.37-10.1-6.29-39.27.24-78.52.12-117.76.12H325V653.37h60.54Zm-.06-191.63c0-11.09,0-11.09,7.5-11.12,14.53,0,29-.24,43.61.2,2.29.08,5.37,2.21,6.72,4.94,14.53,30.54,21.91,65,23.46,102.43a13.32,13.32,0,0,1-.46,3H385.49V274.53Z" transform="translate(-47 -172.67)"/><path d="M107.87,465.38h74.84V374.66H108.19V263.41h7c28,0,56-.16,84,.11,4.45,0,5.94-1.87,5.86-8.88-.27-24.56-.07-49.17-.09-73.74,0-2.42-.28-4.8-.45-7.49H47V653.34h60.87Z" transform="translate(-47 -172.67)"/><path d="M583,653.24h60.79V263.11H701V173.38H525.62v89.89H583Z" transform="translate(-47 -172.67)"/><path d="M289.59,173.49h-60.4V653.71h60.4Z" transform="translate(-47 -172.67)"/></svg>