<svg id="b54838b6-631f-4481-ae69-c91d840c1fbd" data-name="Capa 1" xmlns="http://www.w3.org/2000/svg" xmlns:xlink="http://www.w3.org/1999/xlink" viewBox="0 0 576.03 216"><defs><style>.a4b841ad-11ce-4ccf-a19e-d4e57c299838{fill:#333;}.fcd4674d-7c4e-41d5-b9d1-e513600cd4da{fill:url(#a49fe570-dc97-49a0-b073-a082dda1dcf9);}.ef8c9f6c-7cd0-4a85-91ad-bca61bf31e1f{fill:url(#eb657c95-2b00-4cd5-971c-ccb869d70053);}.b10c6ef2-210c-4a31-b82d-314e4449052b{fill:url(#a3f1bf95-e182-4338-9331-b59e31479f2a);}.a295fccc-e55d-48ec-b0d2-fe427722bc35{fill:url(#b57e3dad-0c18-4a06-ac0b-6c909b08385f);}.b2406a86-22ba-4439-bf60-706fae5497a8{fill:url(#f60ebca0-01c6-475d-8a33-f88631e4296f);}</style><linearGradient id="a49fe570-dc97-49a0-b073-a082dda1dcf9" x1="325.17" y1="421.45" x2="258.62" y2="173.1" gradientUnits="userSpaceOnUse"><stop offset="0" stop-color="#a6a6a6"/><stop offset="0.35" stop-color="#d9d9d9"/><stop offset="0.65" stop-color="#d9d9d9"/><stop offset="1" stop-color="#a6a6a6"/></linearGradient><linearGradient id="eb657c95-2b00-4cd5-971c-ccb869d70053" x1="500.37" y1="285.54" x2="434.13" y2="38.34" xlink:href="#a49fe570-dc97-49a0-b073-a082dda1dcf9"/><linearGradient id="a3f1bf95-e182-4338-9331-b59e31479f2a" x1="388.47" y1="151.34" x2="388.47" y2="371.98" gradientUnits="userSpaceOnUse"><stop offset="0" stop-color="#fff"/><stop offset="0.55" stop-color="#fdfdfd"/><stop offset="0.69" stop-color="#f9f9f9"/><stop offset="0.8" stop-color="#ccc"/><stop offset="1" stop-color="#b3b3b3"/></linearGradient><linearGradient id="b57e3dad-0c18-4a06-ac0b-6c909b08385f" x1="433.64" y1="221.89" x2="433.64" y2="331.31" gradientUnits="userSpaceOnUse"><stop offset="0" stop-color="#fff"/><stop offset="0.43" stop-color="#fdfdfd"/><stop offset="0.59" stop-color="#f6f6f6"/><stop offset="0.69" stop-color="#ececec"/><stop offset="0.8" stop-color="#e6e6e6"/><stop offset="1" stop-color="#ccc"/></linearGradient><linearGradient id="f60ebca0-01c6-475d-8a33-f88631e4296f" x1="346.57" y1="180.24" x2="346.57" y2="332.02" xlink:href="#b57e3dad-0c18-4a06-ac0b-6c909b08385f"/></defs><path d="M388.5,158.24c-156.68,0-283.59,46.32-283.59,103.63S231.82,365.48,388.5,365.48s283.59-46.33,283.59-103.61S545.2,158.24,388.5,158.24Z" transform="translate(-100.49 -153.93)"/><path class="a4b841ad-11ce-4ccf-a19e-d4e57c299838" d="M388.5,153.93c-159.87,0-288,47.92-288,108,0,59.71,129.2,108,288,108s288-48.45,288-108S547.31,153.93,388.5,153.93Zm-286,109.19c-.06-12.64,5.51-25.21,17.21-37C160.92,184.51,269,156.4,388,155.9c157.73-.65,286.26,46.38,286.53,104.84.06,12.64-5.85,25-17.56,36.84C615.74,339.18,508,367.46,389,368,231.26,368.61,102.73,321.58,102.47,263.12Zm572.28-9.53c.11.52.19,1,.28,1.57C675,254.63,674.85,254.11,674.75,253.59Z" transform="translate(-100.49 -153.93)"/><path class="fcd4674d-7c4e-41d5-b9d1-e513600cd4da" d="M119.05,225.47c41.46-41.83,149.6-70,269-70.47,16.54-.07,32.75.4,48.53,1.34q-23.44-1.49-48-1.51c-159.22,0-287.14,47.74-287.14,107.1a40.62,40.62,0,0,0,.9,8.37,41.09,41.09,0,0,1-.69-7.18C101.51,250.31,107.24,237.38,119.05,225.47Z" transform="translate(-100.49 -153.93)"/><path class="ef8c9f6c-7cd0-4a85-91ad-bca61bf31e1f" d="M657.62,298.24C616.3,339.92,508.19,368.36,389,368.85c-16.85.07-33.38-.38-49.45-1.36,15.91,1,32.27,1.53,49,1.53C546.82,369,675.62,320.7,675.62,262a40.32,40.32,0,0,0-.58-6.67,40.06,40.06,0,0,1,.4,5.48C675.5,273.57,669.43,286.33,657.62,298.24Z" transform="translate(-100.49 -153.93)"/><path class="b10c6ef2-210c-4a31-b82d-314e4449052b" d="M388.48,356.49c-150.1,0-271.78-42.35-271.78-94.59s121.68-94.59,271.78-94.59,271.76,42.34,271.76,94.59S538.57,356.49,388.48,356.49Zm0-181c-144.83,0-262.22,38.67-262.22,86.4s117.39,86.4,262.22,86.4S650.7,309.62,650.7,261.9,533.31,175.5,388.48,175.5Z" transform="translate(-100.49 -153.93)"/><path class="a295fccc-e55d-48ec-b0d2-fe427722bc35" d="M557.7,231c.38-.66,0-1.14-.85-1.14H542.29c-1.07,0-1.63.13-2.14,1.13-1.67,3.2-22,33.68-25.79,39.6-.64.9-1.42.78-1.51-.25-.38-3.52-3.42-7.56-8.2-9.49a20.87,20.87,0,0,0-10.92-1.26c-6.69.9-12.65,4.43-17.89,8.41-7.9,6-14.71,13.79-23.51,19.54-4.8,3.13-11.37,5.86-15.78,1.78-4-3.69-3.53-11.89,2.56-18.23.65-.66,1.42-.11,1.29.49a8.07,8.07,0,0,0,2.31,7.72,8.69,8.69,0,0,0,9.72,1.06,12.74,12.74,0,0,0,6.76-9.75A11.1,11.1,0,0,0,449,257.93c-5.06-.36-9.92,1.41-14.65,5.31a28.07,28.07,0,0,0-5.77,6.34c-.5.72-1.27.79-1.25-.27.24-8.28-3.19-12.95-10-13.1-5.32-.12-11,2.76-15.43,6.29-4.85,3.9-9.09,9.06-13.64,13.92-.57.6-1.06.57-1.22-.59-.14-5.49-1.52-10.81-4.06-14.59a3.38,3.38,0,0,0-4.38-1.07,31.59,31.59,0,0,0-5.15,3.07,2.91,2.91,0,0,0-.88,3.27,38.32,38.32,0,0,1-1.41,25.41c-3.05,7.21-9,13.72-16,15.92-4.6,1.46-9.38.74-12.34-3.33-4.06-5.63-2.42-15.41,3.63-23.54,5.35-7.15,13.08-11.7,20.79-14.62a1.21,1.21,0,0,0,.84-1.71c-.42-1.26-1.09-3-1.36-3.78-.71-1.88-2.69-2.19-5.11-1.92a43.51,43.51,0,0,0-15.65,5.24c-13.07,7-19.62,20.55-22.49,27.8a28.57,28.57,0,0,1-4.1,7.58c-2.06,2.59-4.64,4.95-9.38,9.1a1.67,1.67,0,0,0-.38,1.91c.48,1,2.94,4.48,3.63,4.79a2.13,2.13,0,0,0,2-.41,48.91,48.91,0,0,0,9.21-8.21c.67-.83,1.37-.48,1.73.77a20.34,20.34,0,0,0,13.1,13.93c12,4,24.42-1.81,33.8-12,6-6.47,8.12-10.63,10.4-13.46,3.87-4.8,11.52-15.54,20.62-22.44,3.34-2.54,7.29-4.48,9.27-3.19,1.6,1,2.11,3.43-.45,8.09-9.28,16.94-22.93,36.85-25.43,41.68-.46.84-.06,1.5.81,1.5,4.86,0,9.67,0,14.08,0a1.66,1.66,0,0,0,1.43-.88c7.12-11.15,13.83-21.76,21-32.73.4-.65.77-.15.79.14.15,2.54.77,6,2.28,8.31a12.46,12.46,0,0,0,10.83,6.07c3.4,0,5.12-.48,8.78-1.85a30.75,30.75,0,0,0,7.21-3.86c1.07-.75,1.26.5,1.23.69-1.65,8.85.39,19.33,9.18,23.68,10.53,5.19,22.09-2.1,28.75-8.69.65-.63,1.35-.57,1.41.8a12.19,12.19,0,0,0,3.36,7.59c5.58,5.59,16.83,3.38,28.12-5.36,7.25-5.6,14.84-13.51,21.69-21.88a1,1,0,0,0-.05-1.37c-1-1.09-2.55-2.34-3.58-3.3a1.3,1.3,0,0,0-1.57,0c-7,6.68-13.34,14.3-22.48,20.6-3.08,2.15-8,3.88-10.2.9-.86-1.16-.76-2.76.09-4.87C513.33,299,555.51,234.74,557.7,231Zm-55.76,53.86c.09.49.73,1,1.36,1.19.22.08.34.24.09.76a61.8,61.8,0,0,1-5.69,9.4,35.55,35.55,0,0,1-7.22,7.81c-4.25,3.52-10.16,7.35-15,4.77-2.17-1.12-3.11-4.16-3.07-6.62.12-6.91,3.18-14,8.86-21,6.92-8.52,14.57-12.94,19.59-10.53,5.2,2.48,3.54,8.5,1.22,13.22A1.28,1.28,0,0,0,501.94,284.81Z" transform="translate(-100.49 -153.93)"/><path class="b2406a86-22ba-4439-bf60-706fae5497a8" d="M251.73,321.36c-15.73.12-29.58-9.61-31.17-26.43a33.94,33.94,0,0,1,7-24.48c4.69-6.1,12.61-11.17,19.31-12.41,2.19-.4,5.12-.14,6.33,1.3,1.9,2.21,1.35,4.64-.55,5.61-5.11,2.62-11.27,7.09-14.31,13.19a16.18,16.18,0,0,0,.8,16.72c6.32,9.53,23.92,9.79,40.29-5.41a140.9,140.9,0,0,0,11.37-11.54c7.21-8.24,9.61-11.25,19.19-24.54a.48.48,0,0,0,.1-.45c-.08-.17-.21-.22-.49-.24a29.29,29.29,0,0,0-17.4,6.14,3.38,3.38,0,0,1-4.79-.52c-1.1-1.7-.31-3.91,1.49-5.15,8.72-6.07,18.25-7.17,28-8.81a1.55,1.55,0,0,0,1.23-.7c4-5.13,7-9.75,11.27-14.94A113.7,113.7,0,0,1,343.47,215c5.91-5.08,9.7-6.79,13.55-8.88,1-.53-.13-1.17-.44-1.17-21.51-4-43.86-9.27-65.22-1.36-14.79,5.52-21.27,17.25-18.15,25.09,2.21,5.56,9.53,6.46,16.37,3.11a37,37,0,0,0,14.68-13.06c2.09-3.21,6.48-.89,4.11,4.68-6.25,14.69-18.19,26.35-32.74,26.84-12.37.4-20.36-8.71-20.33-19.94,0-22.16,24.71-36.75,50.64-38.94,31.22-2.58,60.79,5.74,91.79,9.5,23.75,2.88,46.52,2.94,70.39-2.55,2.82-.61,4.8,1.19,4.62,4-.24,4.12-3.43,8.09-11.29,12.38-8.94,4.9-18.3,6.39-28.07,6.47-23.62.19-45.63-9-68.4-14,0,1,.29,2.18-.55,2.81-12.61,9.31-24,18.75-31.65,32-.26.31-.12.6.33.57,6.63-.35,12.59-.52,18.78-1,1.08-.09,1.12-.36,1-1.15a15.37,15.37,0,0,1,4.81-13.37c4.12-3.7,9.28-4.12,12.69-1.46,3.89,3,3.55,8.48,1.42,12.56a15.15,15.15,0,0,1-9.17,7.44s-.71.16-.61.81c.14,1,4.81,3.63,5.21,4.32a2.2,2.2,0,0,1-.52,2.46,3,3,0,0,1-2.27,1.08,4.81,4.81,0,0,1-2.31-.85,21.85,21.85,0,0,1-6.46-5.21c-.6-.74-.9-.76-2.39-.68-6.7.39-17.14,1.4-24.22,2.29-1.71.21-2,.53-2.32,1.12-11.28,18.61-23.33,38.67-36.55,52.1C276,317.48,264.25,321.27,251.73,321.36ZM359.24,238.7c.18,1,.55,1.13,1,1.05a10.27,10.27,0,0,0,5.89-4.24c1.28-1.86,1.87-4.54.61-5.62s-3-.69-4.31.51a9.57,9.57,0,0,0-3.17,8.3h0" transform="translate(-100.49 -153.93)"/></svg>