<svg id="ad79e9eb-4be0-4032-8aa1-614d26f8c27d" data-name="Capa 1" xmlns="http://www.w3.org/2000/svg" viewBox="0 0 275 185"><path d="M361.5,137c0,51.09-61.56,92.5-137.5,92.5S86.5,188.09,86.5,137,148.06,44.5,224,44.5,361.5,85.91,361.5,137ZM223,57.5c-57.71,0-104.5,34.25-104.5,76.5s46.79,76.5,104.5,76.5S327.5,176.25,327.5,134,280.71,57.5,223,57.5Z" transform="translate(-86.5 -44.5)"/><path d="M308.83,127h18.23s-8.14-34-98-35-110,27-110,38-6.56,44.5,102.44,50.5c55.51,1,106-14,106-47l-69.64-1s-8.08-10-35.33-9-33.31,7-33.31,13,4,19,33.31,18,36.34-12,36.34-12h51.47s-21.19,30-86.8,27-88.82-18-88.82-36,46.43-33,88.82-32S303.28,114.5,308.83,127Z" transform="translate(-86.5 -44.5)"/></svg>