<svg id="b6f87349-26c9-45a7-b782-5507cd554d0f" data-name="Capa 1" xmlns="http://www.w3.org/2000/svg" viewBox="0 0 436 414.02"><title>general motors</title><path d="M230,589.68H666v-414H230Zm5.71-408.29H660.29V584H235.71Z" transform="translate(-230 -175.66)"/><path d="M250.82,569.32H645.49V196.13H250.82Zm193.4-295.53H479l21.87,110.1,21.88-110.1h34.73V439.56H532.61V329.11L510.35,439.56H490.2L469.15,329.67l0,109.89h-25V273.79Zm-102.4,93.89v-43.6c0-44.73,20.55-54.24,43.69-54.24,22,0,43.22,7,44.39,36.36v19.88H404.21l.08-12.9c-.78-14.9-5-18.33-18.78-19-20.12,0-17.3,28.88-17.3,41.31v44.7c-.22,21-.26,36.19,17.3,36.19,10.13,0,18.6-2.87,18.6-18.55l.05-30H386.38V344.16h42.68v95.59H404.42l.05-10.06c-5.27,7.64-18.55,11.62-25.27,12.24C337.05,441.93,342.18,414.65,341.82,367.68ZM341,449.93H557.45v45.25H341Z" transform="translate(-230 -175.66)"/></svg>