<svg id="a61d02d4-adfa-4689-a51a-e5fcbfdb9134" data-name="Capa 1" xmlns="http://www.w3.org/2000/svg" xmlns:xlink="http://www.w3.org/1999/xlink" viewBox="0 0 312.62 312.62"><defs><style>.e99dbddd-bdda-4fc3-a326-11c248b17761{fill:none;}.b4e91e92-f075-47c9-940d-eb5b9c38aeed{fill:#a6603e;}.ba355720-ca0a-46e2-8668-6f363215c014{clip-path:url(#bc16044f-d80e-4e1d-93bc-ad272e5dd650);}.a58df6b7-cb38-4cfc-9cc6-0444900f25cc{fill:#fff;}</style><clipPath id="bc16044f-d80e-4e1d-93bc-ad272e5dd650" transform="translate(-135.61 -183.05)"><rect class="e99dbddd-bdda-4fc3-a326-11c248b17761" x="188.66" y="211.03" width="225.85" height="242.71"/></clipPath></defs><title>guia_1</title><g id="a501512e-9d7b-4eab-aed7-ec38d90f4b8b" data-name="Grupo 961"><g id="b7023ae0-a779-4d67-9663-f9ab39b9f235" data-name="Grupo 952"><g id="bda0e0a4-33df-413c-b5a3-b7d86a665406" data-name="Grupo 958"><path id="ac2c37b7-f3a9-4845-8fc7-34bdfbfe78f7" data-name="Trazado 1214" class="b4e91e92-f075-47c9-940d-eb5b9c38aeed" d="M203.57,183.05H380.26a68,68,0,0,1,68,68v176.7a68,68,0,0,1-68,68H203.57a68,68,0,0,1-68-68V251A68,68,0,0,1,203.57,183.05Z" transform="translate(-135.61 -183.05)"/></g></g><g id="bea69e98-b4b1-4b8a-9b29-21ef136f27e9" data-name="Grupo 957"><g id="e18ce833-ad74-4bda-9b18-531c4909c392" data-name="Grupo 956"><g class="ba355720-ca0a-46e2-8668-6f363215c014"><g id="ae805e1d-64fa-45d1-ab6a-970987f10fa2" data-name="Grupo 953"><path id="af8970fd-fc8e-4c7a-8115-7b0aa596ba57" data-name="Trazado 1211" class="a58df6b7-cb38-4cfc-9cc6-0444900f25cc" d="M194.43,336v.53a.51.51,0,0,0,.1.37V337l.3.46h0l.19.4h0l.21.36.11.15.19.25.34.36L220,363.1a5,5,0,1,0,7-7l-20.62-20.54,19-19a5,5,0,0,0,0-7.05l-19-19,67.5-67.38,39.42,39.42a5,5,0,0,0,7-7l-42.94-42.94a5,5,0,0,0-7,0L195.87,287c-.11.11-.22.24-.32.36l-.25.33h0l-.24.4h0q-.1.19-.21.42h0a1.09,1.09,0,0,1-.15.4h0a1.62,1.62,0,0,1-.09.38v.56a4,4,0,0,0,0,.49v45.14h0V336Zm9.91-12.51V302.56L214.81,313Z" transform="translate(-135.61 -183.05)"/></g></g><g class="ba355720-ca0a-46e2-8668-6f363215c014"><g id="acba2360-5e40-4301-b3a0-a25b2dd4836d" data-name="Grupo 954"><path id="be0bca66-4ec1-42a3-8d2a-1452a7e70657" data-name="Trazado 1212" class="a58df6b7-cb38-4cfc-9cc6-0444900f25cc" d="M333.83,320.18a5,5,0,0,0,7,0l49.55-49.54a25.14,25.14,0,0,0-35.55-35.55l-49.53,49.56a5,5,0,0,0,0,7h0l.14.14-91.61,91.61c-14.15,14.12-20.17,28.43-16.39,37.57l-7.37,7.35a5,5,0,1,0,7,7l7.37-7.37a15.34,15.34,0,0,0,6,1.14,25.56,25.56,0,0,0,9-1.79,66.48,66.48,0,0,0,22.57-15.73L333.7,320Zm28.08-78.05a15.17,15.17,0,0,1,21.45,21.45l-46,46-.12-.12h0l-7.07-7.07L377.57,255a5,5,0,0,0-6.6-7.48,6.09,6.09,0,0,0-.44.44l-47.44,47.42L316,288.31h0l-.14-.14ZM216.06,418c-4.08,1.51-7.33,1.57-8.73.15-2.72-2.72-.41-12.23,10.14-24.1l14,14A51.75,51.75,0,0,1,216.06,418Zm22.51-16.93L224.42,387l88-88.12,3.55,3.55-3.27,3.26a5,5,0,0,0,7,7l3.27-3.26,3.54,3.55Z" transform="translate(-135.61 -183.05)"/></g></g><g class="ba355720-ca0a-46e2-8668-6f363215c014"><g id="a554eebc-91f9-4ebc-8cf0-936cbb1c3314" data-name="Grupo 955"><path id="bd0bcb61-bcf9-46b1-ac07-6fe62c98eab1" data-name="Trazado 1213" class="a58df6b7-cb38-4cfc-9cc6-0444900f25cc" d="M413,348.07l-43-43a5,5,0,0,0-7,7h0l39.42,39.42-90,90-43.12-43.11a5,5,0,1,0-7,7l46.64,46.63a5,5,0,0,0,7,0l97-97a5,5,0,0,0,0-7h0Z" transform="translate(-135.61 -183.05)"/></g></g></g></g></g></svg>