<svg id="ab4f6e81-7265-4e7b-b00f-acdf372820c6" data-name="Capa 1" xmlns="http://www.w3.org/2000/svg" xmlns:xlink="http://www.w3.org/1999/xlink" viewBox="0 0 312.62 312.62"><defs><style>.b4486845-8415-4a3d-ac89-93939989ee25{fill:none;}.acd67744-a1ed-4715-9f48-2ae2cf7bdd9a{fill:#3535ed;}.fa4e253a-327a-40f7-975b-1d2529a2744b{clip-path:url(#bfb1b1ef-cf8e-4033-90b9-677ac2f67119);}.b683e64b-7d8e-4d8d-a392-41d505c94856{fill:#fff;}</style><clipPath id="bfb1b1ef-cf8e-4033-90b9-677ac2f67119" transform="translate(-135.61 -183.05)"><rect class="b4486845-8415-4a3d-ac89-93939989ee25" x="188.66" y="211.03" width="225.85" height="242.71"/></clipPath></defs><title>guia_2</title><g id="e27eabce-a3e8-4b4d-bf73-326d603df309" data-name="Grupo 961"><g id="be1f6cd7-5254-4a34-ab36-f954382f08a6" data-name="Grupo 952"><g id="a1391756-b34b-495c-a3d6-874533a93143" data-name="Grupo 958"><path id="bfff928c-8e28-48dc-a7a9-d87b5a3b2270" data-name="Trazado 1214" class="acd67744-a1ed-4715-9f48-2ae2cf7bdd9a" d="M203.57,183.05H380.26a68,68,0,0,1,68,68v176.7a68,68,0,0,1-68,68H203.57a68,68,0,0,1-68-68V251A68,68,0,0,1,203.57,183.05Z" transform="translate(-135.61 -183.05)"/></g></g><g id="a90be788-63c2-4a69-8ac1-588876a5a9ba" data-name="Grupo 957"><g id="ef4797e7-cd6e-4bc4-896f-01fe96040766" data-name="Grupo 956"><g class="fa4e253a-327a-40f7-975b-1d2529a2744b"><g id="bc5b99ac-069b-4569-94a8-e0476a61a8b3" data-name="Grupo 953"><path id="f47bb90b-f529-41ba-8cee-e36a60f4ddf6" data-name="Trazado 1211" class="b683e64b-7d8e-4d8d-a392-41d505c94856" d="M194.43,336v.53a.51.51,0,0,0,.1.37V337l.3.46h0l.19.4h0l.21.36.11.15.19.25.34.36L220,363.1a5,5,0,1,0,7-7l-20.62-20.54,19-19a5,5,0,0,0,0-7.05l-19-19,67.5-67.38,39.42,39.42a5,5,0,0,0,7-7l-42.94-42.94a5,5,0,0,0-7,0L195.87,287c-.11.11-.22.24-.32.36l-.25.33h0l-.24.4h0q-.1.19-.21.42h0a1.09,1.09,0,0,1-.15.4h0a1.62,1.62,0,0,1-.09.38v.56a4,4,0,0,0,0,.49v45.14h0V336Zm9.91-12.51V302.56L214.81,313Z" transform="translate(-135.61 -183.05)"/></g></g><g class="fa4e253a-327a-40f7-975b-1d2529a2744b"><g id="f64e1477-5e65-40c4-9677-513b1359e34a" data-name="Grupo 954"><path id="bd072a67-6b19-42b2-9c2e-749c1aeaeb3b" data-name="Trazado 1212" class="b683e64b-7d8e-4d8d-a392-41d505c94856" d="M333.83,320.18a5,5,0,0,0,7,0l49.55-49.54a25.14,25.14,0,0,0-35.55-35.55l-49.53,49.56a5,5,0,0,0,0,7h0l.14.14-91.61,91.61c-14.15,14.12-20.17,28.43-16.39,37.57l-7.37,7.35a5,5,0,1,0,7,7l7.37-7.37a15.34,15.34,0,0,0,6,1.14,25.56,25.56,0,0,0,9-1.79,66.48,66.48,0,0,0,22.57-15.73L333.7,320Zm28.08-78.05a15.17,15.17,0,0,1,21.45,21.45l-46,46-.12-.12h0l-7.07-7.07L377.57,255a5,5,0,0,0-6.6-7.48,6.09,6.09,0,0,0-.44.44l-47.44,47.42L316,288.31h0l-.14-.14ZM216.06,418c-4.08,1.51-7.33,1.57-8.73.15-2.72-2.72-.41-12.23,10.14-24.1l14,14A51.75,51.75,0,0,1,216.06,418Zm22.51-16.93L224.42,387l88-88.12,3.55,3.55-3.27,3.26a5,5,0,0,0,7,7l3.27-3.26,3.54,3.55Z" transform="translate(-135.61 -183.05)"/></g></g><g class="fa4e253a-327a-40f7-975b-1d2529a2744b"><g id="ad797c34-b9e6-4e64-8833-135d739cfbb7" data-name="Grupo 955"><path id="b6514e8e-cb4e-4daf-831e-4b54a83cd3bb" data-name="Trazado 1213" class="b683e64b-7d8e-4d8d-a392-41d505c94856" d="M413,348.07l-43-43a5,5,0,0,0-7,7h0l39.42,39.42-90,90-43.12-43.11a5,5,0,1,0-7,7l46.64,46.63a5,5,0,0,0,7,0l97-97a5,5,0,0,0,0-7h0Z" transform="translate(-135.61 -183.05)"/></g></g></g></g></g></svg>