<svg id="Capa_1" data-name="Capa 1" xmlns="http://www.w3.org/2000/svg" viewBox="0 0 34 33"><defs><style>.cls-1{fill:#f28b1f;}.cls-2{fill:#fff;}</style></defs><g id="Grupo_1043" data-name="Grupo 1043"><g id="Grupo_1041" data-name="Grupo 1041"><rect id="Rectángulo_453" data-name="Rectángulo 453" class="cls-1" width="34" height="33" rx="5"/></g><path class="cls-2" d="M43.15,53.12a.39.39,0,0,0,.28-.12.42.42,0,0,0,.12-.28.45.45,0,0,0-.12-.29.43.43,0,0,0-.28-.11.44.44,0,0,0-.29.11.45.45,0,0,0-.12.29.42.42,0,0,0,.12.28.4.4,0,0,0,.29.12Zm0,0" transform="translate(-33.29 -33.79)"/><path class="cls-2" d="M57.84,43.06h.56a.4.4,0,0,0,.4-.4V40.41a.4.4,0,0,0-.4-.4H42.18a.4.4,0,0,0-.4.4v2.25a.4.4,0,0,0,.4.4h.56v7.79a.41.41,0,0,0,.81,0V43.06h1V57.51h-1V54.42a.41.41,0,0,0-.81,0v3.09h-.56a.4.4,0,0,0-.4.4v2.25a.4.4,0,0,0,.4.4H58.4a.4.4,0,0,0,.4-.4V57.91a.4.4,0,0,0-.4-.4h-.56V49.79a.41.41,0,0,0-.81,0v7.72h-1V43.06h1v3.15a.41.41,0,0,0,.81,0Zm-6.77,7.71,1,.73a8.05,8.05,0,0,1,3.17,5.55L51,53.76a1.1,1.1,0,0,0-1.35,0l-4.3,3.35a8.06,8.06,0,0,1,3.18-5.61l1-.73a.6.6,0,0,0,.24-.48.63.63,0,0,0-.24-.49l-1-.73a7.92,7.92,0,0,1-2.39-2.88h8.3a7.92,7.92,0,0,1-2.39,2.88l-1,.73a.63.63,0,0,0-.24.49.6.6,0,0,0,.24.48Zm-4.93,6.74,4-3.12a.3.3,0,0,1,.36,0l4,3.12Zm8.64-12.12h-9a8,8,0,0,1-.48-2.33h9.94a8,8,0,0,1-.48,2.33Zm-9.34,1.22a9,9,0,0,0,2.61,3.11l.77.57-.77.57A8.93,8.93,0,0,0,45.44,54c0,.09-.08.18-.13.27V46.33l.13.28ZM55.14,54a8.93,8.93,0,0,0-2.61-3.11l-.77-.57.77-.57a9,9,0,0,0,2.61-3.11l.13-.28v7.91c-.05-.09-.09-.18-.13-.27ZM58,58.32v1.44H42.58V58.32ZM42.58,42.26V40.82H58v1.44Zm0,0" transform="translate(-33.29 -33.79)"/><path class="cls-2" d="M57.43,47.65a.41.41,0,0,0-.4.41.42.42,0,0,0,.12.28.4.4,0,1,0,.28-.69Zm0,0" transform="translate(-33.29 -33.79)"/><path class="cls-2" d="M50.33,51.21a.4.4,0,0,0-.4.4v.74a.4.4,0,0,0,.8,0v-.74a.4.4,0,0,0-.4-.4Zm0,0" transform="translate(-33.29 -33.79)"/></g></svg>