<svg id="e3ed6df4-f339-4bdc-b59e-14f61908d871" data-name="Capa 1" xmlns="http://www.w3.org/2000/svg" xmlns:xlink="http://www.w3.org/1999/xlink" viewBox="0 0 43 42"><defs><style>.ffbee3c6-f516-4610-b078-e1e8029bf743{fill:none;}.b93a1261-a07e-45e5-bac7-ab28f45f5310{clip-path:url(#e096af4f-5a24-4a99-a501-f51771c4916f);}.bd24ce7d-2c56-4585-a97d-32a6eaa7efbe{fill:#565d68;}</style><clipPath id="e096af4f-5a24-4a99-a501-f51771c4916f"><rect class="ffbee3c6-f516-4610-b078-e1e8029bf743" x="0.34" y="0.75" width="42.28" height="40.97"/></clipPath></defs><title>iconos vincar</title><g id="bb8bf533-f409-4d96-a199-9f96cc6443e4" data-name="Grupo 415"><g class="b93a1261-a07e-45e5-bac7-ab28f45f5310"><g id="eb946292-5db0-4b98-9880-9df1b702531b" data-name="Grupo 414"><path id="a999e464-e4b5-456c-b9cd-533e6ae4fce1" data-name="Trazado 400" class="s-ion-icon" d="M3.74,37.59H21.48V36.23H3.74a2,2,0,0,1-2-2h0v-30a2,2,0,0,1,2-2h30a2,2,0,0,1,2,2h0V19.85h1.37V4.17A3.41,3.41,0,0,0,33.76.76h-30A3.41,3.41,0,0,0,.33,4.17v30A3.43,3.43,0,0,0,3.74,37.59Z"/></g></g></g><rect id="fec0bc48-c32b-4029-97ba-0a4a097c96d3" data-name="Rectángulo 302" class="bd24ce7d-2c56-4585-a97d-32a6eaa7efbe" x="3.06" y="3.48" width="1.36" height="1.36"/><rect id="ac6646fd-1fcf-4a3a-877c-cc16e259ddf6" data-name="Rectángulo 303" class="bd24ce7d-2c56-4585-a97d-32a6eaa7efbe" x="5.79" y="3.48" width="1.37" height="1.36"/><rect id="b63a00fc-f3eb-4249-9936-18123328c2d8" data-name="Rectángulo 304" class="bd24ce7d-2c56-4585-a97d-32a6eaa7efbe" x="8.52" y="3.48" width="1.36" height="1.36"/><rect id="b555166f-3104-4a09-93f5-4bdcf60ab47e" data-name="Rectángulo 305" class="bd24ce7d-2c56-4585-a97d-32a6eaa7efbe" x="3.06" y="6.21" width="31.37" height="1.37"/><path id="ad4abb0e-f9a3-4428-b45e-655022a4f9dc" data-name="Trazado 401" class="bd24ce7d-2c56-4585-a97d-32a6eaa7efbe" d="M10.08,9.14,8.35,10.87a3.44,3.44,0,1,0,1,1l1.74-1.74ZM6.47,15.76a2,2,0,0,1,0-4.09h0a2.09,2.09,0,0,1,.88.2L6,13.23l1,1,1.36-1.36a2.09,2.09,0,0,1,.2.88,2,2,0,0,1-2,2Z"/><rect id="eee527cf-61e5-4755-95b4-8c635ea3d3a0" data-name="Rectángulo 306" class="bd24ce7d-2c56-4585-a97d-32a6eaa7efbe" x="11.93" y="11.67" width="11.6" height="1.36"/><rect id="b71f9fe9-4f1e-4122-9fed-d6cb35667c4b" data-name="Rectángulo 307" class="bd24ce7d-2c56-4585-a97d-32a6eaa7efbe" x="11.93" y="14.4" width="4.77" height="1.36"/><rect id="a6ce725a-30fe-400b-9cb0-8757ec3b162c" data-name="Rectángulo 308" class="bd24ce7d-2c56-4585-a97d-32a6eaa7efbe" x="18.07" y="14.4" width="9.55" height="1.36"/><rect id="a63f3b51-d9e0-4428-93ea-c10780d08f20" data-name="Rectángulo 309" class="bd24ce7d-2c56-4585-a97d-32a6eaa7efbe" x="24.89" y="11.67" width="6.82" height="1.36"/><path id="a7cff857-b573-41bb-8531-c62b2eec11eb" data-name="Trazado 402" class="bd24ce7d-2c56-4585-a97d-32a6eaa7efbe" d="M10.08,17.32,8.35,19.06a3.42,3.42,0,1,0,1,1l1.74-1.73ZM6.47,24a2.05,2.05,0,0,1,0-4.1,2.09,2.09,0,0,1,.88.2L6,21.41l1,1L8.31,21a2,2,0,0,1,.2.87,2,2,0,0,1-2,2.05h0Z"/><rect id="b8c7e31b-0387-47c2-bb9c-fe323d462024" data-name="Rectángulo 310" class="bd24ce7d-2c56-4585-a97d-32a6eaa7efbe" x="11.93" y="19.85" width="11.6" height="1.36"/><rect id="b03daebf-7cfe-4618-aaec-d9055411ae6a" data-name="Rectángulo 311" class="bd24ce7d-2c56-4585-a97d-32a6eaa7efbe" x="11.93" y="22.58" width="4.77" height="1.36"/><rect id="a91d69f7-3ff4-4c02-b048-a76ffcb0567c" data-name="Rectángulo 312" class="bd24ce7d-2c56-4585-a97d-32a6eaa7efbe" x="18.07" y="22.58" width="5.46" height="1.36"/><rect id="aa7254f0-6d5b-48d7-a8fa-618a849fd746" data-name="Rectángulo 313" class="bd24ce7d-2c56-4585-a97d-32a6eaa7efbe" x="24.89" y="19.85" width="2.73" height="1.36"/><path id="f6770c14-3c6f-404c-8b32-c97a949264d6" data-name="Trazado 403" class="bd24ce7d-2c56-4585-a97d-32a6eaa7efbe" d="M10.08,25.51,8.35,27.24a3.44,3.44,0,1,0,1,1l1.74-1.74ZM6.47,32.13a2,2,0,0,1,0-4.09h0a2.09,2.09,0,0,1,.88.2L6,29.6l1,1L8.31,29.2a2.09,2.09,0,0,1,.2.88,2,2,0,0,1-2,2h0Z"/><rect id="a9b04510-0ca9-442d-b5bb-2944c02cba2a" data-name="Rectángulo 314" class="bd24ce7d-2c56-4585-a97d-32a6eaa7efbe" x="11.93" y="28.04" width="8.87" height="1.37"/><rect id="eb8ec0c5-c010-4b4f-a777-d9e29398ca0d" data-name="Rectángulo 315" class="bd24ce7d-2c56-4585-a97d-32a6eaa7efbe" x="11.93" y="30.77" width="4.77" height="1.36"/><rect id="e91516b6-5ed4-4eca-8f81-d8175a00949d" data-name="Rectángulo 316" class="bd24ce7d-2c56-4585-a97d-32a6eaa7efbe" x="18.07" y="30.77" width="2.73" height="1.36"/><path id="a33fe504-7eb5-4831-9f23-c0faf66c1627" data-name="Trazado 404" class="bd24ce7d-2c56-4585-a97d-32a6eaa7efbe" d="M32.39,41.68A10.23,10.23,0,1,0,22.16,31.45h0A10.23,10.23,0,0,0,32.39,41.68Zm0-19.1a8.87,8.87,0,1,1-8.87,8.87,8.87,8.87,0,0,1,8.87-8.87Z"/><path id="ec475803-324c-4d0a-b659-361d928e1dc1" data-name="Trazado 405" class="bd24ce7d-2c56-4585-a97d-32a6eaa7efbe" d="M28.23,31.83,27,32.44l1.36,2.72a.68.68,0,0,0,.5.37H29a.67.67,0,0,0,.48-.2l8.19-8.18-1-1-7.52,7.52Z"/></svg>