<svg id="bd9c2af4-6d48-473e-8c8c-f5f3feff3d79" data-name="Capa 1" xmlns="http://www.w3.org/2000/svg" viewBox="0 0 52.97 42.99"><defs><style>.b53b3b76-358d-48de-a517-fa99c2b7771b,.e1ba3873-39d7-46ff-b239-462e32997b39,.ecbb3cda-9b5f-40b0-9269-e548d5a830c6{fill:#1d1d1b;}.ecbb3cda-9b5f-40b0-9269-e548d5a830c6{fill-rule:evenodd;}.b53b3b76-358d-48de-a517-fa99c2b7771b{stroke:#9c9897;stroke-width:0.22px;}.aea0a1bb-4d52-4e6a-aa60-ef5bb1bf3d08,.b53b3b76-358d-48de-a517-fa99c2b7771b{stroke-miterlimit:22.93;}.ed218fdf-43db-4bfa-8545-c01ab42512b9{fill:#fff;}.aea0a1bb-4d52-4e6a-aa60-ef5bb1bf3d08{fill:none;stroke:#1d1d1b;stroke-width:0.11px;}</style></defs><path class="ecbb3cda-9b5f-40b0-9269-e548d5a830c6" d="M603.6,64.82a76.32,76.32,0,0,0,0,10c.76,11.18,2.68,16.72,5,18.37,4.84,3.43,13.9,3,21,3v1.28c-10.83-.37-19,0-22.61-4.36-2.22-2.64-3.52-11.46-3.77-18.45a77.86,77.86,0,0,1,.24-9.89l.07,0Z" transform="translate(-603.12 -54.54)"/><path class="ecbb3cda-9b5f-40b0-9269-e548d5a830c6" d="M608.89,60a3.87,3.87,0,0,0-.47.52c-2,2.74-1.81,6.85-1.85,10.09a83.42,83.42,0,0,0,.71,12.44c.31,2.22.54,5,1.61,7.13l-1,.4s-2.63-5.1-2.63-19.84c0-10.56,3.66-10.74,3.66-10.74Z" transform="translate(-603.12 -54.54)"/><path class="ecbb3cda-9b5f-40b0-9269-e548d5a830c6" d="M608.83,90.05a24.34,24.34,0,0,1-.73-2.42c-.05-.22-.45-2.37-.52-2.77a49.11,49.11,0,0,1-.76-5.31c-.42-4.41-.68-9.4-.68-11-.06.21-.09,2.65-.12,3s0,1.51,0,1.76c0,6.33,1.36,16.09,2.83,16.74Z" transform="translate(-603.12 -54.54)"/><path class="ecbb3cda-9b5f-40b0-9269-e548d5a830c6" d="M607.34,60.16c-1.89,2.67-2.11,6-2.11,11.41,0,2.9.4,12.29,1.93,17.22.07.2.58,1.13.75.95s.07-.52,0-.8a79.45,79.45,0,0,1-1.79-17.34c0-.87-.08-6.44.55-8a10.2,10.2,0,0,1,2.08-3.38c1.09-1.35,4.26-2.08,4.26-2.08a.58.58,0,0,1,.2,0,.33.33,0,0,1,.19.12,2.68,2.68,0,0,1,1.31-.85,9,9,0,0,1,2.24-.52l1.21.71.06,0A72.79,72.79,0,0,1,629.61,57v-.85c-12.06,0-19.66.34-22.27,4Z" transform="translate(-603.12 -54.54)"/><path class="ecbb3cda-9b5f-40b0-9269-e548d5a830c6" d="M606.07,69.59a41,41,0,0,1,.1-4.49,6.71,6.71,0,0,1,.3-1.61,9.41,9.41,0,0,1,1.17-2.21,6,6,0,0,1,.55-.66,3.09,3.09,0,0,1,.56-.49,8.8,8.8,0,0,0-1.93,3.57c0,.12-.06.25-.08.37-.26,1.36-.57,4-.64,5.13,0,.14,0,.3,0,.35s0,0,0,0Z" transform="translate(-603.12 -54.54)"/><path class="b53b3b76-358d-48de-a517-fa99c2b7771b" d="M629.61,95.8c-13.1,0-19.52.16-22-5.81-1.85-4.42-2.36-15.26-2.36-18.42,0-13.82,1.9-15.45,24.38-15.45" transform="translate(-603.12 -54.54)"/><path class="ecbb3cda-9b5f-40b0-9269-e548d5a830c6" d="M655.62,64.82s-.62-6-5.28-7.62c-6.26-2.14-13.63-1.91-20.73-1.91v-.75c2.28,0,15.8,0,21.18,2.29,4.8,2,5,8,5,8l-.12,0Z" transform="translate(-603.12 -54.54)"/><path class="ecbb3cda-9b5f-40b0-9269-e548d5a830c6" d="M655.62,64.82a76.32,76.32,0,0,1,0,10c-.77,11.18-2.69,16.72-5,18.37-4.85,3.43-13.91,3-21,3v1.28c10.83-.37,18.95,0,22.61-4.36,2.21-2.64,3.51-11.46,3.76-18.45a75.64,75.64,0,0,0-.24-9.89l-.06,0Z" transform="translate(-603.12 -54.54)"/><path class="ecbb3cda-9b5f-40b0-9269-e548d5a830c6" d="M654,70.74c0,14.74-2.62,19.84-2.62,19.84l-1-.4c1.08-2.12,1.31-4.91,1.62-7.13a86.18,86.18,0,0,0,.71-12.44c0-3.24.2-7.35-1.86-10.09a4.62,4.62,0,0,0-.46-.52s3.65.18,3.65,10.74Z" transform="translate(-603.12 -54.54)"/><path class="ecbb3cda-9b5f-40b0-9269-e548d5a830c6" d="M651.88,60.16c1.88,2.67,2.1,6,2.1,11.41,0,2.9-.39,12.29-1.93,17.22-.06.2-.57,1.13-.75.95s-.06-.52.06-.8a79.45,79.45,0,0,0,1.79-17.34c0-.87.07-6.44-.55-8a10.37,10.37,0,0,0-2.08-3.38c-1.09-1.35-4.26-2.08-4.26-2.08a.62.62,0,0,0-.21,0,.33.33,0,0,0-.19.12,2.61,2.61,0,0,0-1.31-.85,9,9,0,0,0-2.23-.52l-1.22.71a.11.11,0,0,0-.05,0A72.79,72.79,0,0,0,629.61,57v-.85c12,0,19.65.34,22.27,4Z" transform="translate(-603.12 -54.54)"/><path class="ecbb3cda-9b5f-40b0-9269-e548d5a830c6" d="M653.15,69.59a44,44,0,0,0-.1-4.49,6.64,6.64,0,0,0-.31-1.61,9.83,9.83,0,0,0-1.16-2.21,7.34,7.34,0,0,0-.55-.66,3.56,3.56,0,0,0-.56-.49,8.94,8.94,0,0,1,1.93,3.57c0,.12.05.25.08.37.25,1.36.56,4,.63,5.13,0,.14,0,.3,0,.35s0,0,0,0Z" transform="translate(-603.12 -54.54)"/><path class="b53b3b76-358d-48de-a517-fa99c2b7771b" d="M629.61,95.8c13.09,0,19.52.16,22-5.81,1.86-4.42,2.36-15.26,2.36-18.42,0-13.82-1.89-15.45-24.37-15.45" transform="translate(-603.12 -54.54)"/><path class="ed218fdf-43db-4bfa-8545-c01ab42512b9" d="M629.61,56.12c-22.48,0-24.38,1.63-24.38,15.45,0,3.16.51,14,2.36,18.42,2.5,6,8.92,5.81,22,5.81s19.52.16,22-5.81c1.86-4.42,2.36-15.26,2.36-18.42C654,57.75,652.09,56.12,629.61,56.12Z" transform="translate(-603.12 -54.54)"/><path class="aea0a1bb-4d52-4e6a-aa60-ef5bb1bf3d08" d="M629.61,56.12c-22.48,0-24.38,1.63-24.38,15.45,0,3.16.51,14,2.36,18.42,2.5,6,8.92,5.81,22,5.81s19.52.16,22-5.81c1.86-4.42,2.36-15.26,2.36-18.42C654,57.75,652.09,56.12,629.61,56.12Z" transform="translate(-603.12 -54.54)"/><path class="ecbb3cda-9b5f-40b0-9269-e548d5a830c6" d="M652,60.81a8.76,8.76,0,0,0-3.22-2.34,10,10,0,0,0-2.91-.54c-.15,0-.13.1-.13.15a5.71,5.71,0,0,0-.82-.55,8.91,8.91,0,0,0-2.35-.64l.43,0a22.05,22.05,0,0,1,5.89,1.29,7.24,7.24,0,0,1,3.16,2.57l0,0,0,0Z" transform="translate(-603.12 -54.54)"/><path class="ecbb3cda-9b5f-40b0-9269-e548d5a830c6" d="M651.94,83.05c-.39,2.82-.66,6.52-2.7,8.71-.71.78-6.25,4-6,1.52,1-7.76,1.58-15.55,2.06-23.36.14-3.28.33-6.57.38-9.85,0-.55-.3-1.91.57-2,1.64.48,3.45,1,4.53,2.4,2.06,2.74,1.82,6.85,1.86,10.09a86.18,86.18,0,0,1-.71,12.44Zm-10.86-25c-1.12,4.1-2.42,9.53-3.58,13.65-.93,3.29-2,7.53-6,8-.6.06-1.24.11-1.88.12s-1.28-.06-1.88-.12c-4-.43-5.09-4.67-6-8-1.16-4.12-2.46-9.55-3.59-13.65-.19-.7.1-.54,1.55-.74a133.3,133.3,0,0,1,19.85,0c1.46.2,1.75,0,1.55.74Zm-4.29,36.76c-.32,0-1.41,0-2.62.08-1.52,0-3,0-4.56,0s-3,0-4.57,0c-1.2,0-2.29,0-2.62-.08s-.66-.08-.56-.44,1.56-5.08,1.56-5.08c1-3.13,1-3.33,3.49-3.82a13.59,13.59,0,0,1,5.39,0c2.47.49,2.53.69,3.49,3.82,0,0,1.46,4.72,1.56,5.08s-.23.38-.56.44Zm-26.82-3c-2-2.19-2.3-5.89-2.69-8.71a83.42,83.42,0,0,1-.71-12.44c0-3.24-.2-7.35,1.85-10.09,1.08-1.44,2.89-1.92,4.54-2.4.87,0,.52,1.4.57,2,0,3.28.23,6.57.37,9.85.48,7.81,1.05,15.6,2.06,23.36.27,2.48-5.27-.74-6-1.52Zm46-24.65c-.19-3.06-.64-6.4-2.91-8.66-2.06-2.06-5.05-2.64-7.83-3a136.61,136.61,0,0,0-31.31,0c-2.78.37-5.76,1-7.83,3-2.27,2.26-2.72,5.6-2.9,8.66a87.68,87.68,0,0,0,.19,10.63,57.78,57.78,0,0,0,1.46,10.39,14.44,14.44,0,0,0,1.84,4.51,8.31,8.31,0,0,0,3.56,2.86c3,1.38,6.48,1.5,9.73,1.7s6.4.31,9.61.33,6.42-.14,9.6-.33,6.72-.32,9.73-1.7a8.31,8.31,0,0,0,3.56-2.86,14.21,14.21,0,0,0,1.84-4.51,57.79,57.79,0,0,0,1.47-10.39A87.68,87.68,0,0,0,656,67.11Z" transform="translate(-603.12 -54.54)"/><path class="ecbb3cda-9b5f-40b0-9269-e548d5a830c6" d="M620.31,95.21v-.06c.38-1.62.57-2.49,1-4s.8-2.61,1.37-4.1A4.54,4.54,0,0,1,625,84.48a11.39,11.39,0,0,1,4.58-.66v1.44c-2,0-3.21.13-4.18.76a4.11,4.11,0,0,0-1.5,1.89c-.55,1.36-.82,2.3-1.21,3.58s-.62,2.05-.84,2.84c0,0,0,.12,0,.19s0,.08,0,.09c-.49.22-.62.27-.7.3l-.49.18-.38.12Z" transform="translate(-603.12 -54.54)"/><path class="ecbb3cda-9b5f-40b0-9269-e548d5a830c6" d="M616.79,57c.63,3.13,2.22,10.41,2.55,11.89s2.06,8,3,9.67a5.47,5.47,0,0,0,1.76,1.91c1.29.83,3,1,5.47,1V79.67c-2,0-3.21-.07-4.18-.7a4.59,4.59,0,0,1-1.4-1.51c-1.43-2.19-2.58-6.71-3.19-8.94-.4-1.46-2.31-9-2.76-10.78a5.34,5.34,0,0,1-.65-.39,5.79,5.79,0,0,0-.64-.39Z" transform="translate(-603.12 -54.54)"/><path class="ecbb3cda-9b5f-40b0-9269-e548d5a830c6" d="M629.61,81.5c-6,0-7.56-1.09-9.92-11.21S616.81,57,616.81,57a11.24,11.24,0,0,0-2.09.52,2.39,2.39,0,0,0-1.3.86,176.35,176.35,0,0,0,1.05,20.19c1.27,13,1.54,15.26,1.54,15.26a12.72,12.72,0,0,0,3,1.34,6.92,6.92,0,0,0,1.28.09,55.91,55.91,0,0,1,1.47-5.56c1.3-4,1.6-5.83,7.83-5.83V81.5Z" transform="translate(-603.12 -54.54)"/><path class="ecbb3cda-9b5f-40b0-9269-e548d5a830c6" d="M629.61,83.82c-3.77,0-5.49.77-6.41,2.22a17.27,17.27,0,0,0-1.45,3.69c-.49,1.5-.52,1.88-.76,2.63s-.68,2.85-.68,2.85a9.46,9.46,0,0,1-2.07-.23,12,12,0,0,1-2.35-1,.47.47,0,0,0,.11-.29c-.11-1.18-1.07-10.56-1.17-11.59-.2-1.94-.07-.67-.36-3.62-.4-4.16-.66-7.73-.82-10.65-.33-6.23-.23-9.55-.23-9.55a2.24,2.24,0,0,1,1.11-.77c.16-.07,1.45-.62,1.48-.35s.1.89.31,2.14c.32,1.92,1,5.25,2.21,10.6,0,.12.05.23.08.35,1.18,5.12,1.24,7.93,2.59,9.81a6.91,6.91,0,0,0,1.66,1.73c1.4,1,3.2,1.6,6.75,2Z" transform="translate(-603.12 -54.54)"/><path class="ecbb3cda-9b5f-40b0-9269-e548d5a830c6" d="M603.6,64.82s.62-6,5.27-7.62c6.26-2.14,13.63-1.91,20.74-1.91v-.75c-2.28,0-15.8,0-21.19,2.29-4.8,2-4.95,8-4.95,8l.13,0Z" transform="translate(-603.12 -54.54)"/><polyline class="e1ba3873-39d7-46ff-b239-462e32997b39" points="17.3 40.12 17.3 41.04 26.48 41.04 26.48 40.12 17.3 40.12"/><path class="ecbb3cda-9b5f-40b0-9269-e548d5a830c6" d="M620.42,95.23c.26-.08.63-.19.85-.27s.43-.19.66-.3a.8.8,0,0,0,.37.11c.35,0,1.21.09,3.1.13,2.55,0,4.21,0,4.21,0v.61s-2,0-4.8-.07l-2.71-.11c-.23,0-1.68-.15-1.68-.15Z" transform="translate(-603.12 -54.54)"/><path class="ecbb3cda-9b5f-40b0-9269-e548d5a830c6" d="M607.85,90.57a8.5,8.5,0,0,0,2,2.6c2.06,1.67,6.54,2.49,8.43,2.33.23,0,1.28,0,1.45,0a10.1,10.1,0,0,1-2.88-.89,9.7,9.7,0,0,1-1-.51.59.59,0,0,1-.3.12c-.52.06-3.84-.52-5.15-2a8,8,0,0,1-1.51-2l-.52.19-.52.2Z" transform="translate(-603.12 -54.54)"/><path class="ecbb3cda-9b5f-40b0-9269-e548d5a830c6" d="M618.09,57.66a.15.15,0,0,1,.1-.14,6,6,0,0,1,.81-.15c.63-.08,1.71-.18,3.54-.24,4.08-.13,6.91-.16,7.07-.16V56.5s-4.28-.08-7.36,0c-2.82.12-4.61.2-5.31.31-.12,0-.13,0-.13,0l.41.23.87.52Z" transform="translate(-603.12 -54.54)"/><path class="ecbb3cda-9b5f-40b0-9269-e548d5a830c6" d="M607.22,60.81a8.66,8.66,0,0,1,3.22-2.34,10,10,0,0,1,2.9-.54c.15,0,.13.1.13.15a5.71,5.71,0,0,1,.82-.55,9.05,9.05,0,0,1,2.36-.64l-.43,0a21.9,21.9,0,0,0-5.89,1.29,7.3,7.3,0,0,0-3.17,2.57l0,0,0,0Z" transform="translate(-603.12 -54.54)"/><path class="ecbb3cda-9b5f-40b0-9269-e548d5a830c6" d="M638.91,95.21v-.06c-.38-1.62-.58-2.49-1-4a41.05,41.05,0,0,0-1.37-4.1,4.48,4.48,0,0,0-2.37-2.62,11.33,11.33,0,0,0-4.57-.66v1.44c2,0,3.2.13,4.17.76a4,4,0,0,1,1.5,1.89c.55,1.36.82,2.3,1.22,3.58s.61,2.05.83,2.84a.75.75,0,0,1,0,.19s0,.08,0,.09c.48.22.62.27.69.3l.5.18.38.12Z" transform="translate(-603.12 -54.54)"/><path class="ecbb3cda-9b5f-40b0-9269-e548d5a830c6" d="M642.43,57c-.63,3.13-2.23,10.41-2.55,11.89s-2.07,8-3,9.67a5.44,5.44,0,0,1-1.75,1.91c-1.29.83-3,1-5.47,1V79.67c2,0,3.2-.07,4.17-.7a4.72,4.72,0,0,0,1.41-1.51c1.43-2.19,2.57-6.71,3.19-8.94.4-1.46,2.31-9,2.76-10.78a5,5,0,0,0,.64-.39c.13-.1.26-.16.65-.39Z" transform="translate(-603.12 -54.54)"/><path class="ecbb3cda-9b5f-40b0-9269-e548d5a830c6" d="M629.61,81.5c6,0,7.55-1.09,9.91-11.21S642.41,57,642.41,57a11.24,11.24,0,0,1,2.08.52,2.45,2.45,0,0,1,1.31.86,175.32,175.32,0,0,1-1.06,20.19c-1.27,13-1.53,15.26-1.53,15.26a12.93,12.93,0,0,1-3,1.34,6.94,6.94,0,0,1-1.28.09s-.59-2.86-1.47-5.56c-1.3-4-1.6-5.83-7.83-5.83V81.5Z" transform="translate(-603.12 -54.54)"/><path class="ecbb3cda-9b5f-40b0-9269-e548d5a830c6" d="M629.61,83.82c3.77,0,5.49.77,6.41,2.22a17.31,17.31,0,0,1,1.44,3.69c.49,1.5.53,1.88.76,2.63s.69,2.85.69,2.85A9.34,9.34,0,0,0,641,95a12.15,12.15,0,0,0,2.36-1,.42.42,0,0,1-.11-.29c.11-1.18,1.06-10.56,1.17-11.59.19-1.94.06-.67.35-3.62.41-4.16.66-7.73.82-10.65.34-6.23.24-9.55.24-9.55a2.31,2.31,0,0,0-1.12-.77c-.15-.07-1.44-.62-1.47-.35s-.1.89-.31,2.14c-.33,1.92-1,5.25-2.21,10.6,0,.12-.06.23-.08.35-1.19,5.12-1.25,7.93-2.6,9.81a6.71,6.71,0,0,1-1.65,1.73c-1.4,1-3.2,1.6-6.75,2Z" transform="translate(-603.12 -54.54)"/><polyline class="e1ba3873-39d7-46ff-b239-462e32997b39" points="26.48 40.12 26.48 41.04 35.67 41.04 35.67 40.12 26.48 40.12"/><path class="ecbb3cda-9b5f-40b0-9269-e548d5a830c6" d="M638.79,95.23l-.85-.27c-.21-.08-.43-.19-.65-.3a.84.84,0,0,1-.38.11c-.35,0-1.2.09-3.09.13-2.55,0-4.21,0-4.21,0v.61s2,0,4.8-.07l2.71-.11,1.67-.15Z" transform="translate(-603.12 -54.54)"/><path class="ecbb3cda-9b5f-40b0-9269-e548d5a830c6" d="M651.36,90.57a8.28,8.28,0,0,1-2,2.6c-2.06,1.67-6.55,2.49-8.43,2.33-.23,0-1.28,0-1.45,0a10.29,10.29,0,0,0,2.88-.89,10.78,10.78,0,0,0,1-.51.52.52,0,0,0,.3.12c.52.06,3.84-.52,5.15-2a8.29,8.29,0,0,0,1.5-2l.52.19.52.2Z" transform="translate(-603.12 -54.54)"/><path class="ecbb3cda-9b5f-40b0-9269-e548d5a830c6" d="M650.38,90.05a21.28,21.28,0,0,0,.74-2.42c0-.22.44-2.37.51-2.77a48.65,48.65,0,0,0,.77-5.31c.41-4.41.68-9.4.68-11,0,.21.09,2.65.11,3s0,1.51,0,1.76c0,6.33-1.37,16.09-2.84,16.74Z" transform="translate(-603.12 -54.54)"/><path class="ecbb3cda-9b5f-40b0-9269-e548d5a830c6" d="M641.13,57.66a.15.15,0,0,0-.1-.14,6.73,6.73,0,0,0-.81-.15c-.64-.08-1.71-.18-3.55-.24-4.08-.13-6.91-.16-7.06-.16V56.5s4.28-.08,7.35,0c2.83.12,4.61.2,5.31.31.13,0,.14,0,.14,0l-.41.23-.87.52Z" transform="translate(-603.12 -54.54)"/></svg>