<svg id="e8eba511-89ea-4ecf-987d-a77bc66e0635" data-name="Capa 1" xmlns="http://www.w3.org/2000/svg" viewBox="0 0 647.56 381.95"><title>hyundai</title><path d="M181.5,240.14c-12.2,18.58-16.23,38.61-9.47,60.28,5.45,17.36,16.61,30.93,30.15,42.61,18.09,15.73,38.93,26.7,61,35.35,43,16.86,87.91,24,133.75,25.61a477.65,477.65,0,0,0,66.81-2.46,421.4,421.4,0,0,0,67.9-12.77c28.91-8.07,56.6-19,81.51-36.08,15.37-10.51,29-22.78,38.67-39C661.3,297.91,665,281,661,262.74c-3.23-15-11.08-27.5-21.32-38.65-15.55-16.72-34.53-28.61-55-38.31-24.46-11.64-50.16-19.21-76.63-24.46a417.72,417.72,0,0,0-55.9-7.34c-4.29-.25-8.5-.73-12.72-1.09H398.29c-.66.12-1.38.41-2.06.48-7.05.45-14,.72-21,1.4a420.51,420.51,0,0,0-65.55,11c-29.73,7.44-58.28,17.79-84.43,33.9C208.11,210.33,192.71,223,181.5,240.14Zm286.39,86.62c-3.35,20.29-13.16,37.16-28.51,50.74-5.71,5-12.77,7-20.11,7.57-5.18.43-10.45.57-13.56.73a430.26,430.26,0,0,1-52.54-4.39c-17.33-2.35-34.58-5.31-51.44-10.08-5.81-1.6-11.53-3.5-17.07-5.56-4.61-1.9-4.74-4.68-.92-7.73,36.41-29,77.78-47.6,122.94-58,11.75-2.71,23.59-4.88,35.82-4,9.11.61,17.43,3.28,22.47,11.85C468.54,313.74,469,320.31,467.89,326.76ZM582.6,232c2-3.84,3.91-7.77,5.92-11.64,2.62-4.93,5.27-6.12,10.19-3.59,23.49,11.55,37.91,29.92,42.11,56a34.14,34.14,0,0,1,0,5.72c.21,13.33-4.68,24.73-12.63,35.06-10.67,14-24.64,24.05-39.87,32.5A262.57,262.57,0,0,1,505,375c-1.24.16-3.66-.18-3.77-.76a5.66,5.66,0,0,1,.47-4.59c3.75-5.38,7.78-10.6,11.8-15.89,14.29-18.9,26.45-39.17,37.68-60C562.16,273.46,572.16,252.66,582.6,232ZM386.2,184.81c9-9.45,20.23-13.47,33.11-13.9,32.53-1.13,64.53,2.94,96,10.78,8.5,2.06,17,4.77,25.41,7.43a34.84,34.84,0,0,1,7.55,3.71c2.89,2.06,3.1,4.66.72,7.26a23.53,23.53,0,0,1-5.49,4.47C510.47,225,475.62,242,438.7,254.31c-14,4.57-28.27,8.16-43.08,8.89a41.19,41.19,0,0,1-18.67-3c-9.51-4.34-12.47-12.27-12.27-24.16C366.24,218.19,372,199.77,386.2,184.81ZM315,183.38c4.92-1.26,10.28-1.33,15.46-1.4,4.41,0,5.38,2.1,2.76,5.61-7.17,9.54-14.63,18.69-21.68,28.25-25.41,34.54-47.4,70.84-62,111.28a48,48,0,0,1-5.25,10.53c-2.87,4.66-6.12,5.45-11.25,3.75-6.2-2.26-11.14-6.26-15.85-10.67-10.37-10.05-19.69-21-24.48-34.87-1.85-5.43-2.57-11.26-3.89-16.93a3.86,3.86,0,0,1,.73-.23c.18-14.15,6.19-26,15.12-36.66,10.24-12.27,23.08-21.5,36.8-29.43C264.5,199.21,289.41,190.41,315,183.38Z" transform="translate(-85.44 -152.89)"/><path d="M576.07,440.72a38.8,38.8,0,0,0-5.43-.36H502.08c-.94,0-2,.16-3.18.2v90.78c0,1.13-.14,2.37-.18,3.5h77.91c1-.36,2-.77,3-1.13a14.91,14.91,0,0,0,10.42-12.25,31,31,0,0,0,.68-7c0-11.53,0-22.9,0-34.36,0-6.8.18-13.56-.09-20.29C590.28,448,585.94,442.62,576.07,440.72ZM563,503.31c-.32,6.8-2.17,8.57-8.86,8.66H526.86V462.92c9.81,0,19.5-.12,29.18,0,4.11.12,5.76,2.13,6.49,6.17a18.88,18.88,0,0,1,.47,4c0,9.58,0,19.21,0,28.84A11.44,11.44,0,0,1,563,503.31Z" transform="translate(-85.44 -152.89)"/><path d="M694,443.52v-3.27c-1.26-.05-2-.18-2.85-.18-21.72.13-43.49.18-65.28.29-.92,0-1.8.16-2.71.2-11.39.68-19.44,8.39-19.53,19.71-.24,24.89-.11,49.75-.11,74.57h26.87V514.18h36.19v20.66h27.47c-.05-1.08-.12-2.17-.12-3.25C694,502.25,694,472.84,694,443.52Zm-27.46,46.75H630.42c0-6.87-.2-13.72.12-20.55a6.09,6.09,0,0,1,6.13-6.21c7.11-.48,14.39-.34,21.56-.48,2.71-.07,5.51,0,8.34,0Z" transform="translate(-85.44 -152.89)"/><path d="M379.08,440.07c-7.46,0-15,.13-22.49-.07-2.58-.05-3.19.83-3.14,3.28.09,20.54.09,41.2,0,61.75,0,5.35-1.61,6.8-6.85,6.85H317.51V440.32H289.57v3.79c0,18.2-.09,36.35,0,54.52,0,12.12,0,24.16,0,36.21h78.5c.32-.07.52-.4.89-.47,7.66-1.34,11.46-6.22,12.54-13.54a43.84,43.84,0,0,0,.59-6.87c.09-23.44.09-47,.14-70.44v-3.27C381,440.2,380,440.07,379.08,440.07Z" transform="translate(-85.44 -152.89)"/><path d="M486.49,478.72c0-7.37-.07-14.72-.52-21.93-.57-7.79-4.79-13.15-11.64-15a47,47,0,0,0-11.28-1.61c-22.22-.25-44.46-.2-66.7-.2-.73,0-1.36.07-2.4.16v27c0,22.61,0,45.12,0,67.72h28c0-23.62,0-47.17-.09-70.79a5,5,0,0,1,.24-.88,5.35,5.35,0,0,1,1.5-.25c9.26-.05,18.69-.12,28-.05,4.36,0,6.26,1.86,6.26,6.26.06,21.43,0,43,0,64.38a3.77,3.77,0,0,1-.23,1.33h29.18a5.26,5.26,0,0,1-.27-1.54Q486.53,505.88,486.49,478.72Z" transform="translate(-85.44 -152.89)"/><path d="M149.84,440.07c-1.86,0-1.61,1.33-1.61,2.55v31.22h-36V440.07h-3.43l-23.33-.18v95h26.92V497.68h36.23v37.16h28a2.46,2.46,0,0,0,.07-.77v-91.7a19.94,19.94,0,0,0-.32-2.21C167.38,440.07,158.63,440.16,149.84,440.07Z" transform="translate(-85.44 -152.89)"/><path d="M259.26,440.2a4.27,4.27,0,0,0-2.65,1.81c-7,9.63-13.76,19.39-20.7,29-.45.79-1.09,1.45-1.81,2.44-.72-1.08-1.18-1.71-1.6-2.44-6.26-9.51-12.55-19.07-18.79-28.66a3.72,3.72,0,0,0-3.46-2.05c-8.59,0-17.18-.12-25.79-.25H181c1,1.47,1.45,2.3,2,3.09,10.15,15.24,20,30.72,30.63,45.71,4.48,6.28,6.6,12.54,6,20.32-.59,8.5-.23,17.11-.3,25.65h28c0-11.55,0-23.19.13-34.81a8.75,8.75,0,0,1,1.31-4.29c12.16-17.63,24.44-35.31,36.6-52.94a23.68,23.68,0,0,0,1.45-2.28,2.9,2.9,0,0,0-1-.36C277,440.16,268.14,440,259.26,440.2Z" transform="translate(-85.44 -152.89)"/><path d="M706.87,443.64c.11,29.2.07,58.5.07,87.7,0,1.13-.21,2.37-.21,3.5H733V440.52c-7.5-.2-15.12-.16-22.72-.52C707.46,439.89,706.87,440.92,706.87,443.64Z" transform="translate(-85.44 -152.89)"/></svg>