<svg id="Capa_1" data-name="Capa 1" xmlns="http://www.w3.org/2000/svg" xmlns:xlink="http://www.w3.org/1999/xlink" viewBox="0 0 23 23"><defs><style>.cls-1{fill:none;}.cls-2{fill:#2bbe00;}.cls-3{clip-path:url(#clip-path);}.cls-4{fill:#fff;}</style><clipPath id="clip-path" transform="translate(-181.43 -147.65)"><rect class="cls-1" x="183.43" y="149.65" width="18" height="18"/></clipPath></defs><g id="Grupo_866" data-name="Grupo 866"><rect id="Rectángulo_451" data-name="Rectángulo 451" class="cls-2" width="23" height="23" rx="5"/></g><g id="Grupo_1777" data-name="Grupo 1777"><g id="Grupo_1776" data-name="Grupo 1776"><g class="cls-3"><g id="Grupo_1775" data-name="Grupo 1775"><path id="Trazado_1375" data-name="Trazado 1375" class="cls-4" d="M189.1,163.38a.32.32,0,0,0,.31-.34.31.31,0,0,0-.33-.31.32.32,0,0,0-.31.32.33.33,0,0,0,.33.33h0" transform="translate(-181.43 -147.65)"/><path id="Trazado_1376" data-name="Trazado 1376" class="cls-4" d="M186,157,184.73,159a.29.29,0,0,0,0,.27.31.31,0,0,0,.2.2l1.85.6v5a.33.33,0,0,0,.22.3l5.35,1.95a.38.38,0,0,0,.21,0h0l6-1.95a.31.31,0,0,0,.23-.3v-5.12l2-.6a.33.33,0,0,0,.23-.23.32.32,0,0,0-.09-.3l-2-1.91,2-1.91a.33.33,0,0,0,.09-.31.33.33,0,0,0-.23-.23L196,153a3.37,3.37,0,0,0-6.28-.24l-5.56,1.68a.32.32,0,0,0-.22.23.33.33,0,0,0,.09.31Zm.57.33,5.36,1.74-1.06,1.71L185.52,159Zm3.6-1.26a3.41,3.41,0,0,0,4.8.39,2.39,2.39,0,0,0,.23-.22l2.18.71-4.95,1.6-5-1.6Zm-2.75,4.27c3.68,1.19,3.5,1.15,3.6,1.15a.35.35,0,0,0,.29-.16l.79-1.27v6.53l-4.68-1.7Zm10.69,4.54-5.35,1.73v-6.8L194,161.2a.35.35,0,0,0,.36.11l3.8-1.16Zm1.91-5.94-5.69,1.73L193,159l5.36-1.73Zm-1.67-2.36-2.72-.89a3.13,3.13,0,0,0,.47-1.66,2.18,2.18,0,0,0,0-.25l3.93,1.18Zm-5.59-5.14a2.66,2.66,0,0,1,2.6,2,2.54,2.54,0,0,1-.52,2.26,2.73,2.73,0,0,1-4.27-.15,2.53,2.53,0,0,1-.33-2.32,2.66,2.66,0,0,1,2.52-1.75m-3.3,2.12a3.21,3.21,0,0,0,.33,2l-3.28,1.07-1.67-1.62Z" transform="translate(-181.43 -147.65)"/><path id="Trazado_1377" data-name="Trazado 1377" class="cls-4" d="M190.24,163.78l.75.27a.33.33,0,0,0,.43-.19.33.33,0,0,0-.19-.41h0l-.75-.27a.33.33,0,0,0-.43.19.33.33,0,0,0,.19.41h0" transform="translate(-181.43 -147.65)"/><path id="Trazado_1378" data-name="Trazado 1378" class="cls-4" d="M191.22,164.83l-2-.73a.34.34,0,0,0-.43.19.31.31,0,0,0,.19.41h0l2,.73.12,0a.34.34,0,0,0,.31-.21.31.31,0,0,0-.19-.41h0" transform="translate(-181.43 -147.65)"/><path id="Trazado_1379" data-name="Trazado 1379" class="cls-4" d="M192.2,155.18a.34.34,0,0,0,.48,0l2-1.94a.33.33,0,0,0,0-.45h0a.37.37,0,0,0-.48,0l-1.76,1.71-.43-.42a.36.36,0,0,0-.48,0,.32.32,0,0,0,0,.45h0Z" transform="translate(-181.43 -147.65)"/></g></g></g></g></svg>