<svg id="ee3cc219-e6df-420a-91ea-e0c53dbdfbdb" data-name="Capa 1" xmlns="http://www.w3.org/2000/svg" viewBox="0 0 312.62 312.62"><defs><style>.e49accb4-5e11-4cfb-aa9d-246e7d6a4d9f{fill:#647c8a;}.efa49166-c8fc-4446-9eeb-fc9cf8152b67{fill:#fff;}</style></defs><title>inspec_1</title><g id="f2f32681-7744-4cb2-ad17-ffa9c3bd80be" data-name="Grupo 812"><g id="b7852332-af23-415e-987d-1b64812431a2" data-name="Grupo 809"><rect id="b532af3e-7906-4c14-b017-2405f9e25a85" data-name="Rectángulo 454" class="e49accb4-5e11-4cfb-aa9d-246e7d6a4d9f" width="312.62" height="312.62" rx="67.96"/><g id="b6a44980-be6c-4e23-80a7-432277a5cb24" data-name="Grupo 808"><path id="af1ae1f1-7f09-46e0-a51a-3f0bebb65029" data-name="Trazado 1189" class="efa49166-c8fc-4446-9eeb-fc9cf8152b67" d="M415.15,523.71A107.79,107.79,0,1,1,522.94,415.92h0A107.74,107.74,0,0,1,415.26,523.71Zm0-198.73a90.9,90.9,0,1,0,.11,0Z" transform="translate(-253 -253.77)"/><path id="a1b52e10-b8c5-43c1-9d37-d49958d34e71" data-name="Trazado 1190" class="efa49166-c8fc-4446-9eeb-fc9cf8152b67" d="M415.17,433.47a8.41,8.41,0,0,1-8.43-8.4V370.83a8.43,8.43,0,0,1,16.84-.68c0,.22,0,.45,0,.68v54.23A8.42,8.42,0,0,1,415.17,433.47Z" transform="translate(-253 -253.77)"/><circle id="a65a6d44-3aea-4452-8c3c-5da644a79db0" data-name="Elipse 17" class="efa49166-c8fc-4446-9eeb-fc9cf8152b67" cx="162.15" cy="201.38" r="11.36"/></g></g></g></svg>