<svg id="edc2883d-9602-432d-8485-92bf40dfdce9" data-name="Capa 1" xmlns="http://www.w3.org/2000/svg" viewBox="0 0 648.26 107.92"><title>isuzu</title><path d="M63.81,238.09H42.72c-3.92,0-5.72,1.87-5.72,5.67v96.35c0,3.8,1.89,5.62,5.72,5.62l21.17,0c3.91,0,5.64-2,5.64-5.7v-96.3C69.53,239.89,67.65,238.09,63.81,238.09Z" transform="translate(-37 -238.06)"/><path d="M207.16,290.88c-11.2-3.6-71.65-22.66-74.42-23.53-2.22-.67-2.27-2.18-2-3.22s1.17-1.5,3-1.5l82.76,0c3.8,0,5.56-1.74,5.56-5.66V243.76c0-3.8-1.68-5.67-5.6-5.67H132.67c-23.22,0-33.19,12.71-33.19,27.51,0,11.7,5.66,21.27,20.72,26.31,3.08,1.06,75.29,23.91,77.46,24.6s2.35,2.35,2,3.33c-.34,1.13-1.16,1.75-2.85,1.75H105c-3.87,0-5.72,1.8-5.72,5.63v12.84c0,4.18,1.71,5.7,5.76,5.7,0,0,84.39.1,92.33,0,21.14-.26,33.42-8.67,33.42-26.48C230.74,304.37,224.29,296.43,207.16,290.88Z" transform="translate(-37 -238.06)"/><path d="M373.7,238.09l-21.4,0c-4.05,0-5.7,1.83-5.7,5.63v61.09c0,10.14-1.54,16.11-15.47,16.56-3.2.11-9.12.15-13.4.15s-9.26,0-12.49-.15c-13.92-.45-16.4-6.42-16.4-16.56V243.69c0-3.86-1.88-5.6-5.66-5.6H261.85c-3.92,0-5.6,1.82-5.6,5.6,0,0,0,54,0,66.2,0,17,3.84,35.39,35.86,35.77l25.59.32s13-.13,24.74-.32c33.93-.56,36.88-18,36.88-35.77V243.76C379.35,239.94,377.66,238.09,373.7,238.09Z" transform="translate(-37 -238.06)"/><path d="M679.66,238.09l-21.46,0c-4,0-5.7,1.83-5.7,5.63v61.09c0,10.14-1.56,16.11-15.44,16.56-3.22.11-9.15.15-13.43.15s-9.24,0-12.47-.15c-13.93-.45-16.41-6.42-16.41-16.56V243.69c0-3.86-1.86-5.6-5.67-5.6H567.77c-3.93,0-5.61,1.82-5.61,5.6v66.2c0,17,3.87,35.39,35.9,35.77l25.57.32s13-.13,24.69-.32c34-.56,36.94-18,36.94-35.77V243.76C685.33,239.94,683.53,238.09,679.66,238.09Z" transform="translate(-37 -238.06)"/><path d="M530.66,321.59H438.73c-1.65,0-2.5-.62-2.83-1.75-.34-1-.1-2.63,2-3.33s74.35-23.54,77.43-24.6c15.09-5.06,20.76-14.61,20.76-26.31,0-14.8-10-27.51-33.22-27.51H419.08c-3.95,0-5.65,1.87-5.65,5.67V257c0,3.92,1.78,5.66,5.62,5.66l82.79,0c1.78,0,2.67.46,3,1.5s.2,2.55-2,3.22c-2.78.87-63.33,19.93-74.47,23.53-17.14,5.55-23.57,13.49-23.57,28.37,0,17.81,12.28,26.22,33.37,26.48,7.95.13,92.39,0,92.39,0,4,0,5.77-1.52,5.77-5.7V327.22C536.36,323.39,534.53,321.59,530.66,321.59Z" transform="translate(-37 -238.06)"/></svg>