<svg id="acdadef3-1723-43ca-9264-94a3c865d1fd" data-name="Capa 1" xmlns="http://www.w3.org/2000/svg" viewBox="0 0 640.1 141"><title>iveco</title><path d="M690.21,301a238.25,238.25,0,0,0-30.15-1.67H656A243.64,243.64,0,0,0,625.8,301c-24.4,2.95-43.56,22.09-47.59,45.88a167.62,167.62,0,0,0-1.76,22.66,152,152,0,0,0,1.76,22.61,56,56,0,0,0,47.59,46.43c9.25.65,19.12,1.75,30.78,1.75h3.48c11,0,21.44-1.1,30.15-1.75,24.37-3.49,44.1-22.06,48.16-46.43a153.09,153.09,0,0,0,1.73-22.61,168.74,168.74,0,0,0-1.73-22.66A56.14,56.14,0,0,0,690.21,301ZM685,386.32c-1.77,12.2-10.5,19.16-19.16,19.16h-15.1c-8.12,0-17.47-7-19.16-19.16a143.46,143.46,0,0,1-.59-16.24c0-5.81,0-13.92.59-19.16a20.69,20.69,0,0,1,19.75-18,27.14,27.14,0,0,1,6.95-.55l7.56.55a20.08,20.08,0,0,1,19.16,18c.55,5.24.55,13.35.55,18.61A140.28,140.28,0,0,1,685,386.32Z" transform="translate(-100 -299.32)"/><path d="M563.13,301a272.06,272.06,0,0,0-32.51-1.67A236.94,236.94,0,0,0,500.45,301c-24.44,2.95-43.58,22.09-47.61,45.88a100,100,0,0,0-2.33,22.66v.55a91.94,91.94,0,0,0,2.33,22.06,56,56,0,0,0,47.61,46.43c8.66.65,19.1,1.75,30.17,1.75,12.16,0,23.19-.59,32.51-.59a6.82,6.82,0,0,0,5.8-6.91v-21c0-4.09-2.91-7-6.38-7,0,0-11.09.59-16.88.59-6.35,0-13.32-.59-19.11-1.11-11-1.14-18-8.75-19.16-18.64a139.16,139.16,0,0,1-1.2-15.65v-.55a139.87,139.87,0,0,1,1.2-15.71,20,20,0,0,1,19.16-18c6.38-.57,12.16-.57,19.11-.57,5.79,0,16.88.57,16.88.57,3.47,0,6.38-2.94,6.38-7V308A6.93,6.93,0,0,0,563.13,301Z" transform="translate(-100 -299.32)"/><path d="M434.86,301.58h-83a27.3,27.3,0,0,0-27.31,27.29v82.38a27.3,27.3,0,0,0,27.31,27.32h83a6.71,6.71,0,0,0,7-7V410.73a7.12,7.12,0,0,0-7-7H383.8a6.73,6.73,0,0,1-7-7V385.14h43.56a7,7,0,0,0,6.9-6.9V360.77c0-3.42-3.48-6.95-6.9-6.95l-43.56.59V341.67c0-4,2.92-6.4,7-6.4h51.06a6.74,6.74,0,0,0,7-7V308C441.85,304.49,438.92,301.58,434.86,301.58Z" transform="translate(-100 -299.32)"/><path d="M305.43,301.58H281.62a6.85,6.85,0,0,0-6.38,5.24l-22.64,91.7a2.51,2.51,0,0,1-2.28,2.3c-1.78,0-2.92-1.17-2.92-2.3l-22-91.7a7.06,7.06,0,0,0-7-5.24H175.94A6.57,6.57,0,0,0,169,308v1.73l28.43,109.66a27.61,27.61,0,0,0,26.14,19.18h34.77c14,0,23.84-9.28,26.72-21.47L312.4,309.73V308C312.4,304.49,309.49,301.58,305.43,301.58Z" transform="translate(-100 -299.32)"/><path d="M148.12,301.58H107c-3.47,0-7,2.91-7,6.42V431.6a7.05,7.05,0,0,0,7,7h41.17a6.69,6.69,0,0,0,7-7V308C155.13,304.49,152.24,301.58,148.12,301.58Z" transform="translate(-100 -299.32)"/></svg>