<svg id="fc1682f3-4fe3-4cac-af1e-ebc13133067c" data-name="Capa 1" xmlns="http://www.w3.org/2000/svg" viewBox="0 0 379.84 146.82"><title>jac</title><path d="M537.81,360.28c-8.37.17-16.79.07-25.21.07h-5.25a4.36,4.36,0,0,0-3.37,1.59,12.9,12.9,0,0,0-.81,1.13,28.51,28.51,0,0,1-21.95,11.39,28.06,28.06,0,0,1-17.7-5.09A27.62,27.62,0,0,1,452,341c3.3-15.17,18.51-24.64,33.7-21.61a28.22,28.22,0,0,1,15.6,8.7,5.58,5.58,0,0,0,4.45,1.94c4.94-.07,9.89,0,14.81,0,5.24,0,10.44,0,15.68,0a4.35,4.35,0,0,0,3.36-7.2A53.9,53.9,0,0,0,529.4,312.3c-11.12-8.67-23.87-13.27-37.71-15.07a85.51,85.51,0,0,0-17-.6,86.79,86.79,0,0,0-18.59,3.08,71.93,71.93,0,0,0-25.59,12.73,50,50,0,0,0-14.12,17.12,38.19,38.19,0,0,0-3.64,22.62,40.4,40.4,0,0,0,7.82,18.45,57.4,57.4,0,0,0,19,16.26c11.81,6.51,24.57,9.53,38,9.93a92.85,92.85,0,0,0,15.61-.89,82.41,82.41,0,0,0,20.71-5.8,63.49,63.49,0,0,0,22.24-15.32,45.11,45.11,0,0,0,5.67-7.58A4.48,4.48,0,0,0,537.81,360.28Z" transform="translate(-162.72 -296.45)"/><path d="M418.56,388.46c-1.64-2.73-3.31-5.44-5-8.19q-23.43-38.38-46.89-76.74a10.5,10.5,0,0,0-9.5-5.36c-3.86,0-7.73,0-11.58,0-4,0-8,0-12.06,0a8.06,8.06,0,0,0-1.87.16,10.83,10.83,0,0,0-7.27,5.32q-8.49,14.49-17,28.9-16.22,27.66-32.5,55.29a12,12,0,0,0-1,2.11,2.49,2.49,0,0,0,2.08,3.41,16.91,16.91,0,0,0,1.74.1c6.8,0,13.6.05,20.38,0a10.74,10.74,0,0,0,9.56-5.28c3.92-6.24,7.82-12.52,11.75-18.74L342.19,333a11.09,11.09,0,0,1,1.43-1.88,2.93,2.93,0,0,1,4.16-.09,6.2,6.2,0,0,1,1.22,1.41c4.49,6.92,8.93,13.83,13.41,20.78a5.64,5.64,0,0,1,.66,1.19,2.56,2.56,0,0,1-2.11,3.69,9.39,9.39,0,0,1-1.84.07c-5.88,0-11.77,0-17.67,0a9.81,9.81,0,0,0-8.89,5.18c-1.61,2.83-3.12,5.74-4.69,8.61a4.84,4.84,0,0,0-.61,1.59,2.62,2.62,0,0,0,2,3.32,5.34,5.34,0,0,0,1.21.15c1.41,0,2.8.08,4.22.08,12.39,0,24.8,0,37.16.05a10.87,10.87,0,0,1,9.34,5.09c1.35,1.93,2.58,4,3.87,5.91a11,11,0,0,0,9.68,5.27c6.9.05,13.76.05,20.66,0a14.69,14.69,0,0,0,1.86-.1,2.3,2.3,0,0,0,2-3A5.67,5.67,0,0,0,418.56,388.46Z" transform="translate(-162.72 -296.45)"/><path d="M271.44,324.66c0-7.59,0-15.25.1-22.86v-2.62c-.5,0-.84,0-1.17,0-7.12,0-14.26,0-21.41,0a20.67,20.67,0,0,0-3.41.3,8.11,8.11,0,0,0-7.2,6.87,22.71,22.71,0,0,0-.43,4.58c0,13.88,0,27.77,0,41.68,0,1.86.06,3.79.1,5.7a50.38,50.38,0,0,1-.42,8.32c-.64,3.72-2.53,6.53-6.21,7.85a15.52,15.52,0,0,1-5.35,1.05c-6.28.07-12.61.09-18.9,0a15.25,15.25,0,0,1-7-1.74,10,10,0,0,1-5.42-6.14,18.26,18.26,0,0,1-.61-4.17,17,17,0,0,0-.56-4.16,5.36,5.36,0,0,0-4.29-3.86,18.83,18.83,0,0,0-3.6-.32c-7.12,0-14.25,0-21.37,0h-1.45c0,.51-.07.74-.07,1v13.54a12.36,12.36,0,0,0,.13,1.46,21.3,21.3,0,0,0,5.71,12.09A32.63,32.63,0,0,0,192.66,394c15.89.22,31.76.11,47.65.06A38.41,38.41,0,0,0,253,391.86c8.27-3,14-8.56,16.84-16.9a37.63,37.63,0,0,0,1.79-12.83c-.06-12-.08-24-.14-36C271.44,325.67,271.44,325.15,271.44,324.66Z" transform="translate(-162.72 -296.45)"/><path d="M182.81,435.09l-.25,0q-2.61-7.68-5.19-15.32a53.81,53.81,0,0,0-8.85.15v22.87H174V425.64l.24,0c1.83,5.73,3.68,11.48,5.51,17.21h5.76c1.84-5.73,3.7-11.48,5.54-17.19.07,0,.15,0,.23,0v12.88c0,1.44-.06,2.85.07,4.27h5.4v-23h-8.88C186.16,425,184.49,430,182.81,435.09Z" transform="translate(-162.72 -296.45)"/><path d="M462.74,432.75a5.39,5.39,0,0,0,1.14-.3,24.65,24.65,0,0,0,3.5-1.28,5.18,5.18,0,0,0,2.78-4.05,6,6,0,0,0-4.84-6.81,24.11,24.11,0,0,0-4.91-.53c-4.34-.07-8.71-.07-13.06-.07a9.73,9.73,0,0,0-1,.07c-.28,2.41-.16,22.18.09,23h5.76v-9.52c2.89-.32,5.38.08,7.22,2.46,1.75,2.21,3.66,4.2,5.43,6.36a2.11,2.11,0,0,0,1.81.81c1.61-.07,3.22,0,4.84,0,.3,0,.62,0,1.14-.07-1.12-1.4-2.08-2.64-3.06-3.82C467.65,436.62,465.86,434.16,462.74,432.75Zm-10.52-3.26v-5.64a1,1,0,0,1,.37-.13c2.72,0,5.46,0,8.17,0a4.43,4.43,0,0,1,2.11.62,2.56,2.56,0,0,1,.05,4.35,3.59,3.59,0,0,1-1.37.52A80.23,80.23,0,0,1,452.22,429.49Z" transform="translate(-162.72 -296.45)"/><path d="M393.51,420.31a19.78,19.78,0,0,0-12.47-.09c-4.61,1.46-7.52,4.54-8.07,9.49-.64,5.89,1.87,10.44,7.57,12.52a18.81,18.81,0,0,0,6.59,1,17.59,17.59,0,0,0,7.84-1.5,10.7,10.7,0,0,0,5.91-6.56,12.81,12.81,0,0,0,.19-6.84C400.13,424.16,397.41,421.66,393.51,420.31Zm1.57,12.78a7,7,0,0,1-6.68,6.09l-1.25.06v.07c-.85-.13-1.63-.18-2.46-.37a6.82,6.82,0,0,1-5.5-5.89,10.47,10.47,0,0,1,.21-4.65,6.6,6.6,0,0,1,4.67-4.59,10.34,10.34,0,0,1,5.52-.22,6.64,6.64,0,0,1,5.57,6.16A11.66,11.66,0,0,1,395.08,433.09Z" transform="translate(-162.72 -296.45)"/><path d="M259.74,420.56a20.33,20.33,0,0,0-12.34-.6c-5.71,1.45-8.88,5.62-8.88,11.48A10.77,10.77,0,0,0,246,442.18a19.49,19.49,0,0,0,6.83,1.05,17.11,17.11,0,0,0,8.39-1.82,10.48,10.48,0,0,0,5.34-6.41,14.3,14.3,0,0,0,.25-6.27A10.56,10.56,0,0,0,259.74,420.56Zm1,12.19a7,7,0,0,1-6.74,6.43c-.39,0-.82,0-1.23.06a8.52,8.52,0,0,1-4-.81,6.7,6.7,0,0,1-3.82-4.65,10.28,10.28,0,0,1,.13-5.5A6.1,6.1,0,0,1,249.2,424a10,10,0,0,1,7-.06,6.21,6.21,0,0,1,4.45,5.49A12.36,12.36,0,0,1,260.72,432.75Z" transform="translate(-162.72 -296.45)"/><path d="M531.51,429.75c-1.74-.48-3.47-.83-5.18-1.27s-3.55-.86-5.28-1.38a1.69,1.69,0,0,1-1.33-1.62,1.79,1.79,0,0,1,1.33-1.62,2.79,2.79,0,0,1,1-.31,31.72,31.72,0,0,1,4.33-.19A3.77,3.77,0,0,1,530,426.2a.38.38,0,0,0,.11.17H536a6.24,6.24,0,0,0-2-4.4,8.71,8.71,0,0,0-3.68-2,22.79,22.79,0,0,0-9.48-.35,10.65,10.65,0,0,0-4.17,1.57c-3.46,2.34-3.59,6.54-.22,9a9.74,9.74,0,0,0,3.69,1.72c2.26.54,4.52,1,6.78,1.53a11,11,0,0,1,2.81.95,1.89,1.89,0,0,1,.52,3.2,6.37,6.37,0,0,1-2.08,1.27,10.27,10.27,0,0,1-4.16.33c-2.63-.21-4.46-1.43-5.2-4.07,0,0-.11-.08-.26-.25-1.78.15-3.64.25-5.58.4a8.28,8.28,0,0,0,5.86,7.06,18.13,18.13,0,0,0,5.85.9,21.54,21.54,0,0,0,6.88-.87,8,8,0,0,0,4.41-3.28,5.94,5.94,0,0,0-1.1-7.57A9,9,0,0,0,531.51,429.75Z" transform="translate(-162.72 -296.45)"/><path d="M308.45,423.66c2.91.07,5.74,0,8.65.06v14.44c0,1.53,0,3.1,0,4.74h3a22.18,22.18,0,0,0,2.92-.09v-9.57c0-3.14,0-6.33,0-9.65h8.6v-3.8H308.45Z" transform="translate(-162.72 -296.45)"/></svg>