<svg id="Capa_1" data-name="Capa 1" xmlns="http://www.w3.org/2000/svg" viewBox="0 0 266.55 207.14"><defs><style>.cls-1{fill:#1d1d1b;}</style></defs><path class="cls-1" d="M441.26,355.14a55.14,55.14,0,0,1,26.59,8.78,37.61,37.61,0,0,1,9.78,9.05c.87,1.18,1.46,2.37.73,3.82a3.36,3.36,0,0,1-3.39,1.8c-7,0-14,0-21,0a3.57,3.57,0,0,1-2.84-1.18,19.67,19.67,0,0,0-15.73-6.61c-8.11.4-14.23,4.28-17.57,11.71-3.44,7.66-1.89,14.8,3.69,20.92,7.28,8,20.64,8.24,28.42.72a22.14,22.14,0,0,0,2.59-3,3.42,3.42,0,0,1,3-1.51c7,0,14.11,0,21.16,0a3.12,3.12,0,0,1,2.83,4.93,35,35,0,0,1-6.25,7.56A47.33,47.33,0,0,1,454,422.91a62.66,62.66,0,0,1-23.79,2.33,56.29,56.29,0,0,1-18.36-4.69c-9.29-4.18-17-10.17-21.13-19.82a26.3,26.3,0,0,1,.8-22.87,34.63,34.63,0,0,1,10.91-12.59,47.81,47.81,0,0,1,13.87-7.14c3.69-1.17,7.39-2.36,11.35-2.5,1.13,0,2.31-.47,3.49-.5Z" transform="translate(-213.48 -218.37)"/><path class="cls-1" d="M346,411.66H332.51a11.56,11.56,0,0,1-1.86-.14c-1.56-.25-2.34-1.39-1.71-2.79a45.3,45.3,0,0,1,4.3-7.82,6.93,6.93,0,0,1,5.94-2.79h12.45c.87,0,1.73,0,2.24-.87s.07-1.72-.42-2.48q-4.62-7.18-9.26-14.37c-1.43-2.19-3-2.24-4.45,0-5.31,8.39-10.55,16.81-15.86,25.2q-2.44,3.87-4.94,7.72c-1.37,2.11-2.61,4.33-4,6.45a7.39,7.39,0,0,1-6.1,3.35c-5,.18-10,.07-15,.05-2.38,0-3.26-1.56-2-3.65q7.23-12.33,14.5-24.62l20.6-35a6.94,6.94,0,0,1,6.23-3.7c5.58,0,11.15,0,16.73,0a7.6,7.6,0,0,1,7,3.94q12.81,21,25.59,41.95c3.41,5.6,6.85,11.2,10.27,16.8a3.87,3.87,0,0,1,.21.34c.45.85,1.07,1.63.53,2.72-.62,1.25-1.71,1.24-2.84,1.24H376.54a8,8,0,0,1-7.18-3.84c-.81-1.23-1.63-2.45-2.4-3.7a8,8,0,0,0-7.14-3.94C355.23,411.63,350.63,411.66,346,411.66Z" transform="translate(-213.48 -218.37)"/><path class="cls-1" d="M289.84,386.17a35.28,35.28,0,0,1,.12,5.34c-.11,4.9.32,9.81-.29,14.7a19.26,19.26,0,0,1-15,16.47,36.62,36.62,0,0,1-7.95.89c-10.71,0-21.42.22-32.12-.08-8.45-.23-15.28-3.84-19.56-11.44a11,11,0,0,1-1.46-5.23c0-3.3,0-6.6-.06-9.9,0-.74.2-1,1-1,5.4,0,10.8,0,16.19.1,3.26.06,5,1.81,4.89,5.08-.2,6.23,3.93,9,9.12,9.22,4.54.18,9.1.12,13.65,0,4.78-.12,7.43-2.68,7.78-7.41.34-4.5.09-9,.12-13.51.05-8.25,0-16.51,0-24.76a10.94,10.94,0,0,1,.5-3.69,5.86,5.86,0,0,1,5-4,21.5,21.5,0,0,1,3.21-.15c4.5,0,9,0,13.52,0a2,2,0,0,1,1.29.17q0,14.41-.07,28.83C289.71,385.93,289.8,386.05,289.84,386.17Z" transform="translate(-213.48 -218.37)"/><path class="cls-1" d="M436.42,296.34l-1.15,1.82-.18.32c-5.55,8-12.92,14-21.31,18.71a125.54,125.54,0,0,1-39.29,14.14,147.35,147.35,0,0,1-46.53,1.2c-16.19-2.16-31.59-6.75-45.92-14.68-7.62-4.21-14.54-9.31-20-16.16-.28-.34-.52-.72-.78-1.08a1.47,1.47,0,0,1,.46-1.3c.12-.1.53-.27.23-.58-.77-.8-.22-1.25.42-1.69a48.63,48.63,0,0,0,6.11,5.72l.55.52a3.08,3.08,0,0,0,1.36,1.29,2.54,2.54,0,0,0,1,.87.55.55,0,0,0,.6.48,27.91,27.91,0,0,0,4.91,3.89l.06,0a2.34,2.34,0,0,0,1.41.95h0a1.35,1.35,0,0,0,1.08.8h0a.8.8,0,0,0,.83.52,2.49,2.49,0,0,0,1.1.76c0,.19.1.25.27.21L283,314c0,.15.09.23.24.2.91.56,1.81,1.13,2.74,1.67a124,124,0,0,0,33.42,13.08,100.69,100.69,0,0,0,16.82,2.75,9.72,9.72,0,0,0,1.17.24,120.11,120.11,0,0,0,15.87.26,42.89,42.89,0,0,0,7.41-.74c1.19-.13,2.39-.2,3.57-.38a131.87,131.87,0,0,0,32.8-9.36,90.89,90.89,0,0,0,16.59-9,.92.92,0,0,0,.81-.55h0a.89.89,0,0,0,.82-.53h0a1.43,1.43,0,0,0,1.08-.81h0a2.27,2.27,0,0,0,.58-.23,89.29,89.29,0,0,0,9.36-7.77,37.72,37.72,0,0,0,6.18-6.13,22.35,22.35,0,0,0,3.17-4.07A30.53,30.53,0,0,0,439,287.4a1.91,1.91,0,0,0,.36-1.5c.32,0,.2-.72.61-.49s.1.64.17,1A53,53,0,0,1,437.8,294l-.53,1-.15.24-.3.52A.58.58,0,0,0,436.42,296.34Z" transform="translate(-213.48 -218.37)"/><path class="cls-1" d="M254.44,264.66c-.34,1-.69,2-1,3l-.38.08c2.2-8.85,7.17-16,13.59-22.28,7.92-7.71,17.38-13,27.52-17.11a133.73,133.73,0,0,1,37.1-9.08,153.05,153.05,0,0,1,26-.54c17.54,1.18,34.41,5.05,50.3,12.76a82.84,82.84,0,0,1,13.94,8.4c7.08,5.37,13.09,11.7,17.13,19.72a31.79,31.79,0,0,1,2.28,5.68l-.25.51c-.2-.52-.41-1-.61-1.54a21.22,21.22,0,0,0-2.6-5.43c-.48-1.16-1.34-2.1-1.89-3.23a14.46,14.46,0,0,0-3.06-3.89,20.48,20.48,0,0,0-2.14-1.34c-.34-.26-1-.15-.94.64a4.53,4.53,0,0,0,.89,2.26c.35.56,1.35,1,.63,2-2.08-2.57-3.87-5.38-6.32-7.65L418.76,242c.31-.47.68-.3,1-.08a38.79,38.79,0,0,1,3.36,2.12c.46.35.72.48,1.09.08s.15-.87-.2-1.17c-1.54-1.31-3.1-2.61-4.69-3.87a2.15,2.15,0,0,0-1.68-.69l-.32-.22c-.08-.62-.56-.73-1.05-.82h0c-.08-.68-.52-.83-1.11-.77l-.22-.05a7,7,0,0,0-3.51-2.12l-.23,0c-.09-.49-.44-.53-.84-.49a1,1,0,0,0-.24,0c-.15-.6-.59-.74-1.13-.73h0c-.06-.29-.28-.31-.52-.29l-.22,0a4.88,4.88,0,0,0-3-1.54H405c0-.55-.4-.57-.81-.53l-.47-.08a1.43,1.43,0,0,0-1.66-.8l-1.3-.24a.85.85,0,0,0-.49-.73,16.86,16.86,0,0,0-4.42-1.56,27.93,27.93,0,0,1-3.12-1.06,89,89,0,0,0-13.16-3.77A143.37,143.37,0,0,0,353.43,219a148.3,148.3,0,0,0-33.25,2.39,5.65,5.65,0,0,0-2.18.47l-.75.1c-.24-.09-.45-.09-.59.17l-.5.06c-.69.12-1.48,0-2,.66l-2.56.43a.47.47,0,0,0-.59.16l-1.3.34a.48.48,0,0,0-.65.38h-.46c-.62,0-1.28-.12-1.67.57l-.23,0c-.29,0-.59-.07-.78.25l-.77.1a12,12,0,0,0-4.1,1.45l-.51.07a31.17,31.17,0,0,0-3,.92,128.56,128.56,0,0,0-12.94,5.87c-4.43,2.45-8.88,4.86-12.58,8.4-.32.31-.89.68-.5,1.22s.88.12,1.31-.07a43.9,43.9,0,0,0,4.78-3c1-.63,1.83-1.74,3.21-1.73.14.29-.08.4-.28.52a.47.47,0,0,0-.6.47l-1.55,1.13c-.53.05-1,.13-1.06.83h0a1.81,1.81,0,0,0-1.39.65,78.54,78.54,0,0,0-6.95,6.7,11.65,11.65,0,0,0-2.48,3.23.72.72,0,0,0-.53.57c-.84.56-1.05,1.81-2.49,2.21l2-3.28c.43-.72.32-1-.61-1.18s-1,.45-1.42.79a21.48,21.48,0,0,0-6.53,8.42A21.69,21.69,0,0,0,254.44,264.66Z" transform="translate(-213.48 -218.37)"/><path class="cls-1" d="M254.44,264.66a21.69,21.69,0,0,1,2.44-5.37c.44.14,1.5-.43,1.19.56a18,18,0,0,0-.43,4.36c-.22,2.87-.77,5.7-1,8.57a42.11,42.11,0,0,0,1.14,12.16c.51,2.31.35,4.8,1.68,6.92.27.43,0,.64-.44.73a3.55,3.55,0,0,1-1.06-1.34c-.13-.89-.79-1.31-1.46-1.86-.25.8.16,1.33.29,1.91.09.38.29.83-.07,1.09s-.51-.43-.89-.36h0c.26-1-.6-1.61-.71-2.47.56-.08.42-.46.38-.81-.34-2.92-.73-5.83-1-8.75-.44-4.83.12-9.64.59-14.44C255.18,264.85,255,264.71,254.44,264.66Z" transform="translate(-213.48 -218.37)"/><path class="cls-1" d="M437.46,258.79a21.22,21.22,0,0,1,2.6,5.43c-.75-.07-.76.44-.71.95.21,2.24.45,4.48.65,6.72a41.05,41.05,0,0,1,0,8.22q-.32,2.89-.64,5.79a1.91,1.91,0,0,1-.36,1.5,30.53,30.53,0,0,1-3.38,5.18c-.58-.31-.62-.77-.44-1.36.33-1,.63-2.08.89-3.13a53.26,53.26,0,0,0,2-14.7c-.1-2.62-.72-5.17-.79-7.79,0-1.85-.38-3.69-.57-5.54C436.58,259.44,436.68,258.89,437.46,258.79Z" transform="translate(-213.48 -218.37)"/><path class="cls-1" d="M258,291.25a3.55,3.55,0,0,0,1.06,1.34c.89,1.63,2.26,2.91,3.28,4.45-.64.44-1.19.89-.42,1.69.3.31-.11.48-.23.58a1.47,1.47,0,0,0-.46,1.3c-1.63-1.52-2.6-3.51-3.76-5.37a2.64,2.64,0,0,0,.27-2.91C257.58,292,257.07,291.4,258,291.25Z" transform="translate(-213.48 -218.37)"/><path class="cls-1" d="M440.67,265.76l.25-.51a30.58,30.58,0,0,1,1.72,13.2,9.36,9.36,0,0,1-.78,3.82,48.49,48.49,0,0,0,.4-6.48,25.69,25.69,0,0,0-1.61-9.38C440.57,266.23,440.66,266,440.67,265.76Z" transform="translate(-213.48 -218.37)"/><path class="cls-1" d="M437.8,294a53,53,0,0,0,2.31-7.58c.56.56.54-.09.61-.34.34-1.06.63-2.15.94-3.23a.43.43,0,0,1,.29.59,41.65,41.65,0,0,1-3.78,10.21C438.1,293.75,437.92,293.84,437.8,294Z" transform="translate(-213.48 -218.37)"/><path class="cls-1" d="M289.84,386.17c0-.12-.13-.24-.12-.36q0-14.42.07-28.83a9.06,9.06,0,0,1,.06,2.65Q289.87,372.91,289.84,386.17Z" transform="translate(-213.48 -218.37)"/><path class="cls-1" d="M258,291.25c-.92.15-.41.73-.26,1.08a2.64,2.64,0,0,1-.27,2.91,9,9,0,0,1-1.6-3.21c.38-.07.54.61.89.36s.16-.71.07-1.09c-.13-.58-.54-1.11-.29-1.91C257.2,289.94,257.86,290.36,258,291.25Z" transform="translate(-213.48 -218.37)"/><path class="cls-1" d="M253,267.7l.38-.08a36.43,36.43,0,0,0-1,10.86,31.86,31.86,0,0,1,.22,4C252.06,277.56,251.59,272.62,253,267.7Z" transform="translate(-213.48 -218.37)"/><path class="cls-1" d="M441.26,355.14H431.1A44.83,44.83,0,0,1,441.26,355.14Z" transform="translate(-213.48 -218.37)"/><path class="cls-1" d="M255.14,289.56c.11.86,1,1.51.71,2.47a27.45,27.45,0,0,1-3-8c-.07-.31-.4-.64.06-1.12A61.06,61.06,0,0,0,255.14,289.56Z" transform="translate(-213.48 -218.37)"/><path class="cls-1" d="M436.42,296.34a.58.58,0,0,1,.4-.64C436.94,296.06,436.74,296.24,436.42,296.34Z" transform="translate(-213.48 -218.37)"/><path class="cls-1" d="M437.12,295.18l.15-.24C437.41,295.14,437.3,295.19,437.12,295.18Z" transform="translate(-213.48 -218.37)"/><path class="cls-1" d="M435.09,298.48l.18-.32C435.32,298.33,435.27,298.44,435.09,298.48Z" transform="translate(-213.48 -218.37)"/><path class="cls-1" d="M278.38,240.35l1.55-1.13c.38.07.56-.12.6-.47.2-.12.42-.23.28-.52h0c.37.23.58-.07.83-.25,1.11-.18,1.79-1.06,2.65-1.64a.52.52,0,0,0,.55-.26l.74-.39a.19.19,0,0,0,.26-.19,35.11,35.11,0,0,1,4.31-2.44l.31-.2.22-.08.32-.18.51-.27.4.83-.38.25c-.39,0-.76,0-.82.51l-.23.1-.28.19-.54.28a.74.74,0,0,0-.8.52l-.23.11c-.39-.13-.56,0-.57.43l-1.11.77c-.5,0-.88.12-.85.72l-.18.28V237c-.78-.45-1.1-.17-1.09.66a9.38,9.38,0,0,0-2.38,1.67q-.26,0-.24.24l-.37.46-.26.27a.73.73,0,0,0-.21.06c-.4.13-.79.26-.86.76a.66.66,0,0,0-.2.06l-.24.27a3.82,3.82,0,0,0-1.13,1c-.52,0-.77.4-1.08.71A55.69,55.69,0,0,0,269.25,254a41.48,41.48,0,0,0-4.71,10.54c-1.22,4.61-2.15,9.33-1.43,14.17a61.79,61.79,0,0,0,1.16,6.66,40.65,40.65,0,0,0,2.79,7.56c1.34,2.75,2.61,5.5,4.82,7.69a2.28,2.28,0,0,0,.87,1.28,2.57,2.57,0,0,0,1.07,1.34c.46.61.77,1.36,1.54,1.68l.26.26a23.25,23.25,0,0,0,3.83,3.85c5.49,4.91,11.85,8.45,18.46,11.55a121.14,121.14,0,0,0,15.83,6,43.43,43.43,0,0,0,7.47,1.87h0a51.14,51.14,0,0,0,9.62,2.1h.6l.49.27h.85l3.5.52-.07.31a100.69,100.69,0,0,1-16.82-2.75A124,124,0,0,1,286,315.82c-.93-.54-1.83-1.11-2.74-1.67,0-.16-.09-.22-.24-.2l-1.36-.86c0-.15-.11-.23-.27-.21a2.49,2.49,0,0,1-1.1-.76c0-.61-.39-.61-.83-.52h0c0-.77-.43-.93-1.08-.8h0c-.08-.89-.5-1.28-1.41-.95l-.06,0c.28-1.18-.86-1.51-1.42-2a50.9,50.9,0,0,1-11.09-13.66c-3.74-6.62-5.81-13.7-5.26-21.4a33,33,0,0,1,3.39-12.34c1-2,2-3.92,3-5.88h0a6.78,6.78,0,0,0,1.87-2.68l.34-.48a.51.51,0,0,0,.46-.6A87,87,0,0,1,275.6,243c.6-.56,1.48-.87,1.72-1.78h0A.93.93,0,0,0,278.38,240.35Z" transform="translate(-213.48 -218.37)"/><path class="cls-1" d="M413.6,312.65a90.89,90.89,0,0,1-16.59,9,131.87,131.87,0,0,1-32.8,9.36c-1.18.18-2.38.25-3.57.38l-.95-.24a9.19,9.19,0,0,0,2.81-.48c.57-.05,1.15-.07,1.72-.17A129.54,129.54,0,0,0,400.11,319a98.1,98.1,0,0,0,9-5.21.94.94,0,0,0,.83-.69l3.73-2.77a.63.63,0,0,0,.57-.48l.49-.35A.42.42,0,0,0,415,309l.05-.08a.93.93,0,0,0,.84-.32c1.76-1.76,3.65-3.42,5.24-5.33a46.35,46.35,0,0,0,8.95-16.88,39,39,0,0,0,1-17.46,44.46,44.46,0,0,0-3.63-11.18c-1.95-4.29-4.88-7.9-7.79-11.53-.3-.37-.59-.82-1.16-.82h0a1.22,1.22,0,0,0-.82-1.05l-.27-.26c-.18-.37-.26-.83-.83-.77l-.55-.54c0-.39-.13-.57-.52-.52-2.57-2.64-5.7-4.55-8.65-6.68.07-.39,0-.86.63-.85l7.8,5.06a.72.72,0,0,0,.75.57h0l.3.22,1,.9a1.24,1.24,0,0,0,.6.84,56.58,56.58,0,0,1,9.43,10,45.11,45.11,0,0,1,7.08,13.9,32.79,32.79,0,0,1-.2,19.1,41.85,41.85,0,0,1-2.75,6.62,52.35,52.35,0,0,1-12.94,16.53c-.78.68-2,1-2.22,2.29h0c-.64-.11-1.07.08-1.08.81h0c-.42,0-.84-.1-.82.53h0C414,312,413.61,312.09,413.6,312.65Z" transform="translate(-213.48 -218.37)"/><path class="cls-1" d="M362.5,330.69a9.19,9.19,0,0,1-2.81.48l.95.24a42.89,42.89,0,0,1-7.41.74,120.11,120.11,0,0,1-15.87-.26,9.72,9.72,0,0,1-1.17-.24,2.82,2.82,0,0,0,.07-.31c7.29.48,14.57.82,22.16-.17a34.86,34.86,0,0,0-5.61.21,84.21,84.21,0,0,1-11.12,0c-1.76-.11-3.52-.45-5.29-.44-1.22,0-2.41-.68-3.64-.12h-.85l.31-.41a.58.58,0,0,0-.8.14h-.6c0-.41-.31-.45-.64-.51-.83-.13-1.64-.34-2.47-.45-2.19-.26-4.28-1.11-6.51-1.14h0a.7.7,0,0,0-.57-.5,75.2,75.2,0,0,1-8-2.31,95.72,95.72,0,0,1-14.11-5.46,67.48,67.48,0,0,1-15.08-9.39c-.86-.74-1.22-1.45-.49-2.44h0a2,2,0,0,1,1.18.56,101.62,101.62,0,0,0,13.14,9.35,68.73,68.73,0,0,0,12.21,5.6,84.7,84.7,0,0,0,17.63,4.79c3.54.48,7.09.89,10.65,1.27,4.7.5,9.41.28,14.11.36.36,0,.85.17.94-.44l.87-.06c2.18.63,4.3,0,6.43-.32a75.44,75.44,0,0,0,8.07-.9,76.93,76.93,0,0,0,17-4.74,15.21,15.21,0,0,0,3.59-1.34,67.41,67.41,0,0,0,17.29-10.11c1.75-1.4,3.6-2.68,5.41-4l.27.26a2.82,2.82,0,0,1-1,2.43,48.61,48.61,0,0,1-7,5.05c-3,1.71-6,3.26-9.08,4.73A113.52,113.52,0,0,1,380,326.34a96.6,96.6,0,0,1-14.57,3.5C364.42,330,363.29,329.85,362.5,330.69Z" transform="translate(-213.48 -218.37)"/><path class="cls-1" d="M416.3,310.78c.22-1.26,1.44-1.61,2.22-2.29A52.35,52.35,0,0,0,431.46,292a41.85,41.85,0,0,0,2.75-6.62,32.79,32.79,0,0,0,.2-19.1,45.11,45.11,0,0,0-7.08-13.9,56.58,56.58,0,0,0-9.43-10,1.24,1.24,0,0,1-.6-.85c.65-.26.9.55,1.46.55l5.87,5.53c2.45,2.27,4.24,5.08,6.32,7.65a1.36,1.36,0,0,0,.34,1.11c1.68,1.42,2.08,3.61,3,5.43a30.74,30.74,0,0,1,2.76,8.39,31.08,31.08,0,0,1,.25,9.57A32.08,32.08,0,0,1,434.13,290c-.94,1.84-1.58,3.83-3.08,5.38a2.39,2.39,0,0,0-.77,2h0c-1.32.41-1.78,1.59-2.37,2.65,0,0,.16.16.25.25-.55.87-2,1.05-1.89,2.45a89.29,89.29,0,0,1-9.36,7.77A2.27,2.27,0,0,1,416.3,310.78Z" transform="translate(-213.48 -218.37)"/><path class="cls-1" d="M262.33,297c-1-1.54-2.39-2.82-3.28-4.45.41-.09.71-.3.44-.73-1.33-2.12-1.17-4.61-1.68-6.92a42.11,42.11,0,0,1-1.14-12.16c.2-2.87.75-5.7,1-8.57a18,18,0,0,1,.43-4.36c.31-1-.75-.42-1.19-.56a21.48,21.48,0,0,1,6.53-8.42c.46-.34.53-1,1.42-.79s1,.46.61,1.18l-2,3.28c1.44-.4,1.65-1.65,2.49-2.21l.11.1c.17.8-.71,1.32-.57,2.11h0a8,8,0,0,0-2.42,2.86c-1,1.54-1.59,3.35-2.5,4.92a27.48,27.48,0,0,0-3.31,11.21,30.07,30.07,0,0,0,1.85,13.19A49.66,49.66,0,0,0,268,301.58a1.26,1.26,0,0,1,.43,1.18A48.63,48.63,0,0,1,262.33,297Z" transform="translate(-213.48 -218.37)"/><path class="cls-1" d="M268.44,302.76a1.26,1.26,0,0,0-.43-1.18,49.66,49.66,0,0,1-8.88-14.86,30.07,30.07,0,0,1-1.85-13.19,27.48,27.48,0,0,1,3.31-11.21c.91-1.57,1.46-3.38,2.5-4.92a8,8,0,0,1,2.42-2.86c-1,2-2.05,3.9-3,5.88a33,33,0,0,0-3.39,12.34c-.55,7.7,1.52,14.78,5.26,21.4a50.9,50.9,0,0,0,11.09,13.66c.56.48,1.7.81,1.42,2a27.91,27.91,0,0,1-4.91-3.89c0-.39-.22-.54-.6-.48a2.54,2.54,0,0,1-1-.87c0-.91-.45-1.35-1.36-1.29Z" transform="translate(-213.48 -218.37)"/><path class="cls-1" d="M430.28,297.42a2.39,2.39,0,0,1,.77-2c1.5-1.55,2.14-3.54,3.08-5.38a32.08,32.08,0,0,0,3.17-10.33,31.08,31.08,0,0,0-.25-9.57,30.74,30.74,0,0,0-2.76-8.39c-.92-1.82-1.32-4-3-5.43a1.36,1.36,0,0,1-.34-1.11c.72-.94-.28-1.42-.63-2a4.53,4.53,0,0,1-.89-2.26c0-.79.6-.9.94-.64a20.48,20.48,0,0,1,2.14,1.34,14.46,14.46,0,0,1,3.06,3.89c.55,1.13,1.41,2.07,1.89,3.23-.78.1-.88.65-.82,1.27.19,1.85.52,3.69.57,5.54.07,2.62.69,5.17.79,7.79a53.26,53.26,0,0,1-2,14.7c-.26,1.05-.56,2.1-.89,3.13-.18.59-.14,1,.44,1.36a22.35,22.35,0,0,1-3.17,4.07C431.44,296.16,430.88,296.85,430.28,297.42Z" transform="translate(-213.48 -218.37)"/><path class="cls-1" d="M430.28,297.42c.6-.57,1.16-1.26,2.14-.77a37.72,37.72,0,0,1-6.18,6.13c-.12-1.4,1.34-1.58,1.89-2.45s1.91-1.57,2.12-2.9Z" transform="translate(-213.48 -218.37)"/><path class="cls-1" d="M276.92,309.85c.91-.33,1.33.06,1.41.95A2.34,2.34,0,0,1,276.92,309.85Z" transform="translate(-213.48 -218.37)"/><path class="cls-1" d="M269,303.28c.91-.06,1.36.38,1.36,1.29A3.08,3.08,0,0,1,269,303.28Z" transform="translate(-213.48 -218.37)"/><path class="cls-1" d="M278.33,310.8c.65-.13,1.09,0,1.08.8A1.35,1.35,0,0,1,278.33,310.8Z" transform="translate(-213.48 -218.37)"/><path class="cls-1" d="M415.22,311.59c0-.73.44-.92,1.08-.81A1.43,1.43,0,0,1,415.22,311.59Z" transform="translate(-213.48 -218.37)"/><path class="cls-1" d="M414.41,312.11c0-.63.4-.57.82-.53A.89.89,0,0,1,414.41,312.11Z" transform="translate(-213.48 -218.37)"/><path class="cls-1" d="M279.41,311.6c.44-.09.83-.09.83.52A.8.8,0,0,1,279.41,311.6Z" transform="translate(-213.48 -218.37)"/><path class="cls-1" d="M413.6,312.65c0-.56.36-.63.81-.55A.92.92,0,0,1,413.6,312.65Z" transform="translate(-213.48 -218.37)"/><path class="cls-1" d="M271.35,305.44c.38-.06.59.09.6.48A.55.55,0,0,1,271.35,305.44Z" transform="translate(-213.48 -218.37)"/><path class="cls-1" d="M281.34,312.88c.16,0,.24.06.27.21C281.44,313.13,281.33,313.07,281.34,312.88Z" transform="translate(-213.48 -218.37)"/><path class="cls-1" d="M283,314c.15,0,.23,0,.24.2C283.06,314.18,283,314.1,283,314Z" transform="translate(-213.48 -218.37)"/><path class="cls-1" d="M407.44,234.73c-.6,0-.56.46-.63.85a6.15,6.15,0,0,1-1-.38,77.13,77.13,0,0,0-10.33-5.54c-1.24-.53-2.37-1.46-3.85-1.31l-.8-.32c-.08-.34-.16-.67-.55-.21a112,112,0,0,0-10.91-3.55c-10.38-2.73-21-3.39-31.65-3.39-10,0-20,.46-29.87,2.74a.3.3,0,0,0-.41.09c-3.71.87-7.34,2.08-11,3.25-.59-.4-.85,0-1.09.46l-1,.43c-.63-.56-.87-.06-1.1.42l-.79.3c-.65-.36-1.16.09-1.67.33-3,1.4-5.95,2.83-8.92,4.26-.13-.28-.27-.55-.4-.83a47,47,0,0,1,7.88-3.74c1-.41,1.86-.61,1.2-1.93l.51-.07a6.38,6.38,0,0,0,4.1-1.45l.77-.1c.44.47.71.39.78-.25l.23,0a1.62,1.62,0,0,0,1.67-.57h.46c.38.15.57,0,.65-.38l1.3-.34c.34.44.47.17.59-.16l2.56-.43a1.72,1.72,0,0,0,2-.66l.5-.06c.33.4.46.13.59-.17l.75-.1a1.57,1.57,0,0,0,2.18-.47A148.3,148.3,0,0,1,353.43,219a143.37,143.37,0,0,1,26.17,3.46,89,89,0,0,1,13.16,3.77,27.93,27.93,0,0,0,3.12,1.06c.08.41.42.55.74.66a8,8,0,0,1,3.28,1.55c.16.16.58.06.89.08l1.3.25c.32.74,1,.76,1.66.79l.47.08c.12.41.09,1,.81.53h.26a4.07,4.07,0,0,0,3,1.54l.22,0a.48.48,0,0,0,.52.29h0c.13.62.58.75,1.13.73a1,1,0,0,1,.24,0c0,.62.42.57.84.49l.23,0c.71,1.47,2.06,1.87,3.51,2.12l.22.05c.08.67.58.74,1.11.77h0c-.29,1.1.58.7,1.05.82l.32.22c-.27.81-.88.72-1.38.38a20.86,20.86,0,0,0-3.15-1.73c-2.13-1-4.11-2.29-6.15-3.47a3.17,3.17,0,0,0-2-.62C405.72,233.89,406.91,233.84,407.44,234.73Zm-5.31-3.26-.19-.1.11.17.53.29a7.15,7.15,0,0,0,2.35,1.07,3.19,3.19,0,0,0-2.26-1.18A.6.6,0,0,0,402.13,231.47ZM401,231c.12.12.32.28.41.11s-.19-.17-.3-.24l-.53-.28c-.28-.26-.53-.63-1-.33.17.42.56.39.9.47Zm-95.84-4.82-.1.06.06.08.14-.1Zm93.12,3.51s0,.08,0,.09a.18.18,0,0,0,.12,0c.1-.06.08-.12,0-.15S398.29,229.71,398.25,229.72Zm.75.37.05-.07H399Z" transform="translate(-213.48 -218.37)"/><path class="cls-1" d="M300.56,226.66c.66,1.32-.21,1.52-1.2,1.93a47,47,0,0,0-7.88,3.74l-.51.27-.32.18-.22.08-.31.2a35.11,35.11,0,0,0-4.31,2.44l-.26.19-.74.39a.56.56,0,0,0-.55.26c-.86.58-1.54,1.46-2.65,1.64l0-.31.11,0a.17.17,0,0,0,0-.08l-.11.14c-.41,0-.8,0-.8.55h0c-1.38,0-2.18,1.1-3.21,1.73a43.9,43.9,0,0,1-4.78,3c-.43.19-.94.59-1.31.07s.18-.91.5-1.22c3.7-3.54,8.15-5.95,12.58-8.4a128.56,128.56,0,0,1,12.94-5.87A31.17,31.17,0,0,1,300.56,226.66Z" transform="translate(-213.48 -218.37)"/><path class="cls-1" d="M407.44,234.73c-.53-.89-1.72-.84-2.43-1.75a3.17,3.17,0,0,1,2,.62c2,1.18,4,2.5,6.15,3.47a20.86,20.86,0,0,1,3.15,1.73c.5.34,1.11.43,1.38-.38a2.15,2.15,0,0,1,1.68.69c1.59,1.26,3.15,2.56,4.69,3.87.35.3.59.73.2,1.17s-.63.27-1.09-.08A38.79,38.79,0,0,0,419.8,242c-.36-.22-.73-.39-1,.08-.56,0-.81-.81-1.46-.55l-1-.89-.3-.22h0c0-.52-.38-.54-.75-.57Z" transform="translate(-213.48 -218.37)"/><path class="cls-1" d="M277.32,241.18c-.24.91-1.12,1.22-1.72,1.78a87,87,0,0,0-7.42,7.82c-.4,0-.55.22-.46.6l-.34.48h-.79l-.09-.11a11.65,11.65,0,0,1,2.48-3.23,78.54,78.54,0,0,1,6.95-6.7A1.81,1.81,0,0,1,277.32,241.18Z" transform="translate(-213.48 -218.37)"/><path class="cls-1" d="M400.79,229.6c-.31,0-.73.08-.89-.08a8,8,0,0,0-3.28-1.55c-.32-.11-.66-.25-.74-.66a16.86,16.86,0,0,1,4.42,1.56A.85.85,0,0,1,400.79,229.6Z" transform="translate(-213.48 -218.37)"/><path class="cls-1" d="M415,236.56c-1.45-.25-2.8-.65-3.51-2.12A7,7,0,0,1,415,236.56Z" transform="translate(-213.48 -218.37)"/><path class="cls-1" d="M305.17,225.14a6.38,6.38,0,0,1-4.1,1.45A12,12,0,0,1,305.17,225.14Z" transform="translate(-213.48 -218.37)"/><path class="cls-1" d="M408.29,232.8a4.07,4.07,0,0,1-3-1.54A4.88,4.88,0,0,1,408.29,232.8Z" transform="translate(-213.48 -218.37)"/><path class="cls-1" d="M320.18,221.41a1.57,1.57,0,0,1-2.18.47A5.65,5.65,0,0,1,320.18,221.41Z" transform="translate(-213.48 -218.37)"/><path class="cls-1" d="M316.16,222.21a1.72,1.72,0,0,1-2,.66C314.68,222.17,315.47,222.33,316.16,222.21Z" transform="translate(-213.48 -218.37)"/><path class="cls-1" d="M403.75,230.64c-.66,0-1.34,0-1.66-.79A1.41,1.41,0,0,1,403.75,230.64Z" transform="translate(-213.48 -218.37)"/><path class="cls-1" d="M308.62,224.17a1.62,1.62,0,0,1-1.67.57C307.34,224.05,308,224.17,308.62,224.17Z" transform="translate(-213.48 -218.37)"/><path class="cls-1" d="M417.36,238.2c-.47-.12-1.34.28-1.05-.82C416.8,237.47,417.28,237.58,417.36,238.2Z" transform="translate(-213.48 -218.37)"/><path class="cls-1" d="M278.38,240.35a.93.93,0,0,1-1.06.83C277.35,240.48,277.85,240.4,278.38,240.35Z" transform="translate(-213.48 -218.37)"/><path class="cls-1" d="M416.31,237.38c-.53,0-1-.1-1.11-.77C415.79,236.55,416.23,236.7,416.31,237.38Z" transform="translate(-213.48 -218.37)"/><path class="cls-1" d="M410.16,233.88c-.55,0-1-.11-1.13-.73C409.57,233.14,410,233.28,410.16,233.88Z" transform="translate(-213.48 -218.37)"/><path class="cls-1" d="M405,231.25c-.72.51-.69-.12-.81-.53C404.63,230.68,405,230.7,405,231.25Z" transform="translate(-213.48 -218.37)"/><path class="cls-1" d="M306.72,224.79c-.07.64-.34.72-.78.25C306.13,224.72,306.43,224.77,306.72,224.79Z" transform="translate(-213.48 -218.37)"/><path class="cls-1" d="M411.24,234.4c-.42.08-.83.13-.84-.49C410.8,233.87,411.15,233.91,411.24,234.4Z" transform="translate(-213.48 -218.37)"/><path class="cls-1" d="M317.25,222c-.13.3-.26.57-.59.17C316.8,221.89,317,221.89,317.25,222Z" transform="translate(-213.48 -218.37)"/><path class="cls-1" d="M311.62,223.3c-.12.33-.25.6-.59.16A.47.47,0,0,1,311.62,223.3Z" transform="translate(-213.48 -218.37)"/><path class="cls-1" d="M309.73,223.8c-.08.37-.27.53-.65.38A.48.48,0,0,1,309.73,223.8Z" transform="translate(-213.48 -218.37)"/><path class="cls-1" d="M266,252.33a.72.72,0,0,1,.53-.57l.09.11a.55.55,0,0,1-.51.56Z" transform="translate(-213.48 -218.37)"/><path class="cls-1" d="M280.53,238.75c0,.35-.22.54-.6.47A.47.47,0,0,1,280.53,238.75Z" transform="translate(-213.48 -218.37)"/><path class="cls-1" d="M409,233.14a.48.48,0,0,1-.52-.29C408.75,232.83,409,232.85,409,233.14Z" transform="translate(-213.48 -218.37)"/><path class="cls-1" d="M309.44,323.87a68.73,68.73,0,0,1-12.21-5.6,101.62,101.62,0,0,1-13.14-9.35,2,2,0,0,0-1.18-.56.46.46,0,0,0-.53-.53l-.11-.08.12.07c-.1.13-.31.34-.28.39.2.31.54.06.81.14-.73,1-.37,1.7.49,2.44a67.48,67.48,0,0,0,15.08,9.39,95.72,95.72,0,0,0,14.11,5.46,75.2,75.2,0,0,0,8,2.31.7.7,0,0,1,.57.5,43.43,43.43,0,0,1-7.47-1.87,121.14,121.14,0,0,1-15.83-6c-6.61-3.1-13-6.64-18.46-11.55a23.25,23.25,0,0,1-3.83-3.85c0-.18-.08-.26-.26-.26-.77-.32-1.08-1.07-1.54-1.68-.09-.44-.19-.88-.29-1.32l.12-.11a1.71,1.71,0,0,1,.75.71,39.22,39.22,0,0,0,3.91,4.53c.19.19.35.56.73.34a.41.41,0,0,0-.12-.49,8.54,8.54,0,0,1-2.44-4A2.29,2.29,0,0,0,274.8,301a2.17,2.17,0,0,1-1-.86c-1-1.33-2-2.69-3.12-4.24-.11,1.52,1.22,2.19,1.23,3.37-.17-.06-.4-.06-.49-.17a31,31,0,0,1-4.8-10.51,27.57,27.57,0,0,1-.92-5.77c-.35-6.35-.62-12.7,1.19-18.89a44.78,44.78,0,0,1,3.55-9.63A51.69,51.69,0,0,1,277,245a6.89,6.89,0,0,0,1.89-2.51,3.82,3.82,0,0,1,1.13-1l.24-.27a.66.66,0,0,1,.2-.06c.39-.13.82-.23.86-.76a.73.73,0,0,1,.21-.06.24.24,0,0,0,.26-.27c.12-.16.25-.31.37-.46l.24-.24a9.38,9.38,0,0,1,2.38-1.67l1.09-.66c0,.1,0,.2,0,.31-.91,1.42-2.43,2.19-3.65,3.26-4.06,3.58-6.93,8.11-10.15,12.35a2.15,2.15,0,0,0-.49,1.94c.6-.78,1.12-1.37,1.55-2s1-.74,1.59-.19c-1.43,2.52-2.7,5.12-3.92,7.74l-.22,0c-.23.09-.26.29-.27.5l-.07.33c-.59-.08-.9.17-1,.77a2.89,2.89,0,0,1-.49,1.36c-1.61,1.76-1.8,4.06-2.41,6.19s-.21,4.34-.3,6.51a17.2,17.2,0,0,0,1.33,7.78c.28.63-.08,1.17.26,1.72a21.87,21.87,0,0,1,2.38,4.48c.11.3.18.7.59.52s.07-.46,0-.7c-.76-2.67-1.85-5.21-2-8.07a74.38,74.38,0,0,1-.21-10.34c.11.16-.1.59.25.49s.08-.42-.1-.62a1.63,1.63,0,0,1,.22-.73c.4-.88.83-2.14.45-2.73-.67-1,0-1.63.08-2.45.09-.65.57-1.12.5-1.76l1-.07-.39,1.41a39,39,0,0,0-.76,17.92,62.46,62.46,0,0,0,3.1,9.87.92.92,0,0,0-.27,1.37c.34.66.62,1.37,1,2,1.52,2.58,2.9,5.27,5.2,7.29.28.24.53,1,1.09.26a67.34,67.34,0,0,0,6.43,6,90.53,90.53,0,0,0,15.6,9.93c2.43,1.18,4.68,2.74,7.34,3.41ZM279.7,308.09a.36.36,0,0,0,0,.11l.09,0-.12-.13-.26-.23-.09.14Z" transform="translate(-213.48 -218.37)"/><path class="cls-1" d="M278.9,242.49A6.89,6.89,0,0,1,277,245a51.69,51.69,0,0,0-6.55,9.29,44.78,44.78,0,0,0-3.55,9.63c-1.81,6.19-1.54,12.54-1.19,18.89a27.57,27.57,0,0,0,.92,5.77,31,31,0,0,0,4.8,10.51c.09.11.32.11.49.17a.88.88,0,0,0,.09.2l-.14,1.18c-2.21-2.19-3.48-4.94-4.82-7.69a40.65,40.65,0,0,1-2.79-7.56,61.79,61.79,0,0,1-1.16-6.66c-.72-4.84.21-9.56,1.43-14.17A41.48,41.48,0,0,1,269.25,254a55.69,55.69,0,0,1,8.57-10.82C278.13,242.89,278.38,242.48,278.9,242.49Z" transform="translate(-213.48 -218.37)"/><path class="cls-1" d="M274.74,252.66c-.6-.55-1.1-.55-1.59.19s-.95,1.24-1.55,2a2.15,2.15,0,0,1,.49-1.94c3.22-4.24,6.09-8.77,10.15-12.35,1.22-1.07,2.74-1.84,3.65-3.26l.18-.28c.46.23.68-.12.93-.39a.88.88,0,0,1,0,.76,17.33,17.33,0,0,1-2,1.93,23.56,23.56,0,0,0-8,9.53A23.1,23.1,0,0,1,274.74,252.66Z" transform="translate(-213.48 -218.37)"/><path class="cls-1" d="M332.76,330.82c1.23-.56,2.42.13,3.64.12,1.77,0,3.53.33,5.29.44a84.21,84.21,0,0,0,11.12,0,34.86,34.86,0,0,1,5.61-.21c-7.59,1-14.87.65-22.16.17Z" transform="translate(-213.48 -218.37)"/><path class="cls-1" d="M291.88,233.16c3-1.43,5.94-2.86,8.92-4.26.51-.24,1-.69,1.67-.33l-8,4.1c-1.64.82-3,2.06-4.87,2.54l0-.72.54-.28.28-.19.23-.1a.84.84,0,0,0,.82-.51Z" transform="translate(-213.48 -218.37)"/><path class="cls-1" d="M321.2,328.44c2.23,0,4.32.88,6.51,1.14.83.11,1.64.32,2.47.45.33.06.62.1.64.51A51.14,51.14,0,0,1,321.2,328.44Z" transform="translate(-213.48 -218.37)"/><path class="cls-1" d="M271.88,300.64c0-.39.09-.79.14-1.18a5.9,5.9,0,0,1,1.63,2.37l-.12.11-.78,0A2.28,2.28,0,0,1,271.88,300.64Z" transform="translate(-213.48 -218.37)"/><path class="cls-1" d="M287,237.41a.88.88,0,0,0,0-.76c0-.11-.05-.22-.08-.33l1.11-.77a.58.58,0,0,0,.57-.43l.23-.11c.2,0,.42,0,.52.25C288.94,236.37,287.76,236.64,287,237.41Z" transform="translate(-213.48 -218.37)"/><path class="cls-1" d="M266.08,252.43a.55.55,0,0,0,.51-.56h.79a6.78,6.78,0,0,1-1.87,2.68C265.37,253.75,266.25,253.23,266.08,252.43Z" transform="translate(-213.48 -218.37)"/><path class="cls-1" d="M272.75,301.92l.78,0c.1.44.2.88.29,1.32A2.57,2.57,0,0,1,272.75,301.92Z" transform="translate(-213.48 -218.37)"/><path class="cls-1" d="M285.88,237l-1.09.66C284.78,236.84,285.1,236.56,285.88,237Z" transform="translate(-213.48 -218.37)"/><path class="cls-1" d="M286.92,236.32c0,.11.05.22.08.33-.25.27-.47.62-.93.39C286,236.44,286.42,236.31,286.92,236.32Z" transform="translate(-213.48 -218.37)"/><path class="cls-1" d="M289.35,235.26c-.1-.25-.32-.24-.52-.25a.74.74,0,0,1,.8-.52c0,.24,0,.48,0,.72A.64.64,0,0,1,289.35,235.26Z" transform="translate(-213.48 -218.37)"/><path class="cls-1" d="M331.42,330.55a.58.58,0,0,1,.8-.14l-.31.41Z" transform="translate(-213.48 -218.37)"/><path class="cls-1" d="M281.33,240.37c0,.53-.47.63-.86.76C280.54,240.63,280.93,240.5,281.33,240.37Z" transform="translate(-213.48 -218.37)"/><path class="cls-1" d="M280.78,238.23c0-.57.39-.58.8-.55h0l0,.31C281.36,238.16,281.15,238.46,280.78,238.23Z" transform="translate(-213.48 -218.37)"/><path class="cls-1" d="M291.5,233.41a.84.84,0,0,1-.82.51C290.74,233.4,291.11,233.39,291.5,233.41Z" transform="translate(-213.48 -218.37)"/><path class="cls-1" d="M267.72,251.38c-.09-.38.06-.59.46-.6A.51.51,0,0,1,267.72,251.38Z" transform="translate(-213.48 -218.37)"/><path class="cls-1" d="M288.6,235.12a.58.58,0,0,1-.57.43C288,235.17,288.21,235,288.6,235.12Z" transform="translate(-213.48 -218.37)"/><path class="cls-1" d="M284.26,236.34a.56.56,0,0,1,.55-.26A.52.52,0,0,1,284.26,236.34Z" transform="translate(-213.48 -218.37)"/><path class="cls-1" d="M290.12,233.06l.31-.2Z" transform="translate(-213.48 -218.37)"/><path class="cls-1" d="M290.45,234l-.28.19Z" transform="translate(-213.48 -218.37)"/><path class="cls-1" d="M285.55,235.69l.26-.19A.19.19,0,0,1,285.55,235.69Z" transform="translate(-213.48 -218.37)"/><path class="cls-1" d="M275.36,304.94c.18,0,.26.08.26.26Z" transform="translate(-213.48 -218.37)"/><path class="cls-1" d="M290.65,232.78l.32-.18Z" transform="translate(-213.48 -218.37)"/><path class="cls-1" d="M280.27,241.19l-.24.27Z" transform="translate(-213.48 -218.37)"/><path class="cls-1" d="M281.8,240a.24.24,0,0,1-.26.27Z" transform="translate(-213.48 -218.37)"/><path class="cls-1" d="M282.41,239.34l-.24.24Q282.16,239.33,282.41,239.34Z" transform="translate(-213.48 -218.37)"/><path class="cls-1" d="M418.47,245.41c.57,0,.86.45,1.16.82,2.91,3.63,5.84,7.24,7.79,11.53a44.46,44.46,0,0,1,3.63,11.18,39,39,0,0,1-1,17.46,46.35,46.35,0,0,1-8.95,16.88c-1.59,1.91-3.48,3.57-5.24,5.33a.93.93,0,0,1-.84.32l.18-.72a38.81,38.81,0,0,0,8.41-10.77c.42-.09.45-.42.46-.77a1.82,1.82,0,0,0,.22-1.16h0c.47-.07.53-.48.67-.82a1.52,1.52,0,0,0,.76-.85,37.07,37.07,0,0,0,2.78-9.6c.09-.91.75-1.88.07-2.87-.79.77-.51,1.75-.73,2.58-.28,1-1.2,1.87-1.28,2.71-.16,1.86-1.75,2.72-2.36,4.22-.2.5-.31,1.26-1.08,1.42l.11-1.08h0c.29-.06.26-.37.41-.55a32.4,32.4,0,0,0,1.95-6.84c.07-.34,0-.61-.47-.64l0-.27c.46-.31.44-.82.59-1.27.37-1.06.07-2.17.3-3.2.53-2.4-.08-4.76-.1-7.13,0-.26-.19-.24-.37-.16.26-.8-.27-1.46-.38-2.2a36.3,36.3,0,0,0-.58-6.41,3.64,3.64,0,0,1-.55-1.87,15.63,15.63,0,0,1,2.77,3.29c.65,1.41,1,2.93,1.6,4.36a17.86,17.86,0,0,0-.5-4.41,42,42,0,0,0-3.41-9.1,50,50,0,0,0-3.44-5.64A16.49,16.49,0,0,1,418.47,245.41Z" transform="translate(-213.48 -218.37)"/><path class="cls-1" d="M415.23,308.21c-.05.24-.11.48-.17.72L415,309c-.32,0-.29.24-.28.45-.16.12-.32.24-.49.35-.43-.12-.59.08-.57.48l-3.73,2.77c-.6-.17-.82.14-.83.69a98.1,98.1,0,0,1-9,5.21,129.54,129.54,0,0,1-35.89,11.56c-.57.1-1.15.12-1.72.17.79-.84,1.92-.7,2.89-.85a96.6,96.6,0,0,0,14.57-3.5,113.52,113.52,0,0,0,14.74-5.51c3.07-1.47,6.12-3,9.08-4.73a48.61,48.61,0,0,0,7-5.05,2.82,2.82,0,0,0,1-2.43h0c.47-.24.6-.67.82-1.25a2.45,2.45,0,0,0-1.09,1h0c-1.81,1.34-3.66,2.62-5.41,4a67.41,67.41,0,0,1-17.29,10.11,15.21,15.21,0,0,1-3.59,1.34l.34-.78a5.24,5.24,0,0,0,2.12-.72c3-1.5,5.9-3,8.85-4.57.2.31.27,0,.38-.07v0c.72-.14,1.5-.18,1.75-1.09v0c.11-.08.54.22.29-.26A98.74,98.74,0,0,0,410.51,308a25.1,25.1,0,0,1,3.21-2.89,1.14,1.14,0,0,0,.88-.14c.32-.2.62-.62,1-.25s.24.74.23,1.19c0,.89-.66,1.42-.95,2.14l-.11.15.15-.11Z" transform="translate(-213.48 -218.37)"/><path class="cls-1" d="M418.47,245.41a16.49,16.49,0,0,0,2.57,3.78,50,50,0,0,1,3.44,5.64,42,42,0,0,1,3.41,9.1,17.86,17.86,0,0,1,.5,4.41c-.63-1.43-.95-2.95-1.6-4.36a15.63,15.63,0,0,0-2.77-3.29,7.87,7.87,0,0,0-1.54-2.95l-2.75-5.38c2,.3,2.74,2,3.81,3.47.09-.19.17-.26.16-.34,0-.58-.45-.94-.69-1.41-2.92-5.82-7.22-10.51-12-14.79-.29-.25-.72-.86-1.16-.09a63.28,63.28,0,0,0-10.61-7c-2.5-1.31-5-2.54-7.57-3.8,1.48-.15,2.61.78,3.85,1.31a77.13,77.13,0,0,1,10.33,5.54,6.15,6.15,0,0,0,1,.38c2.95,2.13,6.08,4,8.65,6.68a.48.48,0,0,0,.52.52l.55.54c0,.5.29.8.83.77l.27.27c0,.59.06,1.07.82,1Z" transform="translate(-213.48 -218.37)"/><path class="cls-1" d="M418.45,245.4c-.76,0-.86-.45-.82-1A1.19,1.19,0,0,1,418.45,245.4Z" transform="translate(-213.48 -218.37)"/><path class="cls-1" d="M409.1,313.75c0-.55.23-.86.83-.69A.94.94,0,0,1,409.1,313.75Z" transform="translate(-213.48 -218.37)"/><path class="cls-1" d="M417.36,244.09c-.54,0-.79-.27-.83-.77C417.1,243.26,417.18,243.72,417.36,244.09Z" transform="translate(-213.48 -218.37)"/><path class="cls-1" d="M415.24,239.79c.37,0,.75.05.75.57A.72.72,0,0,1,415.24,239.79Z" transform="translate(-213.48 -218.37)"/><path class="cls-1" d="M413.66,310.29c0-.4.14-.6.57-.48A.63.63,0,0,1,413.66,310.29Z" transform="translate(-213.48 -218.37)"/><path class="cls-1" d="M416,242.78a.48.48,0,0,1-.52-.52C415.85,242.21,416,242.39,416,242.78Z" transform="translate(-213.48 -218.37)"/><path class="cls-1" d="M414.72,309.46c0-.21,0-.44.28-.45A.4.4,0,0,1,414.72,309.46Z" transform="translate(-213.48 -218.37)"/><path class="cls-1" d="M416,240.37l.3.22Z" transform="translate(-213.48 -218.37)"/><path class="cls-1" d="M360.06,329.29a111.74,111.74,0,0,0,22.21-4.92,8.62,8.62,0,0,1,1.25-.47c.84-.15.66-.61.4-1.12.15-.1.4.05.47-.21.3.32.61.63,1.12.49h0l-.34.78a76.93,76.93,0,0,1-17,4.74,75.44,75.44,0,0,1-8.07.9A1.09,1.09,0,0,0,360.06,329.29Z" transform="translate(-213.48 -218.37)"/><path class="cls-1" d="M310.85,322.67c-.41.55-.66.87.32,1.25a99.6,99.6,0,0,0,15.94,4.24l0,.5a84.7,84.7,0,0,1-17.63-4.79l-.3-.81h0c.74.23.91-.51,1.35-.78Z" transform="translate(-213.48 -218.37)"/><path class="cls-1" d="M327.07,328.66l0-.5c2.86.37,5.73.77,8.6,1.11a86.11,86.11,0,0,0,17.06.57c-.09.62-.58.46-.94.45-4.7-.08-9.41.14-14.11-.36C334.16,329.55,330.61,329.14,327.07,328.66Z" transform="translate(-213.48 -218.37)"/><path class="cls-1" d="M360.06,329.29a1.09,1.09,0,0,1,0,.18c-2.13.31-4.25.95-6.43.32Z" transform="translate(-213.48 -218.37)"/><path class="cls-1" d="M411.73,308.62l-.27-.26h0l.27.28Z" transform="translate(-213.48 -218.37)"/><path class="cls-1" d="M430.25,297.43c-.21,1.33-1.49,1.88-2.12,2.9-.09-.09-.27-.22-.25-.25C428.47,299,428.93,297.84,430.25,297.43Z" transform="translate(-213.48 -218.37)"/><path class="cls-1" d="M391.64,228.35c2.52,1.26,5.07,2.49,7.57,3.8a63.28,63.28,0,0,1,10.61,7l1.63,1.56a26.37,26.37,0,0,1,5.73,7,20.21,20.21,0,0,0,2.55,4.62l2.75,5.38c-.24.32-.41.19-.6-.07-.58-.78-1.2-1.52-1.72-2.35s-.91-1.92-1.93-2.42l0,0c0-.4-.08-.7-.53-.77l-.28-.36v-.12l-.11-.05-.69-.89v-.12l-.11-.06-.22-.22v0l-.49-.67q.06-.21-.15-.21a72.6,72.6,0,0,0-5.27-5.68A79.36,79.36,0,0,0,387,229.23,99.32,99.32,0,0,0,356.42,222a50.15,50.15,0,0,0-8.66-.39c-.23,0-.39.11-.11.32l.06,1.53H347l.1-1c.17-.33.37-.67-.16-.88a9.53,9.53,0,0,0-1.19-.09A115.62,115.62,0,0,0,320.32,225c-13.31,3.51-25.46,9.31-35.84,18.53a.39.39,0,0,0-.45.38l-.69.66a.37.37,0,0,0-.38.4l-3.31,3.64a.89.89,0,0,0-.72.88l-.35.47a.5.5,0,0,0-.46.6l-.35.47a.24.24,0,0,0-.21.3h0c-.45.06-.56.37-.57.76l0,0a3.69,3.69,0,0,0-1.59,2.38l0,0a.61.61,0,0,0-.52.35c-1.09,1.65-2.15,3.32-3.28,4.94-.15.22,0,1-.74.6,1.22-2.62,2.49-5.22,3.92-7.74a23.1,23.1,0,0,0,2.33-3.79,23.56,23.56,0,0,1,8-9.53,17.33,17.33,0,0,0,2-1.93c.72-.77,1.9-1,2.31-2.15a.64.64,0,0,0,.24,0c1.82-.48,3.23-1.72,4.87-2.54l8-4.1.79-.3a1.47,1.47,0,0,0,1.1-.42l1-.43a1.45,1.45,0,0,0,1.09-.46c3.63-1.17,7.26-2.38,11-3.25l.41-.09c9.83-2.28,19.83-2.75,29.87-2.74,10.67,0,21.27.66,31.65,3.39a112,112,0,0,1,10.91,3.55c.12.24.32.25.55.21Z" transform="translate(-213.48 -218.37)"/><path class="cls-1" d="M402.67,231.72a3.19,3.19,0,0,1,2.26,1.18,7.15,7.15,0,0,1-2.35-1.07Z" transform="translate(-213.48 -218.37)"/><path class="cls-1" d="M304.36,227.85a1.47,1.47,0,0,1-1.1.42C303.49,227.79,303.73,227.29,304.36,227.85Z" transform="translate(-213.48 -218.37)"/><path class="cls-1" d="M306.48,227a1.45,1.45,0,0,1-1.09.46C305.63,227,305.89,226.56,306.48,227Z" transform="translate(-213.48 -218.37)"/><path class="cls-1" d="M400.43,230.76c-.33-.08-.72,0-.89-.47.48-.3.73.07,1,.33Z" transform="translate(-213.48 -218.37)"/><path class="cls-1" d="M390.84,228c-.23,0-.43,0-.55-.21C390.68,227.36,390.76,227.69,390.84,228Z" transform="translate(-213.48 -218.37)"/><path class="cls-1" d="M305.13,226.21l.1,0-.14.1-.06-.08Z" transform="translate(-213.48 -218.37)"/><path class="cls-1" d="M398.25,229.72s.08,0,.11,0,.14.09,0,.15a.18.18,0,0,1-.12,0S398.26,229.75,398.25,229.72Z" transform="translate(-213.48 -218.37)"/><path class="cls-1" d="M400.55,230.62l.53.28L401,231l-.54-.27Z" transform="translate(-213.48 -218.37)"/><path class="cls-1" d="M401.08,230.9c.11.07.41,0,.3.24s-.29,0-.41-.11Z" transform="translate(-213.48 -218.37)"/><path class="cls-1" d="M402.58,231.83l-.53-.29.08-.07a.6.6,0,0,1,.54.25Z" transform="translate(-213.48 -218.37)"/><path class="cls-1" d="M317.86,223.62l-.41.09A.3.3,0,0,1,317.86,223.62Z" transform="translate(-213.48 -218.37)"/><polygon class="cls-1" points="185.52 11.72 185.49 11.64 185.57 11.65 185.52 11.72"/><path class="cls-1" d="M402.05,231.54l-.11-.17.19.1Z" transform="translate(-213.48 -218.37)"/><path class="cls-1" d="M281.58,237.68l.11-.14a.17.17,0,0,1,0,.08l-.11,0Z" transform="translate(-213.48 -218.37)"/><path class="cls-1" d="M269.77,263.68c.07.64-.41,1.11-.5,1.76-.1.82-.75,1.41-.08,2.45.38.59-.05,1.85-.45,2.73a1.63,1.63,0,0,0-.22.73l-.15.13a74.38,74.38,0,0,0,.21,10.34c.17,2.86,1.26,5.4,2,8.07.07.24.33.56,0,.7s-.48-.22-.59-.52a21.87,21.87,0,0,0-2.38-4.48c-.34-.55,0-1.09-.26-1.72a17.2,17.2,0,0,1-1.33-7.78c.09-2.17-.31-4.39.3-6.51s.8-4.43,2.41-6.19a2.89,2.89,0,0,0,.49-1.36c.12-.6.43-.85,1-.77A8.68,8.68,0,0,0,269.77,263.68Z" transform="translate(-213.48 -218.37)"/><path class="cls-1" d="M273.65,301.83a5.9,5.9,0,0,0-1.63-2.37.88.88,0,0,1-.09-.2c0-1.18-1.34-1.85-1.23-3.37,1.14,1.55,2.11,2.91,3.12,4.24a2.17,2.17,0,0,0,1,.86,2.29,2.29,0,0,1,1.68,1.89,8.54,8.54,0,0,0,2.44,4,.41.41,0,0,1,.12.49c-.38.22-.54-.15-.73-.34a39.22,39.22,0,0,1-3.91-4.53A1.71,1.71,0,0,0,273.65,301.83Z" transform="translate(-213.48 -218.37)"/><path class="cls-1" d="M272.75,292.81a49.08,49.08,0,0,0,7,10.93c-.56.75-.81,0-1.09-.26-2.3-2-3.68-4.71-5.2-7.29-.38-.64-.66-1.35-1-2A.92.92,0,0,1,272.75,292.81Z" transform="translate(-213.48 -218.37)"/><path class="cls-1" d="M269.77,263.68a8.68,8.68,0,0,1,.49-2.42l.07-.33.27-.5.22,0c.7.4.59-.38.74-.6,1.13-1.62,2.19-3.29,3.28-4.94a.61.61,0,0,1,.52-.35c-1,2.21-2.52,4.17-3.44,6.44-.23.28-.46.56,0,.87,1.5.45,3.05.06,4.58.23-.36.47-.87.32-1.35.32l-2.65-.06c-.12,0-.26,0-.1.16a.89.89,0,0,0,.38.11v.49a5.29,5.29,0,0,0-2-.11l-.3.13.05.08.24-.22c.31.19.12.43.07.66Z" transform="translate(-213.48 -218.37)"/><path class="cls-1" d="M282.92,308.35c-.27-.08-.61.17-.81-.14,0,0,.18-.26.28-.39h0a.46.46,0,0,1,.53.53Z" transform="translate(-213.48 -218.37)"/><path class="cls-1" d="M268.52,271.35c.18.2.31.56.1.62s-.14-.33-.25-.49Z" transform="translate(-213.48 -218.37)"/><path class="cls-1" d="M279.7,308.09l-.34-.09.09-.14.26.23Z" transform="translate(-213.48 -218.37)"/><path class="cls-1" d="M270.6,260.43l-.27.5C270.34,260.72,270.37,260.52,270.6,260.43Z" transform="translate(-213.48 -218.37)"/><path class="cls-1" d="M282.39,307.82l-.12-.07.11.08Z" transform="translate(-213.48 -218.37)"/><path class="cls-1" d="M279.71,308.09l.12.13-.09,0a.36.36,0,0,1,0-.11Z" transform="translate(-213.48 -218.37)"/><path class="cls-1" d="M413.72,305.13a49.9,49.9,0,0,0,6.93-9.88c.8-1.58,1.52-3.19,2.28-4.79,0,.29,0,.6.33.77,0,.36-.07.72-.11,1.08-1.37,2.17-2.15,4.64-3.53,6.84,1.18-.94,3-.75,3.68-2.39.2-.49.27-1.19,1-1.25a1.82,1.82,0,0,1-.22,1.16c-.49.06-.62.33-.46.77a38.81,38.81,0,0,1-8.41,10.77l-.28-.1,0,0c.29-.72.92-1.25.95-2.14,0-.45.14-.87-.23-1.19s-.72.05-1,.25A1.14,1.14,0,0,1,413.72,305.13Z" transform="translate(-213.48 -218.37)"/><path class="cls-1" d="M424.33,295.51c-.76.06-.83.76-1,1.25-.67,1.64-2.5,1.45-3.68,2.39,1.38-2.2,2.16-4.67,3.53-6.84.77-.16.88-.92,1.08-1.42.61-1.5,2.2-2.36,2.36-4.22.08-.84,1-1.68,1.28-2.71.22-.83-.06-1.81.73-2.58.68,1,0,2-.07,2.87a37.07,37.07,0,0,1-2.78,9.6,1.52,1.52,0,0,1-.76.85c-.59,0-.72.32-.67.82Z" transform="translate(-213.48 -218.37)"/><path class="cls-1" d="M418.23,252.9c1,.5,1.37,1.56,1.93,2.42s1.14,1.57,1.72,2.35c.19.26.36.39.6.07a7.87,7.87,0,0,1,1.54,2.95,3.64,3.64,0,0,0,.55,1.87l-.71,0c-.55-.52-1.15.24-1.71-.06a2.57,2.57,0,0,0-1.9-.2c-1,.08-1.92.37-2.81-.26,1.51,0,3-.06,4.54-.07.84,0,1.16-.32.75-1.13s-.78-1.6-1.22-2.37C420.43,256.63,419.32,254.77,418.23,252.9Z" transform="translate(-213.48 -218.37)"/><path class="cls-1" d="M423.26,291.23c-.3-.17-.3-.48-.33-.77q1.11-3.63,2.21-7.26c.43,0,.54.3.47.64a32.4,32.4,0,0,1-1.95,6.84.48.48,0,0,0-.41.55Z" transform="translate(-213.48 -218.37)"/><path class="cls-1" d="M425.11,282.93a52.08,52.08,0,0,0,.52-10.44c0-.44-.07-.88-.1-1.32.18-.08.37-.1.37.16,0,2.37.63,4.73.1,7.13-.23,1,.07,2.14-.3,3.2C425.55,282.11,425.57,282.62,425.11,282.93Z" transform="translate(-213.48 -218.37)"/><path class="cls-1" d="M423.86,262.6l.71,0a36.3,36.3,0,0,1,.58,6.41,28.63,28.63,0,0,0-1.67-6.09Z" transform="translate(-213.48 -218.37)"/><path class="cls-1" d="M424.32,295.52c-.05-.5.08-.85.67-.82C424.85,295,424.79,295.45,424.32,295.52Z" transform="translate(-213.48 -218.37)"/><path class="cls-1" d="M423.65,297.44c-.16-.44,0-.71.46-.77C424.1,297,424.07,297.35,423.65,297.44Z" transform="translate(-213.48 -218.37)"/><path class="cls-1" d="M423.25,291.23a.48.48,0,0,1,.41-.55C423.51,290.86,423.54,291.17,423.25,291.23Z" transform="translate(-213.48 -218.37)"/><path class="cls-1" d="M396.85,317.72a4,4,0,0,1,1.75-1.09C398.35,317.54,397.57,317.58,396.85,317.72Z" transform="translate(-213.48 -218.37)"/><path class="cls-1" d="M411.73,308.63l-.27-.28a2.45,2.45,0,0,1,1.09-1C412.33,308,412.2,308.39,411.73,308.63Z" transform="translate(-213.48 -218.37)"/><path class="cls-1" d="M398.59,316.65l.29-.26C399.13,316.87,398.7,316.57,398.59,316.65Z" transform="translate(-213.48 -218.37)"/><path class="cls-1" d="M396.48,317.76l.38-.08C396.75,317.77,396.68,318.07,396.48,317.76Z" transform="translate(-213.48 -218.37)"/><path class="cls-1" d="M415,308.11l-.15.11.11-.15Z" transform="translate(-213.48 -218.37)"/><path class="cls-1" d="M419.73,252.36a20.21,20.21,0,0,1-2.55-4.62,26.37,26.37,0,0,0-5.73-7l-1.63-1.56c.44-.77.87-.16,1.16.09,4.81,4.28,9.11,9,12,14.79.24.47.68.83.69,1.41,0,.08-.07.15-.16.34C422.47,254.4,421.73,252.66,419.73,252.36Z" transform="translate(-213.48 -218.37)"/><path class="cls-1" d="M310.85,322.67l-.36-.39,2.11-3a.37.37,0,0,0,.1-.22h0a2.14,2.14,0,0,0,.84-1.06l0,0a.86.86,0,0,0,.55-.81h0c.33-.17.63-.35.56-.8h0c.11,0,.27-.05.33-.13q4.9-6.65,9.79-13.31l.34-.5,0,0a2.16,2.16,0,0,0,.87-1.35l0,0a1.25,1.25,0,0,0,.82-1.11v0c.34,0,.41-.3.56-.49,1.89-2.53,3.8-5.05,5.68-7.59q6.81-9.17,13.59-18.36c.58-.79,1-1,1.68,0,4,5.47,8,10.92,12.08,16.33,1.76,2.33,3.36,4.79,5.35,6.94l0-.07c-.09.28,0,.4.3.3l-.09,0,0,.08a42.21,42.21,0,0,0,3.61,5c0,.16,0,.26.22.27a.7.7,0,0,0,.57.51,8.72,8.72,0,0,0,1.88,2.91c2.74,3.7,5.53,7.36,8.29,11h0c0,.17.08.29.28.27h0a.9.9,0,0,0,.54.81l0,0c.11.25.13.6.55.55v0c-.16.32.07.43.29.55h0c0,.16.07.31.28.28h0a.91.91,0,0,0,.55.81l0,0,.3.56.21.25.32.28v0a1.07,1.07,0,0,0,.54.83v0l.29.42a.09.09,0,0,0,0,.14c-.07.26-.32.11-.47.21-.31-.06-.4-.34-.54-.56a.76.76,0,0,0-.79-.78l-1.1-1.07c0-.18-.07-.26-.24-.27l-.28-.29a.75.75,0,0,0-.76-.79q-8.73-9.22-17.45-18.44c-4.74-5-9.53-10-14.23-15.05-.95-1-1.52-.94-2.42,0-5.26,5.62-10.58,11.2-15.87,16.8Q321,312.16,311.69,322a2.16,2.16,0,0,1-.43.29c-.28,0-.45.08-.37.4Z" transform="translate(-213.48 -218.37)"/><path class="cls-1" d="M380.21,319a.75.75,0,0,1,.76.79C380.55,319.71,380.38,319.37,380.21,319Z" transform="translate(-213.48 -218.37)"/><path class="cls-1" d="M382.59,321.44a.76.76,0,0,1,.79.78A1,1,0,0,1,382.59,321.44Z" transform="translate(-213.48 -218.37)"/><path class="cls-1" d="M310.89,322.64c-.08-.32.09-.41.37-.4C311.28,322.51,311.1,322.59,310.89,322.64Z" transform="translate(-213.48 -218.37)"/><path class="cls-1" d="M381.25,320.1c.17,0,.26.09.24.27Q381.22,320.37,381.25,320.1Z" transform="translate(-213.48 -218.37)"/><path class="cls-1" d="M383.28,321l-.21-.25c0-.23,0-.5-.3-.56l0,0a.66.66,0,0,0-.55-.81h0c0-.18-.09-.28-.28-.28h0c.06-.27,0-.48-.29-.55v0c0-.39-.09-.65-.55-.55l0,0a.62.62,0,0,0-.54-.81h0c0-.18-.09-.29-.28-.27h0c.28-.33-.33-.8.12-1.06.82-.47.15-1.36.06-1.4-.81-.34-.42-.93-.4-1.44,1.2,1.34,1.72,3.06,2.61,4.58a43.32,43.32,0,0,1,2.75,5.44c-.51.14-.82-.17-1.12-.49a.09.09,0,0,1,0-.14l-.29-.42v0a.71.71,0,0,0-.54-.83v0Z" transform="translate(-213.48 -218.37)"/><path class="cls-1" d="M312.6,319.32l-2.11,3c-.44.27-.61,1-1.35.78a53,53,0,0,1,4-7.6c.3,1.59.87.36,1.33.13l0,0,0,.81h0c-.49.06-.61.37-.56.8h0a.64.64,0,0,0-.55.81l0,0c-.73,0-.8.51-.84,1.06h0l-.24,0Z" transform="translate(-213.48 -218.37)"/><path class="cls-1" d="M346.08,227.21a7.78,7.78,0,0,1,.88-3.75h.75c.86,1.76,1,3.72,1.37,5.6.06.3.11.6.17.91-.41-.15-.37-.53-.49-.86a10.53,10.53,0,0,0-1.12-3,3.48,3.48,0,0,0-.05,2.11c.08.35.24.69,0,1a.38.38,0,0,1-.36,0c-.44-.26-.1-.62-.09-.94,0-1,0-2,0-2.92C346.53,225.91,347.1,227,346.08,227.21Z" transform="translate(-213.48 -218.37)"/><path class="cls-1" d="M277,252.1a6.6,6.6,0,0,1-1.59,2.38A3.69,3.69,0,0,1,277,252.1Z" transform="translate(-213.48 -218.37)"/><path class="cls-1" d="M279.65,248.61a1.11,1.11,0,0,1-.72.88A.89.89,0,0,1,279.65,248.61Z" transform="translate(-213.48 -218.37)"/><path class="cls-1" d="M277.56,251.32a.86.86,0,0,1-.57.76C277,251.69,277.11,251.38,277.56,251.32Z" transform="translate(-213.48 -218.37)"/><path class="cls-1" d="M418.21,252.86a.73.73,0,0,1-.53-.77C418.13,252.16,418.24,252.46,418.21,252.86Z" transform="translate(-213.48 -218.37)"/><path class="cls-1" d="M278.58,250a.62.62,0,0,1-.46.6A.5.5,0,0,1,278.58,250Z" transform="translate(-213.48 -218.37)"/><path class="cls-1" d="M347.06,222.49a1.35,1.35,0,0,1-.16-.88C347.43,221.82,347.23,222.16,347.06,222.49Z" transform="translate(-213.48 -218.37)"/><path class="cls-1" d="M284.48,243.53a.47.47,0,0,1-.45.38A.39.39,0,0,1,284.48,243.53Z" transform="translate(-213.48 -218.37)"/><path class="cls-1" d="M283.34,244.57a.38.38,0,0,1-.38.4A.37.37,0,0,1,283.34,244.57Z" transform="translate(-213.48 -218.37)"/><path class="cls-1" d="M277.77,251c0,.18,0,.27-.21.3A.24.24,0,0,1,277.77,251Z" transform="translate(-213.48 -218.37)"/><path class="cls-1" d="M416.59,250.67c-.13,0-.18,0-.1-.18l.11.06Z" transform="translate(-213.48 -218.37)"/><polygon class="cls-1" points="202.79 31.9 202.76 31.95 202.8 31.92 202.79 31.9"/><path class="cls-1" d="M415.79,249.62c-.15,0-.21-.06-.15-.21Q415.85,249.41,415.79,249.62Z" transform="translate(-213.48 -218.37)"/><path class="cls-1" d="M417.4,251.73c-.15,0-.21,0-.12-.17l.11.05Z" transform="translate(-213.48 -218.37)"/><path class="cls-1" d="M347.76,221.62c0,.11-.08.22-.11.32C347.37,221.73,347.53,221.66,347.76,221.62Z" transform="translate(-213.48 -218.37)"/><path class="cls-1" d="M314.55,316.42l0-.81a.58.58,0,0,0,.36-.45l.24-.31a9.4,9.4,0,0,0,1.52-2.5c1.09-2,1.55-4.28,2.5-6.36a30.05,30.05,0,0,0,1.95-3.94l.27-.54c.1-.13.19-.28,0-.4,0,0-.16.12-.25.2l-.3.51a25.4,25.4,0,0,0-2,3.88q-1.29,2.76-2.59,5.52c-.7,1-.75,2.34-1.32,3.44-.05.11-.11.23-.16.35l-.26.58c-.46.23-1,1.46-1.33-.13a67.16,67.16,0,0,1,4-8c2.26-4.43,4.62-8.81,6.93-13.21a18.66,18.66,0,0,1,2.1-3.62c.85.57-.58,1.13,0,1.7.25-.05.33-.25.44-.45,1.07-2.07,2.28-4.09,3.19-6.24.66-1.53,1.78-2.84,2.14-4.5.21-.06.54-.05.59-.17a23.21,23.21,0,0,1,2.9-4.35c.63-.87,0-.92-.6-1,.27-.45.77-.35,1.16-.47,3.19-1,6.48-1.59,9.62-2.73.72.86-.24,1.28-.57,1.75-2.1,3-4.28,5.94-6.43,8.91-2.95,4.07-5.88,8.15-8.83,12.22a9.85,9.85,0,0,1-1.88,2.33,2.7,2.7,0,0,0-1.26,2.45v0a1.07,1.07,0,0,0-.82,1.11l0,0a1.21,1.21,0,0,0-.87,1.35l0,0c-.23.09-.55.12-.34.5q-4.89,6.66-9.79,13.31C314.82,316.37,314.66,316.38,314.55,316.42Zm9.62-20.37a.31.31,0,0,0,.22-.39s-.07-.09-.09-.09c-.19.06-.22.22-.21.4l-.12.26Zm-2.37,4.6c.15-.16.37-.4.15-.54s-.25.21-.35.36-.19.27,0,.4Zm1.78-3.85a1.5,1.5,0,0,0-.6,1.35,1.87,1.87,0,0,0,.7-1.25l.11-.28Zm-.72,1.48a2.16,2.16,0,0,0-.82,1.62A1.94,1.94,0,0,0,322.86,298.28Z" transform="translate(-213.48 -218.37)"/><path class="cls-1" d="M345.61,272.46c-3.14,1.15-6.43,1.78-9.62,2.74-.39.12-.89,0-1.16.47h0a.22.22,0,0,0-.35,0l-.47.06-.52,0c-3.93-1.19-8-1.83-12-2.65q-23.34-4.82-46.7-9.58l-2.07-.39v-.49a33.53,33.53,0,0,0,4,.57c2.49.13,5,.47,7.45.73l.78.07a6.32,6.32,0,0,0,2.53.54q10.58,1.42,21.14,2.8c3.83.5,7.66,1,11.49,1.43.48.09,1,.19,1.45.25,6.94.91,13.88,1.79,20.81,2.76C343.49,271.88,344.67,271.73,345.61,272.46Zm-48.23-5.87c-.5-.48-1-.21-1.57,0h1.58c.49.47,1,.19,1.55,0Zm10.18,1.2,0,.34c6,.95,11.93,1.92,18,2.29Zm-3.69-.54a12.33,12.33,0,0,0-4.37-.26A11.5,11.5,0,0,0,303.87,267.25Zm-12.95-1.58a1.23,1.23,0,0,0-1.08,0C290.17,265.87,290.53,265.75,290.92,265.67Zm.83.16c.62.25,1,.35,1.45.11C292.84,265.65,292.45,265.8,291.75,265.83Zm3.31.38a1.37,1.37,0,0,0-1.26,0A1.72,1.72,0,0,0,295.06,266.21Zm10.15,1.33a.88.88,0,0,0-1,0A.9.9,0,0,0,305.21,267.54Zm1.82.34c-.54-.26-.82-.33-1.18,0Z" transform="translate(-213.48 -218.37)"/><path class="cls-1" d="M331.94,281.18c-.36,1.66-1.48,3-2.14,4.5-.91,2.15-2.12,4.17-3.19,6.24-.11.2-.19.4-.44.45-.58-.57.85-1.13,0-1.7,1.51-3.41,3.4-6.63,5.12-9.93a29.34,29.34,0,0,1,2.27-4.2,4,4,0,0,1-.34,1.52C332.87,279.13,332.12,280,331.94,281.18Z" transform="translate(-213.48 -218.37)"/><path class="cls-1" d="M331.94,281.18c.18-1.14.93-2.05,1.28-3.12a4,4,0,0,0,.34-1.52l.13-.28.36-.54.47-.06c.11.07.22.36.35,0h0c.64.07,1.23.12.6,1a23.21,23.21,0,0,0-2.9,4.35C332.48,281.13,332.15,281.12,331.94,281.18Z" transform="translate(-213.48 -218.37)"/><path class="cls-1" d="M334.05,275.72l-.36.54c-.05-.19-.11-.38-.16-.57Z" transform="translate(-213.48 -218.37)"/><path class="cls-1" d="M270.73,263l-.24.22-.05-.08.3-.13Z" transform="translate(-213.48 -218.37)"/><path class="cls-1" d="M320.16,268.72c-3.83-.47-7.66-.93-11.49-1.43q-10.57-1.38-21.14-2.8A6.32,6.32,0,0,1,285,264c.15-.31.37-.22.65-.2,2.57.2,5.14.72,7.72.34a120.29,120.29,0,0,1,18-1.23c3.84,0,7.67-.05,11.5-.07h15.83v-.23H322.81a7.39,7.39,0,0,0-.92-.1c-5.21-.06-10.42-.12-15.63-.15a54.76,54.76,0,0,0-6.53.09c-3.53,0-7.06,0-10.59.27-1.61-.35-3.12.32-4.68.44-.68.05-.23.49-.24.77-2.48-.26-5-.6-7.45-.73a33.53,33.53,0,0,1-4-.57.89.89,0,0,1-.38-.11c-.16-.14,0-.16.1-.16l2.65.06c.48,0,1,.15,1.35-.32,2.49,0,5,0,7.49,0,17.77-.4,35.54-.17,53.32-.24,1.14,0,1.79-.17,1.93-1.51a42.43,42.43,0,0,1,1-4.69c.12-.57.32-.85.79-.23-.49,2.3-.47,4.73-1.76,6.85-.23.36.32.22.46.37h0a.65.65,0,0,0,.28.56v0a.8.8,0,0,0,.82.82v0a.56.56,0,0,0,.28.56l0,0a2.25,2.25,0,0,1,.81,1.08,1.7,1.7,0,0,0,1,1.19c-.22-.79-.22-.79-1-1.18a.59.59,0,0,0-.27-.54v-.28c1.08-.11,1.62.71,2.23,1.35.26.26.4.54.86.35s.66-.37.65-.86a40.21,40.21,0,0,1,.45-5.14c.46-4.76.51-9.55.93-14.32.24-2.78.13-5.58.39-8.37a7.91,7.91,0,0,0-.13-3.77c-.15-.89.24-1.84-.17-2.78-2.63,6.16-3.42,12.68-4.71,19.08-.24,1-.49,2-.74,3-.21.14-.54.44-.61.38-.45-.34.13-.57.16-.88.67-5.44,2.11-10.74,3.12-16.13a88.59,88.59,0,0,1,1.86-8.82.44.44,0,0,0,.25-.53h0c1-.22.45-1.3,1-1.78,0,1,0,1.94,0,2.92,0,.32-.35.68.09.94a.38.38,0,0,0,.36,0c.28-.32.12-.66,0-1a3.48,3.48,0,0,1,.05-2.11,10.53,10.53,0,0,1,1.12,3c.12.33.08.71.49.86.56,2.54,1.15,5.07,1.66,7.62.88,4.37,1.71,8.74,2.56,13.12l.9,4.67a6.26,6.26,0,0,0,.72,3.7c.86,2.66.86,2.66,3.77,2.67,14.19,0,28.37-.07,42.55.09,5.34.06,10.69.06,16,.23.89.63,1.85.34,2.81.26a2.57,2.57,0,0,1,1.9.2l-6.39.77c-.24-.87-1-.55-1.43-.45a27.43,27.43,0,0,1-3.94.25c-.44-.06-.88-.11-1.31-.19a26.87,26.87,0,0,0-6.7-.37l-8.8-.14c-.53,0-1.06-.11-1.58-.11-5.05,0-10.09,0-15.13,0-3.74,0-7.49,0-11.23.26l-9.89,0c.06-.23-.07-.27-.26-.27-.06-.35-.31-.31-.56-.26h0q-.66-3.07-1.31-6.15c-.12-.32-.65-.37-.54-.84,1.37,0,.3-.77.26-1.07a34,34,0,0,0-1.5-7.53c-1-5.26-1.83-10.56-4.21-15.78-.38,1.22.32,2.1.06,3-.46.61-.24,1.3-.19,1.94.45,5.48.45,11,.95,16.49.22,2.39.37,4.83.73,7.19.3,2,.88,3.85.44,5.88a1.87,1.87,0,0,0,.23,1.62c1.92-1.17,3.28-3,5.08-4.22l.58,0,.25,0c.31.49.81.25,1.21.25,2.88,0,5.77,0,8.65,0,.45,0,.89.07,1.33.07,5.94,0,11.87,0,17.8,0,2.85,0,5.7.13,8.55.32,4.79.33,9.53,1.57,14.37.67.47,0,1,.2,1.37-.2l1.3-.07c.36.11.8-.1,1.09.27l-19.59,2.61c-4.36.58-8.72,1.12-13.09,1.68-.46-.22-.89-1-1.34-.65-1.22.86-2.66.59-4,.87-3.06.65-6.22.85-9.34,1.25-4.49.58-9,1.18-13.46,1.77-.43-.7-1.57.33-1.83-.77.08-.09.16-.19.25-.28s.24-.07.07-.21a1.74,1.74,0,0,1-.11.18l-.27.25-.8.31h0c0-.32,0-.65-.29-.86-.42-6.83-.21-13.68-.4-20.52-.09,5.08-.08,10.16-.1,15.24a2.73,2.73,0,0,1-.16,1.57c-.62.34-.32.93-.37,1.42a11.42,11.42,0,0,1-.23,3.14c-.4-.49-.63-.94-1.12-1.09-.05-.19-.06-.42-.34-.41,0,0-.08.06-.09.09,0,.27.2.31.41.34.32.85.39,1.53-.88,1.36-.13,0-.28.14-.43.22-5.1-.67-10.19-1.41-15.32-1.83-2.14-.18-4.18-.88-6.35-.95C321.58,268.58,320.87,268.1,320.16,268.72Zm29.44.82.1-.05s0-.05,0-.08l-.12.12-.1.05s0,.05,0,.08Zm17.62-1a2.27,2.27,0,0,0,2.06-.3C368.36,268.27,367.77,268.09,367.22,268.53Zm-1.08.19.19-.31c-.1-.05-.21-.14-.31-.13s-.14.15-.21.23Zm-21.51.13c0-.07-.07-.16-.13-.2s-.12,0-.19.06.05.16.11.19S344.55,268.87,344.63,268.85Zm-61.37-5.67-.21.1s.06.08.09.07a.9.9,0,0,0,.21-.08Z" transform="translate(-213.48 -218.37)"/><path class="cls-1" d="M271.92,261l0,.87C271.46,261.51,271.69,261.23,271.92,261Z" transform="translate(-213.48 -218.37)"/><path class="cls-1" d="M380.15,313c0,.51-.41,1.1.4,1.44.09,0,.76.93-.06,1.4-.45.26.16.73-.12,1.06-2.76-3.68-5.55-7.34-8.29-11A8.72,8.72,0,0,1,370.2,303c-.07-.31-.19-.55-.57-.51-.17,0-.23-.11-.22-.27a1.92,1.92,0,0,0-.59-1.8,8.59,8.59,0,0,1-1.88-2.36c-.29-.45-.41-1-1.14-.83l0-.08.09,0-.3-.3,0,.07a1.68,1.68,0,0,0-.31-1.23c-.55-1-1.58-1.63-2.21-2.61-1.25-1.92-2.66-3.73-4-5.59-2.15-3-4.25-6.12-6.48-9.09-.33-.44.06-1-.52-1.29-1.76-1-2.49-2.76-3.37-4.41-.22-.42,0-.57.44-.47.24.6.85.59,1.33.73,3.17.92,6.35,1.81,9.52,2.7-1.06,0-1.46.18-.65,1.23,1.09,1.43,2.06,3,3.09,4.44.54,1.25,1.61,2.23,2.08,3.46a38.38,38.38,0,0,0,2.28,4.64c1.69,3,3,6.15,4.88,9,.09.21.12.47.41.54h0c0,.24,0,.46.27.54h0a1.28,1.28,0,0,0,.54,1.07h0c0,.16,0,.34.27.27h0c-.11.28-.1.5.27.54h0c-.12.28-.08.49.26.54h0c-.1.27-.09.49.26.53h0c-.08.26-.1.49.26.52v0c-.12.27-.1.48.26.52h0a4.87,4.87,0,0,0,1,2.45c1.21,2.73,1.75,5.77,3.89,8.46l-.79-3.28.49-.16h0l.28.56,0,0,.34.29A1.13,1.13,0,0,1,380.15,313Zm-.59,1.92.21-.1c0-.06-.07-.12-.11-.17s-.09,0-.1.06A.5.5,0,0,0,379.56,315Z" transform="translate(-213.48 -218.37)"/><path class="cls-1" d="M360,275.67c-3.17-.89-6.35-1.78-9.52-2.7-.48-.14-1.09-.13-1.33-.73.56-.11,1.13-.24,1.7-.32l27.91-3.76c4.37-.56,8.73-1.1,13.09-1.68l19.59-2.61,4.32-.56,6.39-.77c.56.3,1.16-.46,1.71.06l-.38.28a58.68,58.68,0,0,0-7.44,1.38q-20.21,4.07-40.38,8.24c-4.67,1-9.33,2-14,2.95a.42.42,0,0,0-.57.21H360Zm39.14-9.35c-.7.17-1.47-.17-2.14.27a11.22,11.22,0,0,0-3.21.46,9.66,9.66,0,0,0,3.2-.47c.71-.14,1.47.17,2.14-.27l1.53-.09C400.14,266.14,399.61,266,399.14,266.32Zm-15.59,2.06-14.33,2.08A88.89,88.89,0,0,0,383.55,268.38Zm5.42-.6c-1.58-.19-3.06.36-4.58.58A21.35,21.35,0,0,0,389,267.78Zm4.35-.55a11.81,11.81,0,0,0-3.5.31A10.64,10.64,0,0,0,393.32,267.23Z" transform="translate(-213.48 -218.37)"/><path class="cls-1" d="M371.68,298.45c-1.88-2.86-3.19-6-4.88-9a38.38,38.38,0,0,1-2.28-4.64c-.47-1.23-1.54-2.21-2.08-3.46.61-.54,0-.93-.17-1.37-.29-.89-1-1.64-.81-2.69,1.3,2,2.29,4.2,3.41,6.31q6.54,12.39,13,24.78a2.86,2.86,0,0,1,.61,1.59h0l-.38.1,0-.07h.07l-.27-.43c-1.16-1-1.35-2.61-2.15-3.84-.39-.76-.52-1.66-1.32-2.17h0c.09-.26.08-.48-.26-.52v0c.08-.25.07-.46-.26-.52h0c.05-.25.05-.47-.26-.53h0c0-.25.05-.47-.26-.54h0a.43.43,0,0,0-.27-.54h0c0-.17,0-.3-.27-.27h0c.06-.48,0-.9-.54-1.07h0c0-.25,0-.47-.27-.54h0C372.11,298.7,372,298.46,371.68,298.45Z" transform="translate(-213.48 -218.37)"/><path class="cls-1" d="M361.46,277.28c-.23,1.05.52,1.8.81,2.69.14.44.78.83.17,1.37-1-1.48-2-3-3.09-4.44-.81-1-.41-1.27.65-1.23h1.09c-.24.36,0,.7.06,1l.2.34A1.63,1.63,0,0,1,361.46,277.28Z" transform="translate(-213.48 -218.37)"/><path class="cls-1" d="M379.08,311l-.49.16a.15.15,0,0,1,.16-.11c.05-.26,0-.48-.28-.56v0l0-.58h0C379,310.16,379.07,310.57,379.08,311Z" transform="translate(-213.48 -218.37)"/><path class="cls-1" d="M379.34,311.57l-.28-.56C379.34,311.1,379.37,311.33,379.34,311.57Z" transform="translate(-213.48 -218.37)"/><path class="cls-1" d="M361.1,275.66a.42.42,0,0,1,.57-.21Z" transform="translate(-213.48 -218.37)"/><path class="cls-1" d="M379.66,311.84l-.34-.29Z" transform="translate(-213.48 -218.37)"/><path class="cls-1" d="M361.35,277.05l-.2-.34Z" transform="translate(-213.48 -218.37)"/><path class="cls-1" d="M378.76,268.16l-27.91,3.76c-.57.08-1.14.21-1.7.32-.42-.1-.66.05-.44.47.88,1.65,1.61,3.45,3.37,4.41.58.32.19.85.52,1.29,2.23,3,4.33,6,6.48,9.09,1.32,1.86,2.73,3.67,4,5.59.63,1,1.66,1.58,2.21,2.61a1.68,1.68,0,0,1,.31,1.23c-2-2.15-3.59-4.61-5.35-6.94-4.07-5.41-8.08-10.86-12.08-16.33-.68-.93-1.1-.76-1.68,0q-6.78,9.19-13.59,18.36c-1.88,2.54-3.79,5.06-5.68,7.59-.15.19-.22.5-.56.49a2.7,2.7,0,0,1,1.26-2.45,9.85,9.85,0,0,0,1.88-2.33c3-4.07,5.88-8.15,8.83-12.22,2.15-3,4.33-5.91,6.43-8.91.33-.47,1.29-.89.57-1.75-.94-.74-2.12-.59-3.19-.74-6.93-1-13.87-1.85-20.81-2.76-.48-.06-1-.16-1.45-.25.71-.62,1.42-.14,2.16-.11,2.17.07,4.21.77,6.35.95,5.13.42,10.22,1.16,15.32,1.83a9.24,9.24,0,0,1,.92.11c1.75.41,2,.21,2-1.6,0-1.19.05-2.39.08-3.58a2.73,2.73,0,0,0,.16-1.57c0-5.08,0-10.16.1-15.24.19,6.84,0,13.69.4,20.52,0,.31-.13.68.29.86h0c-.15.67.12.87.77.75s1.28-.16,1.92-.23c4.48-.59,9-1.19,13.46-1.77,3.12-.4,6.28-.6,9.34-1.25,1.3-.28,2.74,0,4-.87C377.87,267.19,378.3,267.94,378.76,268.16Z" transform="translate(-213.48 -218.37)"/><path class="cls-1" d="M365.8,297.22c.73-.19.85.38,1.14.83a8.59,8.59,0,0,0,1.88,2.36,1.92,1.92,0,0,1,.59,1.8A42.21,42.21,0,0,1,365.8,297.22Z" transform="translate(-213.48 -218.37)"/><path class="cls-1" d="M325,302.51a1.21,1.21,0,0,1,.87-1.35A2.16,2.16,0,0,1,325,302.51Z" transform="translate(-213.48 -218.37)"/><path class="cls-1" d="M325.83,301.2a1.07,1.07,0,0,1,.82-1.11A1.25,1.25,0,0,1,325.83,301.2Z" transform="translate(-213.48 -218.37)"/><path class="cls-1" d="M312.66,319.09c0-.55.11-1.06.84-1.06A2.14,2.14,0,0,1,312.66,319.09Z" transform="translate(-213.48 -218.37)"/><path class="cls-1" d="M369.63,302.48c.38,0,.5.2.57.51A.7.7,0,0,1,369.63,302.48Z" transform="translate(-213.48 -218.37)"/><path class="cls-1" d="M314,317.21c-.05-.43.07-.74.56-.8C314.63,316.86,314.33,317,314,317.21Z" transform="translate(-213.48 -218.37)"/><path class="cls-1" d="M313.46,318a.64.64,0,0,1,.55-.81A.86.86,0,0,1,313.46,318Z" transform="translate(-213.48 -218.37)"/><path class="cls-1" d="M380.64,317.2a.62.62,0,0,1,.54.81A.9.9,0,0,1,380.64,317.2Z" transform="translate(-213.48 -218.37)"/><path class="cls-1" d="M381.15,318c.46-.1.57.16.55.55C381.28,318.63,381.26,318.28,381.15,318Z" transform="translate(-213.48 -218.37)"/><path class="cls-1" d="M382.24,319.35a.66.66,0,0,1,.55.81A.91.91,0,0,1,382.24,319.35Z" transform="translate(-213.48 -218.37)"/><path class="cls-1" d="M383.59,321.21a.71.71,0,0,1,.54.83A1.07,1.07,0,0,1,383.59,321.21Z" transform="translate(-213.48 -218.37)"/><path class="cls-1" d="M324.67,303c-.21-.38.11-.41.34-.5Z" transform="translate(-213.48 -218.37)"/><path class="cls-1" d="M381.69,318.54c.31.07.35.28.29.55C381.76,319,381.53,318.86,381.69,318.54Z" transform="translate(-213.48 -218.37)"/><path class="cls-1" d="M382.77,320.14c.34.06.27.33.3.56Z" transform="translate(-213.48 -218.37)"/><path class="cls-1" d="M312.6,319.32l-.14-.18.24,0A.37.37,0,0,1,312.6,319.32Z" transform="translate(-213.48 -218.37)"/><path class="cls-1" d="M382,319.08c.19,0,.27.1.28.28C382,319.39,382,319.24,382,319.08Z" transform="translate(-213.48 -218.37)"/><path class="cls-1" d="M383.28,321l.32.28Z" transform="translate(-213.48 -218.37)"/><path class="cls-1" d="M384.12,322l.29.42Z" transform="translate(-213.48 -218.37)"/><path class="cls-1" d="M365.62,296.86l.3.3C365.61,297.26,365.53,297.14,365.62,296.86Z" transform="translate(-213.48 -218.37)"/><path class="cls-1" d="M380.37,316.94c.19,0,.28.09.28.27C380.45,317.23,380.38,317.11,380.37,316.94Z" transform="translate(-213.48 -218.37)"/><path class="cls-1" d="M355.09,259.09a6.26,6.26,0,0,1-.72-3.7Z" transform="translate(-213.48 -218.37)"/><path class="cls-1" d="M341.33,253.2l.74-3,.27.27c-.43,2.24-.8,4.5-1.3,6.72-.4,1.79-.4,3.69-1.37,5.33-.14-.15-.69,0-.46-.37,1.29-2.12,1.27-4.55,1.76-6.85l.11-.8c.19-.14.18-.34.16-.55Z" transform="translate(-213.48 -218.37)"/><path class="cls-1" d="M341.24,254c0,.21,0,.41-.16.55C340.63,254.21,340.92,254.1,341.24,254Z" transform="translate(-213.48 -218.37)"/><path class="cls-1" d="M346.11,227.22a.44.44,0,0,1-.25.53C345.88,227.54,345.81,227.3,346.11,227.22Z" transform="translate(-213.48 -218.37)"/><path class="cls-1" d="M316.23,311.22q1.31-2.76,2.59-5.52l.32.29c-.95,2.08-1.41,4.34-2.5,6.36C316.14,312.11,316.52,311.54,316.23,311.22Z" transform="translate(-213.48 -218.37)"/><path class="cls-1" d="M316.23,311.22c.29.32-.09.89.41,1.13a9.4,9.4,0,0,1-1.52,2.5l-.21-.2C315.48,313.56,315.53,312.26,316.23,311.22Z" transform="translate(-213.48 -218.37)"/><path class="cls-1" d="M319.14,306l-.32-.29a25.4,25.4,0,0,1,2-3.88l.27.23A30.05,30.05,0,0,1,319.14,306Z" transform="translate(-213.48 -218.37)"/><path class="cls-1" d="M323.68,296.9a1.87,1.87,0,0,1-.7,1.25,1.5,1.5,0,0,1,.6-1.35Z" transform="translate(-213.48 -218.37)"/><path class="cls-1" d="M322.86,298.28a1.94,1.94,0,0,1-.82,1.62A2.16,2.16,0,0,1,322.86,298.28Z" transform="translate(-213.48 -218.37)"/><path class="cls-1" d="M321.59,300.47c.11-.15.08-.53.36-.36s0,.38-.15.54Z" transform="translate(-213.48 -218.37)"/><path class="cls-1" d="M320.82,301.82l.3-.51.24.2-.27.54Z" transform="translate(-213.48 -218.37)"/><path class="cls-1" d="M314.88,315.16a.58.58,0,0,1-.36.45l0,0c.09-.2.18-.39.26-.58Z" transform="translate(-213.48 -218.37)"/><path class="cls-1" d="M324.09,296c0-.18,0-.34.21-.4,0,0,.09.05.09.09a.31.31,0,0,1-.22.39Z" transform="translate(-213.48 -218.37)"/><path class="cls-1" d="M314.75,315c.05-.12.11-.24.16-.35l.21.19-.24.31Z" transform="translate(-213.48 -218.37)"/><path class="cls-1" d="M324.17,296.05l-.2.18.12-.26Z" transform="translate(-213.48 -218.37)"/><path class="cls-1" d="M323.58,296.8l.21-.18c0,.09-.07.18-.11.28Z" transform="translate(-213.48 -218.37)"/><path class="cls-1" d="M321.8,300.65l-.22.22c-.17-.13-.12-.27,0-.4Z" transform="translate(-213.48 -218.37)"/><path class="cls-1" d="M321.12,301.31c.09-.08.23-.22.25-.2.18.12.09.27,0,.4Z" transform="translate(-213.48 -218.37)"/><path class="cls-1" d="M299.73,262.4a54.76,54.76,0,0,1,6.53-.09c5.21,0,10.42.09,15.63.15a7.39,7.39,0,0,1,.92.1.45.45,0,0,1,0,.23c-3.83,0-7.66.09-11.5.07a120.29,120.29,0,0,0-18,1.23c-2.58.38-5.15-.14-7.72-.34-.28,0-.5-.11-.65.2l-.78-.07c0-.28-.44-.72.24-.77,1.56-.12,3.07-.79,4.68-.44.16.76.79.49,1.2.44,2.88-.31,5.78-.27,8.67-.33C299.31,262.78,299.66,262.85,299.73,262.4Z" transform="translate(-213.48 -218.37)"/><path class="cls-1" d="M307.56,267.79l17.94,2.63c-6.05-.37-12-1.34-18-2.29Z" transform="translate(-213.48 -218.37)"/><path class="cls-1" d="M303.87,267.25a11.5,11.5,0,0,1-4.37-.26A12.33,12.33,0,0,1,303.87,267.25Z" transform="translate(-213.48 -218.37)"/><path class="cls-1" d="M297.38,266.59h1.56c-.53.18-1.06.46-1.55,0Z" transform="translate(-213.48 -218.37)"/><path class="cls-1" d="M297.39,266.58h-1.58c.53-.2,1.07-.47,1.57,0Z" transform="translate(-213.48 -218.37)"/><path class="cls-1" d="M290.92,265.67c-.39.08-.75.2-1.08,0A1.23,1.23,0,0,1,290.92,265.67Z" transform="translate(-213.48 -218.37)"/><path class="cls-1" d="M291.75,265.83c.7,0,1.09-.18,1.45.11C292.77,266.18,292.37,266.08,291.75,265.83Z" transform="translate(-213.48 -218.37)"/><path class="cls-1" d="M295.06,266.21a1.72,1.72,0,0,1-1.26,0A1.37,1.37,0,0,1,295.06,266.21Z" transform="translate(-213.48 -218.37)"/><path class="cls-1" d="M305.21,267.54a.9.9,0,0,1-1,0A.88.88,0,0,1,305.21,267.54Z" transform="translate(-213.48 -218.37)"/><path class="cls-1" d="M307,267.88h-1.18C306.21,267.55,306.49,267.62,307,267.88Z" transform="translate(-213.48 -218.37)"/><path class="cls-1" d="M334.87,275.66c-.13.36-.24.07-.35,0A.22.22,0,0,1,334.87,275.66Z" transform="translate(-213.48 -218.37)"/><path class="cls-1" d="M339.67,262.56c1-1.64,1-3.54,1.37-5.33.5-2.22.87-4.48,1.3-6.72.25-1.17.56-2.34.75-3.52.74-4.52,3-8.59,3.86-13.05a7.91,7.91,0,0,1,.13,3.77c-.26,2.79-.15,5.59-.39,8.37-.42,4.77-.47,9.56-.93,14.32a40.21,40.21,0,0,0-.45,5.14c0,.49-.22.69-.65.86s-.6-.09-.86-.35c-.61-.64-1.15-1.46-2.23-1.35a.48.48,0,0,0-.54-.27l0,0a.44.44,0,0,0-.28-.56v0c-.08-.47-.29-.8-.82-.82v0a.43.43,0,0,0-.28-.56Z" transform="translate(-213.48 -218.37)"/><path class="cls-1" d="M353.09,255.06c-.11.47.42.52.54.84-.86.92.14,1.72.26,2.54.19,1.22.05,2.6,1.05,3.61h0c-.18.17,0,.34,0,.51-1.8,1.26-3.16,3.05-5.08,4.22a1.87,1.87,0,0,1-.23-1.62c.44-2-.14-3.91-.44-5.88-.36-2.36-.51-4.8-.73-7.19-.5-5.49-.5-11-.95-16.49-.05-.64-.27-1.33.19-1.94a21.11,21.11,0,0,0,1.1,4.36,47.77,47.77,0,0,1,2.7,8.74Z" transform="translate(-213.48 -218.37)"/><path class="cls-1" d="M407.68,263.87c-4.84.9-9.58-.34-14.37-.67-2.85-.19-5.7-.29-8.55-.32-5.93-.06-11.86,0-17.8,0-.44,0-.88-.05-1.33-.07a1.15,1.15,0,0,1,0-.19c3.74-.22,7.49-.26,11.23-.26,5,0,10.08,0,15.13,0,.52,0,1.05.07,1.58.11.07.35.33.36.61.37l7.36.07c.31,0,.63,0,.83-.3a26.87,26.87,0,0,1,6.7.37c.43.08.87.13,1.31.19l0,.49-1.3.07c-.28-.38-.71-.23-1.07-.29a4.74,4.74,0,0,0-2.3-.44c.76.81,1.55.49,2.31.43Z" transform="translate(-213.48 -218.37)"/><path class="cls-1" d="M347,233.94c-.9,4.46-3.12,8.53-3.86,13.05-.19,1.18-.5,2.35-.75,3.52l-.27-.27c1.29-6.4,2.08-12.92,4.71-19.08C347.19,232.1,346.8,233.05,347,233.94Z" transform="translate(-213.48 -218.37)"/><path class="cls-1" d="M351.5,246.76a47.77,47.77,0,0,0-2.7-8.74,21.11,21.11,0,0,1-1.1-4.36c.26-.88-.44-1.76-.06-3,2.38,5.22,3.22,10.52,4.21,15.78Z" transform="translate(-213.48 -218.37)"/><path class="cls-1" d="M299.73,262.4c-.07.45-.42.38-.72.38-2.89.06-5.79,0-8.67.33-.41.05-1,.32-1.2-.44C292.67,262.42,296.2,262.37,299.73,262.4Z" transform="translate(-213.48 -218.37)"/><path class="cls-1" d="M351.5,246.76l.35-.3a34,34,0,0,1,1.5,7.53c0,.3,1.11,1.06-.26,1.07Z" transform="translate(-213.48 -218.37)"/><path class="cls-1" d="M322.85,262.79a.45.45,0,0,0,0-.23h15.87v.23Z" transform="translate(-213.48 -218.37)"/><path class="cls-1" d="M402.38,262.55c-.2.33-.52.3-.83.3l-7.36-.07c-.28,0-.54,0-.61-.37Z" transform="translate(-213.48 -218.37)"/><path class="cls-1" d="M410.35,263.6l0-.49a27.43,27.43,0,0,0,3.94-.25c.44-.1,1.19-.42,1.43.45l-4.32.56C411.15,263.5,410.71,263.71,410.35,263.6Z" transform="translate(-213.48 -218.37)"/><path class="cls-1" d="M347,266.32c0,1.19-.06,2.39-.08,3.58,0,1.81-.3,2-2,1.6a9.24,9.24,0,0,0-.92-.11c.15-.08.3-.24.43-.22,1.27.17,1.2-.51.88-1.36l0,0c.49.15.72.6,1.12,1.09a11.42,11.42,0,0,0,.23-3.14C346.72,267.25,346.42,266.66,347,266.32Z" transform="translate(-213.48 -218.37)"/><path class="cls-1" d="M365.64,262.6a1.15,1.15,0,0,0,0,.19c-2.88,0-5.77,0-8.65,0-.4,0-.9.24-1.21-.25l0,0Z" transform="translate(-213.48 -218.37)"/><path class="cls-1" d="M354.94,262.05c-1-1-.86-2.39-1.05-3.61-.12-.82-1.12-1.62-.26-2.54Q354.28,259,354.94,262.05Z" transform="translate(-213.48 -218.37)"/><path class="cls-1" d="M350.66,271.4c-.64.07-1.29.12-1.92.23s-.92-.08-.77-.75l.8-.31.06.06C349.09,271.73,350.23,270.7,350.66,271.4Z" transform="translate(-213.48 -218.37)"/><path class="cls-1" d="M367.22,268.53c.55-.44,1.14-.26,2.06-.3A2.27,2.27,0,0,1,367.22,268.53Z" transform="translate(-213.48 -218.37)"/><path class="cls-1" d="M341.83,265.52c.74.39.74.39,1,1.18a1.7,1.7,0,0,1-1-1.19Z" transform="translate(-213.48 -218.37)"/><path class="cls-1" d="M408,263.38c.36.06.79-.09,1.07.29-.41.4-.9.19-1.37.2l.31-.5Z" transform="translate(-213.48 -218.37)"/><path class="cls-1" d="M340,263.09c.53,0,.74.35.82.82A.8.8,0,0,1,340,263.09Z" transform="translate(-213.48 -218.37)"/><path class="cls-1" d="M366.14,268.72l-.33-.21c.07-.08.13-.22.21-.23s.21.08.31.13Z" transform="translate(-213.48 -218.37)"/><path class="cls-1" d="M354.94,262.56c0-.17-.19-.34,0-.51s.5-.09.56.26a.28.28,0,0,1,0,.22Z" transform="translate(-213.48 -218.37)"/><path class="cls-1" d="M345.3,269.81c-.21,0-.41-.07-.41-.34,0,0,.06-.09.09-.09.28,0,.29.22.34.41Z" transform="translate(-213.48 -218.37)"/><path class="cls-1" d="M341,264.43a.48.48,0,0,1,.54.27V265h0A.53.53,0,0,1,341,264.43Z" transform="translate(-213.48 -218.37)"/><path class="cls-1" d="M348,270.89c-.42-.18-.26-.55-.29-.86C348,270.24,348,270.57,348,270.89Z" transform="translate(-213.48 -218.37)"/><path class="cls-1" d="M344.63,268.85c-.08,0-.16.08-.21,0s-.07-.13-.11-.19.15-.08.19-.06S344.59,268.78,344.63,268.85Z" transform="translate(-213.48 -218.37)"/><path class="cls-1" d="M340.77,263.89a.44.44,0,0,1,.28.56A.56.56,0,0,1,340.77,263.89Z" transform="translate(-213.48 -218.37)"/><path class="cls-1" d="M283.26,263.18l.09.09a.9.9,0,0,1-.21.08s-.06-.05-.09-.07Z" transform="translate(-213.48 -218.37)"/><path class="cls-1" d="M341.84,265.51a.53.53,0,0,1-.27-.53h0a.59.59,0,0,1,.27.54Z" transform="translate(-213.48 -218.37)"/><path class="cls-1" d="M339.69,262.55a.43.43,0,0,1,.28.56A.65.65,0,0,1,339.69,262.55Z" transform="translate(-213.48 -218.37)"/><path class="cls-1" d="M349.6,269.53l.12-.12s0,.07,0,.08l-.1.05Z" transform="translate(-213.48 -218.37)"/><path class="cls-1" d="M349.6,269.54l-.12.12s0-.07,0-.08l.1-.05Z" transform="translate(-213.48 -218.37)"/><path class="cls-1" d="M349,270.32l.11-.18c.17.14,0,.16-.07.21Z" transform="translate(-213.48 -218.37)"/><path class="cls-1" d="M348.77,270.57l.27-.25,0,0c-.09.09-.17.19-.25.28Z" transform="translate(-213.48 -218.37)"/><path class="cls-1" d="M355.52,262.53a.28.28,0,0,0,0-.22c.19,0,.32,0,.26.27l0,0Z" transform="translate(-213.48 -218.37)"/><path class="cls-1" d="M375.81,305.72c.8,1.23,1,2.81,2.15,3.84-.08.25-.12.48.27.43h-.07l0,.07c-.11.32-.07.53.34.48v0c-.23.35-.19.56.28.56a.15.15,0,0,0-.16.11c.24,1,.47,2,.79,3.28-2.14-2.69-2.68-5.73-3.89-8.46Z" transform="translate(-213.48 -218.37)"/><path class="cls-1" d="M375.81,305.72l-.32.28a4.87,4.87,0,0,1-1-2.45C375.29,304.06,375.42,305,375.81,305.72Z" transform="translate(-213.48 -218.37)"/><path class="cls-1" d="M372.35,299.53c.54.17.6.59.54,1.07A1.28,1.28,0,0,1,372.35,299.53Z" transform="translate(-213.48 -218.37)"/><path class="cls-1" d="M379.56,315a.5.5,0,0,1,0-.21s.1-.06.1-.06.07.11.11.17Z" transform="translate(-213.48 -218.37)"/><path class="cls-1" d="M373.15,300.86a.43.43,0,0,1,.27.54C373.05,301.36,373,301.14,373.15,300.86Z" transform="translate(-213.48 -218.37)"/><path class="cls-1" d="M371.68,298.45c.36,0,.43.25.41.54C371.8,298.92,371.77,298.66,371.68,298.45Z" transform="translate(-213.48 -218.37)"/><path class="cls-1" d="M374,302.48c.33.06.34.27.26.52C373.85,303,373.87,302.74,374,302.48Z" transform="translate(-213.48 -218.37)"/><path class="cls-1" d="M374.22,303c.34,0,.35.26.26.52C374.12,303.5,374.1,303.29,374.22,303Z" transform="translate(-213.48 -218.37)"/><path class="cls-1" d="M372.08,299c.31.07.31.29.27.54C372.05,299.45,372,299.23,372.08,299Z" transform="translate(-213.48 -218.37)"/><path class="cls-1" d="M373.42,301.4c.31.07.3.29.26.54C373.34,301.89,373.3,301.68,373.42,301.4Z" transform="translate(-213.48 -218.37)"/><path class="cls-1" d="M373.69,301.94c.31.06.31.28.26.53C373.6,302.43,373.59,302.21,373.69,301.94Z" transform="translate(-213.48 -218.37)"/><path class="cls-1" d="M372.88,300.6c.22,0,.27.1.27.27C372.9,300.94,372.9,300.76,372.88,300.6Z" transform="translate(-213.48 -218.37)"/><path class="cls-1" d="M383.55,268.38a88.89,88.89,0,0,1-14.33,2.08Z" transform="translate(-213.48 -218.37)"/><path class="cls-1" d="M389,267.78a21.35,21.35,0,0,1-4.58.58C385.91,268.14,387.39,267.59,389,267.78Z" transform="translate(-213.48 -218.37)"/><path class="cls-1" d="M393.32,267.23a10.64,10.64,0,0,1-3.5.31A11.81,11.81,0,0,1,393.32,267.23Z" transform="translate(-213.48 -218.37)"/><path class="cls-1" d="M397,266.58a9.66,9.66,0,0,1-3.2.47,11.22,11.22,0,0,1,3.21-.46Z" transform="translate(-213.48 -218.37)"/><path class="cls-1" d="M399.13,266.31c-.67.44-1.43.13-2.14.27h0c.67-.44,1.44-.1,2.14-.27Z" transform="translate(-213.48 -218.37)"/><path class="cls-1" d="M399.14,266.32c.47-.35,1-.18,1.52-.1l-1.53.09Z" transform="translate(-213.48 -218.37)"/><path class="cls-1" d="M378.48,310.54c-.41,0-.45-.16-.34-.48l.38-.1Z" transform="translate(-213.48 -218.37)"/><path class="cls-1" d="M378.23,310c-.39.05-.35-.18-.27-.43Z" transform="translate(-213.48 -218.37)"/><path class="cls-1" d="M378.75,311.07c-.47,0-.51-.21-.28-.56C378.78,310.59,378.8,310.81,378.75,311.07Z" transform="translate(-213.48 -218.37)"/><path class="cls-1" d="M408,263.37c-.76.06-1.55.38-2.31-.43a4.74,4.74,0,0,1,2.3.44Z" transform="translate(-213.48 -218.37)"/></svg>