<svg id="a0986484-161e-48cd-835f-093e315d350c" data-name="Capa 1" xmlns="http://www.w3.org/2000/svg" viewBox="0 0 319.12 142.92"><title>jaguar</title><path d="M211.25,292.74a9.78,9.78,0,0,0,4.24-1.1,5.51,5.51,0,0,0,1.22-.65c-1,0-2.67,0-3.26,0a5.12,5.12,0,0,0-4,1.61c0,.08.34.13.92.15C210.58,292.74,210.88,292.74,211.25,292.74Z" transform="translate(-150.15 -285.62)"/><path d="M182.75,309.86a19.85,19.85,0,0,0,1.63,2.86c.93,1.12,2.8,3,5.45,2.56,1.16-.19,1.18-.54,1.18-.54a5.32,5.32,0,0,0,3.47,1.27,27.35,27.35,0,0,1-1.32-3.48,5.51,5.51,0,0,1,.18-2.14,9.28,9.28,0,0,1,1.94-3.59,3.37,3.37,0,0,1,4-.52c1.17.84,2.57,3.56,1.41,7.43-.06.28-1.36,3-2.73,3.44a1.19,1.19,0,0,1-.39.05,8,8,0,0,1-2.67-1,4.49,4.49,0,0,0,.2,1.28c.15.56.39,1.18.53,1.68l-.55.95c-.31.37-.63,1.72.09,2.27a14.45,14.45,0,0,0,6.06,2.24,3,3,0,0,0,2.83-1.27,33.23,33.23,0,0,1,4.23-5.26,23.34,23.34,0,0,1,10.46-5c.41-.05,7.09-1.92,18.47,7.14-3.26.23-7.14,1-10.07,1.56-8.42,1.5-13.82,9.37-15.36,12.59-4.1,8.4,4.25,11.3,4.25,11.3a15.47,15.47,0,0,0,11.77-9s1.39-3.72,5.09-2.53c2.43.79,23.82,8.25,28.63,9.5,0,0,14.34,3.72,19.75-2.84,8.6,2.82,16.68,4.18,37.86,1.46a41.59,41.59,0,0,1,6.59-.36c5,.36,9.48,3.67,10.83,5.88,5.58,8.87,12.64,26.52,37.21,24.39l11.11-1c6.78-.41,12.26-.7,17.89,2.24a25.79,25.79,0,0,1,7.9,5.66c5.66,5.38,10.87,11.18,17.8,8,2.45-1.13,5.22-5.51,5.22-5.51a8,8,0,0,0-3.37-5.56c6.29,1.47,20.46,2.44,25.95-7.12,1.42-2.22,1.57-4.2,1-5.41-1.51-3.33-5.67-2.26-5.67-2.26-2,.44-4.19,2.67-7.52,3.66a20.75,20.75,0,0,1-12.89-.33c-11-4.77-46.47-25-64.5-33.81,0,0-20.93-9.69-51.31-21.67,0,0-59.71-25.37-99.56-23.31,0,0-21.25.57-27.92,9.9a2.73,2.73,0,0,0-.5,2.69.64.64,0,0,1-.13.66,38.3,38.3,0,0,0-5.41,6.07c-.62,1-1.24,2.67,0,3.94A4.66,4.66,0,0,1,182.75,309.86Zm2-3.17a9,9,0,0,1,6.67-5.6c.56-.06,2.4-.33,2.4-.33,5.12-.87,7.55-6.19,7.55-6.19a39.69,39.69,0,0,0-5.15.19c-3.37.61-4.54,4.6-4.54,4.57-2.86.67-2.8-1.81-2.29-2.54s2.13-3.66,13.19-6.2c0,0,5.45-1.64,17.09-1.12l-.5.87c-1,2-5.11,6-11.88,4.49,0,0,.08,3,7.4,4,0,0,6.64,1.19,17.85,10.18,0,0-5.36-10.63-14.47-13.38,0,0-1.13-.22-.59-1,0,0,5.63-5.19,12.87-5.41,0,0,24.53-2.36,38.14,16.33,0,0-4.09-7.93-7.2-11.39,0,0,14.24,4,36.16,11.62,0,0,14.94,5.25,24.49,9,12.91,5.05,45.2,17.59,65.83,28.79,3.66,2,40.9,21.33,40.9,21.33,10.32,4.63,17.46,1.84,17.46,1.84,2.33-.89,6.52-4.13,8.38-2.28a3.15,3.15,0,0,1,.62,3.45c-.56,1.84-3.21,4.31-6.42,5.76-3.42,1.5-10.48,1.89-14.54,1.24a26.26,26.26,0,0,1-14.86-8c-2.2-2.27-4.89-4.87-7.37-7.42a13.94,13.94,0,0,0-8.26-4.41c-4.64-.65-16-.94-20.28-2.34-2.87-1-6.31-2.89-10.89-9.65-2.21-3.25-3.77-4.13-6.79-6a16.76,16.76,0,0,1,3.62,4.12c1.86,3.36,2.85,5.79,3.87,7.55a15.63,15.63,0,0,0,3.92,4.78A10.36,10.36,0,0,0,383,356c2.26.37,9.86.31,16.41.21s9.28,2,11.38,3.75,5.3,6.33,7.37,8.37c2.43,2.41,4.23,4.93,9.11,7.36,1.67.85,4.43,2.93,4.28,4.95-2.18,2.16-4.88,2.74-11.37,1a9.36,9.36,0,0,0,9.66,2.34,7.52,7.52,0,0,1-5.27,2c-6.08-.33-12-7.8-15.38-10.55a67.19,67.19,0,0,0-7.16-5.61c-6.54-4.5-21.25-3.24-21.25-3.24l-10.81.57c-21,1.57-29.84-17-32.18-20.86a27.57,27.57,0,0,0-2.22-3.32c-1.08-1.43-6.83-8.82-12.63-11.29,0,0,5.7,4.92,5.38,8.14,0,0-2.37-1.07-8.81-.17-27.67,3.92-37.09-3-37.09-3,1.28-5.56-2.59-11.21-2.59-11.21,2.14.65,15.74,5.27,28.68,2.64,0,0-21,.13-35.78-11.58,0,0,9.17,11.45,7,18.94,0,0-1.49,8-17.5,4.79-1.7-.35-3.71-.91-27.67-7.54-5.63-1.68-7.57,1-8.59,2.6,0,2.36-2.84,5.13-4.23,6-7.42-1.31-4.49-8.16-4.49-8.16-4.65,6.62.21,9.57,1.76,9.76a18.36,18.36,0,0,1-2.52,1.06s-6.07-3.59-2.69-9.49c4.75-8.22,9.55-10.86,18.37-11.65a45.44,45.44,0,0,1,9.49-.3c6.42.86,10.43,4.48,20,5.43-20.29-6-20.35-17.71-20.4-17.94,0,0,0,0,0,0a15.39,15.39,0,0,0,.48,9.89c-.28-.11-4.73-3-6.43-4.05a36.89,36.89,0,0,0-13.07-5.19c-2.39-.32-3.55-3.23-3.55-3.23a2,2,0,0,0-.23-.44c-3.35-5.76-6.72-5.84-6.72-5.84a11.81,11.81,0,0,1,1.94,6.15c1,7.11-7.11,9.31-7.11,9.31-5,6.26-4.69,6.39-5.79,6.56s-3.53-1.08-3.53-1.08a1,1,0,0,1,.17-1.18,20.33,20.33,0,0,0,1.69-1.46c5.24-5.35,5.87-8,5.22-11.39-1.32-7-6.3-6.13-6.3-6.13a4.3,4.3,0,0,0-3.41,2.19c-.82,1.28-2.58,5.22-2.58,5.22-1.08,2.33-2.2,2.85-2.76,2.94a4.38,4.38,0,0,1-.86,0,4.64,4.64,0,0,1-3-1.6l-.2-.22A3.49,3.49,0,0,1,184.73,306.69Zm8-7.43s.2-.64.26-.81.69-1.81,2.21-2c0,0,.87-.06,2.23-.06a4.17,4.17,0,0,1-3.28,2.58A9,9,0,0,1,192.77,299.26Z" transform="translate(-150.15 -285.62)"/><path d="M187.83,423.1c1.89-1.92,2.82-4.35,2.82-8.3V402.45H181.2V414c0,3.35-.76,5.64-2.41,7.27-2.18,2.16-5.8,3-11.16,3H150.15v3.4h19C178.13,427.73,184.49,426.51,187.83,423.1Z" transform="translate(-150.15 -285.62)"/><path d="M398.17,422.35l4.64,5.38h10.6l-22-25.28h-9.32l-22,25.28h5.47l4.65-5.38Zm-14-16.21,11.2,12.94H373Z" transform="translate(-150.15 -285.62)"/><path d="M237.69,427.73h10.57l-22-25.28H217l-22,25.28h5.49l4.62-5.38h28Zm-29.81-8.65L219,406.14l11.2,12.94Z" transform="translate(-150.15 -285.62)"/><path d="M463.31,416.9a6.86,6.86,0,0,0,3.53-6.26,6.72,6.72,0,0,0-4.25-6.75c-2.47-1.07-5.5-1.44-11.52-1.44H421.81v25.28h9.43V419h12.38l14.16,8.76h11.49l-14.82-9A20.07,20.07,0,0,0,463.31,416.9Zm-32.07-1.12V405.61h18.6c3.53,0,5.09.32,6.17,1.14s1.39,1.93,1.39,3.77V411a4.21,4.21,0,0,1-1.6,3.8c-1.19.8-2.84,1-5.85,1Z" transform="translate(-150.15 -285.62)"/><path d="M309.18,402.45v12.6c0,3.25.35,5.84,2,8,2.7,3.53,7.63,5.53,21.25,5.53h.18c13.72,0,18.63-2,21.29-5.53,1.66-2.12,2-4.71,2-8V402.45H346.5V414.7c0,3.17-.43,5.18-1.64,6.88-2.05,2.88-5.27,3.92-11.91,3.92h-.81c-6.33,0-9.84-1-11.9-3.92-1.22-1.7-1.63-3.61-1.63-6.9V402.45Z" transform="translate(-150.15 -285.62)"/><path d="M274.23,405.81H297.8v-3.36H271.28c-6.42,0-10.27.73-13.7,2.64a11,11,0,0,0-5.75,9.93c0,5.11,2.32,8.85,7.41,10.88,3,1.22,7.09,1.83,12.21,1.83h27.32V416.11h-9.41v8.24H274.31c-4.89,0-7.73-.71-9.82-2.31s-3-3.83-3-7a8.3,8.3,0,0,1,2.84-6.78C266.41,406.59,269.16,405.81,274.23,405.81Z" transform="translate(-150.15 -285.62)"/></svg>