<svg id="ead69060-6a18-41ff-989d-27bad95f244f" data-name="Capa 1" xmlns="http://www.w3.org/2000/svg" viewBox="0 0 368.87 162.15"><title>jeep</title><path d="M358.63,375.45q7.81,4.74,21.37,4.73c10.45,0,18.49-1.85,24.05-5.5s10.35-9.86,14.27-18.36l-25.79-3a19,19,0,0,1-4.62,5.35,12.38,12.38,0,0,1-7.33,2.42c-4.06,0-7.37-1.82-9.92-5.54-1.81-2.55-2.93-6.43-3.42-11.68h52.58v-3.65q0-16.8-4.45-27.27a34.53,34.53,0,0,0-12.94-16c-5.69-3.69-13.36-5.52-23.19-5.52-12.08,0-21.52,4.12-28.39,12.32s-10.28,19-10.28,32.22c0,9.29,1.7,17.41,5.14,24.31S353.42,372.28,358.63,375.45Zm11.69-58.55c2.51-4.11,5.83-6.17,10-6.17a10.69,10.69,0,0,1,8.75,4.08c2.19,2.69,3.53,7.2,4.08,13.51H367.34C367.75,323.28,368.72,319.47,370.32,316.9Z" transform="translate(-147.28 -254.75)"/><path d="M487.4,291.48a22.57,22.57,0,0,0-12.72,3.78q-4.2,2.75-9.31,10.68v-12.5H440.82V416.9h26.49V370.06a27.79,27.79,0,0,0,8.91,7.61,24,24,0,0,0,11.07,2.51c8.32,0,15.24-3.67,20.69-11.1s8.17-18.26,8.17-32.32c0-12.83-2.52-23.57-7.48-32.26S496.56,291.48,487.4,291.48Zm-.57,59.75c-2.07,3.14-4.61,4.68-7.69,4.68a10.11,10.11,0,0,1-8.6-4.87q-3.44-4.91-3.42-15,0-10.94,3.33-15.83c2.23-3.23,5-4.88,8.4-4.88,3.07,0,5.69,1.63,7.83,4.88s3.25,8.25,3.25,15.13C489.93,342.8,488.9,348.11,486.83,351.23Z" transform="translate(-147.28 -254.75)"/><path d="M209.51,373.07a34.48,34.48,0,0,0,11.54-17.73c1.9-7,2.89-17.17,2.89-30.53V254.75H194.69v78.61c0,7.14-.77,12.2-2.32,15.25a7.53,7.53,0,0,1-7.19,4.48,6.84,6.84,0,0,1-4.76-1.52,13.16,13.16,0,0,1-3.5-6.05A51.57,51.57,0,0,1,175.85,334L147.28,333c.53,9,2.88,22.45,5.74,28.59a31.27,31.27,0,0,0,12.14,14c5.26,3.19,12.63,4.78,22.16,4.78C196.35,380.35,203.74,378,209.51,373.07Z" transform="translate(-147.28 -254.75)"/><path d="M261.81,375.45q7.79,4.74,21.39,4.73c10.46,0,18.44-1.85,24.05-5.5s10.3-9.86,14.28-18.36l-25.86-3a19,19,0,0,1-4.56,5.35,12.63,12.63,0,0,1-7.34,2.42c-4.09,0-7.39-1.82-9.95-5.54-1.79-2.55-2.93-6.43-3.4-11.68H323v-3.65q0-16.8-4.45-27.27a34.57,34.57,0,0,0-13-16c-5.65-3.69-13.4-5.52-23.17-5.52q-18.12,0-28.42,12.32c-6.81,8.18-10.27,19-10.27,32.22,0,9.29,1.73,17.41,5.13,24.31S256.57,372.28,261.81,375.45Zm11.72-58.55c2.5-4.11,5.78-6.17,10-6.17a10.71,10.71,0,0,1,8.75,4.08c2.19,2.69,3.57,7.2,4.09,13.51H270.49Q271.12,320.76,273.53,316.9Z" transform="translate(-147.28 -254.75)"/></svg>