<svg id="Capa_1" data-name="Capa 1" xmlns="http://www.w3.org/2000/svg" viewBox="0 0 224.63 157.09"><path d="M228.25,334c0-32.35,0-64.69-.08-97,0-2.55.51-3.06,3.07-3q110.63.12,221.26.07a24.94,24.94,0,0,1,.25,2.59q0,46.65,0,93.3c0,.93.31,2-.61,2.8-1.19-.57-1.17-1.81-1.57-2.79a23.64,23.64,0,0,0-7-9.52c-4.89-4.06-10.61-5.1-16.76-5.1q-86.52.08-173,0c-1.25,0-2.5,0-3.74.13-9.66.72-16.16,5.79-19.92,14.57C229.55,331.37,229.34,332.9,228.25,334Zm162.62-44.11c1.39,1,2,1.41,2.55,1.84,6,4.46,14.3,2.87,17.48-3.79a25.28,25.28,0,0,0-.52-24c-3.57-6.55-11.13-8.12-17.32-3.91-1.35.92-1.8,1-3.24-.22-2.54-2.16-6-1.4-8.91-.62-2.41.64-1.49,3.39-1.51,5.25-.07,10.94,0,21.88,0,32.81,0,7.65,0,7.55,7.54,7.48,2.87,0,4.12-1,4-3.92C390.76,297.49,390.87,294.16,390.87,289.91Zm-87.45-26.42c0-3.24,0-5.72,0-8.21-.17-11.34,1.73-9.74-10.22-10-3.27-.06-4.38,1.24-4.33,4.41.12,8.44.06,16.89,0,25.33a27.07,27.07,0,0,1-.55,5.16,3.67,3.67,0,0,1-3.91,3.27c-2.4-.05-3.66-1.52-3.95-3.71a36.92,36.92,0,0,1-.18-5.57c.05-2.35-1-3.26-3.35-3.39-9.61-.51-11,1-9.39,10.55,1.16,6.94,5.11,11.19,12,12.53a29.66,29.66,0,0,0,11.87-.07c6.85-1.43,10.4-5.51,11.41-12.49C303.72,275.15,303.27,268.94,303.42,263.49Zm25.44,15.14v-.08h9c1.35,0,2.35-.26,2.6-1.95.82-5.56-2.74-13.76-7.76-16.38-6.47-3.38-13.3-3.76-19.47.48-7.17,4.94-8,12.5-6.73,20.36,1.12,6.81,6.23,11.49,13.32,12.9s15.19-1.51,18.25-6.6c1.25-2.08,1.05-3.3-1.64-3.3-3.33,0-6.58-.25-9.79,1.48a6.31,6.31,0,0,1-9.08-3.66c-.71-2-.22-3.2,2-3.24C322.65,278.58,325.75,278.63,328.86,278.63ZM359,257.9a14.57,14.57,0,0,0-12.25,5.48C342.31,268.59,342,274.74,343,281c1.07,6.67,5.92,11.3,12.93,12.83s14.9-1.08,18.39-6.24c.55-.8,1.39-1.6.93-2.67s-1.69-.88-2.64-.9c-3.35-.07-6.6-.12-9.78,1.58a6,6,0,0,1-8.12-2.33c-1.9-3-1.13-4.63,2.44-4.7q8-.14,16.05,0c2.71,0,3.74-1,3.68-3.79C376.66,264.47,370.11,258,359,257.9Z" transform="translate(-228.17 -233.93)"/><path d="M255.69,358.18A17.54,17.54,0,0,1,238,340.76a17.68,17.68,0,1,1,35.36,0A17.46,17.46,0,0,1,255.69,358.18Z" transform="translate(-228.17 -233.93)"/><path d="M424.81,358.18a17.37,17.37,0,0,1-17.41-17.62,17.66,17.66,0,0,1,35.31,0A17.52,17.52,0,0,1,424.81,358.18Z" transform="translate(-228.17 -233.93)"/><path d="M309.86,357.3c0,8.58.07,17.17,0,25.75,0,5.05-2.43,7.82-6.49,8a6.14,6.14,0,0,1-6.73-5.15,16.36,16.36,0,0,1-.36-3.7q0-25,0-50a17.72,17.72,0,0,1,.27-3.34c.68-3.5,3.13-5.61,6.41-5.66a6.43,6.43,0,0,1,6.6,5.44,25.65,25.65,0,0,1,.34,5.19c0,7.84,0,15.67,0,23.51Z" transform="translate(-228.17 -233.93)"/><path d="M370.08,357c0-8.71,0-17.41,0-26.12,0-3.52,1.29-6.38,5-7.47a6.35,6.35,0,0,1,8.16,5,26.46,26.46,0,0,1,.39,5.19q0,23.5,0,47a35.48,35.48,0,0,1-.15,3.72c-.45,4.5-2.85,6.8-6.89,6.68-3.88-.12-6.33-2.71-6.46-7.16s-.05-8.71-.06-13.06V357Z" transform="translate(-228.17 -233.93)"/><path d="M365.2,357.24c0,8.7.08,17.4,0,26.11-.06,4.93-2.62,7.65-6.76,7.66a5.93,5.93,0,0,1-6.29-4.75,20.27,20.27,0,0,1-.51-5.17q-.06-23.86,0-47.74a23,23,0,0,1,.49-5.18,6,6,0,0,1,5.78-5c3.24-.24,5.46,1.27,6.7,4.27a12.07,12.07,0,0,1,.65,4.76v25Z" transform="translate(-228.17 -233.93)"/><path d="M278.06,357.27c0-8.83,0-17.66,0-26.49,0-4.84,2.61-7.74,6.69-7.66,3.88.07,6.49,2.95,6.5,7.56q.08,26.49,0,53c0,4.72-2.49,7.32-6.59,7.36-4.3,0-6.58-2.53-6.6-7.63C278,374.68,278.06,366,278.06,357.27Z" transform="translate(-228.17 -233.93)"/><path d="M328,357.29c0,8.71,0,17.41,0,26.11,0,5.1-2.3,7.67-6.59,7.61s-6.61-2.76-6.63-7.75c-.05-17.41,0-34.81,0-52.22,0-3.54,1.17-6.43,4.78-7.59a6.22,6.22,0,0,1,7.05,2.1c1.33,1.55,1.43,3.38,1.43,5.27Q328,344,328,357.29Z" transform="translate(-228.17 -233.93)"/><path d="M401.92,357.25c0,8.95.07,17.9,0,26.86-.05,4.42-2.59,6.91-6.61,6.9s-6.37-2.51-6.57-6.95c0-.13,0-.25,0-.38q0-26.49,0-53c0-3.45,1.18-6.15,4.63-7.28,4.52-1.49,8.52,1.7,8.58,6.95C402,339.34,401.93,348.29,401.92,357.25Z" transform="translate(-228.17 -233.93)"/><path d="M346.6,357.54c0,8.83.07,17.66,0,26.49-.05,4.57-2.74,7.11-6.93,7-3.92-.13-6.22-2.68-6.24-7.26,0-15.29,0-30.59,0-45.88,0-2.61-.06-5.23,0-7.83.15-4.13,2.63-6.79,6.32-6.92s6.76,2.58,6.82,6.82c.13,9.2,0,18.4,0,27.6Z" transform="translate(-228.17 -233.93)"/><path d="M401.93,276c0,5.71-2,8.91-5.68,9s-6-3.33-6-9.16c0-5.49,2.37-9,5.94-8.89S401.93,270.32,401.93,276Z" transform="translate(-228.17 -233.93)"/><path d="M323.63,272.31a17,17,0,0,1-2.17,0c-1.37-.2-3.39.66-3.85-1.25s.86-3.3,2.39-4.29a6.45,6.45,0,0,1,2.41-.9c3.23-.52,7,1.79,6.64,4.39C328.53,274,325.2,271.45,323.63,272.31Z" transform="translate(-228.17 -233.93)"/><path d="M359.6,272.32a12.29,12.29,0,0,1-1.49,0c-1.4-.19-3.44.65-3.95-1.14-.56-2,.92-3.47,2.56-4.54a5.79,5.79,0,0,1,5-.6c2.18.66,4,2.24,3.84,4.5-.22,2.82-2.89,1.4-4.5,1.78A6.72,6.72,0,0,1,359.6,272.32Z" transform="translate(-228.17 -233.93)"/></svg>