<svg id="a1f3b08e-8389-4f99-89b0-859e91621bb7" data-name="Capa 1" xmlns="http://www.w3.org/2000/svg" viewBox="0 0 197.87 101.28"><title>kia</title><path d="M214.06,385.76C268.55,385.76,313,363,313,335.1s-44.45-50.63-98.94-50.63-98.93,22.72-98.93,50.63S159.57,385.76,214.06,385.76Zm0-89.3c50.24,0,91.21,17.37,91.21,38.64s-41,38.63-91.21,38.63-91.2-17.34-91.2-38.63S163.83,296.46,214.06,296.46Z" transform="translate(-115.13 -284.47)"/><polygon points="133.91 74.67 143.57 40.94 153.23 74.67 166.54 74.67 152.81 26.36 147.23 26.36 139.5 26.36 132.35 26.36 132.34 28.56 134.31 28.56 120.6 74.67 133.91 74.67"/><path d="M154.19,359.15h13.3V338.09l15,19.89H198L180.1,334.31l15.41-22.38H180l-12.55,18.21V311.91h-13.3v0H151.8v2a6.12,6.12,0,0,1,2.39.38Z" transform="translate(-115.13 -284.47)"/><path d="M209.12,359.15h13.29V311.91H209.12v0h-2.39v2a6.15,6.15,0,0,1,2.39.38Z" transform="translate(-115.13 -284.47)"/></svg>