<svg id="f936f09d-7157-4b05-8452-179b9f20eb3b" data-name="Capa 1" xmlns="http://www.w3.org/2000/svg" viewBox="0 0 251.61 176.81"><title>lada</title><path d="M436.11,250.06c0-24.4-49.47-44.2-110.5-44.2s-110.49,19.8-110.49,44.2,49.48,44.21,110.49,44.21S436.11,274.46,436.11,250.06Zm-110.5,40.52c-54.9,0-99.45-18.14-99.45-40.52,0-20.77,38.46-37.94,87.93-40.26a.41.41,0,0,1,.37.35l-9,49.45a.41.41,0,0,0,.3.45A.49.49,0,0,0,306,260a60,60,0,0,0,5.77-5.08c9.18-9.19,14.19-20,13.79-28.13,0-.22,0-.46,0-.7A11,11,0,0,0,319.17,216a.37.37,0,0,1-.16-.39l1.06-5.77a.34.34,0,0,1,.35-.27c1.72-.05,3.45-.05,5.19-.05,54.95,0,99.45,18.11,99.45,40.5S380.56,290.58,325.61,290.58Z" transform="translate(-204.09 -205.86)"/><path d="M349.53,216.51a.34.34,0,0,0-.4.3c5.14,10.71,1.28,24.39-8.94,35.12-.13.42,0,.6.21.63,3.31.27,6.53.66,9.58,1.08a.32.32,0,0,1,.27.29l.54,2.87c-.08.32-.25.42-.41.4-3.17-.83-5.84-.66-6.29.59s1.34,2.95,4.09,4.34c3.21,1.79,5.06,4,5.06,6.35,0,6.09-12.35,11-27.63,11a152.29,152.29,0,0,1-33.77-3.62.36.36,0,0,1-.29-.44l.68-3.86a.35.35,0,0,1,.42-.27,58.2,58.2,0,0,0,18.23,2.72c8.18,0,15.57-1.45,20.63-3.69,4.36-1.95,7-4.54,7-7.38,0-2-1.47-4-3.94-5.66a.35.35,0,0,0-.41,0,57.32,57.32,0,0,1-6.11,4.06,51.91,51.91,0,0,1-22.76,7H305a5.59,5.59,0,0,1-5.56-5.56,5.7,5.7,0,0,1,.11-1l8.29-45.53c0-.29-.18-.46-.36-.46-38.08,3.43-66.58,17.44-66.58,34.19,0,19.33,37.93,35,84.7,35s84.72-15.68,84.72-35C410.33,234.16,384.67,220.76,349.53,216.51Z" transform="translate(-204.09 -205.86)"/><polygon points="18.55 110.48 0 110.48 0 176.81 48.62 176.81 48.62 164.64 18.55 164.64 18.55 110.48"/><path d="M278.37,316.37l-25,66.28h15.49L274.45,367h24.26l5.58,15.65h19.3l-25.22-66.28Zm-.46,39.43,8.67-24.15,8.7,24.15Z" transform="translate(-204.09 -205.86)"/><path d="M381.7,325c-9.14-7.82-21-8.61-28.9-8.61H325.65v66.28h29.12c8.57,0,17.68-1.14,25.79-7.52,10.16-8,12-19.9,12-25.73C392.57,341.48,389.11,331.25,381.7,325Zm-13.41,38.92c-4.25,5.72-10.86,6.59-15.82,6.59h-8.34v-42h8c4.49,0,10.52.41,15.13,4.83,5,4.93,5.44,12,5.44,15.48C372.7,351.54,372.56,358.19,368.29,363.88Z" transform="translate(-204.09 -205.86)"/><path d="M410.51,316.35l-25,66.28H401L406.57,367h24.28l5.56,15.65H455.7l-25.19-66.28ZM410,355.76l8.7-24.13,8.65,24.13Z" transform="translate(-204.09 -205.86)"/></svg>