<svg id="b03cf74d-c56a-4e61-9cd5-2df1f01c5863" data-name="Capa 1" xmlns="http://www.w3.org/2000/svg" viewBox="0 0 412.64 268.03"><title>mack</title><path d="M364.9,288.86a.47.47,0,0,0-.15,0c0-.11.09-.2.11-.31a5.43,5.43,0,0,0,.79-3.73,4.72,4.72,0,0,1,1.31-3.3c.29-.52.7-1.53.7-4.43s-.1-4.49,2-6.4,1.88-4.3,1.31-6.48-1.48-3.78.71-7.82,3.22-4.46,6.74-6.23,7-3.28,8.76-5.92,1.55-5.68,1.55-8.88-.38-6.37-1.83-7.84-2.07-2-2.07-3.38a4.76,4.76,0,0,0-1.63-3.42,2.85,2.85,0,0,1-.87-3.25c.36-1.62.06-2.59-1.14-3.31s-1.3-1.25-1.73-2.47-.42-2.45-2.73-3.18-2.14-.84-3.15-3.42-1.66-3.54-4.87-2.39-4.49,3.2-7.36,2.46a25,25,0,0,0-7.35-.55c-2.44,0-9.24.25-12.49-.17a23.84,23.84,0,0,1-3.08-1.61,6.78,6.78,0,0,0-4.08-.72c-1.23.25-1.35,1.69-2.49,1.79s-1.51.54-2.15,2.73-1.16,5-.81,5.92,1.19,2,2.36.25c0,0,1.15.11,1.15,1.05s-.72,1.44-1.42,2-4.07,3.88-9,7.64-7.44,5.6-9.5,6.69-3.36,1.5-5.06,1.25-8-.79-14.44-.92-10.66-1.26-15,1-9.37,7.9-11,10.12-1.41,3.17-2.37,6.29-2.08,3.67-2.08,8,1.41,5.81,1.41,9.26-1.21,9.24-1.76,12.1-1.81,8.63-1.81,11.14v.13c-1.87.17-2.83.3-2.83.3C169.91,299.46,105,335.36,105,377.84c0,50.77,92.69,92.21,206.34,92.21s206.3-41.44,206.3-92.21C517.65,335.33,452.73,299.46,364.9,288.86Zm21-52.17c-.18,2.14-.11,5.19-.93,7.08s-.56,2.21-1.78,3-6.95,3.37-9,5S371.7,254.1,370,259c0,0-4.42.89-6,1.22s-4.86.82-7.47-.39-3.38-1.36-3.84-2.13-.9-.69-1.74-.61-1.57-.6-2.09-1.48-1-1.29-1.53-1.29-2.25-1.92-2.66-2.5-.32-1.65-1.41-1.65-1.49-1.25-1.59-2.2a5.79,5.79,0,0,0-1.27-2.81c-.69-.91-1-1.88-1-4.59,0,0,.77-.2,1.06,0a8.67,8.67,0,0,0,1,3.32,11.46,11.46,0,0,1,1.87,3.25c.71,1.82,4,4.23,5.82,5.61a20.1,20.1,0,0,0,8,3.61,1.09,1.09,0,0,0,.91,1.07c1,.25,1.45.19,1.31.89s.92.44.95-.12.56-.58,1-.58.67-1.2,2.11-1.2,1.23-.66,3.1-.71,3.39.16,3.76-1.94,1.95-3,4-3.95,6.18-2.52,8.46-6.07l-1.22-.63s-2.15,3.75-5.6,4.35c0,0,.2-.53.52-.66s-.35-.59-.94.75c0,0-1.44.64-2,.88s-1,.25-.15-.54,1.42-1.27,2.07-1.27.66-.32.91-.83.86-.81,1-.49.67,0,1.91-.94,1.57-1.58,1.65-2.57a2.92,2.92,0,0,1,1.33-2.11c.66-.61,1.7-.76,1.53-2.3s-.63-1.79-1.06-.94a11.22,11.22,0,0,1-1.38,1.8s.32-1.46.54-2.36a2.13,2.13,0,0,1,2.11-1.52C385.1,234.36,386.09,234.52,385.86,236.69ZM348.2,260.76s.24,1.34-.78.7-.91-.55,0-.94a20,20,0,0,1-6.82-4.77c-2.75-3.13-2.64-4.09-2.64-4.09l-.71.25a20.24,20.24,0,0,0,1.17,2.38,1.17,1.17,0,0,1-.94.53c-.66,0-1.07.09-.49-.63s.19-1.19-.13-2.08,0-1.31-.9-1.31-1.08.39-1.08-.63.32-1.22-.59-2-.67-1.22-.67-2.44,0-2.16.49-2.46,1-1.25.69-1.52,0-.68.4-.38.52-.25.52-.81-.76-.39-.92-.39-.17-.36-.41-1.43-.88-.2-1.07-3.08a34.33,34.33,0,0,0-.69-6c-.61-3-1.38-4.41-1-6.09s.93-3.09.93-3.49c0,0,1.2-.39,1,1.61a7.35,7.35,0,0,0,.13,3.6,43.3,43.3,0,0,1,.51,4.94c.07,1.28.12,1.61.47,2s.36.89.27,1.92-.08,2.2.26,2.45.5.94.5,1.64,0,1.85.37,2.15a1.68,1.68,0,0,1,.52,1.45c0,.57.08,1.55.55,1.91s.75,2.09,1.15,3.88,1.26,5.06,2.76,6.61,2,1.12,4,3,7.46,4.41,9.59,5.27C354.62,262.43,352.22,263.12,348.2,260.76Zm3.38,2.6c0,.24-.35.34-.75.34a.47.47,0,0,1,0-.94C351.18,262.68,351.58,263.12,351.58,263.36Zm-1.93.7a27.68,27.68,0,0,1-6-1.41,8.42,8.42,0,0,0-3.79-.93,5.43,5.43,0,0,1-1.83-.5s.39-.67-.9-2-5.11-5.89-5.77-6.42-.06-1-1-2.35a10.56,10.56,0,0,1-1.51-3.65c-.22-1-1.31-1.61-1.27.11a13.33,13.33,0,0,0,1.27,4.39s-1.27.19-1.63-2-.93-1.4-.84-2.73-.65-2.39,1.58-2.24a9.31,9.31,0,0,0,1.87.35c.63,0,.53.23,1.13,1.13s.28.64-.18,1.08-.15,1.27.35,1.92,1.56,1.65,1.56,2.07.44.57.65,1.12,1.19,1.2.9.34.29-1,1.18-1,1.9,1.61.56,1.77-.35,1.91-.22,2.29,2.31,2.44,2.44-.14l.67-.36a23.83,23.83,0,0,0,6.83,5.51s-1.37.91.1,2.06a1.32,1.32,0,0,0,2.18-.42s1.49-.3,2,.27A1.42,1.42,0,0,0,349.65,264.06ZM329.56,251.3c-.35-.24-.95-1.54-1.45-3.65-.17-.69-.05-1.8.43-.1a17.33,17.33,0,0,0,1.61,3.46,10.59,10.59,0,0,0,1.29,2.45c.81,1,5.08,5.45,5.72,6.29s.32,1.32-1,.05a52.32,52.32,0,0,1-5-5.81A17.92,17.92,0,0,0,329.56,251.3Zm.78,3.17a1.49,1.49,0,0,1-.78-1.31s0-1.25.86.3S330.7,254.55,330.34,254.47Zm-6.71-16.17c-.31-.86-1.39-2.11-.4-5.76,0,0-1,.35-1-.66s.57-.83,1.06-.63,1.49-.21.84.76-.18,1.72-.18,2.57.59.62.59-.16-.26-1.17,1.28-1.17,1.56-.36,1.77-.58,1-.3.92.29.35.9.35,1.62-.6,1.72-.6.59-.12-1.38-.61-.83a1.52,1.52,0,0,0-.1,1.52c0,.51.57.77.57,1.25s.91,1.26.86-.06-.15-1.76.75-.89.8.42.17-.43a3.41,3.41,0,0,1-.89-2.3c0-.84-.18-2.21.51-2.18s1.32.34,1.27,2a14.29,14.29,0,0,0,.92,5.21c.45.94.82,3.37-.74,3.46a11.94,11.94,0,0,1-2.29,0,3.15,3.15,0,0,0-1.09-2.91,3.84,3.84,0,0,1,.53,2.16s-1.22,1-.89.06.15-1.19-.37-1.66-.23-.85.13-1.27.49-1.13.07-1.13-.41-.45.05-.45.27-.5-.17-.5-.47-.39-.92-.81-.75-.43-1,0a2,2,0,0,0-.23,1.76c.27.54.27,1.42.9,1.79s.77.89.44,1.19-.69,1.08-.15.61.71,0,.69.77-.07,1.09-1,1.09-1.11-.24-1.05-1.27A8.62,8.62,0,0,0,323.63,238.3Zm.23,5.47c-.49-.07-.6-.73-.6-.73s-.27-1.54.37-.6S324.38,243.88,323.86,243.77Zm-1-15.36s.65-.73.65.36-.17,2.64-1,1.85S322.47,228.91,322.84,228.41Zm7.28-.1c.32-.24.41-.61.47-1.94,0,0,.57-1.12.8.13s.52,1.61.52,2.11-.06.75-.69.62a6.29,6.29,0,0,0-1.83-.16A2.84,2.84,0,0,1,330.12,228.31Zm.67-7.27s1.06-.93.72.24a7.78,7.78,0,0,0-.47,2.58c0,.85-.45,2-.87.6S329.41,222.35,330.79,221Zm-1.45,7.32c-.39,0-.62-1-.8-.25s-1,.86-1,0,.52-1,1.18-1,.88,0,.95.46C329.67,227.62,329.75,228.36,329.34,228.36Zm-4.1-2.05a10.79,10.79,0,0,1,1.27-2c.57-.67,1-.53,1,.13a3.79,3.79,0,0,0,.22,1.42S326.06,226.19,325.24,226.31Zm1.72,2.6c-.4.35-.57.28-.57-.3s.46-.75.54-.45C326.91,228.16,327.45,228.58,327,228.91Zm-1.12-1c-.47,1.05.22,1.22-.47,1.39s-.84,1-1,.05a1.45,1.45,0,0,1,.77-1.62S326.36,226.85,325.84,227.92Zm.15,10.2c0,.52-.15.52-.28.52s-.59-.18-.32-.57C325.39,238.07,326,237.64,326,238.12Zm-.37,6.52c.44.34.37.91-.43.27C325.19,244.91,325.12,244.3,325.62,244.64Zm.77-1.14c1.55,0,1.7-.36,2.56-.06a2.88,2.88,0,0,0,2.49-.52c.76-.43,2.57-1.33,1.4-3.07s-1.54-4.84-1.73-7.12-.84-2.24-1.77-2.18-2.49.56-3,.5c0,0-.57.17-.63-.24s1.54-.65,2.16-.65,1.57-1.09,2.53,0c0,0,1.64-1,1.78.42a40.35,40.35,0,0,1,.47,4.32,5.64,5.64,0,0,0,.72,2.95,3.73,3.73,0,0,1,.81,2.36c0,1.1.19,1.91-.43,2.2s-.72,1.39-1.71,1.39-2.08-.27-2.91.14-2.22.09-2.92.09S324.85,243.5,326.39,243.5Zm7.12,5.6c0-.51-.54-.45-.71,0s-.84.24-.6-.12a1,1,0,0,0,.1-1.31c-.42-.45.37-.69.37-1.28s.67-.48.67.41a1.91,1.91,0,0,0,.67,1.63c.45.46.45.67.28,2,0,0-.41,1.22-.78.54a.7.7,0,0,1,.5-1.07A1.2,1.2,0,0,1,333.51,249.1Zm-1.26-4.8c.72,0,.59.48.15.42S331.54,244.3,332.25,244.3Zm-.86,3.59a.33.33,0,1,1,0-.65C331.77,247.24,331.85,247.89,331.39,247.89Zm4.76,6.87c-.19.15-.33,0-.41-.66,0,0,.41-.55.73-.34S336.36,254.61,336.15,254.76Zm1,.75c.63-.35.57.13,0,.48C337.13,256,336.56,255.86,337.16,255.51Zm9,5.65a4.29,4.29,0,0,0,1.44.7s-.12.9-1.12.42S346.15,261.16,346.15,261.16Zm-5.21-10.32c1.35,1.12,4.64,3.65,3.31,3.65s-1.81-.08-2.1-.08-.57-.16-1-.65a8.93,8.93,0,0,1-1.47-3.23S339.51,249.76,340.94,250.84Zm5.69,6.52s2.18,1.92,7.9,2.8c0,0,1.36.15,1.36,1s-.35,1.21-1.81.56S348.2,259.06,346.63,257.36Zm5.55,6.29c0-.53.11-.78,1.14-.47a8.15,8.15,0,0,0,2.39.18s1.46.7.35.87.05.63-1.79.63a5.76,5.76,0,0,1-2.58-.35C351.49,264.43,352.18,264.23,352.18,263.65Zm4.73,0c.12-.53,1.07-.64,1.07-.23s.34.37,1.38.14a9.09,9.09,0,0,1,2.17-.44c.64,0,.86-.6,1.6-.91a10.38,10.38,0,0,1,2.2-.41c.37,0,.54.15,1.17-.67s1.87-.52,2.29-.46a4.08,4.08,0,0,0-1.4,1.13c-.28.63-1.57.94-2.36,1.3s-3.52,1.21-4.73,1.57a8.33,8.33,0,0,1-3.87-.06A3,3,0,0,0,356.91,263.65Zm21.43-19.71c.74-.83.54-.31.62-.08a6.38,6.38,0,0,1-.95,1C377.75,245,377.56,244.72,378.34,243.94Zm4.1-5.48c.43-.82.71-.52.71-.52a.48.48,0,0,1-.17.6S382,239.22,382.44,238.46Zm4.39,4.58a18.69,18.69,0,0,0,.34-5.33c-.22-2.48-.28-3.73-2.67-3.73s-2.73,1-3.44,3.66c0,0-.2,1.79-1,1.74s-.49-1.26,0-2.8.52-3.65,2.67-4.29,4.28-1,4.62.44a9,9,0,0,1,.58,3.15C387.92,237.44,388.52,240.85,386.83,243Zm-10.22-33.33c.2-.31.82-.25.61.1s0,1,0,1c.6-1.1.79-.67,1.31.17s-1,.37-1.79.28-.63-.19-.63-.63S376.4,210,376.61,209.71Zm-21,0c.34.47,0,.83-.52.83a3,3,0,0,1-.95,1.66s4.56-.53,6-3.65c0,0,0-.76,1.34-.51s2.33.81.36,2.54c0,0,2.56.7,2.56-1.42a11.69,11.69,0,0,1,1.41-1.24c.66-.43.11-.63-.79-.73a42.37,42.37,0,0,0-6.76,0c-1.1.24-2.53.91-2.53-.36s-.35-1.12-1.12-1.4a19.39,19.39,0,0,1,5.95.28c2.43.73,4.1.23,4.87-.49s5-3.13,6.43-1.69c0,0-1.21-.24-2.95,1.75,0,0-.26.88.37.15s2.76-2.69,3.35-.78a9.91,9.91,0,0,0,1.2,2.67c.33.42.38,1.23-.36.81s-.84-.34-.57.19.93.72,1.31,1.2a2.56,2.56,0,0,1,.55,1.48c.07.44.89,1.53.89,1s.89-.23,1.49-.23a2.2,2.2,0,0,1,1.93,1,4.46,4.46,0,0,0,1.58,2c.8.44.85.85.2,1.09s-.4.4,0,.4,1,0,1,.32-.33.55-.85.55-1.13.48-1.45.05-.51-.17-.61.3a3.19,3.19,0,0,0,.41,2c.4.67.83.84,1.38.37s.67,0,1,.55a3.06,3.06,0,0,0,1.16,1.14c.51.33.78.72.65,1.81,0,0-.73.46-.79-.3s-.67-.3-.67-1-.69-.55-1.4-.71a5.7,5.7,0,0,1-3.05-2.24c-.83-1.3-.78-2.67-1.18-4.06l-.38.14s-.25.17-.08.87a13.81,13.81,0,0,1,.52,2.95c0,1-.06,1.28-.52,1.74s-.54.54-1.86.45-1.36.21-.92.53.9.6-.12.65a11.27,11.27,0,0,0-2.7.75c-.37.19-.54.09-.86-.11s-.65,0-.37.2.09.38-.14.59a11.29,11.29,0,0,0-2.05,2c-.72,1-1,1.74-1.85,2.25a19.45,19.45,0,0,0,1.4-3.07c.52-1.56,1.87-2.95,0-4.81,0,0,.88,1.7,0,2.72s-2.43,1.67-3.45.64a2.3,2.3,0,0,1,.85-3.87c1.89-.58,2,.1,2.89-.55s.38-.84-.16-.84a6.33,6.33,0,0,0-6-3.61c-4.57,0-6.8,3.49-6.87,7.12a2.86,2.86,0,0,1-.17.91c-.16.14-.4,1.18.17,1s.84,0,.56.48-.32.6-.73.49-.4.3-.3.75a1.5,1.5,0,0,0,.54.88c.25.27.32.52-.07.78s-.33.53-.33.89-.29.82-.29,1.31-.29.48-.29.48-.31-.24-.31.48a16,16,0,0,0,.54,2.57c.21.77.61,2.13.68,2.58s.22,1,.27-.5a3.58,3.58,0,0,1,1-2.72c.82-1.1.82-1.75.82-.19s.26,2.87.31,4.5a26.11,26.11,0,0,0,.35,2.76c0,.46.78.82.63,1.71s-.37,1.75-.84.6-1.27-1.55-1.6-3.29c0,0-.11,2.15.46,2.93s1.55,1.56,1.66,2.27.09,1,.79,1,.66.4.66.86,0,1-.46,1-.62-.26-.52-.78-.15-.33-.52-.33-1.15.3-1.59-.89-1.74-1.4-2.09-2.87a58.32,58.32,0,0,1-.63-5.82c-.15-1.73.09-2-.4-3.12a6.67,6.67,0,0,1-.6-5.49,34.88,34.88,0,0,0,.92-7.52s.1-.72-.67-.23-1.46,2.09-2.35,1-.3-.95-.06-1.24a.76.76,0,0,0-.09-1.12c-.45-.43-.32-.73-1.1-.85s-.86-2.1-.95-.34c0,0-.08,1.82-.62,1.82s-.72-1.4-.65-2.14a1.91,1.91,0,0,1,.94-1.82c.92-.6,1.42-.67,2.06-1.78s.75-1.08,1.13-1a1.56,1.56,0,0,0,1.47-.81c.57-.76,1.71-.95,2.41-1.22S355.25,209.2,355.6,209.71Zm24.91,9.39a.44.44,0,0,1-.48.49c-.29,0-.47-.17-.47-.76,0,0,.18-.49.55-.49S380.51,218.8,380.51,219.1Zm-17.19,24.67s-.93.59-1.44.33c0,0-.39,1.14-1.38.26,0,0-.18.69-1.09-.12s-.52-.74-.57-2a14.63,14.63,0,0,0-1.22-5,13.59,13.59,0,0,1-.76-6c.17-1.41.76-3.51-2.38-5.53,0,0,1.46-1.45,2.26-2.21s.88-.67,1.41-.67.78.86.78,1.33a2,2,0,0,1-.34,1.26c-.27.29-.15,1,.34,1.95a4.43,4.43,0,0,1,.82,2.19c0,.7.82,1.43,1.07,2.22A11,11,0,0,1,361,235c-.08,1.21-.32,2.36.93,3.32a8.73,8.73,0,0,1,0,2.26A3.26,3.26,0,0,0,363.32,243.77ZM357.49,240c-.21-1.12-.75-1.18-.77-4,0,0,.56,1.6.94,2.41a10.23,10.23,0,0,1,.66,4.4,1,1,0,0,1-1-.21A8.1,8.1,0,0,0,357.49,240Zm-1.85-12.42s-1,1.09-1.51.66.55-1.06.49-1.73A2.36,2.36,0,0,1,355.64,227.62Zm.3-6.65c.8-.28.66,0,.12.83s-1.64,1.92-1.53.82-.71.45-.14-1.65,1.13-3.46,2.47-4,2.5-.54,3.77-1.25,2.74-.48,4.75,1.81c0,0,.86,1.08-.28.42s-1.28-.32-1.78-.73a1.29,1.29,0,0,0-1.7.13c-.35.47-.95,1.17-1.54.6s-.62-.68-1.15-.32-2.07,1.81-2.54,2.2S355.1,221.21,355.94,221Zm6.28,7.14a4,4,0,0,1-1-.69c-.26-.26-.43,0-.17.62s1,.48.36,1.49a2.3,2.3,0,0,0-.43,1.63,3.21,3.21,0,0,1-.84-1.57,6.63,6.63,0,0,0-1.07-2.5c-.29-.59-.51-1.19-.07-1.62s.61.24.87.63a5.91,5.91,0,0,1-.32-1.89c.06-.82-.22-.94-.65-1.3s-.95-1.41.17-1.29a2.44,2.44,0,0,1,1.91,1.93c.13.61.78.55.38,0s-.76-3.41.74-4.18c0,0-.69-.87.31-1.23s2.72-.3,2.89.81c0,0-3.39-.19-3.39,2.94s2.7,4.12,4.26,2.48a11.42,11.42,0,0,1-1.91,4.4c-1.29,1.39-2,2.17-2.41,1.8s.06-1.26.46-1.6S362.74,228.41,362.22,228.11Zm-10.3,7.3a2.71,2.71,0,0,1-.67-1.92c0-1.31-1.31-2.2-1.31-3.36s.38-1.55.65-.52a17.28,17.28,0,0,0,1,2.7A5.73,5.73,0,0,1,351.92,235.41Zm-14.19-31.76c1.52.69,2.58,1,3,1.55a30.2,30.2,0,0,1,4.86.13c2.09.31,6.4-.13,8.21,0a14.79,14.79,0,0,1-2.56,1.3c-.74.21-1,.61-2.29,0s-1.69-.64-2.31-.45-.91.58-1.52.29-1.49.2-.8.42,1,.8.26.91-1.47.25-1.3.83a5.49,5.49,0,0,1,.29,1.55,2.06,2.06,0,0,0,.26,1,3.66,3.66,0,0,1,.09,1.25c0,.33.34-.12.4-.42s1.15-1,.37-1.71-.6-.56-.45-1.27.52-.78.73-.3.67.42.67-.18.37-1.3.84-.88.95.11.95.88.86.9,1.39.23a7.37,7.37,0,0,1,2.64-1.91,1.56,1.56,0,0,1,1.54.14s.54.21.05.66a40.52,40.52,0,0,1-3.05,3.18c-.69.52-1.71,2-2.5,2.51s-2.05.89-2.05,2.33a27.17,27.17,0,0,0,.14,3.61,6.08,6.08,0,0,1-1.33.47s.26-1.74-.34-2.13a15.36,15.36,0,0,1-2-2.07V212s0-.84-.33-1.09-.36-1-.36-1.61.19-2-.2-2.21a1.21,1.21,0,0,1-.58-.84c0-.13-.43-1.09-3.36-2.46C337.13,203.83,336.15,202.93,337.73,203.65Zm6.29,19s-.09,1.07-.54,1.25-.57,0-.57,0a12.42,12.42,0,0,0,0-1.28s1.06,0,1.17-2.21C344.13,220.41,345.34,221.28,344,222.65Zm-3.13-14.21c-.05.41-.05,1.29-.58,0,0,0,0-.46.21-.59S340.94,208,340.89,208.44Zm-7.27,2.6s.21-.6,1.26-.56c0,0,.79-.11.32.25s-.24.47-.24,1.35-.1.36.34.42.59.5.59.93.58.65.58,1.28,0,.78.46.78.37.27.25.74-.05,1.38-.05,1.75-.05.52-.72.27a4.66,4.66,0,0,1-2-2.49c-.45-1.15-1-2.33-1-2.33A17.47,17.47,0,0,0,333.62,211Zm-.57-.81s-.85,0-.21-.71,1-1.08,1.55-.36,1.35,1,.24,1S333.05,210.23,333.05,210.23Zm2.62-1.79a12.16,12.16,0,0,0-3.17-.4s-.44-.19,0-.61.55-.35,1.27-.14a10,10,0,0,1,2.49.75,5,5,0,0,1,1.84,2.19A5.08,5.08,0,0,0,335.67,208.44Zm2.75,8.27c.66,0,.66.44.66.74s0,.45-.28.35a2.14,2.14,0,0,1-.62-.38S337.83,216.71,338.42,216.71Zm.63-7a9.07,9.07,0,0,1-1.92-1.61,3.36,3.36,0,0,0-2-1.27,9.37,9.37,0,0,0-2.58-.44,2.62,2.62,0,0,1,2-1.25c1.21.06,2.64-.22,3.76,1.45a7.47,7.47,0,0,1,1.27,2.75C339.72,209.73,339.64,210,339.05,209.71Zm1,10.46s0,2.36-.69-.06ZM331.16,209a5.42,5.42,0,0,1-.4,3c-.34.67-1.06,1.75-1.16-.24a10.78,10.78,0,0,1,.93-5.57c.83-1.25,1.53-1.92,1.77-1.58a.62.62,0,0,0,1-.41c0-.54,1-1.13,1.67-1.13s1.19.06.93.47-.07.3.78.66a17.84,17.84,0,0,1,2.47,1.28s1.38,1.16.18.77-1.91-1.57-3.65-1.57-3,.35-3.71,1.57S331,207.79,331.16,209Zm.61,2.54s-.41-.85,0-.69.49,0,.89-.18.59-.06.59.57-.12,2.7-.52,1.72A3.37,3.37,0,0,0,331.77,211.58Zm-.18,5.79c.54.8.81,0,1.25.37s.74-.12.27-.62-1-1.13-.74-1.53.8.17.95.84A6.63,6.63,0,0,0,335,219c.6.6,3.41,2.09,3.79,3.4,0,0,.4.27.25-.16a5.6,5.6,0,0,0-2.4-2.38,7.74,7.74,0,0,1-2.82-3,4,4,0,0,1-.84-2.45c0-.68.4-.59.67.48a8.42,8.42,0,0,0,2.56,4c1.08.66,2.86,1.58,3.12,2.77s.84,1.63.84.33c0,0,.54.11.42-1.55,0,0,1.67.43,1.69-1.51,0,0,.59.15.59.39s.47.4.47-.36a1.73,1.73,0,0,0-.79-1.41c-.34-.3-1.76-1.37-1.58-2.74.29-2.45.14-2.83-.18-3s-.55-.42-.25-.84c0,0,.37-.6.52,0s.65.45.56,1.46a27.58,27.58,0,0,0,0,2.93,1.47,1.47,0,0,0,.64,1.37,6.63,6.63,0,0,1,1.69,2.17c.06.24.27,1.43-.43,1.43,0,0,.29,1.7-1,2.11a6.32,6.32,0,0,1-.27,2.92,7.46,7.46,0,0,0-.4,3.09c0,.66.33.8.67.83,0,0,.84,1.17.84-.37s-.17-1.85.59-2.4,1-.54,1.3-.83.91-.54.57.71a10.35,10.35,0,0,0-.57,2.36c0,.58-.2,1.31-.75,1.31s-.77.65-.55,1.37a8.8,8.8,0,0,1,.32,2.36c-.06.57.65,1.66.65,1.87s.17.78,1.07.81,1,.36.78-.66-.44-1.57.17-1.55,1-1,1,0-.22,1.61,1,2.76,1.41,1.39,1.23.36-.11-2-.46-2.36-1-.34-1-1.67a31.74,31.74,0,0,0,0-3.84c-.14-.34,0-1.1.45-.74s.26.47.26,1.11a2.92,2.92,0,0,0,.52,1.63,12.22,12.22,0,0,1,.7,2.09,8,8,0,0,0,.83,2.23,2.8,2.8,0,0,1,.74,2c0,.94,0,3.75.77,4.57a11.54,11.54,0,0,1,1.9,2.34c.24.65.56,1,2,2s2.53,1.21,2.56,1.57.57.37.89.26,1.37,1.05,1.71-.26,2.26-.66,2.83-.66,4.76-.36,6.63-1.81a8.83,8.83,0,0,0,2.58-3.46l-1.11-.13a4.85,4.85,0,0,1,.78-1.75,3.43,3.43,0,0,0,1.08-2.15,3.24,3.24,0,0,1,.52-1.86,4.38,4.38,0,0,0,.4-2.35,21.58,21.58,0,0,0-.4-2.76,7.15,7.15,0,0,0,1-2.91c0-1.25-.29-.9-.81.48a7.82,7.82,0,0,1-2.35,3.44c-.77.5-.6-.82-.5-1.74a13.58,13.58,0,0,1,1.44-3.39c.64-1.2,0-1.09-.6-.25s-1.78,3.55-2.18,3.79-.91.3-1.21,1.24-1.4,2.64-1.64,3.43-.56,1.32-.61,0-.65-3.54-.16-4.67-.17-1.56.67-2.23a16,16,0,0,0,2.14-3.35s-.06-.51-.6.34a25.91,25.91,0,0,1-2.75,3.51c-.52.35-.87.64-.94,1.1a3.66,3.66,0,0,1-1.27,1.34,13.44,13.44,0,0,1-.14,3.72,21.9,21.9,0,0,0-.23,4.91c0,.89-.09,1.09-.47,1.34s-.71.6-.66-.67a25.55,25.55,0,0,1,.22-4.21,30,30,0,0,0,.65-5.22,2.12,2.12,0,0,0-1.05,1.09c-.29.85-1.08,1.15-1.43.85s-.14-1.27-.14-1.45.35-.49.76-.46.63-.31,1.4-.88a5.79,5.79,0,0,0,2-2.3,11.65,11.65,0,0,1,3.68-4.18,4.41,4.41,0,0,1,3.59-.24c.39.09.66-.15.94-.61s1.24-.43,1.95,0,.64.82.27,1.06-.69.13-.76-.36-.35-.58-.71-.15a1.62,1.62,0,0,1-.75.57,1.17,1.17,0,0,0,1.11.57,3,3,0,0,1,2.34.87c.52.65.83.8,1.06.5a.68.68,0,0,0-.54-1.06c-.59,0-1.61-.46-.4-1.3s1.86-.06,1.86-1.12.83-.78,1.44-.68.78.08.78.61.11.66.37.66.6.78.6.78-1-.36-1,.41-.07,1.39.69,1.43.74-.34.74-.79a10.8,10.8,0,0,0-.12-1.24s.76-.12.81.43a5,5,0,0,0,1,2.44,5.62,5.62,0,0,1,2.68,5.13,1.84,1.84,0,0,0-2.18-1.1c-1.73.25-4.55.55-5.05,2.59a30.64,30.64,0,0,1-2,5.84,15,15,0,0,1-1.32,1.94,2.17,2.17,0,0,0-.54,1.15c-.06.49-.25.7-.89,1a5.11,5.11,0,0,0-1.75,2.18,5.92,5.92,0,0,1-2,2.17,32.28,32.28,0,0,1-4.28,2.85,10.3,10.3,0,0,1-5.15.9,9.22,9.22,0,0,0-3,.11c-.55.09-1.19.55-.26.44s2.7.06,2.61.46a4,4,0,0,1-.45.88s-.2.51.54.51a1.65,1.65,0,0,0,1.49-.84.65.65,0,0,1,1.1-.17c.39.41.28.77-.06,1.25a4.77,4.77,0,0,1-3.44,1.57c-1.84,0-3.94.19-5.58-.44s-3.81-1.45-3.62-2,.72.2,1.39.33a26,26,0,0,0,3.64.57c.63,0,.11-.4-.49-.4s-3.07-.85-3.59-1.85-.8-.92-1.4-.92-1.15-.18-1.15.31,1,0,.66.58-.34,1-1,.42-4.59-3.16-6.59-7-.94-3.46-2.25-5.17-2.5-3.19-1.93-4.16,2.41.66,3.08,1.61.83,2.24,1.69,3.25a7,7,0,0,1,2,3.43c.18,1.19.83,2.74,3.44,4.62,0,0,.53.3.58,0s-.52-.36-1.1-1a17.18,17.18,0,0,1-2.52-3.6c-.91-1.85-.48-1.85-.34-1.82s.34.21.89,1.36a19,19,0,0,0,2.45,3.7,3.19,3.19,0,0,0,1.95,1.06c.62.15,2.52.91,2.52,1.6a1,1,0,0,0,1.06,1.14c.66,0,1-.35.35-.49s-1.22-1.1-1.73-1.79-1.58-1-2-1.45-.49-.72-.49-.07-.89.3-1.63-.75-2.79-4.64-3.45-5.66-.29-1.5.76-.48a24.1,24.1,0,0,1,3.19,4c.47.84.62,1.05.35,1.47s-.08.4.12.75.37.3.37-.35.64-.73.87-.9.71,0,1,.94.61,1.16,1.68,1.83,2.66,1.85,3.69,1.91.4-.36-.19-.81-3.57-2-4.17-2.93-1.06-.59-1.9-2a6.67,6.67,0,0,0-3-2.57c-1-.42-.94-1.22-1.88-2s-.26-1.8-1.85-2.87-.5-.79-1.65-1.7-.17-.94-1.35-4c0,0-.55-1.66-.55.6a5.89,5.89,0,0,1-.85-3.06,17.15,17.15,0,0,0-.54-4.72s-.61,2-1.61,2.27-1.55.66-1.68,1.56-.82.47-1.64,2.35a40.39,40.39,0,0,1,0-4.46c.15-.95-.19-.95-.44-1.3s-.58-2.27.11-2.83.56-1.14-.63-2A3,3,0,0,0,332,219l-.13,1.19a.86.86,0,0,0-.87.25l.1-2.26s0-.8-.44-.73S331,216.5,331.59,217.37Zm33.85,27.27c1,.08,1.78.08,1.81.43,0,0-1.32,1.19-2.22.72S364.47,244.53,365.44,244.64Zm6.69-3.36a11.07,11.07,0,0,1-2.65,3c-.78.42-1.25,1-1.3-.2s.52-1.48.93-2.22.07-1.9,1.28-1.79c0,0,.71-1.85,1.57-2.05a21.73,21.73,0,0,0,1.46-3.92s.28-1.05.95-.62a1.13,1.13,0,0,1,.14,1.7c-.36.63-.43,1.58-.81,2.44S372.54,240.54,372.13,241.28Zm-.26,2.35s-.95,1.15-1.58,1.15c0,0-.81-.14,0-.54s.69-1.46,1.46-1.1c0,0,.12-.7.76-.7S372.91,243.7,371.87,243.63Zm-42.38-23c.49-.36.83-.12.63.39,0,0-.91.89-1.12.62S329.06,221,329.49,220.61Zm.07,4.45s-1.36.81-1.36-.08,0-2-.93-2.33-2.42,2.41-2.76,2.95l-.41-.13a10.08,10.08,0,0,1,2-2.64C327,222,329.6,221.68,329.56,225.06Zm-9,4.86a3.07,3.07,0,0,1,.3-1.81c.43-1,.59-.28,1.23-1.8s1.41-2,.26-1.79c0,0,3-3.19,4.51-3.24a6.58,6.58,0,0,0-2.41,2.09,15.66,15.66,0,0,1-1.36,2.14c-.31.32-.24.39.18,1s0,.91-.52.91a1.28,1.28,0,0,0-1.26,1.09c-.2.85.06,2.89-.86,2.35S320.55,230.07,320.55,229.92Zm-.71,3.73s.69-1.06.69,0-.23.69-.61.71S319.34,234.36,319.84,233.65Zm-57,45.17c.71-3.41,2-10.84,1.94-13.41s-1.13-5.49-1.27-8.22a13.45,13.45,0,0,1,1.05-6.74c1-2,1.38-4.84,2.21-6.75s3.19-5.06,8.39-9.42,8.42-3.41,10.92-3.41,9.55.51,12.78.51a39.86,39.86,0,0,1,7.8.8c1.18.25,4.19.89,11.63-4.76a1.33,1.33,0,0,0-.21.8c0,.55-.07.75-.79.92s-1,1.08-1.18,1.43a2.4,2.4,0,0,1-1.93,1.41c-1.26.15-1.78-.06-2.39.63a32.22,32.22,0,0,1-3.63,2.86c-.6.47-2.6.75-.78-.46s1.23-1.94-.13-1.22a9.93,9.93,0,0,1-4.38,1.13c-1.5,0-3.81-1.27-6.44-1.27s-4.39.08-5,.08c-1.74,0-1.07-1-2.74-1s-2.55-.25-3.55-.14a8.53,8.53,0,0,0-2.65.9,6.35,6.35,0,0,1-2,.63,5.16,5.16,0,0,0-3,1.35c-1,.9-2.81,3.05-3.35,3.45a5.67,5.67,0,0,0-1.38,2.06c-.24.72-1.22,1.91-1.94,2a2.89,2.89,0,0,0-2,1.23,6.06,6.06,0,0,1-1.81,2.44,2.12,2.12,0,0,0-1.13,2.08c0,1.05.25,3.88-.52,4.48s-.9,1.41-.47,3.53a44.46,44.46,0,0,0,1.19,4.47s.49.19.49-1.08a11.8,11.8,0,0,1,.77-3.6c.39-1.31.49-1.94,1.2-4.07s.34-3.43,1.83-5.09,1.82-1.91,2.36-1.85.76.09.76-1a4.35,4.35,0,0,1,2.55-3.83c1.77-.55,3.8-1.83,4.3-2.87a1.66,1.66,0,0,1,1.69-.87,1.82,1.82,0,0,0,1.33-.89c.56-.84,1.43-.54,2.49-.54a2,2,0,0,1,1.81.71,3.44,3.44,0,0,0,2.57.65c1-.17,2.64-.23,2.64.54s1-.05,1,.91,1.21.28,1.83.28,2.15-.34,2.88.31,1.26.69,1.77.26.81-.45,1.07.24,1,.6.68,1.74-.08,1.87.59,1a17.6,17.6,0,0,1,3.35-2.81c.69-.45,2.47-.45,1.76.77s-.21,1.5-.21,2.1.14.79.9-.6a35.85,35.85,0,0,0,2.06-4,1.43,1.43,0,0,1,1.48-1.13c1,0,1.1.23.93,1.25s.28,1.27.77.24.93-4.06,1.62-2.16a4.67,4.67,0,0,0,1.73-1.3c.48-.69,1.1-1.35,1.88.83a1.3,1.3,0,0,1,2.34.33c1,1.94,1.46,2.56,1.51,3.15.08,1.15-.95.54-.45,1.56a3.25,3.25,0,0,1,.36,2.14c-.11.25.14.6.77,1.41a10.56,10.56,0,0,1,2.86,4.76c1,3.28,3.85,6.64,5.68,8.77s3.53,3.27,9.64,5.78,9.6,3,12.24,3,12.53-.45,15.43-4.88c0,0,.56,1.82,1,2.82a4.58,4.58,0,0,1-.6,5.51c-2.1,2.57-2.62,2.16-2.62,5.94s-.2,5-1.06,6.13a4.37,4.37,0,0,0-1,3.72c.18,2-.45,3-1.32,3.51s-1.06.85-1.06,1.69a3.37,3.37,0,0,1-1,2.29,3.81,3.81,0,0,0-1.06,2.57,29.26,29.26,0,0,0,.39,3.44s.55-2.08,1.94,0,5.47,4.58,7.48,5.94,3.14,2.64,3.2,3.16-.5.69-.95.09a1.11,1.11,0,0,1-1,.81c-.81,0-1.18-1.35-2.61-1.42a13.88,13.88,0,0,1,1.74,3c.45,1.27.45,1.8-.21,1.83s-1.28-1.31-1.77-2.14a5,5,0,0,0-3.78-3.7,2.87,2.87,0,0,1,.19,1.43,1.43,1.43,0,0,1,2.22.66c.81,1.67,1.18,2.47.58,2.94s-1.79,0-1.9-1.19c0,0,0-.72-.63-.72s-.34.66-.34,1.18.86,1.54.07,1.59-.77,0-.95-1.16-.53-.58-.93-.53a9.27,9.27,0,0,1-4.34-1.66,1.52,1.52,0,0,1-.52.89c-.39.27-.46,1.18.34,1.19s1.62.63,1.27,1.13-1.58.72-3.84-1.08a6.55,6.55,0,0,0,4.61,2.27c2.8.06,3.74-.73,5.89-.73s3.85.81,5.19.81,2.88-.55,2-4.19c0,0,1.7-.1.06-2.23-.89-1.2-3.59-3-6.12-4.9,47.52,6,87.32,19.35,111.43,36.72,19.78,21.38,22.06,29.6,19.5,42.06-.69,3.51-6.77,5.48-5.86-1.16,4.11-30.45-42.32-58.27-74.1-63.34,24.67,8.14,50.41,19.61,65.09,41.32,7.57,13.73,7.6,24.84.1,38.6a32.4,32.4,0,0,0,14.08,1c-4.68,7.49-12,14.54-21.53,21C443.32,435.32,407.7,443,371.44,449a419.75,419.75,0,0,1-110.67,1.65c-7.3.06-14.56.15-21.95.39-57.42-9.66-101.19-30.36-115.28-55.57-.34-5.49,4.79-7.61,9.52-5.42-7.66-17.89,2.37-34,15.48-46.12C174,323,207,313.43,239.28,307.24c-44.94,5.67-92.18,26.32-110.75,54.61-.92,1.39-4.1,2-6.34,1.12,13.55-29.13,66.64-52.73,135.32-61l1.34-.15a4.06,4.06,0,0,1-.6,2.21c-.68.84-1,1.31-.61,1.76s.42.74,0,.74,0,1.26-.22,1.8a21.42,21.42,0,0,1-1.05,2.05c-.67,1.2-.67,2.75-.67,6,0,0,1.21.92,7,.92s7.78-2.33,7.66-4.27-.43.12-.65-1.26-1.58-1.28-1.36-2.5-.28-.86-.63-1.71-.76-3,.5-2.91c0,0,.26-1.78.74-3.82,7.81-.69,19.11-1.46,32.67-1.73a7.45,7.45,0,0,1,.29,1.85c0,1.79.15,3.51.15,3.51s1.28-1,1.28,1.25,1.56,9.6.8,12.06-1.29,3.85-1.29,5.57.41,4.55,5.15,4.61,7.09-.16,7.66-.12c0,0,.31-.54,2.25-.54s2.41-2.27,2.2-2.91-.44-1.3-.44-1.3a.66.66,0,0,1-1.08,0c-.63-.64-3-2.82-1.47-2.82l-1.57-1.41-.95.71A5.86,5.86,0,0,1,317,324.1c0,2.88-1.2,3-1.87,1.75s-.69-4.36-2.26-5l-.66,1a3.13,3.13,0,0,1,1.32,2.35,4.25,4.25,0,0,0,.71,2.51s-2.87.63-3.06-3,0-4.12,0-4.12-1.45.36-2.07,2.6c0,0,.6,1.06,1,1.81s.67,1.86-.42,2.16-2,.41-2.13-.8-1.28-2.35-.94-3.86-.34-2.26.19-2.71,1.21.56,1.24,1.28a4.63,4.63,0,0,0,1.32-1.67c.54-1.11,2.38-3.08,3.3-3.08a3.12,3.12,0,0,1-.43-1.67c0-1.07.49-2.5,2.38-2.16,0,0-.39-2.81,1.75-3.72s4.69-2.14,5.38-1.12,2.66.73,3.57.18,3.49-2.4,3.88-2.48,1.21.27,1.44-1.31-.17-1.43-.57-1.73.06-1.25-1.69-1.25c0,0-.06-.68-1.69-.68a5.64,5.64,0,0,1-1.62-.21c7.63.2,15.62.57,23.81,1.21,0,1.28,1,1.61,1.54,2.5a10.85,10.85,0,0,1,1.59,3.52l.84-.42a41.35,41.35,0,0,0,2.09,3.91,10.35,10.35,0,0,0-.61-1.7c-.44-.86.18-.65,1.14-.65s.89-.35,1.42-.89.59-.72,1.43-.6c0,0,.38-1-1-1.67s-1.64-.95-1.64-2.66,1.27-1.85,1.27-3.79-1-3.3-.93-5.61,2.46-2.82,2.83-3.78,2.27,1.26,3.82-3.18c0,0-1.31,1.63-2.33,0s-1.27-2.61.27-3.65,1.94-1.2,2.34-2-.3-1.11-1-.93-1-.13-1-.8,1.6-1.24,2.33-1,1.28.22,2.06-.57.45-1.29-.63-1.29-2.06-.07-2.06-.07a15.87,15.87,0,0,1-.27-3.91c.27-1.15,1.78-1.85,2.44-2.83s.12-1-.63-.32a6.47,6.47,0,0,1-3.9,1.7c-1.56,0-1.56,0-2.1.75s-1.15,1.9-2,.94-1.46-1.09-1.74-2.58-1-1.38-1.95-1.38-4.09.36-6.44.24a14.74,14.74,0,0,1-7.76-2.37,6.35,6.35,0,0,0-5.6-1.33c-1.28.28-3.35,1.2-5.54-.71a39.8,39.8,0,0,1-5.87-6.72c-1-1.67-.21-1.81-2-2.87a2.83,2.83,0,0,1-1.24-3s-1.54-2.23.32-1.75a61.32,61.32,0,0,1-.24-6.86c.19-1.85,1.48-3.26,2.92-.33a2.34,2.34,0,0,0-.52-1.91,5.26,5.26,0,0,1-.82-2.74s-4.78,2.24-4.78,10.6c0,0,1.58-.25,1,2.88s-.69,2.57-.95,4.38-.84,1.65-.23,3.15a4.69,4.69,0,0,1-.61,4.31,29.89,29.89,0,0,0-3.3,7.87c-1.12,3.8-2.3,7.67-2.48,8.8s-1.09,1.26-.79-.77.43-5.74,1.86-8.15a16.84,16.84,0,0,0,2.05-6.17s-1.48,3.55-2.16,2.9c0,0-.29-.48.38-1.41s.62-3.34.62-3.67a7.57,7.57,0,0,0-.62,2.18c-.17,1.14-.93.56-.93-.83a6.3,6.3,0,0,1,.21-2,7.53,7.53,0,0,0-1.19,2.36,2,2,0,0,1,1,2c0,1.57.1,4.08-.92,2.44s-1.51-2.08-1.26-3.51c0,0-1.08.18-.91-1.15s1.35-3.77,1.35-.36c0,0,.5-.18.42-2.16a2.59,2.59,0,0,1,1.39-2.87c.75-.47,2.31-.77,3.32,1.5a2.41,2.41,0,0,0-1.68,1.87.94.94,0,0,1,.7-.1c.43.1.6.1.94-.85s1.26-1.23,1.26,0l.47-.69s-.06-.61-1.21-1.39a37,37,0,0,1,.44-3.7c1.05-5.64-.26-4.58-.26-7.09,0,0-.83,3.9-1.79,1.85s-1.33-6.33,1.23-5a14.38,14.38,0,0,0,.44-3.31l-1.38,1.43c-.17.18-.95,1.38-1.62-.33a6.13,6.13,0,0,1-2,3.27c-1.5,1-1.09-.19-1.09-.19s-2.91-.55-4.06.87a6.72,6.72,0,0,0-1.4,3.83c-.17,1.11-1.16,1.38-1.07-.12s.25-4.74.25-6-1-1-1.28.1-1.21,4.79-2.87,6-1.86,1.73-1.81,4-.49,3.16-1.32,3.85-1.21,1.55-1.19,3.52.55,2.29,1.79,2.29c0,0,1.21,6.11,4.08,9.16a21.14,21.14,0,0,1-1.08-4.69c.05-1.25.74-3.28,1.86-1.07s2,4.7,3.39,5.28c0,0-.56,3,.14,3.94a4.14,4.14,0,0,1,.65,2.35s1.14-1.2,1.44-.41.5,1.6-.3,2.14-1.37,2.4-1.83,1.28-.66-1.4-1.28-1.07a6.84,6.84,0,0,1-2.53.22,13.35,13.35,0,0,0-1.18-3.12,10.62,10.62,0,0,1-1.24-4.64c0-1.42-1.57-3.16-1.57-3.16s.54,4.16-1.09,3-1.17-.46-1.59-.06-.42.58-1.22.42a6.58,6.58,0,0,0-1.65-.12s.1-1,1.35-1c0,0-1.85-2-4.07-1.28s-1.94.21-1.55-1a3.54,3.54,0,0,1,3.55-2.69c2.24-.05,1.7-.6,1.81-2.65s-.11-9.82.75-12.38,2.32-3.12,3.66-3.9,1.19-.79,1-2.77.69-2.14.62-3.59.46-1-.59-1-2.8.05-3.14-.54c0,0-.57-1-1.46-1s-1.27-.49-1.79-1.06a1.8,1.8,0,0,0-1.66-.63c-.76,0-2,.63-2.82.54s-1.26.66-1,1.59.47,2.08,0,2.46-1,.35-.52,1.37a2.23,2.23,0,0,1,.09,2c-.18.3.19.66.43,1.25a6.23,6.23,0,0,1,.47,3.46,9.8,9.8,0,0,0,.27,3.7c.09.92.23,1.23-.77,1s-1.6-.35-2.13-1a18.79,18.79,0,0,1-3.44-6.68c-1.11-4-.92-4.78.58-4.45,0,0,.07-2.4,1.47-.22,0,0,2.22-.3.76.76,0,0,.41,1.64-.85.85,0,0-.18.54.48.68s1.11.56,1.11.93a11.11,11.11,0,0,1,.21-2.34c.21-.59,1.06-.88.58-2s-1.24-2-2.92-1.37-2.46.87-2.75,3.06-.13,5.11-.91,5.11-.32.55-.66-.81-.27-.73-.69-.05-.54.47-.71,0-.39-.67-.86.05-1.38,1.19-1.38,2.42.45,3.7.45,1.6.49-1.55,1-1,.37,2.15-.17,3.23a19.51,19.51,0,0,1-1.26,2.83c-.6.76-.81,2.21-.86,4.09s.19,5.73-.12,8.13-1.59,4.05-1.59,5.72a13,13,0,0,1-1.39,5.39c-.92,1.91-1,4.12-5.88,6.92C261.34,286.71,262.11,282.24,262.79,278.82ZM260.6,308.3s-.3-6.44-.45-7.65-.4-2.1.45-2.1.5.66.45,1.36a7.32,7.32,0,0,0,.24,1.74s-.14-3.12,1-2.32-.4,1.49,1.58,3.16,1,2.39,1.92,3.57.46,1.66.12,1.91-.47.58-.16.94-.31.52-.73.71-.43.56-.41,1.26.28.74.07,1.31a1.2,1.2,0,0,0,0,1.24c.17.39.24.9-.47,1.08a3.17,3.17,0,0,1-2.17-.08s-.08-1.52-.21-2.15-.45-1.08.33-1.49,1-1.27.23-1.21a5.47,5.47,0,0,1-1.38-.11s1,.93-.61,1.62c0,0,.93,2,.15,3.21,0,0,.24.54.93,0,0,0-.28.4.79.74s.89,1.62.49,1.62-.74-.36-.74-1c0,0-.64,1.93-1.55.8,0,0-.15.46-.86.37s-1-1.11,0-1.11,1.09-.06,1-.75c0,0-.95.53-1.35.06s-.85-4.21.43-4C259.8,311.09,259.61,308.63,260.6,308.3Zm7.82,4c-.41.6-.77,1.69-1.6,1.32,0,0,.4,1.41-.07,1.67s-.86.16-.74-2.1a2.57,2.57,0,0,1-.83-2.14s.14-1,.83-1,.34.93,1.26,1.19S268.83,311.73,268.42,312.34Zm.8.41a3.65,3.65,0,0,1-.08,1.76c-.11.48-1,1.48-1,.15,0,0-.61-.23,0-1.08S269,312.15,269.22,312.75Zm-3.78,3.7c-.71,0-.78-.33-.78-1.12,0,0,.11-1.14.78-.28S266.13,316.45,265.44,316.45Zm-6.94-7.13c-.32.17-.65-.23-.65-.5s0-1.1.5-1.1A.84.84,0,0,1,258.5,309.32Zm-.52,4.46c0,.41-.1.85-.58.85s-.82-.3-.82-.63a.81.81,0,0,1,.74-.89C258.25,313.11,258,313.39,258,313.78Zm12.08-42.46c1.07-3.55.8-3.29.85-7.17s-.59-4.76.38-6.14,1.47-.34,1.43-2.15.41-3.22,1.43-5.86c0,0,.33-.9.88-.52s.2,1-.09,2.18a5.28,5.28,0,0,0-.17,3.29c.4,1,.55,2.53.05,3.11a5.43,5.43,0,0,0-.67,3.2c0,1.36-.42,5.32-1.21,6.39s-1.53,1.7-1.59,2.78a36.75,36.75,0,0,1-2.08,9.06c-1.39,3.34-1.33,4.06-1.39,5.39s-.44,2.43-1.06,2.58-.86.13-.81-1.82a11.71,11.71,0,0,1,.22-2.51s1.27-2.63,2.8-6.43S269,274.88,270.06,271.32Zm20.9,3.79c2.07,1.59,7.29,5.49,8.22,9.83.07.43.17.83.25,1.21-9.8.26-18.49.76-25.37,1.28.51-1.53.93-2.9,1.17-3.76.73-2.77,1.52-3.58,5.37-7.24S288.84,273.59,291,275.11ZM282.7,261.8a5,5,0,0,1,.4-1.94s.2-1.25,1.29,0,1.09,2.51.12,3S282.7,262.92,282.7,261.8Zm18.71,29.3c-.32,0-.63-.76-.39-1.16a.42.42,0,0,1,.79.22C301.81,290.64,301.64,291.13,301.41,291.1Zm.69,5.55c-.22.27-.69.69-.69-.68a12.58,12.58,0,0,0-.19-2.22c-.07-.54.34-.44.53.18S302.82,296,302.1,296.65Zm-1.08-1.8a12.78,12.78,0,0,0,.11,2c-12.83.26-23.72.86-31.44,1.42a11,11,0,0,1,.82-1.82,42.4,42.4,0,0,0,2.62-6.25c7.15-.51,16.46-1.06,26.93-1.36A22.4,22.4,0,0,1,301,294.85Zm-26.79-12.08c.54.06.19.57-.13,1.14s-.6.48-.86.33S273.24,282.67,274.23,282.77Zm4.44-16.6s-1,.3-.66-1.36c0,0-1.72,1.31-.5-1.21,0,0-.93-3.44-1.42-5.29s-1.2-4.06.89-4.66,4,.76,4.68,3.54.5,5.68,1,6.66A24.48,24.48,0,0,0,278.67,266.17Zm-.54,7.69s3.53-2.73,1.69.41a18.41,18.41,0,0,1-4.53,5.57,6.84,6.84,0,0,0-2.35,4.5c0,1.75.1,3.66-.82,5.27s-1.06,2.94-1.92,4-.89,2.14-1.5,1.7-.38-.94.38-2.79a14.78,14.78,0,0,0,.89-5.7c0-2.16-.83-2.33.28-2.51s1.6-.6,1.65-2.45S275.49,276.73,278.13,273.86Zm28.31-3.68a2.06,2.06,0,0,1,.84-1.48c.74-.43,1.11.42.33,1.94s-2.2,4.34-2.36,4.88-.39,1.86-.88,0-2.22-5.89-2.39-7.2.72-2.15,1.44-.44,1.5,2.15,1.78,3.23.57.82,1,.56S306.44,271.22,306.44,270.18Zm-.58,10.42c0-.81,1.69-1.41,1.42.9s0,2.8.4,3.19.28,1.4.17,2.11a3.51,3.51,0,0,0,.6,2.89c.83.81,1.14,1.53.83,3.22s.08,3.59-.23,5.1a14.15,14.15,0,0,0,.31,6.3c.72,2,1.53,6,.92,6.72s-.08,2.91-1.51,2.2-1.59-.18-1.49-2.29c0,0-1.42,2.18-.69,7l-1.62-.49s-.19-6.4-.32-7.61,1.53-2,.6-5.21-.28-8.11.61-9.4,1.12-8.3-1.49-12.62C304.37,282.59,305.86,281.4,305.86,280.6Zm0,46c-.39.07-.69.12-.69-1.48s-.11-1.2.6-1S306.78,326.56,305.86,326.64Zm-1.31-32.05c-.49,1.53-2.08,2.41-2.08-.66a15.88,15.88,0,0,1,.81-5.23s.78-1,.78.12C304.06,288.82,305.06,293.1,304.55,294.59Zm13,30.76c0-.9,2.27.89.59,1.5C317.51,327.09,317.59,326.24,317.59,325.35Zm-1.22-57.68s2.53-1.81,3.24-2.34,1.67-.82,1.67,1-.28,4.2-2.58,4.3a10.51,10.51,0,0,1-3.13-.13,5,5,0,0,1,.86-1.13A1.33,1.33,0,0,0,316.37,267.67Zm39.88,16.91c0-.73.06-1.51,1.79-.54s2.21,1.6,1.49,2.76-1.7,2-2.5,2.06-.83-.71-.17-1.52,0-.69,1-1.94C357.9,285.4,356.25,285.31,356.25,284.58Zm2-1.66c-1.81,0-2.46-.15-1.55-1.46s1-.72,1.87.12C358.59,281.58,360.08,282.92,358.27,282.92ZM354.16,280a10.55,10.55,0,0,1-5.39-.78c-1-.28-.78-1.13.6-1.13s1.91,0,1.91-.87,2.37-1.15,3.68-.53,2.21.45,3.53-.62,2.48-.46,1.9.33C359.93,277,357.43,279.73,354.16,280Zm.4,26.19c-.31.06-.4.39-1-.46s-1.67-1.88-.52-2.81c.75-.65.89-.67.92-.65,0-.23-.23-2.87.52-3.63a25.84,25.84,0,0,0-.52-5.93c-.61-2-.72-1.22-.72-.3s-.2,1.37-.87.9-.28-2.06.47-2.27a4.91,4.91,0,0,1-.52-2.19,15.15,15.15,0,0,0-.23-2.49,5.41,5.41,0,0,1,1.56.73,1.7,1.7,0,0,0,1.79.19,2.8,2.8,0,0,1-.19,1.28,3.26,3.26,0,0,0,0,2.48,22.27,22.27,0,0,1,.6,5.93c-.08,1.73-.48,2.86-.48,4.94l-.52.46s-.34-.12-.34,1.08S354.91,306.09,354.56,306.16Zm-2.93-3.62a1,1,0,0,1,.55-1.24c.54-.26.46-.21.81.12s.19.86-.29,1.19S351.86,302.85,351.63,302.54Zm2.47-17.08c.66-1.19,1.34-.66,1.34-.06s-.26,1.4-1,1.4S353.41,286.65,354.1,285.46Zm-4.86-3.28c.21.59-.13,1-1.13,1.28s-1.68,0-1.85-.54.15-.65,1.35-1S349.05,281.67,349.24,282.18Zm1,7.78c.08.16.13.35.21.54a43.63,43.63,0,0,1,0,5.17,8.82,8.82,0,0,1-.65,2.34c-9.78-.67-19.31-1.07-28.3-1.22a14.15,14.15,0,0,0-1.09-.94,7.34,7.34,0,0,1,1.6-4.49s1.73-3.06,9.25-2.27a22.84,22.84,0,0,0,5.88,0C341.55,289.34,345.91,289.61,350.28,290ZM329.34,303a1.88,1.88,0,0,1-.88,1.09,3.42,3.42,0,0,0-1.33.91c-.05.21-1,.29-2.28-2.18,0,0,.71,2.43,1.66,2.68,0,0-1.07,1.29-2.07.51s-1.67-2.62-2.2-3-.24-1.43,1.45-1.67c0,0-1-.23-1.14-.78a1.1,1.1,0,0,1-1.07.9c-.93,0-1.29-.83-1.52-2.57,0,0-.83,1.22-.12,2.07s1.1,1,1.34,1.53a15,15,0,0,1,2.05,3.11,4,4,0,0,1-2.18-.95c-1.44-1-2.7-1.69-4.33-2.66,0,0,.49,0,.59-1.36s1-.76,1-2.19,1.22-1.6,1.66-2.11c0,0,2.73,3.22,5,3.56s3.06.11,3.06,1.27a1.13,1.13,0,0,1,1.74.95S328.2,301.65,329.34,303Zm-12.72,3.19c.47-1.14,1-.46,1.24-.25s.1.85-.72.91C316.66,306.91,316.17,307.37,316.62,306.22Zm-.35-2.1c-.3-.36-.24-.72.43-.64s.74,1,.19,1.13C316.49,304.69,316.6,304.48,316.27,304.12Zm1.84-18.94c0-.65.45-.6,1.31.12s2.06.55,1.86,2.51c0,0,0,.72-1,.53s-1.32-1.25-1.81-1.69S318.11,285.85,318.11,285.18Zm5.26,1.09c-.11-1.28.35-1.39,1.07-.72a1.07,1.07,0,0,1-.09,1.76s-.72.93-1.32.5S323.49,287.51,323.37,286.27Zm20.45-2.93c-3.22.27-3.1-.34-4.18-.75a29,29,0,0,0-5.81-1.43,16,16,0,0,0-5.35,1.33c-2.32.9-2.92,1.57-4.23,1.57a4.19,4.19,0,0,0-1.76-2.42s2.26,2.33.52,2.89-1.23-.14-2-1.23-.55-1.3-1.16-2-1.28-1.85-1.11-.54,1.35,1.75.52,2.5-1.27-.65-2-2.14-.73-1.87.76-1.49a7.9,7.9,0,0,1-2.26-4.44c-.09-.8.77-2.07,1.78-.8s1.15,1.94,1.15,2.3a7.25,7.25,0,0,1,2.35,1.31c1,.89,1.12.78.56,1.27s-.76.66-1.31,0-.83-1.21-.83-.12,1.08,1.2,1.64,1.65c0,0,.67-1,1.26-1s-.32-.91,2.07-.91,5.78-.83,10.42.47S347,283.08,343.82,283.34Zm-14.48-6.09a19.58,19.58,0,0,0-3.84-3.72,7.43,7.43,0,0,1-.61-2.61,12.16,12.16,0,0,1,4.86,1.41C332.06,273.61,331.91,276.54,329.34,277.25Zm-3.84-2.85c1.29,1.07.66,1.12-.21,1.07a21.27,21.27,0,0,0-2.4.36c-.65,0-1.95-.6-2.55-.39s-.87.08-.6-.56.6-1.63.18-1.88.33-.72,1.13-.42.34,1.46,1.79,1.15A2.8,2.8,0,0,1,325.5,274.4ZM314.88,269c-.53.59-2.21,2.2-2.21,1.25s-.14-.91-.14-.91-.47-.46.34-1.68,1.26-1.48,1.77-1,.17,1.05.73,1.1S315.4,268.36,314.88,269Zm.69,30.44c0,1.7-.29,3-1.89,3.49,0,0-.17-4.2-.91-5.47C312.77,297.45,315.57,297.72,315.57,299.43Zm-55.08-6.63c.21-1.14-.34-1.5,1.18-2.16s3.57-1.33,3.6.22-.43,1.88.32,2,.37-.75.37-1.72.05-1.94.05-1.94.14-2.39,1.32-.25-.26,7.07-.26,7.07-1.31,3-.87-.67a1,1,0,0,1-.83.51c-.6,0-.73.31-.73-.85s-1-1.43-1,.07,0,1.79-.83,1.75-.78-1.4-1.5-2S260.32,294,260.49,292.8Zm249,71.89c-2.42,1.31-.74-3.36-5.69-4,8,14.28,3.85,29.35-4.85,42.09C475,432.26,432.57,444.83,396.18,452.6c-66.6,12.66-136.95,11.21-202-8.19-28.47-9.42-60.45-22.7-75.35-49.66,0,0-4.11-6.57-4.11-16.91a34.52,34.52,0,0,1,4.11-16.93c13.75-24.89,41.69-37.64,67.94-47.16A349.16,349.16,0,0,1,239,300.82c-47.24,1.91-90.81,28.61-79.67,17.69,26-12.84,60.11-22.35,98.78-27,0,0,.77-.09,2.16-.22-.13.52-.31,1-.54,1.67a14.11,14.11,0,0,0-.87,5.79v.42l-1.58.15c-81.5,9.9-141.4,41.31-141.4,78.51,0,45,87.86,81.76,195.45,81.76s195.47-36.75,195.47-81.76c0-37.11-59.63-68.52-140.94-78.41-.64-.07-1.24-.13-1.87-.22a7.74,7.74,0,0,1-1.16-1.35s-.21-4.4.18-5.67a3.65,3.65,0,0,1,.34-.82c.7.09,1.44.18,2.13.29,67,8.14,120.27,31.06,140.51,60.12Z" transform="translate(-105.01 -202.02)"/><path d="M350.63,304.76l-14.2-1.11-4.87-.23a14,14,0,0,1-3.1,3.07c-2.38,1.88-5.45,3.19-8.12.93l-2.69.95s-3.48.26-1,9.75c0,0,4.79,3.31,4.79,6.82s-2.14,3.45-4.43,3.45c-1,0-.64.8-2.79.8h-7.85a4.69,4.69,0,0,1-4.82-5.07c0-5.23,2.42-6.15,1.61-10-.69-3.35-1.5-8.15-1.87-11.07-12.47.19-23.25.82-31.93,1.52l-.63,1s-.69,1.26-.23,1.81.92,1,.75,1.59.57,1.49,1.12,2.15,1.95,3.79-.9,5.58-8.17,2.89-15.64.89c0,0-.81-6.61,2.53-9.75l-.29-2c-6.7.78-10.36,1.41-10.36,1.41-66.54,11-113.91,38.18-113.91,70,0,41.36,80.12,75.13,178.3,75.13s178.34-33.77,178.34-75.13c0-31.63-46.83-58.74-112.73-69.83.49,1.46,1.15,4.32-.17,5.7-1.89,1.88-3.88,2-6.43,1.07s-5.05.42-7.21.42-4,0-7.37-2.81A12.36,12.36,0,0,1,350.63,304.76Zm21.1,45.09c8.15.06,13.37,4.9,12.64,12.83,2.92-10.32,9.95-28.57,19.76-34.42,7-3.75,14.5-2.36,15.73,6.17.37,4.84-3.19,9.91-5.88,13.81,6.88-1.55,12.27-.76,15.81,5.64,4.89,10.76-3.62,20.43-12.83,25.27,4.61,2.71,1.74,11.79,7.46,13,4.83.5,9.59-.84,14.35.65,11.66,4.24,5.32,20.49-3.88,23.91l-8.55,2.54c-37.1,9.33-75.75,4.74-112.59,15.7-5.62,1.87-12.43,5.82-18.22,2.65-12.87-7-28.43-7.22-42.67-8.89-22.45-.63-15.16-11,25.46-12.2,39.57-3.38,79.55-4.57,119.31-5.18,7.84-.17,15.66-.52,23.34-2.19,2.44-.67,7.15-1.79,8.72-3.95-3.07,1-5.82,2.29-9,2.85-10.1,1.49-17.08-6.2-21.19-14.19-.54,5-.76,6.92-1.17,11.95-.06,1.16-.23,3.13-4.59,3s-10,.75-13.41-.5a6.54,6.54,0,0,1-2.92-5.91c-11.33,8.74-28.39,13.13-37.44-.62-7.68,8.87-20.78,11.57-29.11,1.84-7.54,5.88-16.52,9.84-25.59,4.81a15.31,15.31,0,0,1-5.38-6,15.83,15.83,0,0,1-2.55,1.1c2.6,4.51-1.24,8.38-6,8.47-7.71.05-15.47,0-23.25.13-5.49.09-12.86-1.34-8.41-8.21,3.09-2.35,4.7-.58,6.77-5,5-10.94,6.46-24.09,8.85-35.77-8.14,10.11-14.42,21.36-23.29,30.87-5.06,5.31-11.35,3.34-10.7-3.82.87-9.75,1.34-19.57.33-29.31a103.68,103.68,0,0,0-15.25,31.9c-2.18,9.25,12.22,11.64,5.72,18.65a8.46,8.46,0,0,1-5.69,1.61q-9.74.07-19.5.24c-4.93.09-10-.7-8.35-6.83,2.32-3.63,8.07-3.41,9.19-7.37,4.42-20.52,16.14-40.32,28.37-57.38-4.9-3.5-4.43-10.42,2.13-11.34,7.46-.2,18.28-1.18,25.39.15,4.15,2.5,3.32,6.69-.36,9.16-.23,5.22,1.18,11.24,1.44,16.61,6-6.79,13.13-12.58,19.64-18.78-3.74-4.25-.82-8.79,4.82-8.73,6.82.24,14.26-.54,21,.28,5.83,1,6.57,7.12,1.37,9.62a24.93,24.93,0,0,1-4.69,1.37c-3.24,7.27-5,15.46-6.82,23.1-2,9.47-4.27,18.93-5,28.54a16.89,16.89,0,0,0,2.24-2.47c4.6-18.07,17.83-40.39,40.38-36.42a33.48,33.48,0,0,1,4.59,1.46c3.36-2.73,11.42-3.64,15.19-1.85l3,2.05c-2.7,11.83-5.34,23.66-6,35.87a6.4,6.4,0,0,0,2.09-2.63C339.66,370,350.93,350.54,371.73,349.85Z" transform="translate(-105.01 -202.02)"/><path d="M332.2,392.9c-2.62-1,5.14-36,5.5-37.56-3.78-2.55-12.29-2.07-14.93,1.66-19.64-8.76-32.76,7.06-40,23-1.24,3.21-4.74,17.37-10.4,14.75a121.73,121.73,0,0,1,2.1-17.36c2.3-12.24,5.07-24.84,9.39-36.51,2.06-5.28,5.72-2.33,8.41-5.84,1.18-4-3.07-3.88-5.93-3.88-5.75,0-11.53.08-17.27-.09-5-.1-5.41,4.43-.8,5.85-8.58,8.41-18.7,16-25.84,25.7.11-6.83-.77-13.59-1.43-20.44a11.62,11.62,0,0,1,0-4c3.32-1.88,4.68-5.92-.55-6.13-6.59,0-13.21,0-19.79.29-2.38.22-4.7.28-5.48,2.92-.64,3.69,4.91,4.8,3.68,6.55-12.44,17.06-24.32,37.05-28.81,57.73-1.66,5.87-8.31,4.42-9.5,8.56.37,2.73,2.24,2.82,4.94,2.77,6.56,0,13.08-.17,19.63-.22,7.1,0,8.37-3.33,2.31-7.12-3.67-2.57-4.4-7.28-3.39-11.41,3.66-13.64,10.57-26.29,19.21-37.61,1.94,12.33,1.37,24.77.23,37.09a3.26,3.26,0,0,0,.62,2.09c4.66,4.47,13.85-10.65,15.3-12.73,6.19-8.43,12-18.92,20-25.84-3.39,14.53-4.8,30.61-10.63,44.39-.57,1.19-2.4,4.74-4,4.9a5.43,5.43,0,0,0-3.34,1c-2.46,3.79,2.27,4.36,5,4.31,8.27-.19,16.53-.08,24.83-.14a4.72,4.72,0,0,0,3.79-1.54c1.74-3.27-.95-4.24-2.66-6.26a11.53,11.53,0,0,0,8.47-3.19,18.87,18.87,0,0,0,1.91,4.09c7.56,10.21,20.85,4.8,28.38-2.73,7.47,12.68,22.21,7.32,29.13-2.59,2,4.2,4.63,7.8,9.1,9.69,10.72,3.92,23.75-3,30.64-10.47-.08,3.52-1.81,10.44,4.08,10.24,3.91-.17,7.84-.05,11.74-.17a218.15,218.15,0,0,1,2.54-21.82c3.12,8.28,8.35,20.83,19.46,21.12,3.62-.09,7-1.46,10.31-2.75,2.76-1,5.49-1.78,4.19,2.12-4.36,8.36-28.42,8.2-34.72,8.3-44.09.7-88.48,2-132.33,6.46-20.19,2.24-26.6,5.39-12.12,6.34,14.3,1.63,29,1.91,42.12,8.37,3.22,1.7,5.21,2.27,8.94,1,5.67-2.08,11.2-3.84,17-5.42,37.29-8.86,76-4.29,112.84-15.86,5.65-2.12,9.48-9.56,8.32-15.25-2.17-6.21-9.74-4.8-14.91-4.68-13.57.12-6.5-10.41-14.67-16.06,8.27-3.76,16.71-9.93,15.89-19.93-1.54-11.68-13.41-9.37-21.44-5.48,3.66-4.46,16.58-19.92,6.13-24.21-4.79-1.5-10.31,2.23-13,5.76-11.08,15-15.45,32.2-18.06,50.26-5.18,4.65-13.68,10.08-21,7.2-10.28-5.13-1.32-31.3,7.95-30.5,4.94.79-1.28,7.75,6.2,8.59,5.8.15,7.07-6.9,6.33-11.25-1.29-5.19-5.86-7-11.09-6.76-19.17,1.42-29,19.81-32.07,36.05C337.65,390.55,335.28,393.83,332.2,392.9Zm8.87-4c2.72-15.83,11.42-31.81,28.65-34.24,3.93-.6,10.28.25,9.88,7.07-.15,2.18-.81,6.39-4,6.19-3.36-.22-1.12-2.85-1.68-4.42-2.2-5.92-6.9-4.64-10.31-2-7.53,5.87-10.32,17.53-8.88,25.63,1.75,9.57,15.5,12.46,29.87-1.07,2.28-15.76,5.42-32.82,17.54-49.74A11.52,11.52,0,0,1,412,331c2.31.07,3.77,4,2.84,6-4.36,10-11.25,16.66-17.83,24.55-.57.72.23,1.52.81,1,4-3.56,11-9.21,20.7-10.38,5.43-.66,8.18,4.57,7.81,8-1.16,11.05-10.33,14.34-19.38,18.36,8.9,1.77,8,9.33,9.53,12.78,2.44,5.4,5.83,6,15,5.4,3.37-.21,9-.27,8.85,4.88-.14,4.75-4.05,9.71-7,10.7-44.16,14.57-83.67,3.68-129.55,21.14-3.57,1.37-5.13.46-6,0-14.24-7.91-33-7.91-45.49-9.53,47.24-5.86,93.18-6.59,141.47-7.89,7.7-.21,40.58.38,41.37-12,.38-5.75-6-3.72-8.05-2.93-7.71,3-11.18,3.91-17-.95-6.92-5.66-8.53-15.45-12.52-23.23-2.23,8.91-3.18,18.23-3.9,27.42-2.93.11-6.64,0-9.61.17-1.74.07-2-1.23-1.81-2.93.33-4.2.3-8.4.47-12.55-4.5,8.4-15.76,16.45-25.92,16.76-6.92.18-11.71-1.81-16.08-13.79-3.88,7.64-9.18,12.21-16.1,13.07-5.32.63-11.72-4.19-12.75-9.55-10.23,13-27.86,15.49-29.44-1.88-3.15,3-5,7.18-13.43,5.39.27,1.94.8,3.84,2.46,5,2.39,1.66,2.42,3.18-.17,3.18-8.5,0-16.71-.06-24.89.12-3.09.07-4.51-.5-1.38-.66,2-.14,4.51-3,5.95-6.33,5.34-12,7.43-31.7,11.56-48,.26-.95.18-2.75-2-1.21-10.88,7.57-19.07,25.36-32,39.45-1.38,1.44-2.7,2.21-2.65,1.1,1.33-13.24,1.76-26.51-.59-39.51-.17-1-2.36-1.23-3.34,0-10,13-16.14,24.9-20.15,38.87-1.44,4.94-.49,11.54,4.82,14.63,2.73,1.64,3.38,2.54-.29,2.6-6.56,0-13.42.12-20.87.21-2.84.05-3.38-.27-.69-1.17,3-1,6.93-3.75,7.7-7.67,4.07-20.51,19.72-44.85,28.36-56.57a3.28,3.28,0,0,0-.8-4.58c-3.7-2-2.52-3.56-1.2-3.72a167.29,167.29,0,0,1,21-.51c1.09,0,3.59-.08-.6,2.15-.48.26-.9,2.39-.73,4.57.58,6.88,2.54,19.72,1,27.27-.26,1.21,1.2,1.07,1.92,0,7.56-12,19-20.38,29.14-30.37.75-.69.64-2.82-.37-2.95-3-.61-3.68-1.73-1.17-1.65,6.17.22,12.66.15,18.46.12,5.5,0,1.52,1.44-3.45,2.33-3,.47-14.07,42.92-14,60.16,3.14,2.42,6.78,1.89,11.75-4.85,5.39-22.57,22.17-42.58,42.18-30.94.4-1.15,1-3.15,3.82-3.48,2-.25,6.43-1.07,7.26-.39-3.3,14.18-5.21,25-5.55,36.21C329.29,396.56,337.91,397.11,341.07,388.89Z" transform="translate(-105.01 -202.02)"/><path d="M368.79,364c-7,1.29-13.08,20.47-7.57,25.32,5.45,4.05,14.83-1.85,18.83-5.5.84-5.31,1.7-10.65,2.93-15.83-3.26,6.94-14.53,5.84-14.06-2.1C369,365.06,369.35,364.56,368.79,364Z" transform="translate(-105.01 -202.02)"/><path d="M313.7,360.74c-8.19.07-14.72,9.46-16.43,17.42s.07,15.78,7.34,15.9c8.23.15,14.26-9.73,15.25-17.3C320.72,371,320.68,360.66,313.7,360.74Zm3.44,17.66c-1.49,5.45-4.88,11.48-10.77,13.18-13.54,2.3-6.6-26.89,6.75-28.51C319.42,362.8,318,375,317.14,378.4Z" transform="translate(-105.01 -202.02)"/><path d="M403.48,377c3.91.27,10.46-4,12.69-8.48,1.53-3,2.53-9.57-3.59-9.47a13.59,13.59,0,0,0-11.92,8.65C399.52,370.7,399.07,376.63,403.48,377Zm8.79-15.63c1,0,2,0,2.41,1,2.28,6.47-10.94,15.49-12.19,11.12C401.11,367.85,406.48,361.85,412.27,361.36Z" transform="translate(-105.01 -202.02)"/><path d="M411.58,341c2-6.3-2.09-8.76-7.63-3.21-3.14,3.12-5.32,14.1-6.23,20.18C401.93,354.3,410.89,343.15,411.58,341Zm-9.48,5.33c.93-3.69,3.72-12.11,7.95-10.05s-6.71,13.34-9.39,16.41C401.15,350.58,401.63,348.45,402.1,346.36Z" transform="translate(-105.01 -202.02)"/><path d="M341.72,221.5c1.26-.53,1.19-1.09,1.16-1.55s-.59.24-1.3,1S341.72,221.5,341.72,221.5Z" transform="translate(-105.01 -202.02)"/><path d="M353.09,215.49c-1.23.09-1.89.27-1.89.74a8.9,8.9,0,0,0,.38,1.75,14.88,14.88,0,0,1,2.69-1.69C355.08,215.8,354.33,215.45,353.09,215.49Z" transform="translate(-105.01 -202.02)"/><path d="M351.2,213.19c0,.47-.24.51.43.51s-.08-.92-.08-.92C351.32,212.5,351.2,212.74,351.2,213.19Z" transform="translate(-105.01 -202.02)"/><path d="M354,214.61c.4.61.94,0,1.36.35s.59.14.59-.28.26-.36,1.09-.06.31-.24.31-1.07-.37-.77-.6-.36-.85.58-1.81.79-.57-.43-1.07-.43-.21-.81-.68-.77-.41.63-.41.63C352.77,215,353.58,214,354,214.61Z" transform="translate(-105.01 -202.02)"/><path d="M359.46,214s.86.1,1.51.1.52-.29.11-.65-.51-.48-.51.09-1.21,0-1.47-.17-.74-.1-.51.08A4.38,4.38,0,0,0,359.46,214Z" transform="translate(-105.01 -202.02)"/><path d="M364.84,220.49a1.37,1.37,0,0,0-1.29,1.26c0,.66.09,1.56,1,1.56s1.35-.48,1.35-1.45S365.44,220.49,364.84,220.49Zm-.2,2.34c-.38,0-.6-.37-.6-1a.63.63,0,0,1,.65-.7c.23,0,.41.12.41.7S364.92,222.83,364.64,222.83Z" transform="translate(-105.01 -202.02)"/><path d="M351.08,240.93c.61.5.72.95.72.57s-.25-1.46-1.17-1.46-1.15-1.27-1.15-1.27C349.48,240.68,350.49,240.42,351.08,240.93Z" transform="translate(-105.01 -202.02)"/><path d="M375.66,213.25a3.27,3.27,0,0,1,.74.89,1.67,1.67,0,0,0-.47-1.31c-.42-.49-.81-.18-.81-.18C375.44,212.65,375.36,213.05,375.66,213.25Z" transform="translate(-105.01 -202.02)"/><path d="M368.49,209.29a8.88,8.88,0,0,0-1.7.05,13.35,13.35,0,0,1,2.22.89c0-.77,1.11-.59,1.8.14.29.34.66.28.54-.27s0-.64,1.07-.24,1.63,3.36,1.92,3.84.58,0,.32-.27a11.46,11.46,0,0,1-.86-2.43,5.65,5.65,0,0,0-2.75-2.68c-1.4-.73-1.7-.31-2.87-.64s-.42.61-.42.61a2.67,2.67,0,0,0,.84.61C369.11,209.1,368.92,209.4,368.49,209.29Z" transform="translate(-105.01 -202.02)"/><path d="M367.17,211.7a4.48,4.48,0,0,1,3,.38c.67.3.71,1.62,1.21,2.06s.4,2,1,2.71a4,4,0,0,1,.87,2.46c0,.58-.35,1.18.15,1.18s.19-.74.19-2a5.67,5.67,0,0,0-1.23-3.08c-.6-.79-.34-1.75-.72-2.26s-.4-1.15-.72-1.28a4.71,4.71,0,0,1-1.46-.82c-.38-.36-.38-.55-.66-.2s-1,.24-1.78.39S367.17,211.7,367.17,211.7Z" transform="translate(-105.01 -202.02)"/><path d="M369.18,214.25c-.39-.11-.26-.59-1.33-.95s-.68.6-.68.6c.14.76,1.14,1.08,1.62,1.38s.69.21.76-.12S369.61,214.35,369.18,214.25Z" transform="translate(-105.01 -202.02)"/><path d="M370.88,218.14c-.49-.1-.84-.48-.62-1s.3-.59-.3-1.16-.48.44-.48.44.35.16,0,1a1.16,1.16,0,0,0,.95,1.65c.84.18.23,1.21.84,1.21s.6-.3.69-1S371.35,218.25,370.88,218.14Z" transform="translate(-105.01 -202.02)"/><path d="M367.68,220.37c-.63-.36-.17.42-.17.42.25.31.4.49.55.25S368.25,220.69,367.68,220.37Z" transform="translate(-105.01 -202.02)"/><path d="M380.32,225.71c.4-.2.49-.79.19-1.4s-1,.21-1,.21c-.35.4-.57.83-.26,1.13A.87.87,0,0,0,380.32,225.71Z" transform="translate(-105.01 -202.02)"/><path d="M381,227c1.51,1,.47,1-.38,1s-.09.67.4,1,.57,1.24,1.26,1.24.47-.09.4-.9,1-.8.92.12.69.39,1.79.35.71-1,.49-1.52-.43-.62-.43,0,.26.9-.17.9-.43-.15-.43-1-.91-1.06-1.25-1.45-.42-.66-.54-.22a6.4,6.4,0,0,1-.72,1.22,2.48,2.48,0,0,0-1.26-1.28C380.05,226.07,381,227,381,227Z" transform="translate(-105.01 -202.02)"/><path d="M334.34,244.22c.88,2.27,2.18,6,2.18,6l.78.3c-.48-.89-2.34-6.48-2.34-6.48Z" transform="translate(-105.01 -202.02)"/><path d="M304.31,243.74c2-.15,2.15,0,2.2-1.76s-1.1-.28-2.05.8S304.31,243.74,304.31,243.74Z" transform="translate(-105.01 -202.02)"/><path d="M311.91,262.28c-.39-.33-.39.34-.39.34.05.63.18.94.47.52S312.29,262.58,311.91,262.28Z" transform="translate(-105.01 -202.02)"/><path d="M325,238.83c-.29-.37-.39-1.06-.86-1.81s-.46.15-.46.15c.53.27.53,1.29.86,1.75S325.37,239.22,325,238.83Z" transform="translate(-105.01 -202.02)"/><path d="M340.23,258.1c-.86,0-1.26.3-1.26.93a2.28,2.28,0,0,0,2.3,1.58c.6-.06,1.23-.3,1.23-.94S341.07,258.1,340.23,258.1Zm.75,2.06c-.57,0-1.52-.56-1.52-1.06s.6-.49,1.61-.07S342.73,260.16,341,260.16Z" transform="translate(-105.01 -202.02)"/><path d="M265.84,275.47c.63-1.49.29-5.19.29-5.19-.81.85-.64,2.36-1,4.24s-1.37,1.25-.61,2.86S265.27,277,265.84,275.47Z" transform="translate(-105.01 -202.02)"/><path d="M312.08,365.61c-7.36,2.47-11.71,13.87-10.29,20.72.91,4,3.87,3.75,6.88,1.62,5.7-4.51,7.43-12.59,6.53-19.41C314.77,366.09,314.73,365,312.08,365.61Z" transform="translate(-105.01 -202.02)"/><path d="M412,366.2a6.38,6.38,0,0,0,.5-2.53c-4.24.2-7.93,4.48-7.78,8.53C407.44,371.33,410.87,368.73,412,366.2Z" transform="translate(-105.01 -202.02)"/><path d="M403.05,345.8c-.26,1.32-.6,2.65-.88,4,1.27-1.48,9.14-9.65,7.32-12.72C406,336.58,403.66,343.63,403.05,345.8Z" transform="translate(-105.01 -202.02)"/></svg>