<svg id="Capa_1" data-name="Capa 1" xmlns="http://www.w3.org/2000/svg" viewBox="0 0 506.43 232.63"><defs><style>.cls-1{fill:#1d1d1b;}</style></defs><path class="cls-1" d="M474.06,275c-73.51,47.87-187.15,205-187.15,205s-27.56,1.93-54.16-9.67c19.83-42.56,148-142.66,224.87-195.85C367.19,308.8,224,430.66,187.29,462.1c-108.81-49.33-88-121.87-30.95-159.1,158.13-81.25,308.53-51.75,381.55-20.8s95.75,90.43,64.32,120.9c-87.53,88-275.65,79.79-275.65,79.79C341.56,452.91,446.49,309.77,474.06,275ZM446,267.21s-93.71-15.27-187.63,8.22-111.23,54.65-113.16,73,2.42,62.87,43.52,40.63S428.6,271.56,446,267.21ZM413.13,407c-8.71,24.18-14.51,37.72,10.15,36.75,68.19-4.84,144.11-50.29,149-97.68s-87.05-68.19-87.05-68.19S421.83,382.79,413.13,407Z" transform="translate(-109.56 -250.47)"/></svg>