<svg id="bbbe7b58-74f4-4202-9e74-2b4a73f91b32" data-name="Capa 1" xmlns="http://www.w3.org/2000/svg" viewBox="0 0 174.97 293.34"><title>maserati</title><path d="M279.84,216.82c-23.57,0-45.67,15.44-62.18,43.4-16.32,27.63-25.29,64.32-25.29,103.28s9,75.67,25.29,103.29c16.51,28,38.61,43.37,62.18,43.37s45.72-15.4,62.24-43.37c16.3-27.62,25.25-64.32,25.25-103.29s-8.95-75.65-25.25-103.28C325.56,232.26,303.46,216.82,279.84,216.82Zm0,289c-21.95,0-42.69-14.64-58.44-41.25-15.93-26.94-24.67-62.84-24.67-101.07s8.74-74.11,24.67-101.07c15.75-26.6,36.49-41.25,58.44-41.25s42.77,14.65,58.48,41.25c15.91,27,24.68,62.85,24.68,101.07s-8.77,74.13-24.68,101.07C322.61,491.18,301.85,505.82,279.84,505.82Z" transform="translate(-192.37 -216.82)"/><polygon points="128.31 138.43 128.31 136.93 87.47 136.93 87.47 136.93 46.68 136.93 46.68 138.43 87.47 138.43 128.31 138.43"/><polygon points="87.47 147.08 128.31 147.08 128.31 145.56 87.47 145.56 87.47 145.56 46.68 145.56 46.68 147.08 87.47 147.08 87.47 147.08"/><polygon points="132.63 140.9 87.47 140.9 87.47 140.9 42.34 140.9 42.34 142.41 87.47 142.41 87.47 142.41 132.63 142.41 132.63 140.9"/><path d="M314.87,374.75c4,0,5.8-3.61,5.8-6.51h4v-1.81H235.07v1.81h4c0,2.9,1.81,6.51,5.8,6.51s5.43-2.54,5.43-6.15c4,0,18.51,0,18.51,17.35h22.12c0-17.35,14.51-17.35,18.51-17.35C309.42,372.21,310.86,374.75,314.87,374.75Z" transform="translate(-192.37 -216.82)"/><path d="M295.16,387.93H264.54a.77.77,0,0,0-.75.77v6.07a.77.77,0,0,0,.75.76h30.62a.78.78,0,0,0,.75-.76V388.7A.77.77,0,0,0,295.16,387.93Z" transform="translate(-192.37 -216.82)"/><path d="M234.7,347.73v4.53H325v-4.53h-3.93c0-21.51,3.93-48.28,18.94-68.06-9.72,2.2-21.62,12.51-26.44,18.89,4-1.32,7.5-4,11-5.26-3.48,7.46-13.64,38.28-13.64,54.43h-9.7c-11.48-19.31-18.07-29.86-18.07-69.37,6.15,3.51,8.35,6.14,15,7.45-7.49-7.45-18.29-24.14-18.29-40.39,0,16.25-10.78,32.94-18.25,40.39,6.6-1.31,8.81-3.94,15-7.45,0,39.51-6.57,50.05-18.07,69.37h-9.67c0-16.15-10.17-47-13.67-54.43,3.5,1.3,7,3.94,11,5.26-4.82-6.38-16.72-16.69-26.43-18.89,15,19.78,18.93,46.55,18.93,68.06ZM284,328.42c1.32,7.45,6.18,13.17,9.24,19.31H284Zm-8.34,0v19.31h-9.25C269.54,341.59,274.35,335.87,275.68,328.42Z" transform="translate(-192.37 -216.82)"/><polygon points="116.98 223.25 121.5 223.25 119.19 214.56 116.98 223.25"/><path d="M291.67,411.24V398a.75.75,0,0,0-.76-.75H268.79a.76.76,0,0,0-.79.75v13.25H205.08c11.15,53.13,40.42,91.05,74.76,91.05s63.67-37.93,74.82-91.08Zm-55.79,36h-3l0-18.47-5,14.66-4.69-14.66,0,18.47h-3V423.79h5L228,434l2.93-10.25h5Zm15,0-.94-3.64h-6.61l-.82,3.64h-4.09l6.36-23.46h3.52L255,447.25Zm18.81-3.07a5.66,5.66,0,0,1-2.23,2.62,6.8,6.8,0,0,1-3.57.87c-2.12,0-3.69-.7-7.22-3.34l2.42-3.08c3,2,3.81,2.37,4.82,2.37a2.93,2.93,0,0,0,2.39-.95,3.51,3.51,0,0,0,.81-2.27,2.47,2.47,0,0,0-1.51-2.43c-.42-.19-1.41-.78-2.73-1.43a21.94,21.94,0,0,1-4.19-2.9,6,6,0,0,1-2.23-4.33,8.3,8.3,0,0,1,.78-3.4,5,5,0,0,1,2.1-2.21,8.53,8.53,0,0,1,3.87-.68c2,0,4.1,1,6.12,3.08l-2.62,2.76a6.69,6.69,0,0,0-3.34-2,2.73,2.73,0,0,0-2.39.59,2,2,0,0,0-.56,1.46,2.11,2.11,0,0,0,.54,1.42,15.66,15.66,0,0,0,3.21,2.5c1.66.95,3,1.66,3.73,2.23,1.8,1.36,1.95,2.19,2.09,2.57a6.36,6.36,0,0,1,.51,3.08A7.67,7.67,0,0,1,269.72,444.18Zm14.4,3.07H273.3V423.79h10.49v3.95h-7.14v5.2h6.49v3.93h-6.49v6.43h7.47v3.95Zm15.58,0h-3.34L293.74,442a18.64,18.64,0,0,1-1.93.1v5.11H288.5V423.79h3.31c5,0,10.17,1.52,10.17,8.65,0,5.48-2.39,7.92-5.25,8.95Zm16.18,0-.92-3.64h-6.62l-.85,3.64h-4.1l6.37-23.46h3.55L320,447.25Zm16.18-19.51H327.2v19.51h-3.35V427.74H319v-3.95h13.07v3.95Zm3.79,19.51V423.79h3.31v23.46Z" transform="translate(-192.37 -216.82)"/><polygon points="52.03 223.25 56.59 223.25 54.23 214.56 52.03 223.25"/><path d="M291.81,427.31v11.36c2.72,0,6.48-.55,6.48-6C298.29,428.07,295,427.31,291.81,427.31Z" transform="translate(-192.37 -216.82)"/></svg>