<svg id="e42a22de-2236-49fb-97ae-afd28d72aad8" data-name="Capa 1" xmlns="http://www.w3.org/2000/svg" viewBox="0 0 209.5 129.5"><polygon points="30.5 96.5 46.5 108.5 66.5 92.5 106.5 112.5 144.5 92.5 164.5 107.5 180.5 96.5 147.5 58.5 107.5 90.5 63.5 56.5 30.5 96.5"/><polygon points="85.5 58.5 62.64 57.54 105.5 5.5 147.5 56.5 123.5 58.5 105.5 44.5 85.5 58.5"/><path d="M328,177.25C328,213,281.1,242,223.25,242S118.5,213,118.5,177.25s46.9-64.75,104.75-64.75S328,141.49,328,177.25ZM224,120.5c-50,0-90.5,25.52-90.5,57s40.52,57,90.5,57,90.5-25.52,90.5-57S274,120.5,224,120.5Z" transform="translate(-118.5 -112.5)"/></svg>