<svg id="ac203086-c8d5-4892-88d4-b0d4e0c88876" data-name="Capa 1" xmlns="http://www.w3.org/2000/svg" viewBox="0 0 186.78 150.47"><title>mazda</title><path d="M176.31,179.91C157.22,159.41,126,155,99.73,155c-26.47,0-58.66,4.43-77.42,26.12-.33.38-.6.77-.9,1.17-9.21,11-14.9,26.72-14.9,47.8,0,65,53,75.38,93.22,75.38,40.55,0,93.56-10.39,93.56-75.38,0-21.08-5.66-36.83-14.91-47.8C177.67,181.5,177,180.71,176.31,179.91ZM39,192.67c12.51-19.28,36.37-24,60.74-24s47.71,4.46,60.49,23.45c.25.44.55.86.78,1.3-21.67,12.7-46.36,13.15-61.27,45-16.2-30.92-40.6-31.14-62.06-43.38C38.09,194.22,38.53,193.45,39,192.67ZM99.73,291.8c-36,.31-70-10.08-70-61.73a63,63,0,0,1,.61-11c.19-.72.35-1.44.54-2.17Q49.13,223,67.3,229.18c14.27,5.95,23.82,14.25,32.43,32.94,8.66-18.69,17.91-28.19,32.5-34.12l36.68-13.1a5.63,5.63,0,0,1,.24.94,101.73,101.73,0,0,1,.9,14.25C170.05,281.72,135.8,292.11,99.73,291.8Z" transform="translate(-6.51 -154.98)"/></svg>