<svg id="a9dd5523-c24a-46d4-a07b-fc623765f9fa" data-name="Capa 1" xmlns="http://www.w3.org/2000/svg" viewBox="0 0 237.19 234.6"><title>mercedes</title><path d="M399.18,293.8c0-1.54-.47-1.59-.6-.06l-4.91,73.31,4.89,2.86Z" transform="translate(-280.97 -254.54)"/><path d="M376.23,384.18l20.65-11.44-4.69-2.61-16.54,13.55C374.73,384.46,375.14,384.78,376.23,384.18Z" transform="translate(-280.97 -254.54)"/><path d="M399.54,254.54C334.07,254.51,281,307,281,371.82S334,489.12,399.54,489.14s118.62-52.53,118.62-117.32S465.09,254.54,399.54,254.54Zm0,230.13c-44.56,0-79.52-23.16-96.17-55l2.56-.94c4.33,7.05,10,13.25,17.57,21.64,9.36,10.29,39,30.14,76,30.14A109.71,109.71,0,0,0,493,428.83c1.49-.42,2-1.07,1.47-2.37,8.91-15.69,14.95-35.39,14.95-54.64a98.84,98.84,0,0,0-4.6-30.81,119.4,119.4,0,0,0-6.37-15.87,2.78,2.78,0,0,1-.41-1.51,3.63,3.63,0,0,1,1.06,1.29,142.45,142.45,0,0,1,7.38,15.85c2.44,6.7,6.8,16,6.8,31.05C513.29,433.54,462.76,484.71,399.54,484.67Zm-95.11-57.62,83.1-59.73-7.11-4.05-74,61.54c-8.32-15.07-14.09-34.41-14.09-52.81A105.34,105.34,0,0,1,397.43,266.22l-15.15,94.21,7.08,4.11,9.51-98.32c.18-1.24,1-1.24,1,0l.56,103.67L417.31,360l-16.14-93.81c57.73,1.56,105.55,48.1,105.55,105.63,0,18.55-5.61,37.92-14.1,53.08l-73.94-61.59-7.12,4.06L491,425c1.91,1.36,1.33,2-.71.85l-89.26-51.48v19.3l89.47,34.17C471.78,458.43,438,478,399.23,478s-72.07-19.54-90.82-50.17L398,393.61V374.32l-92.81,53.62C303,429.15,302.43,428.47,304.43,427.05Zm-2.15,1a128.47,128.47,0,0,1-9.77-28.65,3.27,3.27,0,0,1,.06-1.43,5,5,0,0,1,.65,1.39c2.69,8.32,5,15.8,11.18,27Zm210.84-76.14a4.65,4.65,0,0,1-.65-1.34c-8.67-26.73-16.05-37.23-30.28-52.85-18.75-20.58-49.37-36.46-81.92-36.5A112.8,112.8,0,0,0,287.5,374c0,18.52,4,34.49,7.28,42.52,3.81,9.31,10.39,21.85,10.72,22.42a3.42,3.42,0,0,1,.35,1.49,4.59,4.59,0,0,1-1.07-1.24c-1.88-2.74-9.62-16.67-12-22.75-5.24-13.25-9.1-27.7-9.1-42.87A116.14,116.14,0,0,1,399.77,257.37c57.35,0,103.59,39.84,113.35,93.17A3.3,3.3,0,0,1,513.12,351.94Z" transform="translate(-280.97 -254.54)"/><path d="M468.36,410.88l-61.12-41-5,2.87,65.86,38.55C469.24,412,469.49,411.6,468.36,410.88Z" transform="translate(-280.97 -254.54)"/></svg>