<svg id="f8444677-98f1-4505-b7a6-6aa1a074676d" data-name="Capa 1" xmlns="http://www.w3.org/2000/svg" viewBox="0 0 257.48 108.44"><title>mini</title><path d="M141.42,249.58a44.84,44.84,0,1,0-44.84-44.83A44.83,44.83,0,0,0,141.42,249.58Zm0-86.35a41.51,41.51,0,1,1-41.51,41.52A41.51,41.51,0,0,1,141.42,163.23Z" transform="translate(-12.52 -150.53)"/><path d="M19.52,186.87c2,2.48,4.5,5.38,7.37,8.56h0c2.65,3,5.66,6.19,9,9.59h0c2.71,2.74,5.63,5.62,8.75,8.54h0q5.06,4.71,10.78,9.57h0q5.1,4.32,10.72,8.56h0c4.2,3.16,8.62,6.25,13.22,9.23h21.7a54.17,54.17,0,0,0,80.74,0h21.39C244.05,214.45,270,178,270,178H188.58a54.26,54.26,0,0,0-94.32,0H12.52s2.44,3.41,7,8.91Zm27.16,26.69c-3-2.78-6-5.63-8.85-8.54H87.2a53.48,53.48,0,0,0,.7,8.54Zm189.18,0H194.93a54.67,54.67,0,0,0,.72-8.54h49.06Q240.35,209.39,235.86,213.56Zm25.36-26.69c-2.09,2.5-4.58,5.41-7.43,8.56H194.84a54,54,0,0,0-2.2-8.56Zm-68.77,36.26H225q-5.4,4.47-10.89,8.56H188.49A56.33,56.33,0,0,0,192.45,223.13Zm-51-65.32a46.92,46.92,0,1,1-46.93,46.94A46.93,46.93,0,0,1,141.42,157.81ZM94.35,231.69H68.47q-5.48-4.08-10.88-8.56h32.8A54.46,54.46,0,0,0,94.35,231.69Zm-4.14-44.82A53,53,0,0,0,88,195.43H28.75c-2.85-3.15-5.34-6-7.42-8.56Z" transform="translate(-12.52 -150.53)"/><rect x="123.22" y="42.73" width="5.67" height="23.22"/><path d="M119.11,216.48l5.83-13.65v13.65h5.73V193.26h-6.29l-6.59,15.31-6-15.31h-6.41v23.22h4.87v-14l5.55,14Z" transform="translate(-12.52 -150.53)"/><polygon points="138.77 51.94 149.56 65.95 153.94 65.95 153.94 42.73 149.01 42.73 149.01 56.84 149.01 56.85 138.15 42.73 133.91 42.73 133.91 65.95 138.77 65.95 138.77 51.94"/><rect x="159.04" y="42.73" width="5.67" height="23.22"/></svg>