<svg id="Capa_1" data-name="Capa 1" xmlns="http://www.w3.org/2000/svg" viewBox="0 0 574.6 252.48"><path d="M684,337c-5.56,5.53-11.07,11.1-16.74,16.52-.73.7-2.22.83-3.36.83q-73.6.06-147.21,0h-3.42c2.32,7.12,4.54,14,6.85,21.05H645.23c-1,1.1-1.53,1.79-2.15,2.41-4.56,4.58-9.18,9.09-13.68,13.73a6.1,6.1,0,0,1-4.78,2q-49.12-.1-98.23-.05h-3.48v21.06H606c-.91,1.07-1.38,1.73-2,2.3-4.68,4.7-9.31,9.45-14.12,14a6.54,6.54,0,0,1-4.06,1.66q-31.58.15-63.13,0c-2.22,0-3.08.6-3.67,2.82-1.35,5.05-3.14,10-4.78,14.94-.34,1.05-.78,2.07-1.32,3.49h53.9c-1,1.06-1.47,1.71-2.06,2.3-4.56,4.57-9.18,9.08-13.66,13.73a6,6,0,0,1-4.81,1.95c-13.44-.08-26.89,0-40.33-.08a4.24,4.24,0,0,0-4,2.11c-22,32.07-52.21,51.72-91,55.67-50.33,5.12-90.24-14.21-119.54-55.38a5,5,0,0,0-4.66-2.41q-20.16.15-40.33,0a6.6,6.6,0,0,1-4.05-1.66c-5.38-5.07-10.6-10.31-15.86-15.49l.31-.69H280.2c-1.12-3.05-2.14-5.61-3-8.22-1.14-3.48-2.3-7-3.12-10.53-.47-2.06-1.41-2.53-3.39-2.52-20.95.07-41.91,0-62.86.08a6.36,6.36,0,0,1-5-2.08c-5.06-5.17-10.27-10.18-16-15.85h83.5V393.53h-3.35q-48.58,0-97.17.05a8.18,8.18,0,0,1-6.64-2.66c-4.79-5.05-9.86-9.85-14.81-14.75l.19-.72h2.9q59.19,0,118.39.06c2.69,0,3.86-.59,4.55-3.4,1.26-5.06,3.17-10,4.82-14.92.26-.81.56-1.61,1-2.83h-3.32q-73.6,0-147.2,0a6.32,6.32,0,0,1-5-2.06c-5-5.21-10.19-10.26-15.21-16h3.12q86.56,0,173.14.07a6.9,6.9,0,0,0,6.51-3.39c21.11-30.07,49.63-49.1,86.19-53.83,52-6.72,93.19,12.53,123.56,55.09a4.55,4.55,0,0,0,4.3,2.09q87.23-.06,174.45,0h3.06ZM396.68,512.55A108.45,108.45,0,1,0,288.15,404.66C288.21,464,337.14,512.61,396.68,512.55Z" transform="translate(-109.39 -277.83)"/><path d="M321.16,391.85v40.52H310.31V375.46c5.17,0,10.21-.09,15.24.1.66,0,1.56,1.4,1.86,2.31,3.93,12.1,7.77,24.24,11.64,36.36.65,2,1.36,4.06,2.28,6.82l7.59-23.92c2.09-6.56,4.21-13.12,6.22-19.7a2.37,2.37,0,0,1,2.74-2c4.7.11,9.4,0,14.31,0v57H361.05V392.09l-.61-.18c-.32.88-.67,1.74-.95,2.63-3.76,11.88-7.55,23.76-11.22,35.67-.56,1.81-1.34,2.69-3.27,2.43-.86-.11-1.75,0-2.62,0-2.43-.08-5.49.67-7.1-.52s-1.81-4.34-2.56-6.65q-5-15.56-10-31.11c-.28-.88-.64-1.74-1-2.61Z" transform="translate(-109.39 -277.83)"/><path d="M458.12,432.61c-4.37,0-8.55.09-12.71-.09-.75,0-1.68-1.11-2.13-1.92q-9.93-17.81-19.75-35.7a6.34,6.34,0,0,0-1.81-2.24v39.78H410.44v-57c4.31,0,8.56-.09,12.8.08.67,0,1.47,1.08,1.89,1.84q9.9,17.83,19.7,35.73a7.63,7.63,0,0,0,2,2.56v-40h11.28Z" transform="translate(-109.39 -277.83)"/><path d="M385.63,375.59h11.31v56.84H385.63Z" transform="translate(-109.39 -277.83)"/><path d="M471.5,375.61h11.43v56.85H471.5Z" transform="translate(-109.39 -277.83)"/></svg>