<svg id="f43e2ffc-6851-4769-9b59-e7bd57bfeb72" data-name="Capa 1" xmlns="http://www.w3.org/2000/svg" viewBox="0 0 450.85 490.6"><title>mitsubishi</title><polygon points="225.16 0 150.12 130.06 225.16 259.49 300.75 130.06 225.16 0"/><polygon points="225.16 259.49 300.75 389.07 450.85 389.07 375.85 259.49 225.16 259.49"/><polygon points="0 389.07 150.12 389.07 225.16 259.49 75.08 259.49 0 389.07"/><polygon points="55.51 454.99 43.32 426.58 30.99 426.58 30.99 488.95 42.14 488.95 42.14 448.3 55.51 477.82 69.55 448.3 69.55 488.95 80.72 488.95 80.72 426.58 68.45 426.58 55.51 454.99"/><rect x="90.73" y="426.58" width="11.17" height="62.37"/><polygon points="106.97 436.1 120.34 436.1 120.34 488.95 131.51 488.95 131.51 436.1 144.95 436.1 144.95 426.58 106.97 426.58 106.97 436.1"/><path d="M343.64,572.76c-8.91-4.46-12.31-6.68-12.31-11.12,0-4,2.77-6.15,7.83-6.15,5.6,0,8.37,5,8.37,10.07h11.21c-.57-10.59-5.6-19.5-19.58-19.5-12.84,0-19,6.68-19,16.15,0,8.86,5.61,13.9,13.92,18.87,11.82,6.7,14.54,8.4,14.54,12.25,0,4.49-3.31,7.23-8.95,7.23-6.67,0-9.44-5.53-9.44-11.08H319.59c.59,11.67,5.62,21.12,20.1,21.12,10.68,0,20.12-6.11,20.12-17.79C359.81,582.77,353.69,578.35,343.64,572.76Z" transform="translate(-174.15 -120)"/><path d="M395.69,589.48c0,6.69-3.24,10.53-9.36,10.53-7.35,0-10.71-3.84-10.71-10.53v-42.9H364.53v42.9c0,16.64,11.71,20.58,21.8,20.58,9.36,0,20.59-4.44,20.59-20.58v-42.9H395.69v42.9Z" transform="translate(-174.15 -120)"/><path d="M444.91,576.11c2.79-.6,8.95-5.58,8.95-13.9,0-10-7.32-15.63-19-15.63H414.22V609h22.91c11.13,0,19-7.24,19-17.28A15.77,15.77,0,0,0,444.91,576.11Zm-10.62,23.36h-9V556.1h8.41c5.06,0,8.91,2.19,8.91,7.78s-3.34,7.77-8.91,7.77h-4.42v10h4.42c6.69,0,10.6,2.29,10.6,8.36C444.34,596.72,440.43,599.47,434.29,599.47Z" transform="translate(-174.15 -120)"/><polygon points="386.33 451.07 364.01 451.07 364.01 426.58 352.33 426.58 352.33 488.95 364.01 488.95 364.01 461.64 386.9 461.64 386.9 488.95 398.01 488.95 398.01 426.58 386.33 426.58 386.33 451.07"/><rect x="288.07" y="426.58" width="11.19" height="62.37"/><rect x="408.71" y="426.58" width="11.15" height="62.37"/><path d="M504.75,572.19c-9-5-12.35-7.24-12.35-11.13s3.31-6.09,7.77-6.09c5.6,0,8.42,4.43,9,10h10.58c-.55-10.54-5.53-19.48-19.55-19.48-12.84,0-19,6.72-19,16.17,0,8.89,5.61,13.87,14,18.39,11.76,6.63,14.45,8.84,14.45,12.78,0,4.42-3.27,7.2-8.83,7.2-6.73,0-9.54-6.13-9.54-11.69h-10.6c.53,12.24,5.57,21.18,20.14,21.18,10.58,0,20.12-6.14,20.12-17.24C520.86,581.64,514.74,577.79,504.75,572.19Z" transform="translate(-174.15 -120)"/></svg>