<svg id="b22c3aed-6574-4748-8a6f-dc0d3a371111" data-name="Capa 1" xmlns="http://www.w3.org/2000/svg" viewBox="0 0 576.27 410.16"><title>nissan</title><path d="M427.28,131.26c-80.28,0-150,46.17-183.94,113.26H611.28A206.29,206.29,0,0,0,427.28,131.26Z" transform="translate(-135.73 -131.26)"/><path d="M240.85,423C273.73,492.89,345,541.42,427.28,541.42A206.2,206.2,0,0,0,613.76,423Z" transform="translate(-135.73 -131.26)"/><polygon points="388.46 210.2 415.88 210.2 402.2 174.5 388.46 210.2"/><path d="M683.34,258.89H164.41a28.68,28.68,0,0,0-28.68,28.54v89.14a28.76,28.76,0,0,0,28.68,28.68H683.34A28.74,28.74,0,0,0,712,376.57V287.43A28.65,28.65,0,0,0,683.34,258.89ZM260.17,375H222.25L193.41,310.8V375H171V292.72h36.63l30.14,66.89V292.72h22.42Zm42.74,0H280.45V292.72h22.46Zm72.34-.7v0h-.37l-1.93.18-.55-.18H319.3v-17.8h55.54l-.32-12.7H341c-24.82.36-32.92-47.77-.36-51.23h52.14v17.78H343.31v13.7l-.05.51H376v-.14C400.42,324.13,412,370,375.25,374.34Zm88.18,0v0h-.32c-.68.05-1.25.11-1.93.18l-.62-.18H407.39v-17.8h55.68l-.32-12.7H429.19c-24.83.36-33-47.77-.36-51.23h52.11v17.78H431.47v13.7l-.05.51h32.74v-.14C488.56,324.13,500.14,370,463.43,374.34ZM564.84,376l-5.93-15.47h-42l-6,15.47h-20.1l32.3-84.1h29.48L585,376ZM682.23,375H644.38L615.47,310.8V375H593V292.72h36.7l30.14,66.89V292.72h22.35V375Z" transform="translate(-135.73 -131.26)"/></svg>