<svg id="fd419fd6-c6fb-469d-a395-766e5057467a" data-name="Capa 1" xmlns="http://www.w3.org/2000/svg" viewBox="0 0 569 429.34"><title>peugeot</title><path d="M453.14,276.26l6.58,3.38c1.66-4.58,4.49-12.69,7-20.51-1.85-4.23-3.6-8.55-5.29-13.27-1.25,4-2.59,8.29-3.91,12.34-1.71,5.43-3.36,10.6-3.8,12.45a4.45,4.45,0,0,1-4.49,3.42,12.5,12.5,0,0,1-4.39-1.14c-1.06,4.39-2,7.53-3.09,11-.79,2.6-1.75,5.53-2.83,9.43,4.81,7.24,12.6,18.9,17.39,25.86a1.86,1.86,0,0,1,.27.05c-4.2-6-8.42-12.21-11.06-16.16C448.92,290.9,450.45,287.92,453.14,276.26Z" transform="translate(-108 -169.87)"/><path d="M291.21,429a46.33,46.33,0,0,1,8.58,3,47.33,47.33,0,0,0-12.2-8.08C289.16,426.08,291.21,429,291.21,429Z" transform="translate(-108 -169.87)"/><path d="M429.46,384.12c.4.25.86.57,1.45,1C430.67,384.93,430.05,384.51,429.46,384.12Z" transform="translate(-108 -169.87)"/><path d="M325.92,305.92l26.74-.38L347.2,299l-26.93.42c-2.07,4.95-7.53,11-18.6,11.8a9.49,9.49,0,0,1,1.65.16c1.29,1.65,4.47,6.36,4.47,6.36C315.29,319,324.31,313.25,325.92,305.92Z" transform="translate(-108 -169.87)"/><path d="M295.33,304.43c-2.62.4-6,1.49-7.08,4.29l-1.38,3.71-.19-.07a19.3,19.3,0,0,0,5.79,4.4,11.13,11.13,0,0,1,8.07-5.41c-.45,0-.75.06-1.22.06l-4.16,0,.1-4.15Z" transform="translate(-108 -169.87)"/><path d="M487.18,243.52a34,34,0,0,1-2.4-5.72c-2.27-7.71-.54-18.24,4.35-26.73-.05,0-.05,0-.05,0a5.38,5.38,0,0,0-2.55-.66c-2.86,0-5.29,2.52-6.5,4.64-3.31,5.82-3.18,10.45.73,23.56,2.49,8.58,8.61,23.67,12.23,32.72l.8,2c4.34,10.73,6.11,15.19,8.7,28.26,2.15,10.53-1.79,21.23-6.38,26.68-7.85,9.46-19.84,12.77-27,14a176,176,0,0,1,7.24,17.4,10.42,10.42,0,0,0,5.13,6.34c-1.95-5.14-4.45-11.4-6.51-15.9,0,0,17.53-2.06,28-14.66a34.58,34.58,0,0,0,8-22c-.19-21.11-17-52.19-21.14-62.92C489.23,248.78,488.19,246.35,487.18,243.52Z" transform="translate(-108 -169.87)"/><path d="M310.94,253.25c-1.69-2.22-3.57-4.68-5.64-7.45a33.13,33.13,0,0,1-8.07.79,70.83,70.83,0,0,1-11.17-1l3.94,5.51C297.08,253.8,302.41,254.46,310.94,253.25Z" transform="translate(-108 -169.87)"/><path d="M374.33,206.33a22.81,22.81,0,0,0,3.46.25,15.58,15.58,0,0,0,4.66-.67,9,9,0,0,0-6.42-2.58,9.58,9.58,0,0,0-6.76,2.66h0A40,40,0,0,1,374.33,206.33Z" transform="translate(-108 -169.87)"/><path d="M505.84,449.15c2.38.44,3.69-3.25,2.92-6.24-1.31-5.08-4.52-12.35-4.71-15.55V384.75a114.85,114.85,0,0,1-6.79-9.39V419c-.34,3.38,1.46,8,2.5,9.51a9.25,9.25,0,0,1,.49,9.11,5.24,5.24,0,0,1-4.57,3l-.49,0-.37-.05c-2.29-.39-4.34-.76-6.29-1.1-6.48-1.16-11.2-2-15.81-2-6,0-12,1.5-20.81,5.19l-1.86.79-1.74-1.07-.42-.23c-3.95-2.48-11-6.74-19.51-7.9,3,4.05,5.34,7.18,5.34,7.18,12,0,20.9,6.15,25.66,9C478.87,442.24,486.53,445.66,505.84,449.15Z" transform="translate(-108 -169.87)"/><path d="M277.5,237.54l.89-.75,2.74-2.14c-2.77-2.87-5-3.28-6.59-3.28a11.16,11.16,0,0,0-1.26.12c-.09.4-.17.71-.17.71s2.19,2.89,3.89,5.47C277.18,237.6,277.32,237.6,277.5,237.54Z" transform="translate(-108 -169.87)"/><path d="M365.72,235.63s0,.07,0,.13a4.1,4.1,0,0,0,.4.47c.1-.19.13-.37.23-.6Z" transform="translate(-108 -169.87)"/><path d="M524.69,272.5C528,270,519.83,256.68,520,254a29.85,29.85,0,0,1,1.1-7.29,113.61,113.61,0,0,0,3.12-11.61c1.57-8.62-2.18-19.25-8.46-26.65a33.47,33.47,0,0,1,1.79,15.47,57.51,57.51,0,0,1-2.61,10.4c-.27.68-.49,1.34-.69,2a31.52,31.52,0,0,0-1.51,6.35A33.32,33.32,0,0,0,515,248.4c2.78,6.06,5.63,12.32,1.08,15.79a5,5,0,0,1-3,1,8.23,8.23,0,0,1-2.9-.64,70.49,70.49,0,0,0,6.14,4.53S523.24,273.58,524.69,272.5Z" transform="translate(-108 -169.87)"/><path d="M460,208.49c-1.42-2.72-3-5.25-4.48-7.67,1.41,2.9,2.79,5.76,4.09,8.56C459.72,209.06,459.85,208.8,460,208.49Z" transform="translate(-108 -169.87)"/><path d="M413.68,372.9s11.52,8.45,17.34,12.26c9.2,6,13.38,8.79,22.42,13.37a15.38,15.38,0,0,1,3.82-1,7.7,7.7,0,0,0-1.26-4.4,5.9,5.9,0,0,0-5.25-2.43,13.91,13.91,0,0,0-3,.38l-.27.06h-.27l-2.91.24-1.26.1-1-.6a303.68,303.68,0,0,1-25.93-16.43L408.7,369c-1.39-1-2.77-2.09-3.95-2.93-20.95,19.36-45.9,45.16-47.76,49.71-2.24,5.24-1.05,8.1-.14,10.19,1.41,3.3,1.25,7.13-.33,9.54A5.39,5.39,0,0,1,352,438a5.92,5.92,0,0,1-1.73-.29c-2.47-.84-15.47-4.94-28-4.94-6.17,0-11,1-14.24,3.06l-.83.55a35.33,35.33,0,0,1,7.52,7.31c11.24-7.38,36.62-.65,46,2.47,2.59,1.09,4.76-.86,4.52-4.51-.22-4.07-4.29-9.88-2-16.56C367.25,413.15,397.28,388.46,413.68,372.9Z" transform="translate(-108 -169.87)"/><path d="M269.16,228.15a25.55,25.55,0,0,1,4.84-.75c.19,0,.32,0,.54,0,3.58,0,7.84,1.48,12.24,8l-2.47,1.93-3.38,2.68c1,.73,3.68,1.43,7.05,1.93a64.23,64.23,0,0,0,9.25.71c4,0,7.57-.46,9.5-1.6,0,0,4,5.38,8.73,11.52,6.06,7.84,13.14,16.92,14.4,17.57s-8.53,1.21-19.36,2c-9.33.16-18.06.3-25,.45-6.16.11-10.65,4.81-12.16,8.83s-3.14,12.44-2.44,16.12l3.47-1.1c.72,1.28,1.31,2.31,1.88,3.27,2.64,4.44,3.65,5.9,8.24,7.62,2.61-6.49,11-7.11,13.91-7.11.67,0,1,0,1,0l-.11,7.22c16.36-.12,17.89-11.93,17.89-11.93l31.92-.48,8.7,10.5,11.47,13.95c-16.53,17.21-28.06,38.5-40.55,61.28,6,5.44,3.88,16.59-6,17.64a9.75,9.75,0,0,1-1.08,0c-5.52,0-11.47-3.95-18.38-3.95a18.68,18.68,0,0,0-3.77.42c-11,2.41-8.78,11.26-17.47,22.87a44.77,44.77,0,0,1,5.75,1.88,49.78,49.78,0,0,1,18,12.83c4.26-2.72,10.23-3.71,16.4-3.71,11.07,0,23.18,3.12,29.23,5.13a1.64,1.64,0,0,0,.49.1c1.77,0,2.39-3.46,1.08-6.43-1.08-2.65-2.63-6.71.2-13.36,2.51-6,31-34.92,51.18-53.28h0a6.66,6.66,0,0,1,.67.43c1.72,1.25,7.45,5.53,13.37,9.86,10.94,8,25.33,16.36,25.33,16.36l3.67-.34a15,15,0,0,1,4.07-.42,11.25,11.25,0,0,1,2.12.27c.3.06.57.18.91.26a8.12,8.12,0,0,1,1.65.73,11.16,11.16,0,0,1,1.16.85c.13,0,.16.14.3.2a11.44,11.44,0,0,1,3.41,8.31,8.12,8.12,0,0,1-.38,2.67,9.48,9.48,0,0,1-1.47,2.51c-.15.18-.35.29-.49.45a9.85,9.85,0,0,1-1.64,1.37c-.27.11-.51.22-.78.31a9.3,9.3,0,0,1-2.18.8c-.05,0-.09,0-.09.06a14.56,14.56,0,0,1-3.33.15c-5.3-.4-11.15-2.94-18.18,1.2-7.15,4-4.14,17.44-8.44,23a38.67,38.67,0,0,1,8.21,1c8.07,1.86,14.56,5.91,18.11,8.12,19.46-8.23,25.36-5.6,45.18-2.25,1.39.27,2.37-3.71.82-6.3-1.26-2.19-3.55-7.46-3.2-11.71l-.05-12.89V371.28h0v-.09a26.66,26.66,0,0,1-10-.37,15.16,15.16,0,0,1-6.45-3.24c0-.05,0-.07,0-.08a12.07,12.07,0,0,1-1.72-1.87c0-.05-.08-.07-.08-.11a15.59,15.59,0,0,1-2.39-4.68c-1.59-5.09-6.22-15.32-9.33-21.9,0,0,13-.36,23.56-7.43a29,29,0,0,0,6.41-5.71,25.11,25.11,0,0,0,3.58-5.87,31.11,31.11,0,0,0,2.19-17.33c-1.62-11.58-5.82-21.37-8.34-27.94-3.45-9.15-10.62-25-13.41-34.39-1.95-6.72-3.29-11.5-3.48-15.61a27.28,27.28,0,0,1,0-2.86v0a20,20,0,0,1,2.78-8.62c1.91-3.58,5.9-7,10.62-6.64a9.34,9.34,0,0,1,3.67,1c4.19,2,3.25,3.15,2.83,3.9a35.54,35.54,0,0,0-3.4,6.92c-2.49,6.34-3.18,13.16-1.61,18.4,1.84,6.13,6.1,11.54,10.07,15.42a45.76,45.76,0,0,0,6.56,5.4s7.08,4.57,8.49,3.51c3.33-2.51-5.31-14.69-5-18.64a30,30,0,0,1,1.71-7.29c.88-3,2.71-7.4,3.22-11.8a27.44,27.44,0,0,0-7-22.13,22.48,22.48,0,0,0-13.27-6.7c-3.53-.49-18-2.72-28,12.3a29.44,29.44,0,0,0-2.93,6.32,28.43,28.43,0,0,0-1.46,9.49C456,210.8,450,197.39,443.4,187.51c-.8-1.08-3.36-4.18-5.87-6.85-2.07-2.21-4.12-4.15-5-4.4-8.31-2.22-24.57-6.14-29.11-6.39a.14.14,0,0,1,.06.1.28.28,0,0,0-.18-.06c-3.6.36-30.63,10-31.52,11.23,0,0-3.14,3.25-3.14,3.3C362.25,186,349,188.05,348,189.31c-2.83,3.46-.85,6.69.08,8.11.34.53,2.44,8,6.24,8h1l9.35,0A13.08,13.08,0,0,1,376,199.33a12.76,12.76,0,0,1,12.3,8.6c-.54.23-1,.45-1.53.65a20.52,20.52,0,0,1-8.95,2.06,27.47,27.47,0,0,1-3.46-.25,4.75,4.75,0,0,1-.54,0,32.28,32.28,0,0,0-4.49-.32,34.39,34.39,0,0,0-11.2,1.81c-1.58.58-2.51,1.17-2.51,1.58.08,2,10.76,2.66,13.54,2.7,3.18.1,7.43.32,11.79.32,2,0,4.12,0,6.09-.21a12.91,12.91,0,0,1-1.78,1.95,18.1,18.1,0,0,1-11.44,4.08H357.42a24.79,24.79,0,0,0,4.12,9.32h6.73c3,.2,3.33,1,3,2.31-.18.68-.49,1.46-.79,2.36-.4,1.1-.87,2.36-1.45,3.65-1.79,4.53-4.54,9.8-8.37,13.2C344,238.63,321.73,220.53,306.06,209c-3-2.15-11.94-3.89-20.45-3.89-4.61,0-9.19.51-12.5,1.76a10.6,10.6,0,0,0-5.4,5.05l4.68,1.35C263.78,218.46,269.16,228.15,269.16,228.15ZM393.3,185.73a5.32,5.32,0,0,0,.66-.29A6.17,6.17,0,0,1,393.3,185.73Zm62.13,137.4c-.51-.1-1-.18-1.48-.31v0c-5.25-7.62-14.53-21.47-19.33-28.73,3.42-12.26,4.91-15.24,7.59-26.92,0,0,5.18,2.83,7,2.83.05,0,.05,0,.08,0a1.18,1.18,0,0,0,.41-.07v0c.1,0,.18,0,.18-.14,1.25-5.19,9.64-29.58,11.12-37.43,0,0,1.26,3.48,3,8.55,1.48,4.39,3.06,8.39,4.68,12.3,2.5,6,5.06,11.76,7.35,17.56,5.19,13.1,7,18.7,8.74,27.58,1.3,7,.63,13.42-2.12,17.17a21.18,21.18,0,0,1-7.46,6c-.16.05-.24.11-.39.16a21.94,21.94,0,0,1-2.76,1.05,3.15,3.15,0,0,1-.64.2,13.49,13.49,0,0,1-1.66.4c-.31.07-.57.14-.94.19-.93.17-1.92.28-2.85.38-.47,0-.91.05-1.41.06s-1.14,0-1.77,0c-1,0-1.95-.09-3-.2h0c-.66-.07-1.35-.14-2-.26C457,323.43,456.24,323.26,455.43,323.13Zm-76.7-133.44a13.52,13.52,0,0,1-.26-6.51,105.9,105.9,0,0,1,13.6-1.41,1.92,1.92,0,0,1,1.26.41,2.12,2.12,0,0,1-.35,3.74c-3.18,1.41-9.07,3.45-13.86,5A10.27,10.27,0,0,1,378.73,189.69Z" transform="translate(-108 -169.87)"/><path d="M560.18,515.87c-25.45.63-42.27,18.08-41.7,43.4s16.74,40.54,42.45,39.92C587,598.53,603,581.57,603,554.79,603,531,585.64,515.24,560.18,515.87Zm1.16,73.72c-13.36,0-21.51-10.84-21.9-30.09-.51-20.94,7.28-33.71,21.49-33.73s20.91,13.26,21.36,32C582.55,569.23,578.93,589.54,561.34,589.59Z" transform="translate(-108 -169.87)"/><path d="M412.25,587.46a2.86,2.86,0,0,1-.72.45c-2.61,1.17-7.89,1.82-13.22,1.05-13.62-1.9-22.64-14.27-22.64-30.91,0-19.67,17.36-30.33,29-30.81a66.55,66.55,0,0,1,23,3l3-9.32c-8.22-3.81-18.63-5.11-27.68-5.11-37.27,0-49.52,25-49.52,41.93,0,21.86,14.58,41.43,45.68,41.43,21.38,0,33.64-7.29,33.64-7.29V558.32H412.25Z" transform="translate(-108 -169.87)"/><path d="M427.63,530.26l-.27-.09Z" transform="translate(-108 -169.87)"/><path d="M427,530Z" transform="translate(-108 -169.87)"/><polygon points="497.15 359.64 522.23 359.64 522.23 425.8 543.18 425.8 543.18 359.64 569 359.64 569 348.88 497.15 348.88 497.15 359.64"/><path d="M173.49,521.69c-5.58-2.39-9.13-3-24.64-3H108v76.92h22V567.33h20.67c19.15,0,35.16-4,35.16-26.24C185.79,533.66,180.52,524.68,173.49,521.69Zm-28,36.93H129.88V528.35l16.63-.09c9.56,0,17,6.78,17,15.16S156.2,558.62,145.52,558.62Z" transform="translate(-108 -169.87)"/><path d="M321.84,571.48c0,10.51-6.85,17.23-16.39,17.23h-.06c-9.47,0-16.67-6.36-16.67-18.08V518.74H268.3v46.45c0,13,3.18,19,7.62,23.44,7.4,7.41,15.56,10.56,29.47,10.56h.13c13.94,0,22.15-3.7,29.53-11.13,4.5-4.43,7.22-9.83,7.22-22.43V518.74H321.84Z" transform="translate(-108 -169.87)"/><polygon points="86.85 425.8 146.05 425.8 146.05 413.41 107.69 413.41 107.69 388.43 138.71 388.43 138.71 379.09 107.69 379.09 107.69 359.82 146.05 359.82 146.05 348.88 86.85 348.88 86.85 425.8"/><polygon points="342.48 425.8 401.7 425.8 401.7 413.71 363.29 413.71 363.29 388.72 394.32 388.72 394.32 379.38 363.29 379.38 363.29 360.08 401.7 360.08 401.7 348.88 342.48 348.88 342.48 425.8"/></svg>