<svg id="ab8653c4-643d-4d5a-98b7-21ae7f6b5180" data-name="Capa 1" xmlns="http://www.w3.org/2000/svg" viewBox="0 0 50 49"><defs><style>.adaaff40-5a04-45e6-b058-e73b8c756ff2{fill:#575e69;}</style></defs><title>iconos vincar</title><path id="e20296b4-f8a2-4cf6-821a-d6dce829ca77" data-name="Trazado 1055" class="adaaff40-5a04-45e6-b058-e73b8c756ff2" d="M18.09,24.77a3.07,3.07,0,0,0,3.06-3.07H19.62a1.53,1.53,0,1,1-3.06,0H15a3.07,3.07,0,0,0,3.07,3.07Z"/><path id="e5fe72df-ab03-4588-bf9f-81157e2db5b1" data-name="Trazado 1056" class="adaaff40-5a04-45e6-b058-e73b8c756ff2" d="M15,17.11a.77.77,0,1,1-.76-.77.76.76,0,0,1,.76.77Z"/><path id="a6ccd260-fa3c-4189-94e1-355211914985" data-name="Trazado 1057" class="adaaff40-5a04-45e6-b058-e73b8c756ff2" d="M22.68,17.11a.77.77,0,1,1-.76-.77.76.76,0,0,1,.76.77Z"/><path id="a6b1421e-962b-47d2-9469-c5e541d49f3a" data-name="Trazado 1058" class="adaaff40-5a04-45e6-b058-e73b8c756ff2" d="M27.28,24v6.09l-3.83-1.28V26.67a8.41,8.41,0,0,0,2.75-4.25,3.82,3.82,0,0,0,3.38-3.78V12.51a11.5,11.5,0,0,0-23,0v6.13A3.82,3.82,0,0,0,10,22.42a8.54,8.54,0,0,0,2.75,4.25v2.14L4.9,31.42a5.37,5.37,0,0,0-3.67,5.09v7.41H27.28v4.6H48.73V29.05l-5-5.05Zm16.85,2.62,2,2h-2Zm-20,4-1.17,5.84-3.66-2.62,3.62-3.62Zm2.38-9.83c0-.22,0-.43,0-.64V16.48a2.29,2.29,0,0,1,0,4.33ZM8.13,18.64a2.31,2.31,0,0,1,1.53-2.16v3.69c0,.22,0,.42,0,.64A2.32,2.32,0,0,1,8.13,18.64Zm1.68-3.77a3.82,3.82,0,0,0-1.68.72V12.51a10,10,0,0,1,19.92-.2v3.28a3.82,3.82,0,0,0-1.68-.72,4.2,4.2,0,0,0-5.14-3,3.91,3.91,0,0,0-1.45.7l-1.69,1.26L16.4,12.59a4.22,4.22,0,0,0-6.6,2.28Zm1.39,5.3V16a2.69,2.69,0,0,1,4.29-2.15l2.6,2,2.6-2A2.69,2.69,0,0,1,25,16v4.21a6.9,6.9,0,0,1-13.79,0Zm6.9,8.43a8.39,8.39,0,0,0,3.83-.93v1.38l-3.84,3.83-3.83-3.83V27.67a8.36,8.36,0,0,0,3.83.93Zm-4.8,1.64,3.62,3.62-3.66,2.62-1.17-5.84ZM8.89,42.39v-4.6H7.36v4.6H2.76V36.51a3.84,3.84,0,0,1,2.62-3.64l5.23-1.74,1.59,8,5.88-4.2L24,39.1l1.59-8,1.72.57V42.39ZM28.81,47V25.53H42.6v4.6h4.6V47Z"/><path id="b6e57041-9278-4f09-91f3-047b280643da" data-name="Trazado 1059" class="adaaff40-5a04-45e6-b058-e73b8c756ff2" d="M38,45.45h7.66V37.79H38Zm1.53-6.13h4.6v4.6h-4.6Z"/><rect id="a8267518-9008-47d2-a2ce-b6d5ba354128" data-name="Rectángulo 322" class="adaaff40-5a04-45e6-b058-e73b8c756ff2" x="29.89" y="43.81" width="6.59" height="1.88"/><rect id="aef7e9ef-fb93-4563-8d71-35b781c49995" data-name="Rectángulo 323" class="adaaff40-5a04-45e6-b058-e73b8c756ff2" x="29.89" y="40.98" width="6.59" height="0.94"/><rect id="f02acda6-ff72-4c14-b361-1602ae9c6e4e" data-name="Rectángulo 324" class="adaaff40-5a04-45e6-b058-e73b8c756ff2" x="29.89" y="38.15" width="6.59" height="0.94"/><rect id="be3fec7c-90e0-45b7-960d-764de409f738" data-name="Rectángulo 325" class="adaaff40-5a04-45e6-b058-e73b8c756ff2" x="29.89" y="26.85" width="1.88" height="1.88"/><rect id="be92bd53-b47a-40d0-aff3-ec21cad5f9d1" data-name="Rectángulo 326" class="adaaff40-5a04-45e6-b058-e73b8c756ff2" x="33.66" y="26.85" width="7.54" height="1.88"/><rect id="a4102caa-652e-4b7d-a828-a953f1d3378c" data-name="Rectángulo 327" class="adaaff40-5a04-45e6-b058-e73b8c756ff2" x="29.89" y="29.67" width="11.31" height="1.88"/><rect id="b0921ce6-bc9f-405c-a4f3-cddf00f525cb" data-name="Rectángulo 328" class="adaaff40-5a04-45e6-b058-e73b8c756ff2" x="44.02" y="33.44" width="1.88" height="0.94"/><rect id="f2a2d920-dc7c-4e46-88f7-13138bf4ad87" data-name="Rectángulo 329" class="adaaff40-5a04-45e6-b058-e73b8c756ff2" x="29.89" y="33.44" width="12.25" height="0.94"/><path id="b1835c1a-8079-4593-9fbf-55906c33b00a" data-name="Trazado 1060" class="adaaff40-5a04-45e6-b058-e73b8c756ff2" d="M40.3,22.47a8.41,8.41,0,0,0,8.43-8.4,8.32,8.32,0,0,0-1.57-4.91l1.37-1.49-1.13-1L46.15,8A8.42,8.42,0,1,0,40.3,22.47Zm0-15.32a6.83,6.83,0,0,1,4.82,2l-5.66,6.17-3.27-2.61-1,1.2,4.39,3.51,6.48-7.08a6.89,6.89,0,1,1-5.8-3.17Z"/></svg>