<svg id="Layer_1" data-name="Layer 1" xmlns="http://www.w3.org/2000/svg" viewBox="0 0 445.75 580.15"><defs><style>.cls-1{fill:#fff;}</style></defs><line y1="30.24" x2="23.52" y2="341.59"/><path d="M289.65,721.57C183.25,666.7,95.89,589.42,91.41,496.46L66.77,171.67c90.72-20.72,145.6-30.24,222.88-30.24" transform="translate(-66.77 -141.43)"/><path class="cls-1" d="M289.65,335.18h-75V462.86c0,34.72,29.12,74.48,75,74.48" transform="translate(-66.77 -141.43)"/><path d="M289.65,721.57C396,666.7,483.4,589.42,487.88,496.46l24.64-324.79C421.8,151,366.92,141.43,289.65,141.43" transform="translate(-66.77 -141.43)"/><path class="cls-1" d="M289.65,150.39c91.83,0,174.71,19.6,213.35,29.12l-4.13,55.55C400,210.3,341.17,206.38,289.65,206.38S179.33,210.3,80.42,235.06l-4.13-55.55C114.93,170,197.81,150.39,289.65,150.39Z" transform="translate(-66.77 -141.43)"/><polygon class="cls-1" points="306.87 245.51 306.68 307.18 415.35 307.51 420.19 245.19 306.87 245.51"/><polygon class="cls-1" points="424.74 185.52 429.61 121.25 227.35 120.1 227.35 182.8 306.87 182.8 306.87 185.51 424.74 185.52"/><path d="M205.67,387.21c-2.64,3.33-5.73,7.76-6.29,10.15a26.68,26.68,0,0,1,6.31,5.9Z" transform="translate(-66.77 -141.43)"/><path class="cls-1" d="M178.2,635.52c32.64,29.54,71.2,54.13,107,73V635.27Z" transform="translate(-66.77 -141.43)"/><path class="cls-1" d="M285.16,572.27V546.2c-30.67-1.41-52.14-17.13-65-35.64l-118.58.13c3.43,21.77,11.6,42.34,23.14,61.6Z" transform="translate(-66.77 -141.43)"/><path class="cls-1" d="M289.65,335.18h75V462.86c0,34.72-29.12,74.48-75,74.48" transform="translate(-66.77 -141.43)"/><path class="cls-1" d="M341.23,529.42c21.89-16.83,32.42-42.74,32.42-61V457.6l108.14-.33-4,52.63c-13.44,88.48-105.28,157.36-183.67,198.79V546.2a84.17,84.17,0,0,0,34.4-8.78l-.24,2.24c-2.63,7.71-2.48,11-2.64,12.62-.44,3.47-4.7,3.8-5.46,3.42a6.18,6.18,0,0,0-9.34,5.31,5.13,5.13,0,0,0,.23,1.52c-2.21.93-3.2,2.75-3.2,5.31,0,3.42,2.21,6.18,5.62,6.18,1.42,0,2.33.16,3.38-.64a6.13,6.13,0,0,0,4.63,2.1c3.41,0,5.15-.92,5.38-7.86,22.82-12.08,57.53-21.32,72.91-20.5,17.38.94,30,18.37,31.36,19.49s2.46,1.12,2.24-.67c-1.12-7.17-3.34-18-20.28-27.22,1.12-4.7,9.38-5.58,10.92-6.27,1.16-.51,1.57-2,0-2-11.34-1.5-19.43,3.58-21,5.6a61.69,61.69,0,0,0-11.48-.79c1.26-5.75,4.62-10,9.64-14.17-.73.62,1.34-1.79-.23-1.79-12.54,1.12-20.32,14.11-21.22,17.47-1.12.23-14.73,2.47-17,3.14,2.05-13.2,17-22.18,18.37-23.07s1.79-2.24,0-2.24c-18.84.63-32.65,25-33.32,30.13-2.91,1.12-7.39,2.68-9.63,4-.78-8.78-.62-11.49,1.77-16.73Z" transform="translate(-66.77 -141.43)"/><path d="M322.85,612.07c-.18,5.56-1.57,6.29-4.3,6.29a4.94,4.94,0,0,1-3.7-1.67c-.84.64-1.57.51-2.7.51-2.73,0-4.5-2.22-4.5-5a4.17,4.17,0,0,1,2.56-4.25,4.07,4.07,0,0,1-.18-1.21,4.95,4.95,0,0,1,7.47-4.25c.61.31,4,0,4.37-2.74.27-3,6.39-25.16,21.63-27.31,1.61-.35,1.07.9.35,1.62,1.22-1.22-13.08,10.17-12,22.87,1.8-1.08,7.06-2.89,9.39-3.79.54-4.12,13-22.76,28-23.26,1.44,0,1.08,1.07,0,1.79s-14.17,7.62-15.81,18.18c1.79-.54,10.72-2.33,11.62-2.51.71-2.69,10.18-14.49,21.17-14.26,1.26,0-.4,1.93.18,1.44-4,3.37-11.45,7.57-12.46,12.17a49,49,0,0,1,9.18.63c1.26-1.62,8.29-6.24,17.36-5,1.26,0,.93,1.2,0,1.61-1.23.55-7,2.37-7.89,6.14,9.79,5.78,13.64,11.84,14.53,17.57.18,1.43-.71,1.43-1.79.54S394,597.26,380.06,596.52C367.77,595.86,341.11,602.41,322.85,612.07Z" transform="translate(-66.77 -141.43)"/><path d="M318,650.38c-.13,3.8-1.92,4.58-3.79,4.58a3.36,3.36,0,0,1-2.53-1.14c-.57.44-1.07.35-1.85.35a3.13,3.13,0,0,1-3.07-3.38,2.85,2.85,0,0,1,1.75-2.91,2.88,2.88,0,0,1-.13-.83,3.38,3.38,0,0,1,3.38-3.38,3.28,3.28,0,0,1,1.73.48c.42.2,2.75,0,3-1.88S317.65,624.7,327,623c1.11-.24.74.62.25,1.11.83-.84-5.57,6.58-4,15.78a39.5,39.5,0,0,1,5.15-2.17c.37-2.82,3.84-15.85,14.15-16.19,1,0,.74.73,0,1.22s-5.07,5.07-6.19,12.3c1.39-.72,4.89-1.28,6.26-1.72.49-1.84,7.95-11.87,15.47-11.71.86,0-.28,1.31.12,1-2.74,2.31-6.44,6-7.13,9.17a22.16,22.16,0,0,1,5,0,10.54,10.54,0,0,1,10.19-4.15c.86,0,.63.82,0,1.1a7.21,7.21,0,0,0-3.72,4.48c7.23,3.5,10.31,6.56,10.92,10.48.13,1-.49,1-1.22.37a32.55,32.55,0,0,0-16.79-5.61C347.13,638,330.67,642.62,318,650.38Z" transform="translate(-66.77 -141.43)"/><path d="M428.24,452.78" transform="translate(-66.77 -141.43)"/><path d="M432.44,357" transform="translate(-66.77 -141.43)"/><path d="M227.49,449c.7-2.1,2.94-4.62,3.22-5.88s-.14-2.24.7-3.5a43.19,43.19,0,0,1,4.06-4.48,3.2,3.2,0,0,1,5.32,1.26c1.54,3.36,4.2,10.78,9.52,13a50.54,50.54,0,0,1-9.8,3.5c-2.66.56-4.76,1-3.64,7.56s1.4,9.38,1,11.48A10.61,10.61,0,0,0,241.21,482l3.5,4.9c1.4,1.26,4.76,2.66,5-.14s1.12-5.6-1.68-5.88c-1-.14-3.64-2.38-3.36-4.9a11.14,11.14,0,0,0-1.54-6.72,9.18,9.18,0,0,1-1-6.58c.56-2.1,2.1-3.36,5.6-2.66,2.8,1,15.68,4.48,19.6.14,2.66,2,18.48,7.84,27.72,6.86,1.68,2.94,5.18,9.38,7.42,11.2,1.82,1.68,2.52,7-.56,9.8-1.82,1.4-6.58,6.3-10.5,7.42s-5.46,1.82-7.28,3.64-2.94,1.82-4.06,4.2-3.64,6.58.42,6.58,5.18-2,5.46-3.08,0-3.5,1.54-3.92,6.3-.7,9.52-4.62,9.66-6,12.18-6.44,2.8-2.94,2.52-4.2-.42-4.48,1.12-6.16c2.24.56,9.38,2.1,12.74,6.72a18.11,18.11,0,0,0,1.26,2.8c-1,1.68-2.94,3.22-3.64,4.9a14.63,14.63,0,0,1-4.76,7c-3.22,2.52-6,4.06-7.56,6.3a11.18,11.18,0,0,0-2.24,7.7c.28,3.08,1.12,1.54,2.52,1.54s4.62-1.54,4.76-3.64-.84-3.08,2.1-4.34,8.12-5.46,9.24-8.12,4.48-7.84,7.14-9.38,2.1-3.78.84-6-5.6-8.26-4.76-12.18,5.46-6.3,6.86-12.32.56-8.82-.28-10.92c2.38-.7,3.78-.14,6.86,1.26s10.08,1.12,10.92-.84.56-5.88,0-6.72c2-1.68,3.36-5.32,2.24-7a7.78,7.78,0,0,1-1.12-6.16c-2-.28-4.06-2-2.66-3.22s4.2-4.2,2.94-8c.42-2.38.56-5.32-3.5-5.18-.14-1.54-1.4-6.58-7.7-2-1,.7-2.1-.84-.7-1.26s8.68-2.8,9.8-5.32.7-3.78.28-4.76c.56-1.12,1.12-3.36.56-4.2s-2.8-.7-4.34,3.08-1.12,3.78-5.18,4.48-7.14,0-9.8,4.48c-.84,1.12-1.26,2.38-3.22,3.5a6.8,6.8,0,0,0-3.36,4.48c-.28,1.54,1.12,4.34.84,6.3s-1.4,6.16,3.78,10.64c2.52,2.8,6.3,6.44,3.5,9.24s-5.32-.14-7.42-1.54-9-3.5-13.44-3.22-19.18-3.36-22.68-6.3-1.36-4.43.42-5.32a4.92,4.92,0,0,0,2.8-2.52A3,3,0,0,1,300,423.8c1.26,0,2.52-.28,3.64-2.94s2.24-1.68,3.5-2a2,2,0,0,0-.14-3.78c-2.24-.84-3.5-1.68-3.36-2.52a4.47,4.47,0,0,1,3.78-2.8c2.1-.14,2.24-1.54,2.1-2.66a2.07,2.07,0,0,1,1.4-2.52c1.4-.7,1.26-2.38-1.12-3.08s-5.88-1.54-5.88-2.66,1.54-3.08,3.08-3.64,2.24-2.94-1.26-2.8-5.46.56-6.16-1.68-.84-3.5,2.8-4.9c1.54-.42,2-2.52-.84-2.38s-6,1.54-7,.56-.7-1.82-.14-2.24a1,1,0,0,0-.7-1.82c-1.4,0-6.86,2.1-8.26.56s-3.64-2.38-5.46-1.26-1.82,2.8-.84,3.78a1,1,0,1,1-1.4,1.54,1.87,1.87,0,0,1-.7-2.1,4.32,4.32,0,0,0-1.82-2.38c-1-.56-1-2.1-.7-3.08s-.84-2-2.52-1-3.22,2.66-2.38,5.18c-1.82.14-6.44,1.26-6.58,2.66s.56,2.94.28,3.5-1.82.56-2.66,1.12c-2.38,2.38-6.44,4.62-7.42,5.6s-1.68,2-2.94,3.5-1.37,3-.84,3.78c1.54,2.24,2.8.7,3.64,2s.84,1.54.7,2.24,1.54,2.24,4.06.14,4.34-4.34,6.3-2,.14,3.78-.7,5.32c-1.68,1.68-5.6,6.86-7.42,8.4s-3.22,5.18-3.92,8.54-1.54,4.06-2.24,4.9c-3.36-1.26-7.14-2.8-9.24-4.48-1.4-1.12-4.48-2.52-6.44.28-1,1.12-6,8-7.28,10.92s-3.22,1.82-3.22,7.42c0,2-1.54,2.8-2.38,5.88-.14.84-2.38,6-.14,7s4.9-.28,5.46-1.68S227.35,450.54,227.49,449Z" transform="translate(-66.77 -141.43)"/><path class="cls-1" d="M205.65,326.22h79.52V216c-44.39.64-104.74,3.07-203.93,29L96.83,449l108.82,0V411.17c-3-2.39-7.74-6.27-21.73-6.26-8.27,0-31.74,7.83-45.4,24.56-.19,5.86-3.54,8-6.42,8a5.2,5.2,0,0,1-3.91-1.77,4.86,4.86,0,0,1-3.09,1,5.21,5.21,0,0,1-5.21-5.21,5.65,5.65,0,0,1,3.41-5,4.18,4.18,0,0,1-.19-1.28,5.21,5.21,0,0,1,5.21-5.21,5.29,5.29,0,0,1,2.67.73c.63.32,2.72,1.74,3.1-1.19.28-3.12-.11-32.38,15.53-36.81,1.71-.38,1.14.95.38,1.7s-7.67,12.71-6.75,27.78c1.89-1.13,6-4.2,8.45-5.15.75-3.21,6.17-27.56,19.11-27.82,1.51,0,1.13,1.14,0,1.89s-6.77,7.42-7.91,19.33c1.89-.57,6.61-1.37,7.56-1.56.75-2.84,6.33-19.15,16.91-20.1,1.33,0,.76,1.37.19,1.94s-6.17,8.35-7.28,16a32.4,32.4,0,0,1,7.59.33c1.14-1.46,10.11-11.31,17.79-14.53l0-33.17c-1.47-1.34-3.77-2.77-10.83-2.79-11,0-29.48,4.54-54.93,21.17-.26,7.81-4.73,10.73-8.57,10.73a7,7,0,0,1-5.22-2.35,6.48,6.48,0,0,1-4.11,1.34,7,7,0,0,1-7-6.95,7.54,7.54,0,0,1,4.55-6.61,5.65,5.65,0,0,1-.26-1.7,7,7,0,0,1,7-6.95,6.87,6.87,0,0,1,3.56,1c.85.42,4.38,1.94,4.88-2,.38-4.16,6.76-39,28.18-42,2.27-.51,1.51,1.25.51,2.26s-17.7,14.7-16.47,34.81a132.69,132.69,0,0,1,13.5-6.5c1-4.28,10.47-30.41,27.72-30.74,2,0,1.51,1.51,0,2.52s-12,8.4-13.53,24.27c2.52-.75,10.31-2.57,11.57-2.83,1-3.78,7.7-18.81,21.81-20.07,1.76,0,1,1.82.25,2.57s-8.23,5.91-9.72,16.05a33.35,33.35,0,0,1,7.13.93Z" transform="translate(-66.77 -141.43)"/><path d="M136.77,306.34c-.28,8.68-5.26,11.92-9.52,11.92a7.69,7.69,0,0,1-5.79-2.61,7.25,7.25,0,0,1-4.57,1.49,7.72,7.72,0,0,1-7.72-7.72,8.35,8.35,0,0,1,5-7.34,6.29,6.29,0,0,1-.29-1.9,7.72,7.72,0,0,1,11.67-6.63c1,.47,4.87,2.15,5.43-2.19.42-4.62,6.58-45.78,30.38-49.14,2.52-.56,1.68,1.4.56,2.52s-19.6,16-17.36,41.16a175.59,175.59,0,0,1,16.24-7.84c.84-6.44,10.08-36.4,30.8-37,2.24,0,1.68,1.68,0,2.8a42.23,42.23,0,0,0-16,28.84c2.8-.84,11.76-2.24,13.16-2.52,1.12-4.2,9.8-24.64,25.48-26,2,0,1.12,1.4.28,2.24s-12,10.36-12,21.56c2.8-.28,10.64-.28,12.6.28,2-2.52,10.36-11.76,22.4-12.6,2,0,1.12,1.4,0,2.52s-8.4,7.56-9.8,13.44C232,273.86,244,282,245.41,290.94c.28,2.24-1.12,2.24-2.8.84S228.05,280,211.81,280,165.05,287.86,136.77,306.34Z" transform="translate(-66.77 -141.43)"/><path d="M259,191.89v6.47l-9.67.47v-5.69c0-5.65-3.11-9.2-8.38-8.83l-26.73,1.74.27,15.46-9.63.45-1.06-38.65,40.13-2.67c7.35-.59,13.8.9,13.79,11a16.93,16.93,0,0,1-2.59,8.41C257.17,181.61,259.06,185.8,259,191.89Z" transform="translate(-66.77 -141.43)"/><path d="M87.49,225.7l-2.8-38.91,39.9-9c5-1.12,12.18-.42,12.46,8.54s-1.4,12.73-7.7,14.13l-33.46,7.56,1.26,15.4Z" transform="translate(-66.77 -141.43)"/><path class="cls-1" d="M95.05,193.36l.28,5.74,27.86-6.16a3.31,3.31,0,0,0,2.66-3.78c-.11-1-1.12-2.37-3.92-1.81S95.05,193.36,95.05,193.36Z" transform="translate(-66.77 -141.43)"/><path d="M143.07,182.17c0-3.64-.14-9,9.8-10.5l32.34-5.32c3.92-.7,12.74,2,12.74,9.24l.42,18.75c.14,3.92-.14,9.1-10.64,10.64l-30,4.76c-5.32,1-14,.14-14.28-9.94Z" transform="translate(-66.77 -141.43)"/><path class="cls-1" d="M152.87,186.51h0c0-2.94-.14-5.74,5-6.72l24.78-4.2c2.66-.42,5.46,1.54,5.46,4.2l.28,11.47c0,1.83-.84,4.76-4.9,5.46L159,200.65c-3.36.56-5.6.69-5.88-3.65Z" transform="translate(-66.77 -141.43)"/><path d="M279.57,174.89a3.37,3.37,0,1,1,0-6.73h39.48v-8.39H275c-2.24,0-9.8.49-9.73,11.9s8,11.62,9.73,11.62h30.94a3.36,3.36,0,0,1,3.36,3.37,3.13,3.13,0,0,1-3.36,3.08H266.41v8.4h44c2.8,0,10.15.41,10.15-11.69s-8.26-11.55-10.15-11.55Z" transform="translate(-66.77 -141.43)"/><polygon points="321.43 23.1 319.05 62.86 328.29 64.12 329.41 47.04 361.89 53.2 360.77 69.44 370.01 71.12 372.39 31.5 363.29 29.82 362.31 45.22 329.83 39.06 330.67 24.5 321.43 23.1"/><polygon points="378.69 72.38 380.93 33.18 425.45 42.56 424.89 50.54 389.75 43.12 389.47 50.4 424.33 57.82 423.77 65.8 388.91 58.38 388.49 66.36 423.21 73.78 422.51 81.76 378.69 72.38"/><path d="M379.38,172.51l.43-8.68-41-3.22c-3.5-.28-10.22-.56-10.78,10.92s-.84,16.66-.84,16.66c-.14,3.91,2.24,10.49,9.66,11.05l40.88,3.08.42-8.68L344,191.12c-3.22-.14-6.72-1.12-6.44-7l.28-8.4c.14-3.36,1.26-6.44,6.58-6Z" transform="translate(-66.77 -141.43)"/><path class="cls-1" d="M242.64,175.85,214,177.45l-.13-6.14,29-1.52c2.25.06,3.18.86,3.27,2.91S244.62,175.7,242.64,175.85Z" transform="translate(-66.77 -141.43)"/><path d="M225,359.88c.42,2.38,1.51,3.36,3.73,3.36,1.84,0,3.13-1,3.13-2.38,0-.76-.42-1.26-1.48-1.77l-5.13-2.38a5,5,0,0,1-3.24-5.06,5.8,5.8,0,0,1,6.13-6.19c4.06,0,6.38,2.32,6.55,6.58h-3.36c-.34-2.24-1.26-3.17-3.14-3.17-1.68,0-2.88,1-2.88,2.35a1.74,1.74,0,0,0,1.18,1.54l5.26,2.44c2.38,1.09,3.42,2.38,3.42,5.13a6.39,6.39,0,0,1-2.1,4.87,6.07,6.07,0,0,1-4.46,1.45q-4.2,0-5.93-2.94a7.15,7.15,0,0,1-1-3.83Z" transform="translate(-66.77 -141.43)"/><polygon points="183.01 204.42 183.01 208.12 178.06 208.12 178.06 224.84 174.61 224.84 174.61 208.12 169.54 208.12 169.54 204.42 183.01 204.42"/><path d="M265.66,345.85v12.6c0,4.65-1.37,8.2-6.75,8.2s-6.75-3.5-6.75-8.2v-12.6h3.45v12.52c0,3.3.92,4.59,3.25,4.59s3.36-1.23,3.36-4.59V345.85Z" transform="translate(-66.77 -141.43)"/><polygon points="214.17 204.42 214.17 208.12 209.22 208.12 209.22 224.84 205.77 224.84 205.77 208.12 200.7 208.12 200.7 204.42 214.17 204.42"/><path d="M304.07,355.2H311v11.06h-2.38l-.33-2.57a5.65,5.65,0,0,1-5,3c-4.5,0-7.7-4.31-7.7-10.41,0-6.5,3.25-10.78,8.21-10.78,4,0,6.72,2.54,7.22,6.88h-3.53c-.67-2.21-1.79-3.19-3.66-3.19-2.89,0-4.68,2.66-4.68,6.92S301,363,303.82,363c2.15,0,3.58-1.51,4-4.26h-3.78Z" transform="translate(-66.77 -141.43)"/><polygon points="252.14 204.42 256.03 204.42 261.94 224.84 258.18 224.84 257.04 220.55 250.96 220.55 249.78 224.84 246.17 224.84 252.14 204.42"/><path d="M338,345.85c2.38,0,3.27.25,4.28,1.17a6.32,6.32,0,0,1,1.74,4.71c0,2.35-.59,3.55-2.38,4.73,1.62.87,1.82,1.43,2,5.38.11,3.3.19,3.81.72,4.42h-3.8a8.5,8.5,0,0,1-.42-3.22c-.09-3,.33-4.84-2.86-4.84h-3.16v8.06h-3.45V345.85Z" transform="translate(-66.77 -141.43)"/><polygon points="292.64 204.42 292.64 208.12 287.68 208.12 287.68 224.84 284.24 224.84 284.24 208.12 279.17 208.12 279.17 204.42 292.64 204.42"/><polygon points="229.29 204.42 229.29 208.12 224.34 208.12 224.34 224.84 220.89 224.84 220.89 208.12 215.82 208.12 215.82 204.42 229.29 204.42"/><polygon class="cls-1" points="256.11 217.05 254.01 209.1 251.91 217.05 256.11 217.05"/><path class="cls-1" d="M334.08,354.75h3.27c2.35,0,3.11-.64,3.11-2.63s-.73-2.58-3.11-2.58h-3.27Z" transform="translate(-66.77 -141.43)"/></svg>