<svg id="ab466f68-d4fa-4103-8c99-991823e49458" data-name="Capa 1" xmlns="http://www.w3.org/2000/svg" viewBox="0 0 442.54 619.19"><title>renault</title><path d="M484.45,314.26,403.38,190.81,446.25,87.6,298.69,313.17l94.57,132.34Zm-90.51-97.64,72.74,103.43L393.94,425.64,318.1,320.05Z" transform="translate(-170.45 -64)"/><path d="M336.33,567.53l2.54,4.12H454.46l2.41-4.21L607,320.05l2.66-4.49L607,311.19,458,68l-2.54-4H333.36l-2.57,4.13L184,311.26l-2.76,4.39,2.76,4.4ZM343,81h103L589.79,315.65l-.25.31H499L369,503.49l17.39-42.16L284.57,316h-83l-.31-.49Z" transform="translate(-170.45 -64)"/><path d="M240.81,626.73c0-16.45-13.61-18.77-13.61-18.77H170.45c.41,4.83,9,9.7,9,9.7V668L173,671.12v7.57H209.7v-7.57L202.54,668V646.11l3.25-.17,12.09,32.55h25.25v-7L226,646.33S240.81,643.21,240.81,626.73Zm-25.07,10.49h-13.2V621.69h13.2s2.35,4.28,2.35,8S215.74,637.22,215.74,637.22Z" transform="translate(-170.45 -64)"/><polygon points="136.21 590.58 120.94 590.58 120.94 602.8 107.58 602.8 107.58 582.95 116.51 582.95 119.81 587.41 127.5 587.41 127.5 567.69 120.79 567.69 116.33 572.15 107.58 572.15 107.58 555.82 120.79 555.82 120.79 563.41 137.14 563.41 137.14 543.73 77.03 543.73 77.03 550.23 83.73 553.25 83.73 603.75 77.03 608.03 77.03 614.9 136.21 614.9 136.21 590.58"/><polygon points="180.32 614.9 199.58 614.9 199.58 554.69 207.33 551.36 207.54 543.54 180.96 543.54 180.96 551.19 187.64 553.41 187.82 577.72 168.21 543.54 140.68 543.73 140.68 550.05 144.96 552.28 144.96 604.91 138.28 609.19 138.28 614.9 164.69 614.9 164.69 609.19 158.34 605.21 158.34 578.65 180.32 614.9"/><path d="M406.27,678.69h37v-7.57l-6.74-2.88-21.48-60.66-30.83-.16v7.73l8.77,8.38-13.5,44.71a31.83,31.83,0,0,1-7.12,3.91v6.54h25.15v-6.54L391,669.89,394.77,657h15.05l4.2,11.22-7.75,4.11Zm-8-33.7,3.09-10.46L405.25,645Z" transform="translate(-170.45 -64)"/><path d="M470.64,683.19c23.74,0,26.37-18.61,26.37-18.61V618.65l5.53-2.26v-7.57H478.39v7.36l7.58,2.47v48s-5.12,3.29-9.8,3.29a14.94,14.94,0,0,1-8.61-3.29v-48l8.61-3.5v-6.54l-43.8.21v6.54l11,3.29V665S446.87,683.19,470.64,683.19Z" transform="translate(-170.45 -64)"/><polygon points="376.89 606.09 364.82 606.09 364.82 557.9 374.86 552.39 374.86 544.61 335.16 544.61 335.16 552.18 340.68 554.65 340.68 607.16 334.17 609.39 334.17 616.72 390.17 616.93 390.17 593.83 376.89 593.83 376.89 606.09"/><polygon points="382.43 568.93 396.76 568.93 396.96 557.69 402.07 557.69 402.07 603.66 392.25 608.15 392.25 616.72 433.96 616.72 433.96 608.15 424.16 603.87 424.16 557.69 428.44 557.69 428.44 568.93 442.54 568.93 442.54 544.82 382.43 544.82 382.43 568.93"/></svg>