<svg id="e98fd862-7adb-429f-a76a-e0d20567700e" data-name="Capa 1" xmlns="http://www.w3.org/2000/svg" viewBox="0 0 111.9 111.95"><title>saab</title><path d="M152.93,291.36A56,56,0,1,0,97,235.4,55.95,55.95,0,0,0,152.93,291.36Zm0-107.85A51.88,51.88,0,1,1,101,235.4,52,52,0,0,1,152.93,183.51Z" transform="translate(-96.99 -179.41)"/><path d="M152.93,285.38a50,50,0,1,0-50-50A50,50,0,0,0,152.93,285.38Zm-15-78.56a9.39,9.39,0,0,1,4.51,1.41c.26-1.29,1.07-2.69,2.06-3l-.26.07-5.91-13.82c2.44,0,5,1.05,5,3.05a3.57,3.57,0,0,1-.77,2.05.1.1,0,0,0,.11.11.17.17,0,0,0,.11,0,2.15,2.15,0,0,1,1.73-.78,2.31,2.31,0,1,1,0,4.61,1.57,1.57,0,0,1-.46,0c.06.52,1.78,1.43,3.62,1.43a4.35,4.35,0,0,0,4.07-2.44,2.16,2.16,0,0,1-1.33.45,2.32,2.32,0,0,1-2.41-2.28,2.35,2.35,0,0,1,2.41-2.33,2.09,2.09,0,0,1,1.2.36,2.5,2.5,0,0,1-.75-1.68,2.35,2.35,0,0,1,2.37-2.32,2.32,2.32,0,0,1,2.32,2.32,2.27,2.27,0,0,1-.63,1.56,2.21,2.21,0,0,1,1.08-.24,2.32,2.32,0,0,1,2.32,2.33,2.29,2.29,0,0,1-2.32,2.28,2.44,2.44,0,0,1-1.54-.52,4.78,4.78,0,0,0,4.28,2.7,5.45,5.45,0,0,0,3.68-1.62,1.72,1.72,0,0,1-.42,0,2.31,2.31,0,1,1,0-4.61,2.14,2.14,0,0,1,1.66.78.18.18,0,0,0,.12,0,.11.11,0,0,0,.12-.11,3.62,3.62,0,0,1-.79-2.06c0-2,2.52-3,4.94-3l-5.8,13.67a5.35,5.35,0,0,1,1,1.29,9.59,9.59,0,0,1,3.36-.62,7,7,0,0,1,1.57.16s.7.17.81.37a19.64,19.64,0,0,1-2.06,4c3,3,4.12,6.84,3.56,11.8a12.22,12.22,0,0,0-3.47-1.49,11.88,11.88,0,0,1,2,6.87A13.19,13.19,0,0,1,168,232.7l-.55,1.32a11.8,11.8,0,0,0-2.71-3.09,15.35,15.35,0,0,1,.58,3.8,8.79,8.79,0,0,1-4.28,7.92,19.6,19.6,0,0,0-3-5.16c.14,3,0,6.36-1.13,8.71-2.27,3-5.41,4.76-10.25,5.86.81-2,1.55-7.29,1.17-13.83a18,18,0,0,0-2.48,7.7c-1.17-.93-4.67-3.65-4.67-8.22a10.45,10.45,0,0,1,1.93-5.73c-1.78.65-2.88,1.8-4.09,4.09a14,14,0,0,1,1.93-9.47c-4.3-.17-5.56-2.7-5.33-6.45a6.69,6.69,0,0,0,4.34,1.8c1.74,0,4-.79,6.28-3.72a13.47,13.47,0,0,0-2.68-1.13,6.1,6.1,0,0,1-3.48-2.17,2.8,2.8,0,0,0-2.27-.8,13.88,13.88,0,0,0-5.77,1.66C131.94,209,135.24,206.82,138,206.82Zm-6.57,10.57c2.58,0,4.56-.91,6.29-.91a5.14,5.14,0,0,1,4.64,3,6.17,6.17,0,0,0-3.78-1.09c-1.41,0-4,1.41-6.08,1.41-3.31,0-5.25-2.71-6.32-5.14C127.17,215.64,128.9,217.36,131.38,217.39Zm-4.07,46c-4.22,0-7.18-.69-7.18-4.07,0-3.81,4.45-4.63,8-4.63,4.4,0,8.57.75,8.57,4.39h-6.06c0-1.54-1-1.78-2.51-1.78-1.26,0-2.19.36-2.19,1.29s.81,1.38,3,1.38c5.39,0,7.78.95,8.13,3.45l3.55-8.49h7.69L152,264l3.79-9.1h7.68L167.7,265V254.89H180c3.13,0,3.91,2.16,3.91,3.43a3,3,0,0,1-2.88,3.16,3.39,3.39,0,0,1,3.28,3.55,3.67,3.67,0,0,1-3.71,3.7H164l-.9-2.21h-6.79l-.9,2.21h-6.63l-.93-2.21H141l-.89,2.21h-5.28l.48-1.22c-.79.74-2.24,1.6-7,1.6-4.53,0-8.63-1-8.72-4.73h6.06c0,.91.6,1.86,2.56,1.86,2.38,0,2.63-.81,2.63-1.36C130.83,264,130.18,263.35,127.31,263.35Z" transform="translate(-96.99 -179.41)"/><path d="M148.37,210.4a6.08,6.08,0,0,0-1-.08,1.46,1.46,0,0,1-1.61,1.2,1.6,1.6,0,0,1-1.63-1,3.73,3.73,0,0,1-.73-.13,2.14,2.14,0,0,0,2.4,2.22A2.45,2.45,0,0,0,148.37,210.4Z" transform="translate(-96.99 -179.41)"/><path d="M140.65,213.59a3.93,3.93,0,0,0,2.2,1.48c1.63.46,4.38,1.44,4.38,2.72a1.29,1.29,0,0,1-.35.85c-2.74,3.55-5.33,4.44-7.47,4.44a7.52,7.52,0,0,1-2.54-.43c.5,1.63,2.17,2.06,3.53,2.06a16.63,16.63,0,0,0,4.1-.64,10.54,10.54,0,0,0-4.42,7.11,10,10,0,0,1,6-1.76c-2.46,2.62-3.94,5.28-3.94,7.93a7.74,7.74,0,0,0,2,5.2,16.52,16.52,0,0,1,4.67-8.52,55,55,0,0,1-.08,15.43,13.53,13.53,0,0,0,6.68-4.47c1-1.87,1.12-7.1.79-11.33a15,15,0,0,1,5.27,6.14,7,7,0,0,0,2.1-5.43,16.67,16.67,0,0,0-1.67-6.85,10.6,10.6,0,0,1,4.88,3,11,11,0,0,0,.57-3.41,12.22,12.22,0,0,0-3.88-8.72,14.32,14.32,0,0,1,5.43.93,11,11,0,0,0-3-8.23,16.83,16.83,0,0,1-8.26,5.3c3.59,2.86,2.58,7-.85,11.12a8.92,8.92,0,0,0-2-4.62,8.44,8.44,0,0,1-5.07,8.72,14.84,14.84,0,0,0-.45-4.95,9.22,9.22,0,0,1-1.52,1.33,7.47,7.47,0,0,1-.15-1.9,13.2,13.2,0,0,0,2.38-2.62,22,22,0,0,1,1.24,5.3c1.69-1.56,3-4.4,1.26-9.6a9.14,9.14,0,0,1,4.82,4.82c2.63-4.43-.14-6.77-4.19-8.31,4.83-.49,10.68-2.68,13.56-8.66-2-.09-5.09.63-8,4.44a3.72,3.72,0,0,1-1-1,13.53,13.53,0,0,1,4.2-3.84,1.46,1.46,0,0,0-.37-.51H144.92c-.58,0-1.17,1.1-1.46,2.32a5.91,5.91,0,0,0,1.57.17c.64,0,1.22-.07,1.93-.07a8.6,8.6,0,0,1,4.08.83,3.14,3.14,0,0,1-.68,1.14,4.18,4.18,0,0,0-.68-.26,3.73,3.73,0,0,1-3.77,3.31c-3.37,0-4-2.57-3.78-4a8.85,8.85,0,0,0-4.35-1.52c-2.89,0-4.05,3.13-4.48,5a12.35,12.35,0,0,1,3.93-.79A4.41,4.41,0,0,1,140.65,213.59Z" transform="translate(-96.99 -179.41)"/><polygon points="62.21 78.78 60.13 83.9 64.31 83.9 62.21 78.78"/><polygon points="46.42 78.78 44.31 83.9 48.48 83.9 46.42 78.78"/><path d="M178.25,258.19a1,1,0,0,0-1-1h-4.32v2h4.32A1,1,0,0,0,178.25,258.19Z" transform="translate(-96.99 -179.41)"/><path d="M178.42,265.08a1,1,0,0,0-1-.95h-4.63v1.95h4.63A1,1,0,0,0,178.42,265.08Z" transform="translate(-96.99 -179.41)"/></svg>