<svg id="Capa_1" data-name="Capa 1" xmlns="http://www.w3.org/2000/svg" viewBox="0 0 511.1 169.07"><path d="M471.6,308.49h37.93c3.62.34,7.23.77,10.86,1,22.92,1.52,45.72,3.84,67.73,10.88,10.48,3.35,20.78,7.4,28.5,15.63,2.74,2.91,5.52,6.67,6.22,10.43,1.91,10.27-1,19.39-8.24,27.4-10.84,12-24,20.85-37.91,28.7-7.58,4.28-15.44,8.07-22.31,11.62.34-7.45.81-14.76.85-22.07,0-1-2-2.74-3.29-2.9a80.64,80.64,0,0,0-10-.15c-7.08,0-7.45.51-5.73,7.84,5,1.11,5.36,2,4.76,8.57-.28,3.05-1.86,5-4.71,4.38-2-.45-5.06-2.45-5.14-3.89a251.82,251.82,0,0,1,.08-26.78c.08-1.47,3.21-3.67,5.09-3.84,1.35-.13,4.13,2.49,4.22,4,.25,3.94,2.06,4.74,5.41,4.45a49.7,49.7,0,0,1,6,0c2.63.09,3.4-1.21,3.42-3.67,0-6.05-3.12-12-9-13.48a46.35,46.35,0,0,0-16.57-1.28c-8.62,1-12.74,6.16-13,14.9-.26,8.27-.25,16.57,0,24.84.27,9,5.22,14,14.16,14.88,2.23.22,4.46.33,7.75.57-1.78.87-2.6,1.36-3.48,1.68-13.7,5.05-27.25,10.56-41.15,15-53.6,17.26-108.58,28.53-164.46,34.91-42.63,4.87-85.47,7.53-128.41,3.35-22.05-2.15-43.92-5.1-64.52-13.89-10.3-4.4-19.28-10.4-24.36-20.88V425.8c4.65-6.37,8.55-13.48,14.09-19,15.67-15.47,35.06-25.46,54.82-34.7,1.22-.57,2.55-.92,4.17-1.5-3.76,11.07-2.27,16.61,5.83,22.32,2.16,1.52,4.65,2.55,6.89,4,2.92,1.87,6.16,3.52,8.43,6,1.15,1.25,1.14,4.46.36,6.22-.49,1.12-3.66,2-5.08,1.52s-2.71-2.73-3.56-4.45c-.59-1.19-.35-2.8-.49-4.31H183.7c-1.75,10.63,2.22,16.93,12.15,18.78a39.1,39.1,0,0,0,11.83.25c8.64-1.08,12.68-4.51,14.15-11.08,1.9-8.47-.57-14.56-7.93-19.12-3.24-2-6.67-3.71-9.94-5.67-1.68-1-3.71-2-4.67-3.54a7.1,7.1,0,0,1-.53-5.42c.36-1,2.89-2.14,4-1.8,1.58.47,3,2.08,4,3.55.65.93.41,2.47.63,4.23h5.6c8.58,0,10.3-2.8,6.15-10.6a9.68,9.68,0,0,0-4.41-4.38c-4.19-1.63-8.65-2.58-13.06-3.82,1.12-.54,2.39-1.25,3.73-1.76a754.25,754.25,0,0,1,103-30.88,891.42,891.42,0,0,1,138.4-20.34C455.08,309.8,463.34,309.11,471.6,308.49ZM297.91,378h1q3,16.06,5.93,32.13c1.8,9.78,1.8,9.65,11.83,9.54,3.14,0,4.38-1.16,4.88-4.11,1.33-7.82,2.87-15.62,4.34-23.42.72-3.84,1.48-7.68,2.23-11.52l1.35.14v38.83c3.44,0,6.24-.22,9,.06,4.24.43,5.4-1.31,5.24-5.38-.48-12.08-.66-24.17-.86-36.25s-.15-11.94-12.12-11.94c-10.33,0-10.33,0-12.17,9.87-.27,1.46-.53,2.92-.78,4.39l-3.57,21.15a291.08,291.08,0,0,1-6.07-31.18c-.49-3.45-1.81-4.45-5.08-4.28a113.87,113.87,0,0,1-13.45,0c-3.88-.27-4.72,1.31-4.75,4.86-.1,12.58-.53,25.16-.8,37.74-.07,3.43,0,6.86,0,10.51h13.84Zm192.14,24.37-.54.19c-2.18-7.36-4.25-14.75-6.58-22.07-1.52-4.78-2.11-11.35-5.49-13.65-3.55-2.41-9.93-.67-15.08-.75-.33,0-.8-.13-1,0-1.11,1.05-3.06,2.15-3.08,3.26q-.3,23.1,0,46.19c0,1.15,2.11,2.64,3.54,3.28,1.25.56,3,0,4.43.16,4.86.7,6.21-1.25,6-6.07-.39-10.45-.12-20.93-.12-31.52a6.2,6.2,0,0,1,.73,1.23q3.58,11.36,7.11,22.72c4.48,14.39,4.47,14.4,19.73,13.6.33,0,.8.13,1,0,1-1,2.8-2,2.81-3.05q.27-23.34,0-46.69c0-1-1.38-2.85-2.24-2.92-3.72-.33-7.48-.14-11.3-.14Zm-45.63-36c-2.28-.11-3.9-.28-5.51-.26-10.34.14-9-1.43-9,8.86-.08,10.09.08,20.19-.14,30.27a6.63,6.63,0,0,1-2.47,4.8,5.12,5.12,0,0,1-4.93-.41c-1.2-1.14-1.7-3.47-1.72-5.29-.15-11.25,0-22.5-.19-33.75,0-1.5-1.33-4-2.39-4.25a34.53,34.53,0,0,0-9.42-.1c-.9.08-2.4,1.5-2.4,2.3,0,13.72-.06,27.45.56,41.14a10.33,10.33,0,0,0,8.67,9.77,52.59,52.59,0,0,0,16.2.77c9-1.26,12.51-5.92,12.72-14.93.17-7.28.05-14.56.06-21.84ZM274.1,419.53c-3.18-17.49-6.1-33.92-9.31-50.3-.25-1.26-2.52-2.92-3.93-3-5.64-.35-11.31,0-17-.2-3.06-.1-4.49.87-4.9,4-.67,5.24-1.74,10.44-2.71,15.65-2,11-4.13,22-6.36,33.87,4.27,0,7.72-.18,11.14.05,3.19.22,4.45-1.17,4.83-4.16,1-7.72,2.08-15.43,3.24-23.12.8-5.3,1.77-10.57,2.66-15.85a28.66,28.66,0,0,1,2.18,8.32c1.44,10,2.73,20,4.38,30,.28,1.7,1.86,4.32,3.15,4.52C265.37,419.92,269.38,419.53,274.1,419.53Zm82.23-17.87c-1.38,11.84,3.52,18.13,14.57,19.2a48.54,48.54,0,0,0,8.94,0c8.11-.73,12.9-4.6,14.47-11.38,1.83-8-.54-14-7.38-18.38-3.36-2.13-6.93-3.92-10.35-6-1.55-.92-3.44-1.77-4.33-3.18s-1.5-3.83-1-5.35c.42-1.15,3-2.46,4.3-2.14,1.55.39,2.92,2.23,3.93,3.74.63.95.44,2.43.67,4a38.9,38.9,0,0,0,4.74,0c2.79-.37,5.55-.93,8.32-1.41-1-3.87-1.92-7.79-3.24-11.56-.35-1-2-1.68-3.17-2.22a27.16,27.16,0,0,0-20.36-1.08c-11.4,3.68-14.21,16.82-5.21,24.76,2.57,2.26,5.75,3.85,8.66,5.74s6.28,3.35,8.59,5.81c1.33,1.4,1.54,4.53,1.08,6.62-.22,1-3.66,2.3-4.88,1.76-1.67-.74-2.84-3-3.8-4.81-.56-1.05-.29-2.54-.41-4.14Z" transform="translate(-112.31 -308.49)"/></svg>