<svg id="Capa_1" data-name="Capa 1" xmlns="http://www.w3.org/2000/svg" viewBox="0 0 444.3 353.28"><defs><style>.cls-1{fill:#1b1b1d;}.cls-2{fill:#6c686b;}</style></defs><path class="cls-1" d="M293,545.29c-.95-.79-2.17-.62-3.26-.89-9.27-2.29-14.49-8.44-14.67-18.25-.25-13.6-.07-27.21-.13-40.82,0-1.56.91-1.24,1.78-1.24h36.51c18.06,0,36.11,0,54.17-.05,1.87,0,2.27.56,2.18,2.27a73.41,73.41,0,0,0,0,7.85c.09,1.61-.36,2.05-2,2.05q-32.79-.09-65.56,0c-3,0-6,.1-9,0-1.64-.08-2,.51-1.89,2,.11,2.74.11,5.5,0,8.24-.06,1.43.44,1.69,1.76,1.69q24.84-.06,49.66,0c7.4,0,14.79,0,22.18,0,1.42,0,1.76.4,1.7,1.75-.1,2.67-.13,5.36,0,8,.09,1.63-.39,2-2,2q-34.74-.09-69.49,0c-.92,0-1.83,0-2.75,0-.73,0-1.1.2-1,1,.19,1.94.2,3.91.56,5.82.8,4.35,3,6.25,7.47,6.56q2.36.15,4.71.15,31.89,0,63.79,0c1.63,0,2.12.42,2.05,2-.15,3.33-.1,6.66-.13,10Z" transform="translate(-155.34 -192.01)"/><path class="cls-1" d="M158.4,544.87c0-3.27,0-6.54-.09-9.81-.06-1.5.32-2,1.9-1.95,11.65.08,23.3,0,34.94,0h37.69a19.7,19.7,0,0,0,2.55-.07c2.58-.36,3.79-1.75,4-4.5.21-3.1-.72-4.63-3.41-5.3-3.31-.82-6.74-.82-10.11-1.12-12.24-1.08-24.49-2.06-36.73-3.09q-9.48-.81-19-1.67a23.87,23.87,0,0,1-4.76-1.06c-5.26-1.63-8.54-5-9.55-10.54a24.89,24.89,0,0,1,.24-11.26c1.7-6.17,6.26-9,12.23-10a37.2,37.2,0,0,1,6.06-.43q36.71,0,73.41,0c1.62,0,2.13.37,2,2a71.88,71.88,0,0,0,0,8c.1,1.64-.51,1.89-2,1.89q-23.06-.08-46.12,0H177a21.67,21.67,0,0,0-2.55.13c-2.79.33-3.92,1.41-4.07,3.82-.19,3.14.64,4.44,3.57,5.11,3.26.75,6.62.71,9.93,1,10.94,1,21.89,1.81,32.83,2.7l20.13,1.64a34.73,34.73,0,0,1,7.29,1.37c5.79,1.76,9.11,5.69,9.84,11.64a28,28,0,0,1-.49,10.71c-1.71,6.46-6.29,10.16-13.29,10.81-.59.06-1.31-.31-1.78.4h-.78c-.42-.65-1.06-.37-1.61-.37H163.3C161.66,544.93,160,544.89,158.4,544.87Z" transform="translate(-155.34 -192.01)"/><path class="cls-1" d="M394.28,545.29c.05-.72.14-1.43.14-2.14q0-17.74,0-35.5A31,31,0,0,1,395.92,497c2.83-7.81,8.86-11.41,16.71-12.58a53.84,53.84,0,0,1,7.82-.38q32.78,0,65.53,0c1.63,0,2,.4,2,2q-.09,28.83,0,57.66c0,.51.08,1,.12,1.54h-.79c-.45-.54-1.08-.35-1.63-.35q-5.83,0-11.65,0c-.56,0-1.18-.19-1.64.35h-.78c0-5.41,0-10.83.13-16.23,0-1.29-.34-1.63-1.62-1.63q-28.9.06-57.81,0c-1.44,0-1.69.45-1.67,1.76.06,5.23,0,10.45,0,15.67l-.27.43Zm46.78-30c9.68,0,19.36,0,29,0,1.25,0,1.68-.29,1.66-1.62-.08-5.17-.11-10.33,0-15.5,0-1.72-.33-2.29-2.2-2.28-15.31.08-30.61,0-45.91.06-1.5,0-3,.09-4.5.23-4.55.42-7.17,2.91-8,7.43-.63,3.31-.27,6.65-.46,10-.08,1.42.43,1.72,1.76,1.71C422,515.26,431.51,515.29,441.06,515.29Z" transform="translate(-155.34 -192.01)"/><path class="cls-1" d="M545.42,545.29c0-4.64.09-9.27.1-13.91,0-11.18,0-22.36,0-33.55,0-1.39-.36-1.71-1.72-1.7-11.39.05-22.77,0-34.15.06-1.45,0-2.07-.24-2-1.88a73.07,73.07,0,0,0,0-8.24c-.09-1.63.37-2,2-2q36.32.09,72.61,0c5.17,0,10.34.07,15.51,0,1.53,0,1.85.44,1.79,1.86-.12,2.74-.13,5.5,0,8.24.08,1.6-.34,2.07-2,2.06-11.31-.08-22.63,0-34-.08-1.54,0-1.92.4-1.91,1.93,0,15.49,0,31,0,46.49a4.91,4.91,0,0,0,.13.75h-.78c-.46-.54-1.08-.35-1.64-.35q-5.82,0-11.65,0c-.55,0-1.18-.19-1.63.35Z" transform="translate(-155.34 -192.01)"/><path class="cls-2" d="M158.4,544.87c1.63,0,3.26.06,4.9.06H236c.55,0,1.19-.28,1.61.37h-79.3Z" transform="translate(-155.34 -192.01)"/><path class="cls-2" d="M472.4,545.29c.46-.54,1.08-.35,1.64-.35q5.82,0,11.65,0c.55,0,1.18-.19,1.63.35Z" transform="translate(-155.34 -192.01)"/><path class="cls-2" d="M546.21,545.29c.45-.54,1.08-.35,1.63-.35q5.83,0,11.65,0c.56,0,1.18-.19,1.64.35Z" transform="translate(-155.34 -192.01)"/><path class="cls-2" d="M410.64,544.86l.13.43h-.4Z" transform="translate(-155.34 -192.01)"/><path class="cls-1" d="M375.23,423.22c-22.43-.21-44.85-.77-67.27-1.88-14.1-.69-28.2-1.59-42.29-2.5a27.73,27.73,0,0,1-9.15-1.89,7.91,7.91,0,0,1-5.14-6.16c-1-5.68-1.17-11.44-1.52-17.17-.71-11.74-1.23-23.5-1.92-35.24-.1-1.66.2-2.06,1.92-2q62.29,3.69,124.71,3.76c15,0,30,.21,44.94.3,5.28,0,10.24-1.05,14.47-4.45.94-.76,2.42-1.59,2.15-2.79s-1.93-.68-3-.86c-13.57-2.32-27.15-4.58-40.71-6.88s-27-4.63-40.5-6.94q-22.27-3.8-44.56-7.58l-42.62-7.31c-5-.86-10-1.73-15.06-2.5-1.39-.21-1.93-.63-1.91-2.17q.13-13.83,0-27.67c0-1.66.53-1.75,1.86-1.5q23.73,4.44,47.48,8.84,22.78,4.23,45.57,8.43,24.62,4.57,49.21,9.19,22.77,4.24,45.56,8.46l47.08,8.8c6.67,1.24,13.32,2.53,20,3.69,1.79.31,2.48.9,2.41,2.87-.51,13.72-.8,27.45-1.31,41.17-.25,6.6-1,13.14-3.48,19.36-3.71,9.36-11.08,14.4-20.36,17-7,2-14.25,2.67-21.48,3.11C432,422.52,403.63,423.38,375.23,423.22Z" transform="translate(-155.34 -192.01)"/><path class="cls-1" d="M316.92,257.69l16.34,3.05L375,268.42l47.5,8.81L470,286c11.73,2.17,23.45,4.38,35.19,6.51,1.46.26,2,.71,2,2.32-.1,8-.07,16,0,23.94,0,1.37,0,2-1.84,1.7-19.72-3.49-39.46-6.84-59.19-10.23q-26.62-4.58-53.23-9.15c-18.51-3.2-37-6.46-55.52-9.66q-25.55-4.41-51.1-8.77-18.42-3.15-36.84-6.28c-.93-.16-1.31-.49-1.3-1.52.26-13.93.61-27.85,1.21-41.77a62.35,62.35,0,0,1,2.72-16.55c3.37-10.45,11.07-16.07,21.18-19,7.08-2.05,14.39-2.61,21.68-3.07q33.09-2.08,66.27-2.43,31.6-.33,63.18.88c16.73.63,33.46,1.4,50.16,2.57,6.45.45,13,.43,19.33,1.59,7.65,1.39,9.62,3.63,10.3,11.42,1,11.4,1.41,22.83,2,34.26.16,3.13.3,6.27.69,9.38.22,1.81-.34,2.31-2.05,2.21-5.29-.32-10.58-.57-15.87-.83-9.6-.48-19.2-1-28.81-1.41-28.63-1.1-57.27-1.81-85.93-1.66-14.72.08-29.44.12-44.15.8C324.86,251.53,319.51,254,316.92,257.69Z" transform="translate(-155.34 -192.01)"/></svg>