<svg id="ac162732-648b-4ac9-bbda-a5c60b222655" data-name="Capa 1" xmlns="http://www.w3.org/2000/svg" viewBox="0 0 222.61 181.75"><title>seat</title><path d="M406.64,384.37c.34-1.59.61-13,.65-15.93s-.09-47.31-.39-56.26c-.07-1.25-.86-25-1-27.24s-.06-3-1.63-3.23-42.1-3.6-48.59-3.76-23.77-1.41-60.73.7c-22.79,1.26-32.34,13.07-34.36,22.5-.66,3-.95,10.78-.93,13.76.18,12.06.42,39.76.64,48.1,0,0,1,35.3,1,37.54s.07,3,1.64,3.27,42.1,3.58,48.57,3.76,23.81,1.64,60.71-.73C407.35,404.89,406.28,386,406.64,384.37Zm-4.8-35.91,0,9.37s.17,1.15-1.59.65c-4.49-1.28-89.23-20.3-134.29-26.85-.48-.08-.36-.93-.36-1v-6.89s-.09-.85.49-.77c17.41,2.65,61.14,9.76,71.88,11.65,10.78,1.7,59.12,10.82,63.19,11.68C402,346.47,401.84,348.46,401.84,348.46Zm-135.7-44.19c1.88-8.71,10.7-19.56,31.78-20.78,34.15-1.93,50.15-.82,56.13-.65s43.44,3.24,44.89,3.48,1.46.9,1.51,3,.86,24,.91,25.19a1.29,1.29,0,0,1-1.44,1.5c-4.39,0-57.77-4.47-69.08-4.28-2.82.07-3,1.58-2.36,2.47A2.54,2.54,0,0,0,330,315s70.23,11.48,71.34,11.93c.19.11.6.15.6,1.44v10.41s.42,1.63-2.37.82C353.62,329,266,317.5,266,317.5c-.56-.07-.68-.12-.68-.43C265.32,314.31,265.53,307,266.14,304.27Zm47.06,98.38c-6-.16-43.45-3.23-44.9-3.48s-1.56-.86-1.56-3-.87-34.7-.87-34.7-.24-1.54,1.52-1.31c3.8.51,63.9,6.17,69.5,6.22s4-1.73,3.91-2-1.73-1.82-4.81-2.55-20.05-5.19-31.56-7.78-38.24-8.67-38.24-8.67-.7.06-.75-.91c0-2.83-.06-6.45-.06-6.45s-.26-1.48.85-1.35c3.18.65,56.52,11.3,61.91,12.38s73,16.32,73,16.32.64,0,.63,1.13c0,2.76-.3,13.26-.63,14.74s.68,18.94-31.78,20.78C335.19,404.18,319.18,402.82,313.2,402.65Z" transform="translate(-223.76 -277.42)"/><path d="M262.06,443.34c-.94-.08-15.91-.5-21.93-.66a28.72,28.72,0,0,1-3.25-.2c-1.06-.17-2.57-.29-2.57-2.57s1.19-2.53,2.3-2.69,3.72-.15,3.72-.15H269.7v-4.93H236.46c-4.11,0-12.81-.63-12.7,8.45.05,7.31,6.41,6.83,10,7,2.31.17,14.9.5,20.59.65a18.76,18.76,0,0,1,3.15.19c.91.15,2.79.29,2.79,2.74s-1.46,2.74-3,2.9a22.9,22.9,0,0,1-3,.15H223.86v4.89s36.8,0,36.9,0c4-.36,9.79-.27,10-7.27C271,443,263.25,443.51,262.06,443.34Z" transform="translate(-223.76 -277.42)"/><polygon points="58.08 181.71 103.68 181.75 103.68 176.74 68.88 176.74 68.88 170.45 102.21 170.45 102.21 165.47 68.88 165.47 68.88 159.65 103.89 159.65 103.89 154.72 58.08 154.72 58.08 181.71"/><path d="M339.26,442.45l0,16.72h10.34V448.44h27.2v10.73l10.37,0,0-27H351.49C347.47,432.18,339.21,432.43,339.26,442.45Zm37.52-5.39v6.56H349.55c-.05-6.53,3.34-6.56,5.87-6.56Z" transform="translate(-223.76 -277.42)"/><polygon points="174.2 159.92 192.93 159.92 192.93 181.71 203.76 181.71 203.76 159.88 222.61 159.88 222.61 154.72 174.2 154.72 174.2 159.92"/></svg>