<svg id="e36c471c-f514-4564-a1d5-1dbdadc4eb35" data-name="Capa 1" xmlns="http://www.w3.org/2000/svg" viewBox="0 0 299.87 299.85"><title>shelby</title><path d="M394.16,283.76A150,150,0,1,0,449,338.64,150.73,150.73,0,0,0,394.16,283.76Zm50,201.93a144.38,144.38,0,1,1,19.34-72.18A145.07,145.07,0,0,1,444.2,485.69Z" transform="translate(-169.25 -263.68)"/><path d="M389.38,291.94a140.49,140.49,0,1,0,51.4,51.4A141.55,141.55,0,0,0,389.38,291.94ZM239.44,525.28c.07,0,.11.06.09.09S239.45,525.52,239.44,525.28Zm196.23-44.57a134.41,134.41,0,1,1,18-67.24A135.23,135.23,0,0,1,435.67,480.71Z" transform="translate(-169.25 -263.68)"/><path d="M257.88,284.29c-.06,0-.1,0-.08.08S257.87,284.53,257.88,284.29Z" transform="translate(-169.25 -263.68)"/><path d="M251.52,287.39c-.07,0-.09,0-.09.09S251.5,287.62,251.52,287.39Z" transform="translate(-169.25 -263.68)"/><path d="M261.19,364.31c.25,1.37.65,3.6,1.11,5.46a34,34,0,0,0,1.71,5c.64,1.52,1.37,3,2.89,5.8s3.77,7.05,5.08,9.63,1.72,3.28,2.14,4c.7,1.33,1.62,2.42,2.46,2.35a1.93,1.93,0,0,0,.76,0l3-5.33a18.91,18.91,0,0,0-3.38-2.14,30,30,0,0,0-4.4-1.33l-2.56-5.4c.63-.81,1.2-1.76,1.79-2.69a18.63,18.63,0,0,0,1.41-2.77,1.66,1.66,0,0,0,0-1.52l-7.31-2.22c-1-1.44-1.38-2.39-.75-3.63.7-1.45,3.14-4.12,4.8-6.52a16.41,16.41,0,0,0,1.74-2.8,3.63,3.63,0,0,0,.43-1.81,2.66,2.66,0,0,0-.6-.46c-.45-.42-2.35-.14-4.12.27-1.08.31-2.06.67-2.85,1a10.71,10.71,0,0,0-1.9,1.1v-4.78a8.21,8.21,0,0,0,2.88-3,39.72,39.72,0,0,0,2.44-6.85c-.37-1-1.7-.74-3-.45a11.57,11.57,0,0,0-2.47.87c.19-1.38.41-2.74.63-3.63a4.85,4.85,0,0,1,.7-1.72,1.65,1.65,0,0,0,1.3,1.86,6,6,0,0,0,3.57-.75,8.58,8.58,0,0,0,2.93-2.67c.86-1.17,1.72-2.73,2.31-3.5s.93-1,1.26-.86l-.72,3.71a46.88,46.88,0,0,0,5.89-3.22c2.06-1.59,4.28-3.8,6.64-5.65-2.29,3.93-3.49,8.49-4.61,12.85-.6,2.14-1.28,4.24-1.78,5.55a19.48,19.48,0,0,1-1,2.25,2.44,2.44,0,0,0-.36,1.29,1.22,1.22,0,0,0,.71.89,5.55,5.55,0,0,1,1.09.53,2.86,2.86,0,0,1,.32,2l-4.17,1.55c-1.54,2.21-3.1,4.38-4.71,6.53s-3.28,4.27-4.07,5.6-.74,1.87-.39,2.27c1.23.3,2.47.5,3.65.77a12.32,12.32,0,0,0,3.19.56,2.67,2.67,0,0,0,1.84-.88,7.29,7.29,0,0,0,1.37-2.11c1.14-2.44,2.8-6.53,4.06-9.65l1.06,4.67c-.53,1.3-1.11,2.62-1.73,3.84a23.53,23.53,0,0,0-1.53,3.33,1.52,1.52,0,0,0,.59,1.76c1.09.67,3.09.7,4.79.55l1.35,3.56c-1.48-1.41-2.7-1.71-3.81-1.46-1.29.14-2.78-.25-4,.14s-2.7,2-3.49,3.34c-1.31,1.75-1.82,2.5-1.76,3.8a7.14,7.14,0,0,0,.37,1.85,19.81,19.81,0,0,0,4.94,2.28,5.24,5.24,0,0,0,3.29-.51,50,50,0,0,0,2.78-4.24,20.11,20.11,0,0,0,1.48-3,3.89,3.89,0,0,0,.27-1.87l1.53,4.6c-.41.74-.84,1.48-1.24,2.23-.67,1.2-1.3,2.31-1.1,3.22,0,.35,0,.64,0,1a26.76,26.76,0,0,0,7.47,3.06l2.28,3.15c-1-2.66-2.86-6.33-4.49-10.14a89.74,89.74,0,0,1-3.88-11.64c-.58-2-1.15-4.06-1.57-6.25a68.39,68.39,0,0,1-.88-7.06c-.2-2.5-.37-5.07-.49-8.27a67.82,67.82,0,0,1,.05-9.39,14.33,14.33,0,0,1,1.3-4.91c.41-.91.59-1.16.85-1.33a2.49,2.49,0,0,1,1.21-.06c.38.08.73.2.82,1.49s-.09,3.76-.18,6.53-.09,5.86-.12,9-.1,6.53.12,10.33a103,103,0,0,0,1.47,12,59.32,59.32,0,0,0,2.74,9.93,68.11,68.11,0,0,0,3.1,6.91,23,23,0,0,0,2,3.54c.53.59,1,.59,1.28.32a9.13,9.13,0,0,1-1.07-3.58c0-.56.21-1,1.49-1.57a45.15,45.15,0,0,1,6.14-1.92,61.5,61.5,0,0,1,7.21-1.49,33.6,33.6,0,0,1,5.14-.15c1.43,0,2.66-.09,3.58,0a4.42,4.42,0,0,1,2.17.56,6.82,6.82,0,0,1,1,3.25,3.55,3.55,0,0,1-2.35,2.71c-1.6.64-4.14,1.28-6.33,2.08,1.56.22,3.15.42,5.07.52s4.14,0,6.39,0c-.6-2.8-1.12-5.58-1.66-8.43s-1-5.71-1.24-8.2,0-4.61,0-6.79a75.5,75.5,0,0,1,.72-12.25c.28-1.9.62-3.69.93-5a33.29,33.29,0,0,1,1.84-5,8,8,0,0,1,1.14-2,8.7,8.7,0,0,1,1.4-1.5c.56,0,1.08.3,1.43,1.18a12.92,12.92,0,0,1,.69,3.57,16.16,16.16,0,0,1-.13,3.94c-.27,1.55-.76,3.44-1,5.52a58.5,58.5,0,0,0-.36,7.29c0,2.87-.06,6.45,0,9.75a86.67,86.67,0,0,0,.77,8.74,40.69,40.69,0,0,0,1.22,5.28,16.69,16.69,0,0,0,1.09,2.93,2.16,2.16,0,0,0,1.19,1.11A135.19,135.19,0,0,1,333,381.58a56.73,56.73,0,0,1-.07-11.11,64.42,64.42,0,0,1,1.74-9.69c.76-2.95,1.67-5.55,2.38-7.6a35.89,35.89,0,0,1,1.65-4.4,3.25,3.25,0,0,1,1.41-1.7,24.34,24.34,0,0,0,1.05,3.35,17.2,17.2,0,0,0,1.34,2.66,4.2,4.2,0,0,0,1.3,1.18c1.05.7,2.76.73,4.59.59a29.71,29.71,0,0,0,3.22-.46c2.36-1.5,4.69-3,6.91-4.54a58.36,58.36,0,0,0,5.79-4.14,7.83,7.83,0,0,0,2.48-3.29c-1.06-.52-2.41.41-3.69,1.5-.69.54-1.32,1-1.53,1s.07-.57.21-1,.17-.72-.07-.81a1.9,1.9,0,0,0-1.25.27,17.74,17.74,0,0,0-2,1.36c-1.08.85-2.89,2.14-4.72,3.42a13.38,13.38,0,0,0,.78-2.84,21.82,21.82,0,0,0,.17-3.75c0-1.66-.07-4,0-6.65a69.89,69.89,0,0,1,.87-7.77,42.82,42.82,0,0,1,1.35-5.56,4.45,4.45,0,0,1,1.11-2.08,12.19,12.19,0,0,1,2.86.64,2.53,2.53,0,0,1,1.14,1.22,29.7,29.7,0,0,1-1.12,4c-.43,1.17-.89,2.11-1.29,3a5.61,5.61,0,0,0-.75,2.18c0,.51.44.71.91.39a7.64,7.64,0,0,0,1.48-2.27c.46-.91.92-1.86,1.45-2.9.93-1.89,2.24-4,.84-5.69a16.63,16.63,0,0,0-2.56-2.39c-2.07-1.62-5-4.19-7.63-5.85a22.56,22.56,0,0,0-3.37-1.69A20.64,20.64,0,0,0,347,309a3.44,3.44,0,0,0-2-.09,2.66,2.66,0,0,0-2,2,7.68,7.68,0,0,0-.36,2.34c0,1.16,0,2.84,0,3.78a6.08,6.08,0,0,1,0,1.33,5.69,5.69,0,0,0-.14,2c0,1.63.21,4.72.22,7.87s-.08,6.6.12,9.21a35.52,35.52,0,0,0,1.11,6.38c.44,1.83.81,3.61,1.15,4.69a5.64,5.64,0,0,0,1.83,2.72,8,8,0,0,0,2.14,0c.64-.1,1.17-.32,1.55-.32.7.1,1,.76,1.28,1.08a13.27,13.27,0,0,1-2.91,1.33c-1.88.37-2,.32-3.08-.1a7.14,7.14,0,0,1-2-1.91,14,14,0,0,1-1.61-3.71,68.19,68.19,0,0,1-2.09-7.73c-.69-3.34-1.24-7.36-1.69-11s-.85-7.19-1-9.88-.07-4.52-.1-5.66-.19-1.54-.44-1.84c.27-2.79.6-5.58.88-7.67s.52-3.5.7-4.28.29-.95.46-1.07a29.07,29.07,0,0,1,4.16,3.63,13.33,13.33,0,0,1,2.2,3.32,40.84,40.84,0,0,1,8.82,4.52,114.37,114.37,0,0,1,9.59,7.52,25.94,25.94,0,0,0,2.73-.29,21.71,21.71,0,0,1,2.15-.32,1,1,0,0,1,.84.39c1.07.91,2.92.34,4.87.43a3.53,3.53,0,0,0-1.47,1.86c-.51,1.06-1.06,2.79-1.85,4.66a59.29,59.29,0,0,1-2.54,5.6,35.36,35.36,0,0,1-2.14,3.71c-.91.22-1.75.06-2.69,1.22a2.9,2.9,0,0,0-.7,2.77,1.68,1.68,0,0,0,.82,1,5.68,5.68,0,0,0,3-2,32.68,32.68,0,0,0,4-5.55,79,79,0,0,0,4.47-8.8,14.36,14.36,0,0,0,1.71-1.28c1-.76,1.77-1.52,1.75-2.18a3.24,3.24,0,0,0,0-.88,44.5,44.5,0,0,1-3.92-2.55c-1.24-.93-2.44-1.91-3.4-2.76-2.06-1.78-2.93-3.35-4.45-5.13-.8-.91-1.81-1.9-2.65-2.72a21.17,21.17,0,0,0-4.14-3.89,12.66,12.66,0,0,0-2.72-1.33c-1.39-.52-3.42-1.09-5.46-1.66s-4.13-1.18-7.68-2.41-8.53-3.24-11.92-4.44a62.81,62.81,0,0,0-6.93-2.06,51.63,51.63,0,0,0-5.14-1,12.85,12.85,0,0,0-7,.79c-1.18.43-2.57.93-3.95,1.47a42.81,42.81,0,0,0-9.63,5.26c-3.59,2.49-7.32,5.33-11.09,8.5-1.87,1.58-3.66,3.25-5.74,5.33s-4.42,4.59-6.73,7.13-4.55,5.22-6.16,7.25-2.61,3.42-3.57,4.87a30.07,30.07,0,0,0-4.43,9.35c-.48,1.65-.91,3.41-1.25,5-1,4.41-.71,8.08-.8,11.58a38,38,0,0,0,.63,7.26C260.78,362.29,260.91,362.89,261.19,364.31Zm3.05.42a4.73,4.73,0,0,1,.33-1.08c.3,0-.26-.33.61-.7.14-.13,0,.09.37-.39.09,0,.09-.12.53-.5,0-.1.29-.1.66-.1.08,0,.05.14.09.4.23.08.07.22-.16.91,0,.2,0,0-.28.56-.11.22.13-.18-.43.45,0,.12,0-.06-.26.24,0,.38-.2.31-.52.69-.1.05,0,.29-.46.56,0,.14-.29.14-.66.12C263.91,365.68,263.93,365.5,264.24,364.73ZM277.42,363c-.14.13,0,.17-.29.85-.08.19,0-.05-.27.28,0,.23.09,0-.47,1.08-.08,0,0,.07-.25.49-.05.09-.27.23-.62.62-.29,0,.12,0-.85.46-.07,0-.22.2-.51-.16-.05-.3.06-.17.28-.9.07-.14,0,0,.29-.51.3-.19-.31-.25.64-1,.1-.06-.05,0,.33-.63.05,0-.18-.2.27-.3,0-.18,0-.21.42-.5.11-.16.05,0,.46-.5,0-.09.26,0,.33-.22.07,0,.15,0,.25.13S277.71,362.44,277.42,363Zm3.51,18.38c-.28.12.31.22-.62.92,0,0-.23.41-1,0,0,0,0-.35-.16-.54s-.1-.13.4-.74c0-.14.06,0,.47-.47a1,1,0,0,0,.37-.52c.1-.19,0,.13.34-.34.09.06.3-.34.55.22.09,0,.28.35,0,.74C281.23,380.88,281.23,380.53,280.93,381.36Zm73.86-31.48a2,2,0,0,0,.81-.63c.09-.06-.14.1.52-.41.17-.09,0,0,.39-.37,0-.06.24-.06.46-.34.2,0,0-.08.55-.14h.21s0,.06,0,.09.28-.28-.55.53c0,.09-.25.07-.47.32-.12,0-.12.05-.41.42-.06.09.07-.1-.3.3-.21.05,0-.15-.56.44-.18,0,0,0-.54.27C354.89,350.36,354.46,350.55,354.79,349.88ZM346.42,314c-.14.07-.2.13-.41-.39-.21-.08-.12.25-.58-.55-.13-.09-.08-.29-.07-.63a.28.28,0,0,1,.44,0c.19.12,0,0,.42.44.09,0,0,.1.25.51C346.53,313.5,346.86,313.64,346.42,314Zm8.68-9.45a18,18,0,0,1,2.62,1.13,9.51,9.51,0,0,1,1.69,1c.59.56.46,1,.6,1.4-1.33.26-2.7.48-3.46.54a4,4,0,0,1-1.21-.09,4.44,4.44,0,0,1-2.46-1.5,15.48,15.48,0,0,1-2.69-4.07C352,303.57,353.84,304.14,355.1,304.58Zm-73.31,26.24c-.16.12.23,0-.61.78-.19,0-.13,0-.51.33-.16.16.06,0-.58.43,0,.12-.17-.09-.47.33-.17,0,0,0-.55.31,0,0-.42.13-.14-.57.07-.2-.07.07.39-.41a3.75,3.75,0,0,0,.37-.39c.19-.1,0,.06.43-.45.2-.13.1-.15.52-.51,0-.12-.13,0,.46-.49.19,0-.05-.06.47-.3.1,0,.15,0,.24.12s0,0,.25.18C282.1,330.36,282,330.12,281.79,330.82Zm.67.29c0,.19-.19-.24,0,0Zm7.84,29.82a10.19,10.19,0,0,1,.87-3.46l6.33-.1c2.05,0,4.09-.09,6.6.07a121.37,121.37,0,0,1,17.27,2.23l1.18,1.63a11.51,11.51,0,0,1,0,2.62,6.7,6.7,0,0,1-.6,2.18,2.77,2.77,0,0,1-1.12,1.11c-.43.17-1,.2-3.41.21s-6.75.07-10.92-.07-8.18-.56-10.48-.9a12.15,12.15,0,0,1-3.49-.68,6.8,6.8,0,0,1-1.49-.9A13.74,13.74,0,0,1,290.3,360.93Zm1.38,11.94a3.83,3.83,0,0,1,.14-2.76,4.1,4.1,0,0,1,1.4-1.15,7,7,0,0,1,3.25-.49c1.89,0,4.9.19,8,.24s6.37,0,8.46.06a19.65,19.65,0,0,1,3.91.63c.92.16,1.9.24,2.69.4a4.58,4.58,0,0,1,1.95,1,3.7,3.7,0,0,1,1.34,3.34,4.29,4.29,0,0,1-1.31,2.94c-.28.33-.56.75-3,.89s-6.89.1-11,.06-7.78,0-9.75,0a11,11,0,0,1-2.52-.12c-.28-.08-.53-.15-.8-.25a15.86,15.86,0,0,1-1.7-2.38A9.91,9.91,0,0,1,291.68,372.87ZM312.47,387a.09.09,0,0,1,.09,0s0,0,0,.06S312.48,387.21,312.47,387Zm10.77-2.41c-.1.34-.35.66-2,1s-4.66.63-7.63,1-5.92.72-8,1.07-3.43.81-4.86,1.2-3,.75-4.51,1.08l-2.5-7.19a2.57,2.57,0,0,1,1.33-2,9.22,9.22,0,0,1,3.49-.87c1.45-.11,3.07,0,5.22,0s4.83,0,7.24,0,4.44,0,5.77,0a9.5,9.5,0,0,1,4.22.7,3.85,3.85,0,0,1,2.23,2.82A1.83,1.83,0,0,1,323.24,384.56Zm.34-27.62-.9.47a79.21,79.21,0,0,0-11.28-1.52c-3.78-.21-7.58-.06-10.46-.1a59.15,59.15,0,0,1-5.93-.43,8,8,0,0,1-3.16-.89,5,5,0,0,1-1.43-1.49,6.68,6.68,0,0,1,.54-2.38,6.27,6.27,0,0,1,1.12-1.67,3.56,3.56,0,0,1,2-1.13c4.45.33,8.89.85,12.59,1.42s6.62,1.21,9.08,1.69a42.26,42.26,0,0,1,5.7,1.41C324.08,353.34,324,355.2,323.58,356.94Zm-25.66-12.32c.69-.29,2-.74,3.37-1.25,2.57-.92,4.75-1.86,6.78-1.76a24.5,24.5,0,0,1,2.72.3,6.83,6.83,0,0,1,1.35.28,17.8,17.8,0,0,1,4.14,1.87,13.88,13.88,0,0,1,2.53,1.9,8.07,8.07,0,0,1,2.06,4.08c-3.57-.63-7.14-1.29-10.41-1.82s-6.2-1.11-8.23-1.44-3.07-.6-3.76-.78-1-.34-1.13-.55S297.24,345,297.92,344.62Zm33.54-11a30.65,30.65,0,0,0-.41,3.06,12.28,12.28,0,0,1-.61,2.66,6.77,6.77,0,0,1-1,1.86,21.88,21.88,0,0,1-2.19,2.27c0,2.26.27,4.53-.91,6.84a3.94,3.94,0,0,1-1.05,1.36c-.42.29-.84.3-.91-.13-.2-.77,1-2.92,1.37-4.46a3.51,3.51,0,0,0-1-3.21,9.88,9.88,0,0,0-2.19-1.56,23.41,23.41,0,0,0-4-1.64c-2.14-.67-5.54-1.73-8.31-2.35a65.15,65.15,0,0,0-7-1.25c-2.16-.27-4.35-.53-5.69-.62-2.3-.13-2.53.15-3.53.74-1,1.43-2.08,3.45-2,5.09a2.93,2.93,0,0,0,.5,1.66,6,6,0,0,0,1.87,1.76L291,347.9c-1.52-1.47-1.35-5-.26-8.13a16.1,16.1,0,0,1,1.82-3.64,5.17,5.17,0,0,1,1.6-1.57l.91-4.49c2.32-2.06,4.59-4.23,5.91-5.67a15.18,15.18,0,0,0,2.09-2.89,10,10,0,0,1,1.59-2,19.57,19.57,0,0,1,2.63-2.14,26.87,26.87,0,0,0,2.84-1.92c1.37-1.17,1.68-2.6,3.53-3.84.84-.55,1.93-1,3-1.63s2-1.21,3.85-2.11a62.42,62.42,0,0,1,6.12-2.59A5.58,5.58,0,0,1,330,305a4.21,4.21,0,0,1-1.85,1.21c-.7.2-1.45.17-2,.3a1.33,1.33,0,0,0-.91.52,3.05,3.05,0,0,0-.51.7,52.66,52.66,0,0,0,3.52,4.9,17.47,17.47,0,0,0,3.3,2.84l-9.16-6.21a8.14,8.14,0,0,0-1.71,0,3.85,3.85,0,0,0-1.27.59,2.37,2.37,0,0,0-.7,1.38A99.58,99.58,0,0,0,330,320.34c-3.85-1.66-6.44-3.59-9.92-5.64a31.9,31.9,0,0,0-3.29-1.87,2.23,2.23,0,0,0-2.31,0,4,4,0,0,0-1.38,1.32,7.18,7.18,0,0,0,2.83,3.57c3.35,2.36,9,5.16,13.8,8.43-3.23-1.65-6.5-3.24-9.41-4.66s-5.5-2.61-7.09-3.26a6.73,6.73,0,0,0-2.72-.75,5.18,5.18,0,0,0-3.33,1.59c-1.54,1.27-2.22,2.69-1.34,4a2.81,2.81,0,0,0,1.19.93c.56.21,1.19.3,2.52.66s3.33,1.08,5.25,1.81c3.67,1.38,6.85,2.92,9.94,4.26a37.81,37.81,0,0,0,3.94,1.5c1.58.37,1.8,0,2.52-.64a3.25,3.25,0,0,0,.76-2.44,8.37,8.37,0,0,0-.89-2.18l2.25.37C333.1,329.69,332.06,331.72,331.46,333.61ZM289.9,310.06a11.83,11.83,0,0,1,4.08-3.22,4.06,4.06,0,0,1,2.84-.26,4.15,4.15,0,0,1,2.36,1.79,5.62,5.62,0,0,1,.92,1.92c.13,1.6-.1,2.9-2.37,4.19-1.23.76-2.16,1.57-3.09,1.46a3.44,3.44,0,0,1-1.73-.92A8.39,8.39,0,0,1,289.9,310.06ZM334,298.49a3.78,3.78,0,0,1-.26,2.08,2.8,2.8,0,0,1-1.51.74,3.68,3.68,0,0,1-1.55-.25,2.83,2.83,0,0,1-3.07-2.79c0-.92-.14-1.9.67-2,.57-.41,1.26-.17,2,.33-.25.41-.62.06-1,.95a1,1,0,0,0,.34,1.37,3.72,3.72,0,0,0,2.5.47c1.06-.18.92-.76.94-1.33a3,3,0,0,0-.25-1C333.71,296.78,334,297.81,334,298.49Zm-7.93-7.2c.52-.46,1.66-.31,2.66,0a2.81,2.81,0,0,0-.91.6c-.52.71.24,1.45,1.09,1.64a3.18,3.18,0,0,0,1.15.12,2,2,0,0,0,.91-.42.52.52,0,0,0,.28-.33l-.94-1.19a4,4,0,0,1,1.26.55c1.44.9,1.32,1.75.6,2.72a1.82,1.82,0,0,1-1.52.23,6.29,6.29,0,0,1-1.23-.16l-1.62-.51a2.73,2.73,0,0,1-1.33-.72C326.3,293.38,325.1,292.18,326.11,291.29Zm-.05,5.46a3.41,3.41,0,0,1,.47,1.23,9.42,9.42,0,0,1,0,2.26,2.37,2.37,0,0,1-2,1.37c-.93.14-2.49.49-3.8.59a1.43,1.43,0,0,1-1.27-.62,6.35,6.35,0,0,1-.75-1.82,13.07,13.07,0,0,1-.41-2c0-.9,0-1.08.57-1.55,1-.72,3.16-.4,5.11-.63A2.22,2.22,0,0,1,326.06,296.75Zm-5.25-7.83a.9.9,0,0,1,.68.09s.35.17-.06.46c-.11,0-.52.24-.92-.15C320.47,289.18,320.6,289.18,320.81,288.92Zm-2.95,2.42a1.05,1.05,0,0,0,.14,1.58c.89.83,2.55.81,4.26-.07.94-.67,0-2-.8-2.2a3.76,3.76,0,0,1,1.6.64c.72.53.68,1.17.81,1.9a6.15,6.15,0,0,1-4.49,1.08,13.45,13.45,0,0,1-2,0c-1.72-.69-1.46-1.85-1.38-3a3.79,3.79,0,0,1,1.31-.45C318.66,290.74,318.09,291.1,317.86,291.34ZM316,288.9c.2,0-.07,0,.63.35-.11,0,.57.29-.47.55-.28-.09-.36.36-.63-.79A.32.32,0,0,1,316,288.9Zm.23,8.3a5.91,5.91,0,0,1,.61,1.57c.22.85.47,2,.59,2.74a2.57,2.57,0,0,1,.08,1.11c0,.21-.15.41-.58.74a13,13,0,0,1-2,1.19,10.24,10.24,0,0,1-2.37.7c-1.22.07-1.36-.31-1.87-1s-1.85-2.61-1.29-4.13a1.68,1.68,0,0,1,.68-.87,14.86,14.86,0,0,1,2.18-1.21,14.55,14.55,0,0,1,2.39-.86A1.75,1.75,0,0,1,316.24,297.2Zm-7.9-5.22c0-.06.12-.13.17,0s.06-.06.07.14c-.1,0,.18.2-.66.24,0,.07-.3.3-.57-.07C307.5,292.09,307.6,292.09,308.34,292Zm-2.14,3.59a1.91,1.91,0,0,1,1.44-1.25,2.85,2.85,0,0,1,.26.56c.07.78,1.06.71,2,.51a7.17,7.17,0,0,0,1.66-.66c1-.46,1.16-.82.92-1.39a1.82,1.82,0,0,0-.92-.66,4.38,4.38,0,0,1,1.72-.56c1.54.19,1.35,1.55,1.22,2.44a2.15,2.15,0,0,1-.7.8,23.73,23.73,0,0,1-3.63,1.56,14.21,14.21,0,0,1-2.3.82,1,1,0,0,1-1.16-.24A1.91,1.91,0,0,1,306.2,295.57Zm-.09,5.58c1.17,0,1.7.7,2.38,1.74a4.76,4.76,0,0,1,.82,2,3.27,3.27,0,0,1-.66,2.29,10.93,10.93,0,0,1-4.18,2.35,2.57,2.57,0,0,1-3.23-1.18,25.49,25.49,0,0,1-2-3.22,2.06,2.06,0,0,1,.71-1.07,18.8,18.8,0,0,1,4.11-2.23A6.86,6.86,0,0,1,306.11,301.15Zm-9.85-1.1c.14-.32.28-.43.45-.46,0,1.2,1.33,1.56,2.3,1.2a4.36,4.36,0,0,0,1.51-.81c.73-.62,1.76-1.36,1.38-2.07-.23-.5-1.21-.53-2-.41a2,2,0,0,1,3.07-.15,2,2,0,0,1,.8,2,1.39,1.39,0,0,1-.76.92c-1.19.57-3.51,1.39-5.36,2.28a1.86,1.86,0,0,1-1.42-1A2,2,0,0,1,296.26,300.05Zm-6.91,6.57a3.88,3.88,0,0,0,2.27-1.45c.51-.5,1-1.09.84-1.64,0-.23-.16-.5.57-.94a1.12,1.12,0,0,1,1.24.27,1.31,1.31,0,0,1,.14,1.55,2.39,2.39,0,0,1-.92.91c-.93.62-2.61,1.66-3.91,2.46-.93.59-1.71,1.06-2.49.55C287.22,307,288.44,306.66,289.35,306.62Zm-4.62,3.58c0-.21,0,0,.29-.56,0,0-.19-.27.36-.24.17.2.08.37.05.83-.08,0,0,.24-.51.6-.11.12,0,.39-.74.19C284.18,310.93,284.58,311,284.73,310.2Zm-2.92,4.74a24,24,0,0,1,4.29-2.53,20.4,20.4,0,0,1,3.51,2,5.38,5.38,0,0,1,1.5,2,5.06,5.06,0,0,1-1.08,4.56,9,9,0,0,1-2.13,1.88,14.31,14.31,0,0,1-2.29,1.37,10.68,10.68,0,0,1-1.35.55,34.85,34.85,0,0,1-4.81-3.45,3.83,3.83,0,0,1-1.19-2.66A23.43,23.43,0,0,1,281.81,314.94Zm-11.41,10.9a13.07,13.07,0,0,1,3.56-3.65,2.83,2.83,0,0,1,2.86-.32,5.33,5.33,0,0,1,1.38,1.51,24.81,24.81,0,0,1,1.63,3.24,6.75,6.75,0,0,1-2.37,3.26,24.59,24.59,0,0,1-4.95,3.17,6.13,6.13,0,0,1-3.64.79L267.73,331A21.84,21.84,0,0,1,270.4,325.84Zm-7.79,23.57s.34-.19.23.5c-.17.06-.14.18-.38.3C262.58,350.19,261.86,350,262.61,349.41Z" transform="translate(-169.25 -263.68)"/><path d="M243.61,291.76a.09.09,0,0,0-.09,0,0,0,0,0,0,0,.05S243.59,292,243.61,291.76Z" transform="translate(-169.25 -263.68)"/><path d="M323.27,300.31a5.43,5.43,0,0,0,1.48-.55c.89-.56.53-1,.67-1.49a2.87,2.87,0,0,0-.68-1.38,2.91,2.91,0,0,0-2.45-.75,4.23,4.23,0,0,0-1.3.41,1.51,1.51,0,0,0-.65.34,2.59,2.59,0,0,0,.2,2.47C321,300.41,322.17,300.54,323.27,300.31Z" transform="translate(-169.25 -263.68)"/><path d="M236.4,296.31c-.08-.05-.11.06-.08.1S236.39,296.55,236.4,296.31Z" transform="translate(-169.25 -263.68)"/><path d="M310.76,300.51c-.05.89-.14,1.16.94,2.28a3.63,3.63,0,0,0,3.81-.62,1.94,1.94,0,0,0,.51-2.91c-1.77-1.91-2.68-.86-4.58-.19A2.38,2.38,0,0,0,310.76,300.51Z" transform="translate(-169.25 -263.68)"/><path d="M302.89,307.26a4.21,4.21,0,0,0,3-.37c1.05-.46,1.78-1.25,1.66-1.78a3.11,3.11,0,0,0-2.3-2.72c-.73-.07-.51-.19-1-.1a8.38,8.38,0,0,0-2.29,1.1,4.14,4.14,0,0,0-.75.83c-.44.86-.13,1.37.35,2A11.71,11.71,0,0,0,302.89,307.26Z" transform="translate(-169.25 -263.68)"/><path d="M296,313a18.58,18.58,0,0,0,2-1.22,2.15,2.15,0,0,0,.44-2,6.17,6.17,0,0,0-1.27-1.72,2.31,2.31,0,0,0-1.21-.58,5.68,5.68,0,0,0-2.33.48,4.42,4.42,0,0,0-1.06.75c-.36.36-.43.21-.8.84a3.45,3.45,0,0,0,.66,2.66C293.71,313.41,294.62,313.92,296,313Z" transform="translate(-169.25 -263.68)"/><path d="M285.35,321.55a8.64,8.64,0,0,0,1.62-1.12,10,10,0,0,0,1.48-1.25,2.55,2.55,0,0,0,.6-3.4,3.55,3.55,0,0,0-2.76-1.75c-1.26-.23-3,.43-4.69,2.25a9.31,9.31,0,0,0-1.17,1.41,2.39,2.39,0,0,0,.75,3.17A4,4,0,0,0,285.35,321.55Z" transform="translate(-169.25 -263.68)"/><path d="M313.39,316.48a.07.07,0,0,0-.09.09S313.38,316.75,313.39,316.48Z" transform="translate(-169.25 -263.68)"/><path d="M368.7,325.84c.89-1.72,1.78-3.48,2.23-4.42s.44-1.19.36-1.34c-1.14-.1-1.63-.27-2.58,1.11-.55.81-1.35,2.37-2.15,3.93s-1.69,3-2.41,4.16a30.82,30.82,0,0,1-1.76,2.58,18,18,0,0,1-1.08,1.46c-.83-.21-1.22-.46-1.78-.12a4.81,4.81,0,0,0-1.84,2.86c-.11,1.06-.67,1.61.53,2.66a1.24,1.24,0,0,0,.72.21,78.09,78.09,0,0,0,6.29-7.43A39.48,39.48,0,0,0,368.7,325.84Z" transform="translate(-169.25 -263.68)"/><path d="M270,333.13c2.31-1.5,4.59-3.06,5.89-4.1a6.39,6.39,0,0,0,1.92-2.29,3.34,3.34,0,0,0-1-3.2c-.5-.93-2.72-1-4.31.79a13.59,13.59,0,0,0-3.38,4.8,4.88,4.88,0,0,0,.38,3.8Z" transform="translate(-169.25 -263.68)"/><path d="M321.05,330.31c-2.44-1.13-4.44-1.87-6.45-2.64a50.3,50.3,0,0,0-5.63-1.89,11.91,11.91,0,0,0-3.77-.55,14.8,14.8,0,0,0-2.59.29,5.45,5.45,0,0,0-2.61,1.39,20.21,20.21,0,0,0-1.62,2.12,14.41,14.41,0,0,0-1.3,2.24c-.38,1.09-.05,1.39-.15,2.05a5.11,5.11,0,0,0,1,.9,5.43,5.43,0,0,0,2.15.69c2.62.49,8.24,1.15,12.52,2.3,2,.48,3.78,1.1,5.59,1.7a38.73,38.73,0,0,0,5,1.4,7.21,7.21,0,0,0,3,.15,6.3,6.3,0,0,0,2.06-.77,2.79,2.79,0,0,0,1.38-1.88,4.5,4.5,0,0,0-.27-3.16C326.39,333,323.5,331.47,321.05,330.31Z" transform="translate(-169.25 -263.68)"/><path d="M281.1,341.44a2,2,0,0,0-.4-1.78,39.46,39.46,0,0,0-4.31,1.39,15.17,15.17,0,0,0-3.76,2.22,10,10,0,0,0-1.46,1.62,13,13,0,0,0-1.4,2.53c-.59,1.23-1.38,3-1.82,4.21a6.62,6.62,0,0,0-.58,2.4,2.75,2.75,0,0,0,2.84.68,10.44,10.44,0,0,0,4.82-2.06c2.48-2.22,3.84-5.54,5.05-8.41A15.94,15.94,0,0,0,281.1,341.44Zm-5.82,5.12a21.21,21.21,0,0,1-1.36,1.92,11.64,11.64,0,0,1-.79,1,1.11,1.11,0,0,1-.32.24,4.64,4.64,0,0,1,.42-2,12,12,0,0,1,1.21-2.18c.62-.84.82-.92,1.19-1.07.12,0,.24.15.32.23C276,345.21,275.78,345.66,275.28,346.56Z" transform="translate(-169.25 -263.68)"/><path d="M291,396.66a14.29,14.29,0,0,0,4.11-.51,7.39,7.39,0,0,0-2.22-1.65,25.55,25.55,0,0,0-3.72-1.34c-1.53-.44-3.47-.91-5.42-1.36a27.32,27.32,0,0,0-2,2.11,4.11,4.11,0,0,0-.95,1.36c-.17.4-.2.76.14,1s1.11.35,3,.41S289,396.73,291,396.66Z" transform="translate(-169.25 -263.68)"/><polygon points="246.71 148.04 237.6 136.73 226.4 136.73 242.06 155.56 242.06 165.67 251.27 165.67 251.27 155.92 266.98 136.48 256.03 136.48 246.71 148.04"/><path d="M234.2,417a4.46,4.46,0,0,0-1.22-3.12,5.33,5.33,0,0,0-1.61-1.24,7.29,7.29,0,0,0-3.2-.91c-1.79-.17-4.57-.27-7.77-.29s-6.79,0-10.36,0l-.46-.67v-3.7l15.7,0,1,2.54h7.58a39.64,39.64,0,0,0-.07-4.63,5.19,5.19,0,0,0-1-2.07,7.41,7.41,0,0,0-3.32-2.33c-.56-.17-1.13-.21-5.05-.27s-11.21-.06-15-.06-4,.09-4.3.16a5.29,5.29,0,0,0-3.58,2.76,8.11,8.11,0,0,0-.9,2.58,24.75,24.75,0,0,0-.35,6.49,9,9,0,0,0,.66,2.5c.65,1.15.68,1.6,2.44,2.28a17.32,17.32,0,0,0,4,.78c1.6.14,3.35.2,6.24.2s7,0,11,0a5.19,5.19,0,0,1,1.11,2.41,6.17,6.17,0,0,1-.84,2.8c-2.63,0-5.27,0-7.72,0s-4.72,0-6,0-1.57-.17-1.84-.36c-1.08-.65-.76-1.87-1.19-2.91h-7.45a37.78,37.78,0,0,0-.4,3.82,4.49,4.49,0,0,0,.72,3.08,6.6,6.6,0,0,0,1.38,1.6,6.18,6.18,0,0,0,2.13,1.11l13.55.09c4.19,0,7.89.1,10.07-.09s2.89-.5,3.5-.95a7.65,7.65,0,0,0,2.14-2.38,3.44,3.44,0,0,0,.45-1.7c.08-.94.07-2.53.07-3.92S234.25,417.88,234.2,417Z" transform="translate(-169.25 -263.68)"/><polygon points="79.64 155.83 99.33 155.83 99.33 165.72 108.88 165.72 108.88 136.73 99.57 136.8 99.57 147.35 79.79 147.35 79.79 136.88 70.66 136.88 70.66 165.88 79.64 165.81 79.64 155.83"/><path d="M389.54,414.68A8,8,0,0,0,391.2,413c1.11-1.19,1.25-3.24,1.13-5.25a9.11,9.11,0,0,0-.79-4.72,7,7,0,0,0-1.18-1.67,3.83,3.83,0,0,0-1.31-.88c-.48-.21-1-.4-6.54-.47s-15.93-.09-26.32,0v29.76c10.49.14,21,0,26.69-.13s6.4-.37,7.07-.7a5.69,5.69,0,0,0,2.55-2.8,10.58,10.58,0,0,0,.41-2.65,23.33,23.33,0,0,0-.07-5.15A4.49,4.49,0,0,0,389.54,414.68Zm-5.79,7.91H365.33V418.2h18.16A4.16,4.16,0,0,1,383.75,422.59Zm0-10.54H365.33v-4.4h18.16A4.2,4.2,0,0,1,383.75,412.05Z" transform="translate(-169.25 -263.68)"/><polygon points="147.03 143.21 147.03 136.8 113.94 136.8 113.94 165.91 146.77 165.97 146.77 159.21 123.11 159.21 123.11 154.52 145.2 154.52 145.2 148.14 123.22 148.14 123.22 143.21 147.03 143.21"/><polygon points="152.97 136.78 152.91 165.91 182.98 166 182.98 159.21 162.63 159.21 162.63 136.78 152.97 136.78"/><path d="M387.55,502.64a34.76,34.76,0,0,0-3.09-4.27,72.38,72.38,0,0,0-5.35-5.71c-2.77-2.77-7-6.91-10.11-9.57a33.36,33.36,0,0,0-6.44-4.4,26.86,26.86,0,0,0-3.28-1.51c-.25-1.7-.57-3.4-.94-5a38.25,38.25,0,0,0-1.74-5.63c-1-2.4-2.45-5.68-3.85-9s-2.67-6.77-4.1-10.8-3-8.68-4.55-13.42c-7.93,0-15.84.06-21.06.06h-9c-1.33,0-1.52.1-1.66.19-.46.79-.9,1.6-1.29,2.44a15.25,15.25,0,0,0-.92,2.31,1.91,1.91,0,0,0,.73,2.14,17.11,17.11,0,0,0,4.31,2.38,3.94,3.94,0,0,0,1.77-2.56c1,1.3.83,2.75,1.15,4.1a12.81,12.81,0,0,0,1.34,2,4.41,4.41,0,0,1,1,1.93c-.14.62-2.06-.56-3.38-1.43a5.63,5.63,0,0,0-2,3.84l4.91,4.18a7.44,7.44,0,0,0,2.1-2.36,21.17,21.17,0,0,1,.43,2.58,2.65,2.65,0,0,1-.27,1.28,25.32,25.32,0,0,1,2.63,3.87A20.49,20.49,0,0,1,326,463c.5,1.34,1.17,2.53.7,3.54a4.41,4.41,0,0,1-.62,1.13c.67,1.55,1.75,2.18,2.31,3.28.6,1.34.81,3.36,1.43,5.11l-2.58,4.3a17.63,17.63,0,0,0,3,3.72,3.76,3.76,0,0,1,1,2.93c0,.44,0,1,0,1.55l-3,2.08c.39,1.18.8,2.34,1.22,3.42a23.73,23.73,0,0,1,1,2.85,4,4,0,0,1-.68,2.93l-4.18,1.72a9.12,9.12,0,0,0,0,2.86c.3,1.41,1.16,2,1.2,2.87a4.8,4.8,0,0,1-.91,2.38,26.24,26.24,0,0,0-2.9,0c-1.18.12-1.34,0-1.94.57-.81,1-.21,3.22,1,5.07l-2.16,2.39c-1.13-.28-2.29-.49-3.42-.71a19.45,19.45,0,0,0-3-.36,1.32,1.32,0,0,0-1.21.79,6.59,6.59,0,0,0-.34,2c-.11,1.08-.29,2.81-.43,4.5l-2.61.7A23.46,23.46,0,0,0,306,522.9a19.4,19.4,0,0,0-2.68-1.09,2,2,0,0,0-2.32.79,5,5,0,0,0-.43,1.3c-.1.51-.2,1.05-.58,1.2s-1,.06-1.18-.27.27-.88.6-1.45c.69-1.24.79-2.9-1.27-4.39a11.36,11.36,0,0,0-3.78-1.82,14.5,14.5,0,0,1,6.08.7,18.33,18.33,0,0,1,1.81-2.76,1.89,1.89,0,0,1,1.23-.78v3.84a8.89,8.89,0,0,0,3.76,2.91,2.83,2.83,0,0,0,2.38-.23,13.67,13.67,0,0,0,1.08-3.68c-.21-2-2.36-3-4.77-4.13a2.24,2.24,0,0,1,1.58-.79c.86,0,1.55.92,2.32.56s.75-1.52.33-2.32c-.41-1,1-2.33,1.85-3.73,1.14.23,2.3.42,3,.51s.86,0,1-.18a10.9,10.9,0,0,0-.66-2.57c-.3-.82-.73-1.53-.93-2.15a2.19,2.19,0,0,1,.59-2.58,16.19,16.19,0,0,0,3.31,0,4,4,0,0,0,2-1,25,25,0,0,0-1.39-3.15c-.79-1.42-1.74-2.05-2.12-3.07-.25-.8.21-1.45.4-2.22a8.49,8.49,0,0,0,3.06,0,5.88,5.88,0,0,0,2.41-1.42,7.64,7.64,0,0,0-1-2.09,6.37,6.37,0,0,0-3.42-2.39c-1.64-.33-.87-1.69-.81-2.73a4.53,4.53,0,0,0,2,.23,4.62,4.62,0,0,0,1.65-.7,4.05,4.05,0,0,0,1.78-2.26,12.58,12.58,0,0,0-1.65-2.72,8.07,8.07,0,0,0-1.92-1.95c-1-.57-1.59-.12-2.3-.33l-.83-3.83,2.56.86a8.44,8.44,0,0,0,2.81-3.68,2.79,2.79,0,0,0-.41-2.53,4.11,4.11,0,0,0-2.4-1.91c-1.14-.39-2.69.31-3.9.89a20.79,20.79,0,0,0-.41-2.65,4.07,4.07,0,0,0-.63-1.41c1,.39,2,.76,2.78.33s1.39-1.66,2-2.87a30.84,30.84,0,0,0-2.95-3.78c-1.37-1.35-1.62-.89-2.35-.83-.59.28-1.11.84-1.59,1.1-.46-1.13-.88-2.27-1.2-3.12s-.49-1.47-.66-2.08c.8.55,1.86,1.11,2.78.61,1.38-1.19,3-3.87.3-5.59a15.42,15.42,0,0,0-2-1.18,5.4,5.4,0,0,0-2.08-.74c-1.07-.1-1.44.9-2,.9s-1-1.06-1-1.72a9.2,9.2,0,0,1,0-1.06c-.92-1.11-1.83-2.21-2.26-2.81s-.45-.76-.45-.94l4.64,1.57a2.82,2.82,0,0,0,1.48-2,15,15,0,0,0,.39-1.81,2.65,2.65,0,0,0-3.2.4c-.26.21-.53.39-.83.24s-.61-.64-1.2-.81c-1.2-.35-3.11,0-4.72,0,1.66,2.9,3.27,5.86,4.84,8.83s3.11,6,4.27,8.6a56.27,56.27,0,0,1,2.6,6.93c.7,2.22,1.32,4.52,2,7.51a92.34,92.34,0,0,1,1.5,9.24A35.58,35.58,0,0,1,315,480a12,12,0,0,1-1.16,6.24,23.19,23.19,0,0,1-1.29,2.28,4.62,4.62,0,0,1-1.91,1.84,4.78,4.78,0,0,1-1,.08c-.29,0-.47.16-.64,0a9.59,9.59,0,0,0-1-1.34,31.63,31.63,0,0,0-4.57-3.26c-2.74-1.79-7.07-4.5-10-6.28a43.52,43.52,0,0,0-21.06-6.57c-1.75-.1-3.44,0-5,.05a28.82,28.82,0,0,0-4.25.15,25.22,25.22,0,0,0-7,2.78,25.48,25.48,0,0,0-3.2,2.21,24.15,24.15,0,0,0-3.32,3.14,38.91,38.91,0,0,0-4.16,5.58,38.28,38.28,0,0,0-2.77,5.8,6,6,0,0,0-.53,2.26c-.28,1.32.7,3.13,2.06,4.89-1.57,2.8-3.07,5.64-4,7.36a10.56,10.56,0,0,0-1.23,3,7.58,7.58,0,0,0,.56,4.27,8.19,8.19,0,0,0,1.68,2,26.89,26.89,0,0,0,4.71,3.71,84.53,84.53,0,0,0,9.95,5.34c5,1,10,1.93,13.78,2.53a74.45,74.45,0,0,0,8.8,1c5.22,0,10.53,0,16.09-.22,2.88-.17,5.78-.59,8.23-1s4.42-.64,6.39-1a18.8,18.8,0,0,0,4.61,1c3.21.15,7.24.09,11.33,0A40,40,0,0,0,331,527a33.62,33.62,0,0,0,4.87-1.51c1.49-.57,2.94-1.23,4.13-1.82s2.14-1.17,3.05-1.7c3,.63,6.08,1.19,9,1.7s5.69.92,8.11,1.07,4.53,0,6.44-.09a37.82,37.82,0,0,0,5.47-.17,30.1,30.1,0,0,0,5.39-1.4c1.76-.61,3.43-1.2,4.61-1.7a11,11,0,0,0,4.2-2.88,12.43,12.43,0,0,0,3.44-7.73,10.92,10.92,0,0,0-.84-5.15A13.43,13.43,0,0,0,387.55,502.64ZM314,438.78c-.18,0,0,0-.52-.16.13-.47-.6.12-.17-1.13.14-.11-.21-.17.54-.2,0,0,0,.06.06.06.19.14.16.17.37.65C314.31,438.12,314.19,438,314,438.78Zm4.92,12.72c-.21.05,0,.05-.65-.33.09-.2-.37-.27,0-1.06a.11.11,0,0,1,.21,0c.25,0,.34.12.52.49,0,.11.07,0,.12.18C319,450.81,319,450.78,318.89,451.5Zm-1.49,45.17c0,.07.09-.07.08.16,0-.07-.44.33-.44-.23C317.13,496.6,317.23,496.49,317.4,496.67Zm1.43-9.75c.2.13.2-.23.53.65-.14.05.18.5-.76.1-.14-.27-.44,0-.37-.75A.44.44,0,0,1,318.83,486.92Zm-.68-9.8c.11.06.17-.34.39,0,.21,0,.13,0,.53.36.16.15.38.11.25,1-.09,0-.26,0-.27.14s-.18,0-.53-.4c-.15-.14-.06.07-.43-.44,0-.14,0-.28-.13-.31S318,477.56,318.15,477.12Zm-.39-11.47s0,.06.06.09h0s.09.13.55.6c.11,0,.25.22,0,.52-.05.05.13.05-.17.2s-.22-.05-.46-.27c-.2,0-.13,0-.5-.36C317.32,466.32,316.89,465.68,317.76,465.65Zm-2.95-9.87s0,.07.05.07c.2.15,0,0,.44.44.1.06.21,0,.24.38-.17.1-.27.23-.73-.05-.18-.17,0,.1-.39-.47C314.42,456,314.35,455.85,314.81,455.78ZM310,445.1a.83.83,0,0,1,.9,0c.09.09.11-.17.37.49.05.14.05.11.27.45.06,0-.05-.13-.14.3-.23,0-.37.54-1.2-.52C310.2,445.85,310,445.73,310,445.1Zm-5.7,66c-.07,0-.58.19-.19-.53C304.18,510.59,304.53,510.38,304.34,511.12Zm1.79,4.58c0-.07.37-.1.4.09.22,0,.05-.13.75.44a.42.42,0,0,1,.22.48v.7c0,.52.17.33-.48.79-.09-.09-.21.06-.58-.42-.12-.1,0,0-.33-.61,0-.19-.17-.26-.25-.94,0,0,0,0,0,0S305.81,516.06,306.13,515.7Zm4.24-22.41c.68-.53,1.73-1.27,2.34-1.71,1-.67,1-.85,1.43-1,.39.39.17.75.17,1.25-.16.59-.22,1.18-.39,2.05-.85.89-1.78.67-2.75.83a4.61,4.61,0,0,1-2.2-.22A11.33,11.33,0,0,1,310.37,493.29ZM308,497h5.39a30.34,30.34,0,0,1-1.89,5.66c-.45.83-.33-.47-.42-1.35-.11-1.5-1.22-1.42-2-.77a3.07,3.07,0,0,0-.9,3,2.09,2.09,0,0,0,2.27,1.28l-2.66,3.54a3.05,3.05,0,0,1-1.82-2.11,3.37,3.37,0,0,1,0-1.66C306.36,502.74,307.39,499.58,308,497Zm-2.86-6.34c.13.07.1-.06.43.27.16,0,0,.06.47.24,0,.19.06,0,.24.49.2,0,.64,0,.18.71-.23,0,.1,0-.71.29-.16,0,.06-.1-.36-.18,0-.2-.14-.07-.23-.8-.15-.05.09-.42-.21-.78C304.94,490.76,304.92,490.31,305.14,490.61ZM303.4,496l1.81.59c-.23.94-.47,2-.66,3s-.41,2-.59,2.65c-.44,1.36-.91,1.41-1.48,1.6-1.42.09-2-1.16-3-2.32-.66-.89-1.5-1.84-1.3-2.6a3.24,3.24,0,0,1,1.46-.94c.85.33,1.87.79,3-.36A4.89,4.89,0,0,0,303.4,496Zm-2.08-6.22c.09-.12.3,0,.91-.27a1.2,1.2,0,0,1,.55,0s0,.07,0,.07c-.15.07.3-.16-.53.39,0,.13-.4,0-.59.21-.25,0,0-.13-.75.42,0,.15-.28-.42-.23.9.17.09,0,.24.28,1,.18.13,0,.22.3.71-.16.17.13.14-.55.37,0-.14-.12.13-.51-.42-.09-.15-.12-.05-.36-.85-.18-.13,0-.33-.27-.78,0-.23-.06-.06.24-.66,0-.24-.05.06.39-.66C300.37,490.27,300,490,301.32,489.79Zm-3.51-4.2c.1,0,.21,0,.23.07.18.09.13-.07.46.29.19.06,0-.09.7.41.3,0,.2.19.63.51,0,.21.68.05,0,.83,0,.2-.45.2-1.28,0,0-.07-.12,0-.5-.5-.13,0,0-.37-.2-.55C298,486.39,297.58,486.46,297.81,485.59Zm-.36,6.47a3.73,3.73,0,0,1,.26,1.33c-.24.71-.39.06-1.28-.69a2.91,2.91,0,0,0-2.68.39c-.78.44-1.29,1-1.84.75.18-.78,1.23-1.18,2.26-1.65.67-.29,1.4-.61,1.83-.75C296.9,491.24,296.89,491.24,297.45,492.06Zm-9.33,10.68a13.85,13.85,0,0,1-2.28-4.26,1.47,1.47,0,0,1,.32-1,2.57,2.57,0,0,1,2.07-.75,7.8,7.8,0,0,0,.37,2.17,1.65,1.65,0,0,0,1,.85,3.51,3.51,0,0,0,1.05-.51,1.34,1.34,0,0,0,.56-1.73,2.29,2.29,0,0,1,0-.78,5.16,5.16,0,0,1,2.09.25,1.58,1.58,0,0,1,.76,1.06Zm.79,7.66c.48.89,1.26,2.38,2,3.84a11.83,11.83,0,0,1-2.55.81,20.19,20.19,0,0,1-2.62.23c-1.21,0-2,.22-2.93-.26a28.93,28.93,0,0,1,1.88-3.75,13.9,13.9,0,0,1,1.46-1.91c.69-.78,1.27-1.1,1.85-.38A5.62,5.62,0,0,1,288.91,510.4Zm4.49-26.77c.54.15,1.1.95,1.48,1.7a2.75,2.75,0,0,0,.34,1.36c.17.39.39,1.05.63,1.69a13,13,0,0,1-1.77,1.14c-.68.27-1.4.6-1.84.75-.84.19-.69.08-1,0-1.07-1-1.08-2.2-1.77-3.68a9.17,9.17,0,0,1-.52-1.82c-.25-.32.28-1,.94-1A6.85,6.85,0,0,1,293.4,483.63ZM287,479.5s0,.07.08.08.2-.17.29.3c.15.05.1,0,.41.26.23,0,0,.07.77.33.18,0,.4-.16.78.13.09.08.27,0,.51.33,0,.08.14.13-.47.4a1,1,0,0,0-.65.13c-.33,0-.29-.13-1.25-.21-.11-.15.12.14-.4-.38-.07-.07.07-.3-.16-.59,0-.17-.24-.1-.44-.57C286.58,479.58,286.23,479.53,287,479.5Zm-1.11,5.5c.95,1.72,1.89,3.41,2.37,4.55a7.09,7.09,0,0,1,.64,2.29c-2.08,2.3-3.87,2.26-5.83,1.72-.74-.17-1.57-.39-2.37-.66a31.68,31.68,0,0,1-1.05-3.61c-.26-1.55-.25-1.91.12-2.7a3.8,3.8,0,0,1,2.22-1.11,7.56,7.56,0,0,1,1.68-.46A18.63,18.63,0,0,1,285.86,485Zm-22.65,20.07a7.14,7.14,0,0,1-.17-5,5.65,5.65,0,0,1,1.26-1.88,10.49,10.49,0,0,1,4.62-2.83,1.62,1.62,0,0,1,1.11.24,1.66,1.66,0,0,1,.69,1.08,21,21,0,0,1,.52,3.05c.19,1.31.36,2.89.46,4.5-1.63,1.93-3.26,3.9-4.29,4.84s-1.39.95-1.8.95A26.5,26.5,0,0,1,263.21,505.07Zm1.13,10.44c-.11,0-.1.36-.55.28-.15-.06-.06-.39-.23-.56.05-.21-.29-.18.58-.87.07.07.26-.21.3.3C264.53,514.59,264.78,515,264.34,515.51Zm7.55-7.18a9.71,9.71,0,0,1,1.12-.79c1.06.48,1,1.27,1.28,2.17.21.6.48,1.32.72,2a13.48,13.48,0,0,1,.49,1.61,2.1,2.1,0,0,1,.05.87c-1.78.35-3.64-.45-5.77-1a6.46,6.46,0,0,1-1.21-.44,1.18,1.18,0,0,1-.56-.51C268.48,511,270.43,509.81,271.89,508.33Zm2.16-7.3c-.55-1.63-1.09-3.32-1.38-4.29a8.61,8.61,0,0,1-.33-1.36,3.89,3.89,0,0,1,0-.83,1.3,1.3,0,0,1,.52-.92,1.45,1.45,0,0,1,1.29.14c.74.37,1.15.82,1,1a9.59,9.59,0,0,0-.37,1.47,1.06,1.06,0,0,0,.53,1.13c.26.29,1.1.29,1.84-.22a3,3,0,0,0,1.24-1.69c.47.06.93.16,1.38.26s.94.34,1,.58-.15.51-.44.85c-.91.84-2.66,1.91-4.06,3.09C275.55,500.76,274.73,501.29,274.05,501Zm-.32-12.47c1-.49,1.57-1.16,2.74-.47a4.62,4.62,0,0,1,.54,1.67,3.7,3.7,0,0,1,.29,2.23,1.44,1.44,0,0,1-1.75-.65c-.74-1-1.38-.58-2-.63a3.06,3.06,0,0,1-1-.25C271.74,490.12,272.31,489.06,273.73,488.56ZM280,477.65a3.47,3.47,0,0,1,2.68,1.49,17.29,17.29,0,0,1,1.45,2c.33.56.33.85.2,1.06l-5.72,1.62a2.18,2.18,0,0,1-1-.81,15.14,15.14,0,0,1-1.6-4.19A10.11,10.11,0,0,1,280,477.65Zm-5.07-2c.18,0,.19,0,.28.13s.3-.19.67.15a.82.82,0,0,1,0,.21,1.2,1.2,0,0,1-1.25-.12C274.71,476,274.17,475.83,274.92,475.67Zm-1.47,4c.71,1.54,1.45,3,1.78,3.92s.32,1.14.25,1.43l-4.07,2.53a2,2,0,0,1-.92-1.23c-.39-1.3-.67-3.41-1.27-5.26A5.41,5.41,0,0,1,273.45,479.71ZM267.56,476c.21.09-.1-.07.45.69a1.39,1.39,0,0,0,.63.27,2.21,2.21,0,0,0,1.3-.24c.22-.13-.06.11.51-.49.06-.14-.06-.05.31-.47,0,0,.11-.1.17.05s-.08-.09.34.31c.13.27.51.11.27,1.17-.08,0,.08-.06-.25.24a1.18,1.18,0,0,0-.8.36c-.09.09,0,0-.61.32a7.48,7.48,0,0,1-1.1.26c0,.1-.25.17-.59-.09-.2-.1.05,0-.38-.33,0-.19,0,.12-.31-.67,0-.19-.24.06-.26-1C267.28,476.16,267.06,476.18,267.56,476Zm-1.31,6.64c.12,0,.18-.07.28.09s0,0,.39.38c0,.21,0-.11.32.72.17.12-.14.22.39.83,0,.2,0-.13.32.72.19,0,0,.42.26,1.09.15.17.27.3.23,1,0,0-.41.32-.83-.24-.2,0-.12,0-.51-.36,0-.09-.14-.06-.48-.51-.17,0-.13,0-.5-.35,0-.14.07-.2-.42-.39,0-.33,0,0-.52-.83,0-.16-.37-.09-.43-.7-.17-.1,0-.33.21-.76,0-.15.25-.06.49-.36C265.68,482.88,265.28,482.86,266.25,482.59Zm-3.05-6.37c.71,0,.94.78,1.33,1.5a6.1,6.1,0,0,1,.64,1.24,5.65,5.65,0,0,1,0,1.88c-.41.49-1,1.51-1.91.85-.56-.46.34-1,.78-1.7a2,2,0,0,0-.57-2,2.17,2.17,0,0,0-1.64-.61C261.88,477.29,261.37,476.44,263.2,476.22Zm-1.27,8.59c.11,0,.09-.27.51,0,.12.1-.06-.11.35.35.1,0,.07.1.45.43,0,.22.07.26.43.55.14.25.05-.13.52.7.11.05.07.3.06.6-.06.15-.28,0-.61.2-.18.22,0,.19-1.11.33-.18-.05,0-.07-.35-.23,0-.24-.08.18-.46-1.23v-.65C261.67,485.33,261.86,485.66,261.93,484.81Zm-.32,6.89c0-.72,0-1.15,0-1.58a21.25,21.25,0,0,1,2.25-.79c1.4-.35,1.78-.47,2.55,0a12.32,12.32,0,0,1,1.52,1.06,15.7,15.7,0,0,1,1.36,1.19,1.08,1.08,0,0,1,.34.78c-1.45.84-2.91,1.63-4.06,2.36s-2,1.27-2.81,1.84l-.46-.16a5.37,5.37,0,0,1-.67-2.08A22.54,22.54,0,0,1,261.61,491.7Zm-1.18,12.22a21.21,21.21,0,0,1,.58,2.84c.1,1,.49,1.59.06,2.75-.91.4-1.78-.8-3.2-1.69-.52-.36-1.08-.73-1.78-1.28a.9.9,0,0,1-.33-.47,16,16,0,0,1,1.63-2c1.13-1.08,1.9-1.85,2.53-1.11A2.75,2.75,0,0,1,260.43,503.92Zm-6.71,0c-.89-1-1.26-3-1.52-4.94a7.56,7.56,0,0,1,.06-2.83c.67-2.11,3.18-2.95,4.69-3.69a3,3,0,0,1,2.37,0v6.67Zm1.44-24.31a1.77,1.77,0,0,1,.28-.41.74.74,0,0,1,.25-.18,1.76,1.76,0,0,0,2.5.51c.34-.22.67-.78,1.11-.18.2.39.27,1.1.49,1.69a5,5,0,0,1-2,.88,12.91,12.91,0,0,1-1.66.34,1.67,1.67,0,0,1-1-.13C254.18,481.66,254.76,480.61,255.16,479.61Zm3.36,3.36c1,.51,1,1,1.17,1.76a5.67,5.67,0,0,1-.57,3.36c-.73,1.4-2,2.13-3.72,2.79a18.53,18.53,0,0,1-1.88.55,1.3,1.3,0,0,1-.77-.06,27.78,27.78,0,0,1,.34-4.39,6.43,6.43,0,0,1,1-2.37Zm-9,.6c.12,0-.14.06.34-.33,0-.15-.07-.06.31-.42a4.38,4.38,0,0,1,.4-.47,2.17,2.17,0,0,0,.43-.4c.05-.1.2,0,.55-.37.13-.19.05-.09.45-.48,0-.14.13.23.33-.36.22,0,0,0,.84-.27.09,0,.14.1.08.24s0,.09-.26.54c-.12.14.09,0-.38.54-.06.16-.06-.1-.33.56,0,.27-.18-.34-.43.6,0,.17-.11-.23-.33.32-.18.07,0-.15-.53.43-.27,0,.1,0-.73.3-.14.15-.25.28-1,.22,0-.07,0-.07-.11-.1S249.15,484,249.5,483.57Zm-4.43,8.57a10.22,10.22,0,0,1,1-2.38c1.21-2.06,2.69-2.56,4.1-3.21.77,1,.46,2.16.22,3.39s-.26,2.76-1,3.95a13,13,0,0,1-3.85,3.31,5.52,5.52,0,0,1-.65-1.05C244.4,495.41,244.6,493.77,245.07,492.14Zm4.79,9.34c-.09,0,.08.24-.69-.3,0-.15-.18.08-.49-.34-.07-.11-.19.15-.26-.28-.2,0-.13,0-.53-.37,0-.08-.27,0-.43-.59,0-.33-.15.07.4-.81,0-.22,0-.26.42-.55.14-.15-.09-.1.5-.39.09,0,.29-.09.53.12s.13-.16.4.7c-.05.31.15.09.23.91.06,0,.21.26-.08.71C250,500.38,250.15,500.7,249.86,501.48Zm-7.3,8.63c.05.05.09-.13.24.17s0,.21-.19.39-.09.13-.34-.41C242.19,510.16,242.33,509.91,242.56,510.11Zm6.37,8.51c-.1,0,0,.07-.25.53-.21-.12-.07.59-.78-.12,0-.08-.09.12-.29-.57.11-.26-.39-.68.31-1.24a1.1,1.1,0,0,1,.82.09C248.93,517.51,249.12,517.57,248.93,518.62Zm16.47,4c0-.18-.18.39-.25-.46.13-.08,0,.09.56-.43a.8.8,0,0,0,.57-.16c.2,0-.07-.29.68-.06.08.06,0,.19.28.54-.08.15,0,.06-.34.47A2.53,2.53,0,0,1,265.4,522.63Zm9.34,2.47a2.88,2.88,0,0,0-3.31-.12,3.8,3.8,0,0,1-3.13.79,4.64,4.64,0,0,1-1.21-.4q.62-.5,1.35-1a3.77,3.77,0,0,0,1.3-1c.46-.75.12-2-.67-3a4,4,0,0,0-1.29-1.07c-1.53.63-3,1.35-3.87,1.79s-1,.65-1.09.89a4.23,4.23,0,0,0-.16,2.71,8.12,8.12,0,0,1-2-1,5.62,5.62,0,0,1-1.2-1.7c-1.37.17-2.19.82-3.32.83a9.49,9.49,0,0,1-4.43-1.66,27.87,27.87,0,0,0,0-4.16,6.65,6.65,0,0,0-.88-2.58,9.14,9.14,0,0,0-2.11.07,6.09,6.09,0,0,0-1.86.93,4.83,4.83,0,0,0-1.37,1.91,27,27,0,0,1-2.49-1.78A5.79,5.79,0,0,1,241.8,514a8.47,8.47,0,0,0,1.95-.79c1.45-.86,1.86-1.62,2-2.49a5.38,5.38,0,0,0,0-1.7,2.14,2.14,0,0,0-.53-1.23,2.82,2.82,0,0,0-1.3-.68c-.53-.15-1.16-.16-1.3-.46s.17-.81.68-1a4.33,4.33,0,0,1,1.73-.1,2,2,0,0,0,1.37-.33,4.88,4.88,0,0,0,1.33-2.26,8.56,8.56,0,0,1,1,1.82c.41.38,1.24.59,1.91,1.16a5.83,5.83,0,0,0-1.62.8,4,4,0,0,0-1.78,2.94,6.58,6.58,0,0,0-.29,1.79,1.38,1.38,0,0,0,.57,1c.68.59,2.88.06,4.94-.69l1.72-3.63a12.4,12.4,0,0,0,.09,2.73c.28.87,1.87,1.33,3.16,1,1.6-.11,2-.71,3.2-.11,1.34.57,1.08,1.51,1.19,2.87,0,.9,0,2,0,3a2.24,2.24,0,0,0,2,.68,5.46,5.46,0,0,0,1.65-.56,6.6,6.6,0,0,0,1.46-.89,1.53,1.53,0,0,0,.57-.87,15.21,15.21,0,0,1,2.06,2.11c.62.78,1.15,1.58,1.55,2.09a3.19,3.19,0,0,0,2.46,1.14c.65-.57.92-1.12,1.51-1.17.36,0,.84.21.88.47s-.38.58-.68,1a3.71,3.71,0,0,0-.58,1.57l3.64,3.06A4,4,0,0,1,274.74,525.1ZM250.15,510c-.08.19,0,.1-.34.55-.19.05-.59.05-.23-1.05.06-.13.06-.15.48-.36.09,0,0,.08.1.23S250.18,509.51,250.15,510Zm28.08,4a17.34,17.34,0,0,1-1.38-2.85c-.43-1.17-.77-2.41-1-3.19s-.23-1-.31-1.27a1.57,1.57,0,0,1,0-1.08,8.53,8.53,0,0,1,3.9-4.32c1.11-.67,2.5-1.48,3.92-2.19,1.53,2,2.44,4,2.41,5.86l-5.94,9.9C279.11,514.83,278.86,514.92,278.23,514Zm1.71,8.82c-.12,0,0,.27-.9.17,0,0-.3-.17.07-.46a2.17,2.17,0,0,1,.83.1C279.94,522.69,280,522.72,279.94,522.82Zm6.13,3.47a2.28,2.28,0,0,1-2.19.68,14.66,14.66,0,0,1-2-.09.27.27,0,0,1-.25-.21c.66-.41,1.31-.81,1.74-1.11,1.16-1,1.38-1.15,2.26-.88a3.51,3.51,0,0,1,1.18.71A6.68,6.68,0,0,1,286.07,526.29Zm6.15-2.74a28.94,28.94,0,0,1-3.66-.76,18.25,18.25,0,0,1-3.05-1.12,13,13,0,0,1-1.84-1.46c-.89-.69-1.84-1.42-2.62-1a1.49,1.49,0,0,1-1.56-.07c-.66-.26-.86-.81-.55-1.25.31-.71,1.75-.49,3.14-.42.87,0,1.77,0,2.68,0a7.36,7.36,0,0,0,3,2.38,2.92,2.92,0,0,0,1.81,0c.2-.39.47-.74.68-1.16.68-1.25,1.21-1.16,2-1.32.53,0,1.15-.1,1.81-.19a11.75,11.75,0,0,0-2.35,3.59A3.8,3.8,0,0,0,292.22,523.55ZM291,509.23a10.36,10.36,0,0,1-1-3.74,13.43,13.43,0,0,1,5.91-4.84c1.12,1.36,2.22,2.76,3.17,4,1.94,2.33,2.76,3.68,2.13,5.2a6.16,6.16,0,0,1-1.08,2.22,6.86,6.86,0,0,1-5.86,2.12A36.9,36.9,0,0,1,291,509.23Zm4.15,12.51s-.41.17-.21-.57c.08,0,.13-.09.24.1C295.29,521.29,295.54,521.41,295.19,521.74Zm86.74-20.91c.15-.07.24,0,.72-.15.17,0,.25,0,.3.08.22.11,0-.11.58.44.32,0,0,.06.77.52-.14.16.56,0-.12.65-.27,0-.26,0-1.07-.33,0-.06-.13,0-.52-.23-.11-.09-.17.06-.63-.45C382,501.18,381.6,501.29,381.93,500.83Zm-11.11-12.7a.24.24,0,0,1,.16,0c.12.07,0,.19.13.42,0,0,.11-.13.2.14C371.29,488.68,370.6,488.77,370.82,488.13Zm-2,4a7.18,7.18,0,0,1,.65-1.41,1.67,1.67,0,0,1,.74-.58l1.11,1.43a2.78,2.78,0,0,0-1.32.65c-.66.5-.19,1.33.35,2.11a4.3,4.3,0,0,0,2.68,1.92l-.85,1.65c-1.3-.88-2.34-2.66-3.63-4.07A5.65,5.65,0,0,1,368.85,492.17ZM365.29,500a1.6,1.6,0,0,1,0,1.07.81.81,0,0,1-.38.33,3.66,3.66,0,0,1-1.17-1.33,2,2,0,0,1,.25-2c.41-.52,2.17-2.21,2.75-2.14a2.08,2.08,0,0,1,1.29.7c.31.35.78.85,1.29,1.44a6.45,6.45,0,0,1,1.11,1.32c.2,1.12-1.2.07-1.38-.6a2,2,0,0,0-1.95-1,1.94,1.94,0,0,0-.91.39C365.59,498.63,365.13,499.58,365.29,500Zm-1.52-18.36a2.52,2.52,0,0,0,.5.86,5.87,5.87,0,0,0,1.55,1.35,11.71,11.71,0,0,0,1.74.58c.89.23.68.52.68.81,0,.6-.57.27-1-.35a7.51,7.51,0,0,1-1.29-.47,11.83,11.83,0,0,1-1.46-1.07c-.91-.75-1.59-1.58-1.45-2.05C363.17,481.1,363.57,480.84,363.77,481.66Zm-1.65,5.18a5.84,5.84,0,0,1,.23-1.18c1.19-1.42,2.46-.37,4.28,1a2.78,2.78,0,0,1,.54,2.38,10.52,10.52,0,0,1-.36,1.23c-.23.47-.13.61-.67.84-.22.23-.65,0-1.1-.4-.27-.22-.51-.41-1-.74s-1.11-.78-1.5-1.08C361.67,488.24,362.1,487.64,362.12,486.84Zm-2.51-7.26c.6-.53.66-.2.81-.23.35.36.26.32.45.45.31.61.13.41.15.51-.23.88.1.34,0,.56l0,0c-.81.6-.81.21-1,.3-.42-.32-.17-.26-.22-.35A2.75,2.75,0,0,1,359.61,479.58Zm.86,5.59c-.3.61-.09.69-.15.88-.32.73-.21.22-.28.41-.63-.19-.17-.65-.28-.8.28-.3.11-.33.14-.43.27-.42.1-.46.14-.55-.28-.4-.12-.46-.14-.56.27-.31.1-.34.14-.45,1-.63.45.23.55.23.35,1.27,0,.44,0,.71C360.3,485.17,360.52,485,360.47,485.17Zm-.93,5.95c.57-.88,1.6-1.33,2.36-.69.49.3.27.51-.37.78a7.82,7.82,0,0,0-1,.46c-.49.5-.34.45-.46.76a2,2,0,0,0,.36,1.61c.42.59,1.12,1.34,1.59,1.43a1.83,1.83,0,0,0,1.85-.45c.66-.47.56-1.39.23-2.26a2.4,2.4,0,0,1-.06-.47c1.93,1,1.23,2.34.52,3.12A5.51,5.51,0,0,1,362.5,497c-1.28.33-1.67-.64-2.44-1.62C358.39,493.53,358.86,493,359.54,491.12Zm2.56,10.27c-.07,0-.26.33-.47,0-.08-.16.06.09.16-.39.14.06.12-.24.38-.07C362.26,500.93,362.52,501.12,362.1,501.39Zm-3.28-3.9c-.23-.27-.53-.48-1-.93a.29.29,0,0,1,0-.37c.14-.36.56-.36.93,0a5.85,5.85,0,0,1,1.38,2.06c.36,1,.58,1.63-.41,2.47a2.63,2.63,0,0,1-1.76.83.81.81,0,0,1-.64-.48C358.52,499.93,360,498.27,358.82,497.49Zm-3.08,8.12c0-.06.24-.3.79,0,.22.14.09.14.55.53.1.13-.13,0,.4.55.1.18-.14.38.16.81-.08.09,0,.26-.33.55-.23-.09.06.33-.7,0-.17-.06,0-.33-.49-.59-.06-.16-.06.08-.31-.59C355.59,506.69,355.6,506.42,355.74,505.61Zm-2.08-10.77a14.08,14.08,0,0,1-3.9,1.06c-1.95.29-4.79.62-6.85.76s-3.37,0-4.54.08a28.23,28.23,0,0,1-2.95-.07,1.8,1.8,0,0,1-1.29-.72c-.62-.78-.66-2.23-.52-3.63a7.6,7.6,0,0,1,.51-2.08,4.67,4.67,0,0,1,1.51-1.77,38.59,38.59,0,0,0,7.43-.06c2.66-.25,5.61-.79,7.52-1.17s2.8-.68,3.53-.82a5.84,5.84,0,0,1,2.54.13,31.09,31.09,0,0,1,0,3.63c-.31,1.84-.23,2.08-.91,3.11A6.51,6.51,0,0,1,353.66,494.84Zm3.09-15.73a5.53,5.53,0,0,1-.07,3.95,3,3,0,0,1-.95,1.18c-4.68.76-9.37,1.51-12.2,1.9a47.14,47.14,0,0,1-4.84.58,14.84,14.84,0,0,1-2.56,0,3.39,3.39,0,0,1-2.17-1.19,12.37,12.37,0,0,1-.91-3.24,19,19,0,0,1,0-2.79c0-.65,0-.9,0-1.07,4.92-.71,9.84-1.49,13.56-1.79a60.22,60.22,0,0,1,8.92-.1A11.28,11.28,0,0,1,356.75,479.11Zm-34.82-33c-.45-.77-1-2-1.57-3.21s-1.17-2.47-1.63-3.51a25.36,25.36,0,0,1-.89-2.47,2.29,2.29,0,0,1-.07-1.16c2.92-1.68,7.54-1.61,12-1.53,2.34,0,4.5,0,5.81,0a7.64,7.64,0,0,1,3.63.57,5,5,0,0,1,2.61,2.48,35.05,35.05,0,0,1,1.68,3.55,36.47,36.47,0,0,1,1.23,3.66c.3,1.64,0,1.62-.42,2.29a3.23,3.23,0,0,1-1.26.84,9.48,9.48,0,0,1-2.75.3c-1.54.06-3.9,0-6.72,0s-6.11,0-9.39,0A3,3,0,0,1,321.93,446.15Zm2.48,5.23c1.53-1.43,4.12-1.79,6.58-1.84s5.7.08,9,.08c1.68,0,3.24-.05,4.19,0a6.29,6.29,0,0,1,2.59.94,23.9,23.9,0,0,1,2.12,3.78,16.85,16.85,0,0,1,1.38,3.7,3.42,3.42,0,0,1-.74,3.24,14.22,14.22,0,0,1-4.14.6c-2,.06-4.81,0-6.93,0s-3.49.26-4.72.39a15.92,15.92,0,0,1-3,.06,20.56,20.56,0,0,1-2.36-.66Zm5.91,29.33c-.09-.11-.29-.3.09-.53.13,0,.07.1.14.27C330.54,480.35,330.92,480.87,330.32,480.71Zm-.09-11a21.07,21.07,0,0,1-.51-2.58,1.44,1.44,0,0,1,.3-1.16c.19-.28.42-.49,1.73-.7a58.35,58.35,0,0,1,5.92-1c2.25-.3,4.36-.47,6.05-.57a28.43,28.43,0,0,1,4.21,0,11.12,11.12,0,0,1,3.3.63,4,4,0,0,1,1.81,1.45,6.72,6.72,0,0,1,1.15,2.31,13.1,13.1,0,0,1,.5,3.42c-.17,1.6-.85,1.78-.56,2.52a94.37,94.37,0,0,1-21.06,1.23A11,11,0,0,1,330.23,469.67Zm2,32.47a15.76,15.76,0,0,1,1-2.15,2.6,2.6,0,0,1,1.43-1.11,8.51,8.51,0,0,1,2.43-.44c1.22-.11,3-.17,4.94-.2s4.16.06,5.9,0,3-.4,4.15-.5a10.32,10.32,0,0,1,2.86-.07l-2.62,7.2a14.49,14.49,0,0,1-1.92,1.4,12.66,12.66,0,0,1-2.56,1.19,35.82,35.82,0,0,1-4.32,1.13,37.55,37.55,0,0,1-5.5.56c-2.13.09-4.67.09-7.19,0C329.8,507.07,331.2,504.37,332.27,502.14ZM323.32,512c.14,0-.08-.33.45-.07,0,0,.57-.17,0,.74,0,0-.36.72-.76-.12C323.05,512.42,322.89,512.46,323.32,512ZM316,520.25c0-.12.47-.19.62,0,0,.06.53-.15,0,.71-.19,0,0,.3-.55.07C316.07,521,315.58,521.24,316,520.25Zm22.51,2.11c-.5.27-1.19.63-1.87,1a25.82,25.82,0,0,1-2.64.86,28.82,28.82,0,0,1-5,.89c-1.95.15-4.1,0-5.79,0s-2.91,0-4.05,0a8.6,8.6,0,0,1-2.71-.45c-.52-.24-.53-.57-.38-.83.33-.63,1.6-1.39,2.75-2.28,4.47-.12,9-.27,12.55-.34s6.27,0,8.94,0A21.3,21.3,0,0,1,338.47,522.36Zm7.07-5.68a6.6,6.6,0,0,1-1.93,1.19,16.72,16.72,0,0,1-4,.86c-2.39.39-6.41.88-9.05,1.1a43.18,43.18,0,0,1-5.15.12c-1.17,0-2.19,0-2.78,0s-.72-.16-.82-.28c2.14-2.57,4.39-5.08,5.73-6.42s1.74-1.55,2.2-1.66a9.41,9.41,0,0,1,2.06-.09c1.05,0,2.6,0,4.15,0a45.28,45.28,0,0,0,5.44-.52c2.35-.36,5.54-1,8.74-1.66-.18,1.89-1.78,3.68-3.07,5.67A9,9,0,0,1,345.54,516.68Zm18.6.13a1.75,1.75,0,0,1-.48.67c-.22,0,.12,0-.7.3-.12,0-.06.05-.12.12s0-.12-.52-.31c.1-.25-.39-.18,0-1.11.09-.22-.07.07.36-.42.18,0-.23-.1.67-.4.14-.06.08-.06.44-.3.08,0,.15,0,.26.1s.09-.06.37.47C364.44,516.11,364.35,515.87,364.14,516.81Zm21.12-3.13c-.09-.13.07.47-.52-.13-.19-.15,0,.15-.48-.58-.16,0,.1-.27-.19-.49,0,0,0-.75,0-1.33s-.09-.23.33-1c.14,0,.1.07.43-.25,0,0,.21-.17.38,0s0,.13.55.9a.57.57,0,0,0,.12.42c-.13,0-.28.16,0,.62-.06.07-.32.3,0,1C385.74,513.05,386.14,512.87,385.26,513.68Zm-2.66-6.91a9.61,9.61,0,0,0-.56,3.84c.1,1.94.56,4.72,1,7.56a9.84,9.84,0,0,1-3.55,2.31c-2.29.6-3.08-1-4.88-1.79-1.5-.91-3.4-1.18-4.87.77-.38.43-.77,1-1.19,1.58-.91,1.26-1.62,1.82-2.44,1.78a5.62,5.62,0,0,1-1.42-.16l4.2-6.28a26.46,26.46,0,0,0-2.11-3.71,8.72,8.72,0,0,0-2.1-2,44.5,44.5,0,0,0-4.23,2.29,11,11,0,0,0-2.22,2l1.53,7.07c-.6.24-1.3.57-2-.06a4.74,4.74,0,0,1-.69-1.36,8.38,8.38,0,0,0-.59-1.39,2,2,0,0,0-1.44-.85c-.82.49-1.63.89-2.44,1.36-1.45.88-2.82,1.68-4.07,1.29a3.44,3.44,0,0,1-1.5-.6,23.18,23.18,0,0,0,3-1.53c1.54-1,2.77-2.17,2.92-3.12.12-.33.22-.67.35-1-.27-.79-.52-1.61-.83-2.35a6.67,6.67,0,0,1-.67-1.87c0-.8.68-1.29,1.15-1.8a13.29,13.29,0,0,0,1.13,2.14c.72,1.08,1.65,2.05,2.44,2.05.29,0,.51.08.74.14a17,17,0,0,0,2.33-2,11.09,11.09,0,0,0,1.65-2.06,2,2,0,0,0,.1-2.16c-.5-.88-1.51-2.12-2.22-3.37a10.78,10.78,0,0,1,2.38.14c.84.46,1.59,1.3,2.48,1.76a13.16,13.16,0,0,0,2.17-1.39,6.65,6.65,0,0,1,3.94-2.22,9.51,9.51,0,0,1,4.76,0,17.47,17.47,0,0,0,2.33.46l-1.47-5.64c.86.13,1.71.25,2.49.31a17.3,17.3,0,0,1,2,.24c.46.09.6.29.65.53a5.32,5.32,0,0,1-1.13.27c-.41.06-.87.06-1.15.48a3.45,3.45,0,0,0-.38,2,3.79,3.79,0,0,0,2.18,2.81,6.92,6.92,0,0,0,3.46,1,3.83,3.83,0,0,1,1.55.47,2.67,2.67,0,0,1,.78,1.93Z" transform="translate(-169.25 -263.68)"/><path d="M336.69,447.46c-.05-.06-.09,0-.06.08S336.69,447.69,336.69,447.46Z" transform="translate(-169.25 -263.68)"/><path d="M321,458.5a4.46,4.46,0,0,0-1.59,1.59,2.34,2.34,0,0,0,.1,1.65c.32.74,1.55,1.34,2.34,2.22,1,1,1.92,2.08,3.15,1.17a2.54,2.54,0,0,0,.54-1.8c-.2-1.06-1.45-2.45-2.49-3.54C322.26,458.91,321.46,458.38,321,458.5Zm1.19,3.86c-.06-.19-.19-.19-.14-.45,0-.07.23-.21.45,0,.08,0,0,.13.27.51C322.66,462.48,322.58,463.12,322.18,462.36Z" transform="translate(-169.25 -263.68)"/><path d="M328.62,474.82c-.52-.83-1.05-1.66-1.58-2.46a18,18,0,0,0-1.45-2.1c-.85-.9-1.32-.46-2-.2a4.32,4.32,0,0,0-1.19.79c-.75.59-1.18,1.11-1.23,1.6a1.54,1.54,0,0,0,.15.94,14.53,14.53,0,0,0,1,1.66,17.28,17.28,0,0,0,1.2,1.56,2.42,2.42,0,0,0,3.21.3A7.28,7.28,0,0,0,328.62,474.82Zm-3.32-.26c-.27,0-.15,0-.56-.4-.13-.09.1,0-.42-.5,0-.14-.07.33-.3-.71,0-.12-.06-.15.2-.35.07,0,.13-.1.26.08v0a5.7,5.7,0,0,1,.55.54c.07.14.07-.33.4.64C325.39,474.07,325.62,474.23,325.3,474.56Z" transform="translate(-169.25 -263.68)"/><path d="M287.12,475.67a.06.06,0,0,0-.08.09S287.11,475.92,287.12,475.67Z" transform="translate(-169.25 -263.68)"/><path d="M278.52,481.1c.05.15-.09.06.29.42.2.17.05.13,1.14.36.29.07.1-.12.86-.22,0-.17.24.1.61-.2a1.62,1.62,0,0,1,.64-.49c-.1-.26.39,0,0-1,0-.11.13-.34-.15-.66-.07-.18.06.09-.32-.37-.31,0,.12,0-.84-.4a2.34,2.34,0,0,0-1.25.07c-.06.07-.37,0-.57.19s.06-.09-.68.33c-.12.24-.51-.06-.15,1C278.36,480.08,278,480.68,278.52,481.1Z" transform="translate(-169.25 -263.68)"/><path d="M270.76,482.55c-.06.51.16.33.21,1.18.08,0,0-.12.21.31a2.14,2.14,0,0,0,.49.66s.26.32,1.42,0c.19-.19.08-.09.51-.48.13-.22.13.19.43-.74,0-.33-.09-.17-.3-1-.21-.06,0-.48-.4-.67-.07-.19.17-.16-.52-.84-.09,0,.11,0-.57-.27-.11,0-.4-.09-.53.13,0,.06-.25-.1-.56.14s0,0-.38.36c0,.06,0,.25-.12.28s0-.07.1.27C270.76,482,270.76,482.35,270.76,482.55Z" transform="translate(-169.25 -263.68)"/><path d="M328.83,486.55a1.62,1.62,0,0,0,.32-1.07,13.4,13.4,0,0,0-1.32-2.17c-.95-1.21-2.1-2.57-2.91-2.47l-3.43,2.4a5.35,5.35,0,0,0,1,2.09,17.9,17.9,0,0,0,2.16,2.41c1.26,1,1.49.64,2.15.5A5.28,5.28,0,0,0,328.83,486.55Zm-2.69-.8a.59.59,0,0,1-.92-.19c-.07-.07-.1.13-.36-.72,0-.2-.15-.43.15-.88-.05-.15.29,0,.33-.23.08,0,.15-.06.26.11s0,.12.46.31c.16.26.05.26.23,1C326.35,485.42,326.09,485.33,326.14,485.75Z" transform="translate(-169.25 -263.68)"/><path d="M291.18,487.24c.11,0,0,0,.33.66,0,.14-.07,0,.3.38.13,0,.12.46,1.22.1.35-.06-.1.13,1.15-.46.05-.12,0,.24.44-.42a10.61,10.61,0,0,1,.08-1.23c.07-.08.27-.08-.41-.71-.11,0-.09-.17-.48-.47-.23-.21.1-.12-.77-.64a3.83,3.83,0,0,0-1.53.06c-.08,0-.13.17-.47.46,0,.19-.46.12-.08,1.23C290.91,486.46,291.11,486.46,291.18,487.24Z" transform="translate(-169.25 -263.68)"/><path d="M256,488.24c.27,0,.09,0,.7-.24.18,0,.1,0,.5-.41,0-.09.25.05.42-.24,0-.24,0,0,.43-1.12,0-.28-.06-.13-.26-.87-.07-.13-.17-.13-.48-.52a1.17,1.17,0,0,0-.84.13c-.08.09-.33-.16-.71.19-.18.1,0-.1-.41.37-.15.25-.41.13-.47.74-.07.05-.19,0-.29.69-.07.12-.21.42.06,1.2C254.81,488.19,254.8,488.59,256,488.24Z" transform="translate(-169.25 -263.68)"/><path d="M281.51,487a1.79,1.79,0,0,0-.69,1.18,10.74,10.74,0,0,0,.34,2.4,9.61,9.61,0,0,0,.77,1.64,1.93,1.93,0,0,0,1.53,1c.48.32,1.91-.47,3.14-1.36,1.38-1.38.52-2.17,0-3.68a6.33,6.33,0,0,0-1.26-1.77,2.63,2.63,0,0,0-2.79.07A5.82,5.82,0,0,0,281.51,487Z" transform="translate(-169.25 -263.68)"/><path d="M366.41,489.49c.42-.75.27-1.11-.27-2.14a2.69,2.69,0,0,0-3.06-1.08c-.23,0-.38.05-.73.69a1.38,1.38,0,0,0,.51,1.68C363.31,489,365,490.39,366.41,489.49Z" transform="translate(-169.25 -263.68)"/><path d="M245.91,493.42c0,.21,0,.11.19.59.22,0-.12,0,.69.3a3.59,3.59,0,0,1,.59-.3c.18,0-.13-.12.37-.48a2.41,2.41,0,0,1,.49-.63c.15-.06,0-.33.21-.64,0-.36.06-.17.28-1.19-.12-.34.31-.31.06-1.28a4.75,4.75,0,0,0-.55-.27s-.46-.09-.55.13.12-.22-.65.49c-.06.17-.24-.1-.54.54,0,.2,0,0-.3.59-.2.1,0,.27-.29.75C246,492.36,245.52,492.26,245.91,493.42Z" transform="translate(-169.25 -263.68)"/><path d="M264,493.29c.22,0,0,.1.92.3,0-.07.09,0,.5-.23.19-.16-.13.16.57-.6.08-.06.09.08.26-.4.11,0,.15.15.38-.46.06-.12.4-.36-.08-1-.13-.06.12-.12-.53-.42-.05,0-.46-.12-.55.09s-.52-.15-1,.18c-.13,0-.33-.11-.67.12-.14.13-.14.21-.39,1,0,.22-.16.46.15.92C263.59,492.93,263.72,492.93,264,493.29Z" transform="translate(-169.25 -263.68)"/><path d="M327.94,498.18a1.67,1.67,0,0,0,.56-2.05,10.38,10.38,0,0,0-1-1.82,12.24,12.24,0,0,0-1.13-1.67c-1-1-1.19-.92-1.95-.94a11.89,11.89,0,0,0-1.8.39,4.54,4.54,0,0,0-1.83.57c-.39.33-.5.93-.21,1.84a11.69,11.69,0,0,0,1.6,2.95,3.37,3.37,0,0,0,2,1.43,5.59,5.59,0,0,0,2-.17C327.18,498.41,327.37,498.53,327.94,498.18Zm-2.79-2.41c-.16.09-.2.52-1,0,0-.08-.49-.27.16-.64.23.07,0-.24.58,0C325,495.24,325.47,494.91,325.15,495.77Z" transform="translate(-169.25 -263.68)"/><path d="M256.86,495.47c-.16,0,.25-.19-.38-.3-.24.11-.25-.36-1,0-.07.1-.28-.06-.6.17-.13.07,0,0-.5.33,0,.26,0-.1-.44,1.16,0,.19.14.56-.12.81-.08.17.12-.27.2.8.12,0-.12.16.35.5.17.1-.13.1.61.34.22.06-.16.26,1-.13.28,0,.19-.14.62-.45a3.1,3.1,0,0,0,.45-.89,4.28,4.28,0,0,0,.18-1.45C257.31,496.29,257.72,496.15,256.86,495.47Z" transform="translate(-169.25 -263.68)"/><path d="M267.26,504.81c.51.08,1.28-1.22,2-2.05-.28-1.22-.08-2.38-1.72-3.78a3.62,3.62,0,0,0-1.12.42,1.51,1.51,0,0,0-.67.62c-.29.88-.89,2.78-.29,3.74A1.52,1.52,0,0,0,267.26,504.81Z" transform="translate(-169.25 -263.68)"/><path d="M319.65,507.75a6,6,0,0,0,3.82.4,3.08,3.08,0,0,0,1.65-1.31,15.26,15.26,0,0,0-.9-3.58,2.87,2.87,0,0,0-1.14-1.52,5.73,5.73,0,0,0-2.91-.23,6.53,6.53,0,0,0-1.83.56c-.71.4-.64.76-1,1.07a18.89,18.89,0,0,0,.94,2.89A3.69,3.69,0,0,0,319.65,507.75Zm2.48-3.08s0,0,0,.09,0-.09-.26.27c-.19,0-.21.16-.44-.32C321.59,504.58,321.72,504.67,322.13,504.67Z" transform="translate(-169.25 -263.68)"/><path d="M281.52,507.46c.67-1.38.88-2.15.47-3a1.56,1.56,0,0,0-2.4-1A4.8,4.8,0,0,0,278,505c-.65,1.22.08,1.64.23,2.55a6.77,6.77,0,0,0,.78,1.61C279.9,509.92,281,509,281.52,507.46Z" transform="translate(-169.25 -263.68)"/><path d="M374.47,504.81a3.63,3.63,0,0,0-.61-1c-.86-1.05-2.49-.8-3.64-.45a6.43,6.43,0,0,0-1.39,1.05,13.29,13.29,0,0,0-1.11,1.58c-.39.63-.75,1.27-1.14,2a12.87,12.87,0,0,0,1.21,2.6,6.49,6.49,0,0,0,2.32,2.11,1.77,1.77,0,0,0,1.4-.06c.92-1.73,1.8-3.49,2.29-4.62C374.62,506,374.6,505.65,374.47,504.81Zm-3.19,1.95c-.08,0,0-.13-.22.31-.1.17.09,0-.4.53-.1.22,0,.06-.44.52-.06,0-.3.23-.55-.16-.07-.27,0-.4.26-1.12.11-.18-.12.16.43-.44.08-.16-.05.11.32-.33.22,0,0-.07.63-.29,0,0,0,0,.06.07S371.71,506.24,371.28,506.76Z" transform="translate(-169.25 -263.68)"/><path d="M296.47,505.13c-.77-.67-1-.34-1.58-.1s-1.16.78-1.24,1.34a3,3,0,0,0,.16,1.36,5,5,0,0,0,.64,1.33c.63.81,1.42,1.1,1.84.86s1-.66,1-1.05a4.22,4.22,0,0,0-.08-2.43A4.27,4.27,0,0,0,296.47,505.13Z" transform="translate(-169.25 -263.68)"/><path d="M378.43,505.13l-2,.27c-.6,1.59-1.16,3.16-1.72,4.61a14.6,14.6,0,0,0-1.09,3.67,2.71,2.71,0,0,0,.86,2.11,12,12,0,0,0,3.18,2.55,3.21,3.21,0,0,0,1.55.52,1.19,1.19,0,0,0,1-.66,43.77,43.77,0,0,0,.12-8.49A9.83,9.83,0,0,0,378.43,505.13Zm-.73,8.62c0,.29.08,0-.31.75-.12,0-.63.28-.63-1-.1-.1-.12-.58,0-1.43.14-.09,0-.33.21-.69.07-.16-.15-.4.15-.76.14-.11-.23-.18.52-.2.05,0,.06.06.08.06.22.06,0,.47.18,1.3a.88.88,0,0,1-.07.95C377.79,513,378,513.4,377.7,513.75Z" transform="translate(-169.25 -263.68)"/><path d="M242.91,506c-.08,0-.34.24.09.48.09-.18.34-.08.17-.57C243.09,505.91,243,505.81,242.91,506Z" transform="translate(-169.25 -263.68)"/><path d="M317.18,510.34c-1.41-1.36-3.94-2.22-5.93-1.19a16.33,16.33,0,0,0,.71,3,3.29,3.29,0,0,0,1.72,2,7.2,7.2,0,0,0,1.93.68,11.17,11.17,0,0,0,2.05.25c.71,0,.8,0,1.18-.65-.21-.75-.47-1.53-.72-2.21A7.17,7.17,0,0,0,317.18,510.34Zm-1.68,1.76c-.16-.07-.75.38-.82-.57.21-.16-.36-.2.68-.24,0,0,0,0,.08.08S315.94,511.53,315.5,512.1Z" transform="translate(-169.25 -263.68)"/><path d="M259.83,513.19a1.45,1.45,0,0,0-.53-.38,5.59,5.59,0,0,0-2.91.23,6.8,6.8,0,0,0-1.84.64,2.29,2.29,0,0,0-1,.68,6.5,6.5,0,0,0-.77,4.13c0,.87-.25,1.6.57,2.32s2.3.36,3.29-.23a11,11,0,0,0,2.85-1.59,6,6,0,0,0,.76-1.82,4.2,4.2,0,0,0,0-3.1A6.13,6.13,0,0,0,259.83,513.19Zm-2.92,3.94c-.08.06.12.15-.4.68,0,0,.16.47-.74.12-.15,0-.24-.52,0-1-.05-.4.12-.1.77-.65.08.06,0-.36.51-.06C257.31,516.29,257.17,516.38,256.91,517.13Z" transform="translate(-169.25 -263.68)"/><path d="M358.93,520.28c.06.14.2-.25,0,0Z" transform="translate(-169.25 -263.68)"/></svg>