<svg id="f4b17f71-592c-4da7-88ff-cb0ffc19e4b4" data-name="Capa 1" xmlns="http://www.w3.org/2000/svg" viewBox="0 0 769.97 770"><title>skoda</title><path d="M397.94,21h0c-106,0-202.24,43.19-272,113S13,299.92,13,406h0v.1c0,106,43.17,202.19,112.86,272S291.92,791,397.94,791h0c106.05,0,202.27-43.19,272-113S783,512,783,406h0c0-106-43.27-202.19-112.92-271.95C600.21,64.19,504,21,397.94,21ZM773.73,406v.1c0,103.4-42.19,197.37-110.25,265.42A374.3,374.3,0,0,1,397.94,781.75h0c-103.53,0-197.43-42.15-265.48-110.28S22.14,509.45,22.14,406.05V406h0c0-103.45,42.23-197.38,110.32-265.46s162-110.27,265.48-110.27h0c103.53,0,197.52,42.19,265.54,110.27S773.73,302.5,773.73,406Z" transform="translate(-13 -21)"/><path d="M499.41,153.22c8.69,3.67,15.25,5.92,19.82,6.78a35,35,0,0,0,13.08-.18,30.93,30.93,0,0,0,14.39-7.23,39,39,0,0,0,9.88-14.34,40.43,40.43,0,0,0,3.47-17.11,31.68,31.68,0,0,0-4.85-15.37A34.27,34.27,0,0,0,546,96.05c-3.86-2.82-11-6.39-21.39-10.8l-13.89-5.86-28.3,66.7L496.34,152Zm23-51.34,3,1.31c7.21,3,11.66,6.76,13.75,11.14s1.72,9.68-1.11,16.06c-2.66,6.34-6.25,10.34-10.7,11.86-4.67,1.6-10.34.81-17.56-2.19l-3-1.37Z" transform="translate(-13 -21)"/><path d="M363.51,125.73A37.68,37.68,0,0,0,375.94,134a41.26,41.26,0,0,0,14.88,2.8,41.71,41.71,0,0,0,14.82-2.8,39.37,39.37,0,0,0,12.55-8.27,36,36,0,0,0,8.35-12.17,37.41,37.41,0,0,0,2.94-14.74,36.44,36.44,0,0,0-2.94-14.59A35.88,35.88,0,0,0,418.19,72a38,38,0,0,0-12.55-8.22,39.47,39.47,0,0,0-29.7,0,37.36,37.36,0,0,0-23.81,35.09A38.75,38.75,0,0,0,355,113.45,36.89,36.89,0,0,0,363.51,125.73Zm13.75-42a17.92,17.92,0,0,1,27,0c3.62,4,5.43,9.08,5.43,15.13s-1.75,11.29-5.34,15.34a17.6,17.6,0,0,1-13.56,6,17.36,17.36,0,0,1-13.62-6c-3.56-4-5.28-9.11-5.28-15.34S373.73,87.63,377.26,83.69Z" transform="translate(-13 -21)"/><path d="M578.73,196.1l12.62,15.13,12.36-5.45,18.07,21.45-7.61,11.2,12.58,15,39.37-65.71-15.89-19ZM645.5,191c-1,1.29-1.62,2.33-2,3l-13.57,21-12.61-15,22.92-9.78c1.45-.59,2.86-1.33,4.39-2s3-1.56,4.66-2.33C647.68,187.88,646.48,189.6,645.5,191Z" transform="translate(-13 -21)"/><polygon points="125.16 151.52 117.98 133.31 112.98 139.06 114.33 151.14 102.24 151.58 97.21 157.27 116.2 161.86 125.16 151.52"/><path d="M140.25,215c4.05,3.49,8.16,5.11,12.39,4.94s9.46-2.31,15.56-6.53c4.42-2.9,7.52-4.51,9.52-4.79s3.8.39,5.67,2a6.9,6.9,0,0,1,2.39,5.43,10.3,10.3,0,0,1-2.63,6.32,17.69,17.69,0,0,1-7.52,4.82,34.17,34.17,0,0,1-11.33,1.6l5.19,16.37a38.67,38.67,0,0,0,14-3.7,36.75,36.75,0,0,0,10.95-8.67c5.55-6.4,8.13-13,7.92-19.84s-3.19-12.87-9-17.85a24.12,24.12,0,0,0-7.08-4.48,17,17,0,0,0-7.37-1.19c-3.68.13-8.93,2.55-15.83,7.2l-.8.55c-3.16,2.2-5.61,3.35-7.24,3.67a5.88,5.88,0,0,1-4.66-1.38,5.34,5.34,0,0,1-1.81-4.59,9.61,9.61,0,0,1,2.51-5.45,18.13,18.13,0,0,1,5.74-4.4,25.19,25.19,0,0,1,7.76-2.29l-6.72-14a35.69,35.69,0,0,0-10.34,4.42,40.76,40.76,0,0,0-8.59,7.53c-4.85,5.52-7.18,11.54-6.87,17.9S135.1,210.54,140.25,215Z" transform="translate(-13 -21)"/><polygon points="255.94 147.64 241.74 118.43 277.21 137.28 299.3 126.39 256.92 105.86 265.45 62.37 244.83 72.39 238.63 112.05 224.22 82.53 206.72 91.07 238.39 156.17 255.94 147.64"/><path d="M662.9,525.58c-2.45-2.63-4.82-5.16-7.36-7.73-13.84,21.06-16.17,45.56-13.08,71.6-5.27,6.38-10.74,12.76-16.11,19.13-1.16-7.29-2.45-14.51-3.77-21.79,1.53-1.71,3-3.52,4.6-5.21-2-15.08-14.48-15.08-16.54-4.53-1.28,3-1.62,6.38,4.09,12.4,1,8.79,2,17.46,3,26.17-16.57,13.9-32.86,30.38-49.49,44.19-.25-1.14-.89-5-1.11-6.37,7.77-13,15.16-26.25,30-34.4,4.61-10.34,7.55-19.54,4.55-28.46-20.23,14.07-36.77,30.24-48.06,49.47-1.62,8.8-3.19,17.73-4.82,26.55-6.19,4-12.48,8-18.71,12,.09-5.31,3.19-10.76,3.34-16.11,14.88-18.9-7.05-26.5-12.36-9.41,1.9,11.17,1.9,20.21-2.27,29.29-21.85,8.56-41.4,17.2-63.28,25.87-.21-1.92,2.34-7.11,2.24-9,12.43-12.06,23.57-16.88,43.05-19.89,8.32-6.84,11.66-14,10.13-22.84-17.83,3.14-35.72,8.13-50.6,18.4-14,8.63-23.07,20.2-25,34.79-8.53.75-17,1.52-25.56,2.29,5.4-5.92,10.74-11.82,16.11-17.66,2.89-1.38,5.74-2.81,8.6-4.1,3.68-16.38-4-16.14-13.48-13.53A15.06,15.06,0,0,0,417.3,688c-5.95,6.46-12,13-20.28,17-8.22-9-14.24-15.45-20.25-21.91a12.16,12.16,0,0,0-3.68-11.3c-9.46-2.62-17.22-2.94-13.6,13.45,3.16,3,6,4.83,8.68,4.12,5.41,5.89,10.71,11.75,16.08,17.72l-25.43-2.33c-2-14.53-11.2-26.17-25.16-34.84-14.89-10.27-32.62-15.13-50.54-18.3-1.54,8.77,1.68,15.94,10.12,22.84,19.46,2.95,30.6,7.84,43.11,19.78-.18,1.9,2.28,7.21,2.18,9-21.87-8.62-41.42-17.29-63.3-25.88-4.05-9.09-4.05-18.12-2.27-29.25-5.4-17.09-27.16-9.52-12.33,9.45.12,5.36,3.25,10.71,3.34,16-6.23-4-12.52-8-18.75-11.95-1.53-8.88-3.25-17.72-4.88-26.59-11.2-19.22-27.73-35.38-48-49.49-2.91,8.93-.06,18.13,4.54,28.52,14.79,8.07,22.22,21.29,30,34.43-.27,1.22-.92,5.11-1.16,6.38-16.6-13.82-32.9-30.32-49.47-44.23,1-8.7,2-17.51,3-26.27,5.74-5.92,5.43-9.34,4.21-12.32-2.09-10.54-14.58-10.54-16.54,4.54,1.47,1.72,3,3.44,4.51,5.25-1.26,7.2-2.55,14.44-3.75,21.66-5.46-6.29-10.71-12.67-16.17-19.13,3.07-26,.8-50.46-13.13-71.51-2.36,2.59-4.85,5.14-7.3,7.72-5-1.89-6.6-7.17-4.73-16-7.46-6.66-12.18-4.25-13.75,7.08,4.42,4.12,8,8.79,6.39,16.86-4.58-2.46-9.09-4.87-13.51-7.44-.18,5.6-.24,11.27-.36,16.86-2.33-1.26-4.7-2.89-7.89-7.06-2-4-4-8.1-6.05-12.06C80.78,516.5,76.76,520.42,79.31,531c3.1,1.55,6.23,3.14,9.33,4.8,4.23,2.26,7,5,8.31,8.19l-15,3.78c15.8,20.28,33.75,37.54,59.53,43.83,5,4.76,13.43,12.87,18.38,17.68-3.5,1.18-11.08-.19-14.52,1.05-2.48-2.1-4.08-5-6.47-7.08-10.53-.77-18.72.33-10,14.59,3.92,2.51,8.95,3,14.88,1.53,7.61-1,15-2,22.58-3,17.06,14.56,36.76,30.35,54,44.94-15.68-2.74-34.21-9-48.75-24.7-9.33-7.39-19.92-9.69-32.25-6a177.48,177.48,0,0,0,39.33,37.88c20.56,11.25,40.26,11.49,60.73,6.61,5.52,2.46,11.17,4.88,16.81,7.2-6.44,2.27-12.91,4.5-19.48,6.77-4.45-2.52-9-2.06-13.56,1.47-3.68,7.22-2.83,11.92,2.39,14.22,4.17,3,8.9,1.55,14.11-4.4,9.36-3.33,18.6-6.55,27.75-9.82l23.29,6.73c14.82,4.62,29.7,9.29,44.52,13.86-10.22,4.43-23.23,4.34-40.41-2.21-15.78-9-28.72-7-40.48,0Q275.33,730,312.7,734.45c20.37-3.19,34.7-10.68,47.93-18.83,5.64.19,11.29.25,16.9.43-16.41,12.09-29,26.07-28.5,47.23,12-19.69,26.32-33.3,48-38.41,21.75,10,36,23.65,48,43.27.58-21.11-12.09-35.09-28.45-47.22,5.62-.19,11.21-.25,16.85-.29,13.32,8.1,27.52,15.49,47.9,18.73,25-3.07,44.49-11.49,58.48-25.53-11.75-7-24.66-9-40.47,0-17.21,6.63-30.25,6.63-40.47,2.22,14.88-4.59,29.73-9.17,44.55-13.87,7.77-2.16,15.44-4.49,23.32-6.67,9.24,3.21,18.38,6.43,27.62,9.71,5.31,6,10.06,7.47,14.33,4.43,5.25-2.28,5.95-6.95,2.21-14.14-4.6-3.61-9-4-13.47-1.55-6.51-2.3-13-4.49-19.49-6.78,5.65-2.36,11.2-4.76,16.85-7.12,20.5,4.82,40.22,4.57,60.66-6.7a174.9,174.9,0,0,0,39.34-37.83c-12.24-3.69-22.86-1.34-32.22,6-14.54,15.78-33.11,22-48.63,24.78,17.09-14.66,36.85-30.37,53.85-45,7.55,1,15.06,1.89,22.58,2.93q9,2.26,14.88-1.45c8.63-14.3.43-15.39-10-14.7-2.46,2.18-4,5-6.38,7.18-3.44-1.21-11.11.11-14.55-1.12,4.91-4.74,13.23-12.89,18.32-17.63,25.75-6.3,43.76-23.47,59.53-43.85-4.91-1.26-10-2.48-15-3.7,1.26-3.28,4.06-6,8.29-8.26,3-1.55,6.32-3.24,9.42-4.84,2.42-10.54-1.66-14.51-12-12-2.05,4-4,8-6,12a25,25,0,0,1-7.89,7.14c-.06-5.62-.21-11.3-.27-16.91-4.52,2.45-9,5-13.51,7.44-1.71-8,2-12.63,6.29-16.85-1.56-11.33-6.19-13.7-13.81-7.07C669.56,518.41,668,523.78,662.9,525.58Z" transform="translate(-13 -21)"/><path d="M355.26,236c21.72,16.07,33.66,26.33,44.64,51.28l-9.57,5.52c-18-23.72-39.34-48.18-63.95-62.12-26.45-14-87.91,55.42-80.3,58.61,24.61,11.56,56.49,26.49,74.66,39.56l-7.86,12.52c-25-14.54-65-34.44-85.06-33.21-10.34,1.53-32.55,73.66-21.35,76.48,23.26,1.93,66.64,25.34,86.68,35.49,14,11.12,56.8,83.18,39.52,93.35-5.58,3.36-22.73-.49-40.26-9.16-80.2-32.55-86.25,3.73-71.21,14.86,12.09,7.51,7.94,20.89,8.53,24.22-.68,20.24,20.92,36,62.56,7.72,85.24,1,133.79,2.94,219.24,4.16,7.83,25,61.77-.34,79.17-21-7.27-17.63-69.87-61.53-77.94-16.79l-22.49-4.26c48.42-103.15,33.78-297.71-79.57-316.78C393.43,193.65,323,212.18,355.26,236Zm69,202.2c9.36-9.25,24.67-9,34.21.37,9.48,9.57,9.67,24.94.3,34.27s-24.6,9.12-34.15-.46S415,447.5,424.24,438.22Z" transform="translate(-13 -21)"/><path d="M400.24,153.08h-.12c-70.24,0-133.91,28.75-180.12,74.92s-74.93,110-74.93,180.18h0A254.82,254.82,0,0,0,219.88,588.5c46.33,46.18,110,74.82,180.36,74.82h0a255.54,255.54,0,0,0,255-255.14h0a255.71,255.71,0,0,0-255-255.1Zm245.82,255.1h0A246.32,246.32,0,0,1,400.24,654.09h0A246.3,246.3,0,0,1,154.3,408.18h0A245,245,0,0,1,226.5,234.5c44.59-44.47,105.93-72.07,173.62-72.07h.12A246.3,246.3,0,0,1,646.06,408.18Z" transform="translate(-13 -21)"/></svg>