<svg id="b3365845-ea1c-490d-9cc6-50e5aaeee16e" data-name="Capa 1" xmlns="http://www.w3.org/2000/svg" viewBox="0 0 237.28 144.6"><defs><style>.b21b95e2-d43a-4889-b72f-1e7478549c0b{fill-rule:evenodd;}</style></defs><path class="b21b95e2-d43a-4889-b72f-1e7478549c0b" d="M302.6,123.41c-6.81-25.12-39.32-37.78-39.32-37.78-8.67-3.18-5.2,1.81-5.2,1.81s37.4,17.22,37.4,41.19c0,29.68-40.76,38.56-40.76,38.56,37.08-11.8,37.18-37,37.18-37-.65-25.16-33.82-42.78-33.82-42.78-12.79-7.26-19.73-9.07-19.73-9.07-16.7-5.59-11.28.91-11.28.91s50.36,15.87,50.36,50.87c0,35.76-70.2,47.24-70.2,47.24,66-12.25,66-46.94,66-46.94,0-31.26-46.19-51.17-46.19-51.17-6.93-3.78-18.7-6.82-18.7-6.82-10.9-2.33-4.71,2.44-4.71,2.44,44.23,25.84,44.23,54.42,44.23,54.42,0,31.75-29.11,39.68-29.11,39.68-8.46,3.29-24.82,5.92-24.82,5.92-2.65.78-4.51,2.6-4.51,4.74a3.39,3.39,0,0,0,.84,2.39,84.12,84.12,0,0,0,7,5.71,8.93,8.93,0,0,1,3,6.49c0,6-6.85,10.79-15.37,10.91h-.62C175.82,205,169,200.21,169,194.25a8.93,8.93,0,0,1,3-6.49,84.12,84.12,0,0,0,7-5.71,3.39,3.39,0,0,0,.84-2.39c0-2.14-1.85-4-4.5-4.74,0,0-16.37-2.63-24.83-5.92,0,0-29.11-7.93-29.11-39.68,0,0,0-28.58,44.23-54.42,0,0,6.19-4.77-4.71-2.44,0,0-11.76,3-18.7,6.82,0,0-46.18,19.91-46.18,51.17,0,0,0,34.69,66,46.94,0,0-70.2-11.48-70.2-47.24,0-35,50.36-50.87,50.36-50.87s5.42-6.5-11.28-.91c0,0-6.93,1.81-19.73,9.07,0,0-33.17,17.62-33.82,42.78,0,0,.11,25.17,37.18,37,0,0-40.76-8.88-40.76-38.56,0-24,37.4-41.19,37.4-41.19s3.47-5-5.2-1.81c0,0-32.51,12.66-39.31,37.78,0,0-2.06,9.47,1,16.38,3.66,8.46,13.2,22.48,37.49,30.34,0,0,11.06,4.54,55.29,13.38l2.61.6s1.9.83.54,2.33l-6.09,5.24s-8.94,6.88,3.81,12.66a36.58,36.58,0,0,1,13.27,8.53,15.25,15.25,0,0,0,9.51,3.52v0h1a15.21,15.21,0,0,0,9.63-3.54A36.67,36.67,0,0,1,208,204.34c12.76-5.78,3.82-12.66,3.82-12.66l-6.09-5.24c-1.36-1.5.54-2.33.54-2.33l2.61-.6c44.23-8.84,55.29-13.38,55.29-13.38,24.29-7.86,33.83-21.88,37.49-30.34,3-6.91,1-16.38,1-16.38Z" transform="translate(-66 -71.82)"/></svg>