<svg id="ae1b90bf-6fce-4fd1-89ef-779e8452795d" data-name="Capa 1" xmlns="http://www.w3.org/2000/svg" viewBox="0 0 450 336.1"><title>subaru</title><path d="M391.47,539.93a14.51,14.51,0,0,0,8-12.9c0-3.31-1.5-14.43-16.75-14.43h-51.3v54.92c.11,0,31.71.25,51.3,0,17-.12,17.79-10.57,17.79-15.47C400.47,543.3,391.6,539.93,391.47,539.93Zm-43.61-16.21c.42-.27,19.36,0,30.19,0,3.21,0,6.18,2,6.18,5.63,0,4.14-2.58,5.93-5.67,5.93-11.89,0-30.28.25-30.7,0V523.72Zm30.94,32.71c-13.14,0-30.52.26-30.94,0V544.58c.42-.28,20.64-.15,30.71-.28a6.23,6.23,0,0,1,6.7,6.19C385.27,554.63,382,556.43,378.8,556.43Z" transform="translate(-179 -231.53)"/><path d="M544.12,546.37c.41-.11,8.26-5.38,8.26-14.18,0-10.31-4.12-19.59-19.34-19.59H484v54.92h16.52v-17c.11,0,19.84.15,29.66,0,4.26-.11,7.75,4.4,7.75,8.26v8.77h14.71V559C552.67,551,544.25,546.37,544.12,546.37Zm-13.39-5.94c-11.87,0-29.94.15-30.18,0V523.72c.39-.27,19.37,0,30.18,0,4.13,0,6.71,4.85,6.71,8.72S534.72,540.43,530.73,540.43Z" transform="translate(-179 -231.53)"/><path d="M429.64,512.58,400,567.52h16.51l6.18-11.09h34.55l6,11.09h16.24l-29.66-54.94Zm-1,32,10.82-19.88,11.35,19.88Z" transform="translate(-179 -231.53)"/><path d="M612.46,512.58c.27.41,0,24-.23,39.21,0,2.09-.78,4.64-3.87,4.64H579.73c-3.37,0-4.62-1.95-4.62-4.38,0-17-.68-39.21-.27-39.75H558.58c-.25.41-.25,26.59,0,43.87.12,8.48,9,11.35,19.09,11.35,14.2,0,21.92.25,37.68,0,8.24-.14,13.8-4.49,13.65-11.35-.13-15.18-.26-43.59-.26-43.59Z" transform="translate(-179 -231.53)"/><path d="M237.76,533.49c-13.16-.65-29.17-.5-39-1-5.42-.25-5.42-10.56.52-10.56h30.19c4.11,0,4.11,4.5,4.11,4.65h14.95c-.25-.65,1.56-16-12.9-16H192.09c-7.2,0-12.38,4.37-12.38,9.75v11.61c0,7.52,6.71,11.11,16,11.39,13.67.33,21.93.75,32.77,1.28,9,.5,7.74,11.7,0,11.85-10.31.26-16.75,0-28.09,0-6.45,0-6.19-6.46-6.19-6.46h-15a16.08,16.08,0,0,0,0,5.18,14.35,14.35,0,0,0,14.17,12.37h43.09c6.55,0,13.25-3.61,13.14-11.35,0,0-.26-11.34-.26-11.59C249.38,537.89,243.94,533.88,237.76,533.49Z" transform="translate(-179 -231.53)"/><path d="M308.66,512.58c.27.41.27,24,0,39.21,0,2.09-.79,4.64-3.85,4.64H275.92c-3.09,0-4.66-1.95-4.66-4.38,0-17-.24-39.31,0-39.75h-16.5c-.26.41.11,26.59.26,43.87.14,8.39,8.79,11.35,18.83,11.35,14.42,0,22.2.25,37.67,0,8.24-.14,14-4.49,13.92-11.35-.15-15.18-.26-43.59-.26-43.59Z" transform="translate(-179 -231.53)"/><path d="M250.15,270.81c-42,24.93-68.53,58.78-68.53,93.18s26.42,67.83,68.24,92.44c40.07,23.48,94.49,39,153.22,39,59.32,0,113.88-15.29,154.08-38.83,42.11-24.69,68.61-58.17,68.61-92.57s-26.63-68.3-68.82-93.23c-40.18-23.64-94.68-39.23-153.77-39.23C344.4,231.53,290.17,247.19,250.15,270.81ZM619.29,364c0,32-25.27,63.47-65.34,86.93-39.3,22.91-92.75,38-150.77,38-57.73,0-110.86-15.08-150-38-40-23.51-65.1-55-65.1-86.93s25.32-63.84,65.31-87.56c39.1-23.15,92.18-38.5,149.75-38.5,57.88,0,111.26,15.19,150.46,38.44C593.89,300.09,619.29,332,619.29,364Z" transform="translate(-179 -231.53)"/><polygon points="142.68 34.74 122.08 86.85 30.87 106.45 122.08 125.87 143.76 181.34 165.48 127.05 264.33 106.45 164.38 84.75 142.68 34.74"/><polygon points="255.64 135.74 216.47 144.34 255.64 153.16 265.35 176.94 274.11 154.26 316.42 144.34 274.11 135.74 264.33 114.06 255.64 135.74"/><polygon points="368.52 114.06 358.79 135.74 320.74 144.34 358.79 153.16 368.52 176.94 377.26 154.26 419.59 144.34 377.26 135.74 368.52 114.06"/><polygon points="341.47 113.04 350.13 89 392.45 80.34 350.13 71.58 340.32 49.86 331.61 71.58 292.59 80.34 331.61 89 341.47 113.04"/><polygon points="301.25 166.09 291.43 187.85 253.49 196.51 291.43 205.19 301.25 227.97 310.95 205.19 353.41 196.51 309.91 186.72 301.25 166.09"/><polygon points="188.29 172.6 179.63 195.51 140.53 204.17 179.63 211.75 189.44 235.61 198.02 212.78 240.4 204.17 198.02 194.36 188.29 172.6"/></svg>