<svg id="b17f48fc-618b-4881-8300-a5b702708154" data-name="Capa 1" xmlns="http://www.w3.org/2000/svg" viewBox="0 0 331.21 289.81"><title>tata</title><polygon points="23.64 289.81 56.87 289.81 56.87 231.54 79.74 231.54 79.74 207.3 0 207.3 0 231.54 23.64 231.54 23.64 289.81"/><polygon points="102.73 207.3 71.43 289.81 103.34 289.81 120.13 240.66 137.12 289.81 169.43 289.81 137.36 207.3 102.73 207.3"/><polygon points="218.67 289.81 218.67 231.54 241.53 231.54 241.53 207.3 161.81 207.3 161.81 231.54 185.45 231.54 185.45 289.81 218.67 289.81"/><polygon points="264.52 207.3 233.23 289.81 265.14 289.81 281.93 240.66 298.91 289.81 331.21 289.81 299.18 207.3 264.52 207.3"/><path d="M243.38,193.06c2,2.53,1.87,11.63,1.82,15.69L244.12,314c2.13.1,4.27.12,6.41.12s4.32,0,6.46-.12l-1.11-105.26c0-4.06-.19-13.16,1.82-15.69,1.67-2.12,4.18-3.29,7.82-3.22,37.85.84,78.59,8.39,102.42,14.17a73.48,73.48,0,0,0-11.79-16.7c-10.95-11.83-26.42-21.68-44.73-28.51s-39.5-10.44-60.89-10.44-42.44,3.6-60.88,10.44-33.77,16.68-44.74,28.51A74.12,74.12,0,0,0,133.12,204c23.85-5.75,64.59-13.33,102.45-14.17C239.21,189.77,241.73,190.94,243.38,193.06Z" transform="translate(-84.82 -148.36)"/><path d="M273.58,226.79c.11.82.3,1.88.49,3.08,6.72,39.78,15.07,74,16.51,79.8,48.84-11.15,84-42.06,84-78.43A58.53,58.53,0,0,0,373,217.68c-34.87-7.92-58.16-9.33-81.15-10.57C271.85,206,271.58,213.09,273.58,226.79Z" transform="translate(-84.82 -148.36)"/><path d="M189.65,303.69a157.6,157.6,0,0,0,20.84,6.06c1.36-5.44,9.91-40.41,16.69-80.9.12-.77.24-1.47.34-2.06,2-13.7,1.73-20.8-18.29-19.71-23,1.27-46.29,2.68-81.19,10.6a59.09,59.09,0,0,0-1.62,13.56c0,15.71,6.41,30.89,18.49,44C155.88,287.05,171.35,296.86,189.65,303.69Z" transform="translate(-84.82 -148.36)"/></svg>