<svg id="b6061e8e-6d36-499c-a1da-f7d34c54f0d0" data-name="Capa 1" xmlns="http://www.w3.org/2000/svg" viewBox="0 0 330.78 206.96"><title>toyota</title><path d="M320.21,418.17c91.2,0,165.4-46.44,165.4-103.49s-74.2-103.47-165.4-103.47-165.38,46.4-165.38,103.47S229,418.17,320.21,418.17ZM294.44,313h0c0,30,7.62,54.19,18.12,62.19C302.06,367.17,294.44,343,294.44,313Zm1.63-66.13c.19-.37.38-.72.57-1.07a.33.33,0,0,1,0-.06C296.47,246.1,296.26,246.46,296.07,246.85Zm1,43h0l-1.2.86h0Zm23.15,77.19c-9.33,0-19.3-21.13-19.67-52.75,6.46.48,13,.78,19.67.78s13.22-.3,19.67-.78C339.51,346,329.54,367.08,320.21,367.08Zm0-81.12c-5.77,0-11.5-.22-17.11-.58,3.45-16.62,10-27.24,17.11-27.24s13.67,10.62,17.12,27.24C331.71,285.74,326,286,320.21,286Zm23.17,3.91.49.39-.49-.37Zm-15.5,85.3C338.38,367.17,346,343,346,313h0C346,343,338.38,367.17,327.88,375.17Zm18-69.64v0c.1,2.44.16,4.91.16,7.45C346,310.42,345.93,308,345.84,305.53Zm85-43.3c0,.15,0,.3-.05.43,0-.28.05-.58.06-.89v.35S430.8,262.2,430.8,262.23Zm-.26,2.23a.18.18,0,0,1,0,.06,2,2,0,0,1-.07.35h0C430.49,264.72,430.52,264.58,430.54,264.46Zm1,8.16c14.29,13,21.9,28,21.9,43.56,0,38.7-46.75,71.62-109.79,78.35,13.27-15.79,21.32-45.07,21.32-79,0,0-.05-2.51-.08-4.49C400.05,304.35,424.89,289.93,431.56,272.62ZM358.12,304l0,0h0v0c.25,0,.5-.07.75-.09C358.62,303.9,358.38,303.94,358.12,304Zm-1.34-14.57h0l.78-.95ZM371,286.88c2.79-.61,5.49-1.26,8.07-1.95Q375.22,286,371,286.88Zm49.8-6.7s0,.05-.05.07c-.46.41-.94.83-1.43,1.22C419.87,281.05,420.35,280.6,420.82,280.18Zm-18.15-22.33a7.4,7.4,0,0,1,.46,2.56,8.33,8.33,0,0,1-1.21,4.15c-4.39,7.45-19.23,14-39.85,17.83-3.63-20.05-10.58-36.56-19.63-46.79C374.16,238.5,399,247.53,402.67,257.85ZM344.3,246.74c-.12-.26-.27-.52-.41-.77h0A7,7,0,0,1,344.3,246.74Zm.28,44h0c-1.74-13-5-23.6-9.23-31C339.58,267.13,342.84,277.78,344.58,290.75Zm-43.92-21c-.77,2.21-1.48,4.58-2.13,7.09C299.18,274.29,299.89,271.92,300.66,269.71Zm-62.9-11.86c3.67-10.33,28.51-19.35,60.25-22.25-9.06,10.23-16,26.74-19.65,46.79-20.64-3.81-35.46-10.38-39.83-17.83a8.06,8.06,0,0,1-1.23-4.15A7.45,7.45,0,0,1,237.76,257.85ZM280,306.76h0L282.3,304v0l-.84-.12.86.12v0h0ZM261.7,285c2.36.64,4.85,1.24,7.4,1.79C266.55,286.26,264.06,285.66,261.7,285ZM210,264.87h0a2.14,2.14,0,0,1-.07-.38v0A2.79,2.79,0,0,0,210,264.87Zm-.3-2.23c0-.14,0-.26,0-.41s0-.07,0-.11v-.32C209.63,262.08,209.66,262.35,209.67,262.64Zm-.79,10c6.64,17.31,31.5,31.73,66.66,38.45-.06,2-.09,4.49-.09,4.49,0,33.9,8,63.18,21.3,79C233.73,387.8,187,354.87,187,316.18,187,300.58,194.57,285.62,208.88,272.62Zm-34,40.29c0,.51-.06,1-.06,1.52,0,47.13,57.22,85.91,130.55,90.58-73.34-4.67-130.56-43.43-130.56-90.58C174.79,313.92,174.85,313.42,174.86,312.91Z" transform="translate(-154.83 -211.21)"/></svg>