<svg id="e9a0c7d9-b69f-44f6-aae7-4cc0e0a84526" data-name="Capa 1" xmlns="http://www.w3.org/2000/svg" viewBox="0 0 567 154.65"><title>triumph</title><path d="M657.11,350.1a25.81,25.81,0,0,1-.3-4.41v-70.5h-26l1.06,2.08a21.47,21.47,0,0,1,.81,2.06c.24.73.45,1.43.64,2.16a28.38,28.38,0,0,1,.66,5.36l0,11.06a52.65,52.65,0,0,0-6.11,1.76c-3.47,1.16-9,3.07-13.81,5.12a78.15,78.15,0,0,0-12.45,6.61V275.19H575.38a10.68,10.68,0,0,1,.93,1.49c.24.52.5,1.12.74,1.65s.43,1.19.61,1.8.33,1.19.45,1.8.24,1.24.32,1.86a13.24,13.24,0,0,1,.13,1.83l0,42.3c-3.56,2.84-7.07,5.55-10.66,8.24s-7.2,5.44-10.91,7.9c-7.78,5.58-15.87,10.62-23.62,15.24a238.42,238.42,0,0,1-22.32,11.9,208.55,208.55,0,0,1-21.67,8.86c-7.55,2.69-15.69,5.07-24.06,7.23s-16.93,3.85-25.55,5.19-17.28,2.4-25.94,3-17.33.82-25.91.82-16.93-.18-25.33-.84-16.76-1.78-24.64-3.14a225.57,225.57,0,0,1-22.23-4.81,188.07,188.07,0,0,1-19.7-6.71c-6.34-2.56-12.55-5.43-18.09-8.35a155,155,0,0,1-15.16-9.1A121.74,121.74,0,0,1,249.68,353a131.39,131.39,0,0,1-11.93-12.42,144.2,144.2,0,0,1-10.51-13.92,23.74,23.74,0,0,0,3.69-2c1.53-1.06,3.51-2.42,5.21-3.84a30.71,30.71,0,0,0,4.22-4.26,28.52,28.52,0,0,0,2.75-4.49,25.53,25.53,0,0,0,1.7-4.94,29,29,0,0,0,.67-5.19,32.32,32.32,0,0,0-.3-5.27,25.48,25.48,0,0,0-1.36-5.07,24.1,24.1,0,0,0-2.4-4.72,22.36,22.36,0,0,0-3.46-4.2,25.28,25.28,0,0,0-4.45-3.54,27.58,27.58,0,0,0-5.08-2.67,25.58,25.58,0,0,0-5.51-1.52,36.53,36.53,0,0,0-5.36-.35c-1.44,0-2.48,0-5.43.16s-8,.27-12.95.4-10,.1-14.93.1l-1.71-21.1c-14.56.65-29.17,1.32-43.76,1.32s-29.12-.67-43.7-1.32L93,279.94c2-.49,4.09-1,6.13-1.44s4.13-.88,6.92-1.33,6.36-1,9.92-1.39,7.16-.57,10.72-.59c0,9.45-.18,18.93-.42,28.44s-.66,18.94-.94,25-.46,8.5-.73,11-.51,5-.83,7.23a57.21,57.21,0,0,1-1.25,6.06,40.73,40.73,0,0,1-1.85,5.49h36.27c-.6-1.47-1.09-3-1.57-4.47a39.12,39.12,0,0,1-1.2-5.3c-.4-2.21-.8-5.07-1.11-7.95s-.45-5.76-.77-11.95-.69-15.66-1-25.11-.39-19-.42-28.44c4.94.21,9.84.45,14.74,1.07s9.68,1.6,14.51,2.65a26.39,26.39,0,0,1,1.12,4.41,23.6,23.6,0,0,1,.4,4.59v57.78a28.64,28.64,0,0,1-.32,4.37,33.66,33.66,0,0,1-1.11,4.34,28.19,28.19,0,0,1-1.79,4h28.13a22.5,22.5,0,0,1-1.67-3.73,20.59,20.59,0,0,1-1.09-3.9,22.83,22.83,0,0,1-.42-4.07l0-13.54c.59-.08,1.1-.15,1.67-.19s1.14-.17,1.67-.24a217.67,217.67,0,0,0,21.2,21.7,191,191,0,0,0,23.63,17.78A211.47,211.47,0,0,0,279.29,387a233.79,233.79,0,0,0,31.11,11.4,253.14,253.14,0,0,0,34.41,7.32,305.1,305.1,0,0,0,35.87,3c12,.24,24.08-.12,35.52-1A327.7,327.7,0,0,0,449,403.27a312,312,0,0,0,31.09-7.35,296.52,296.52,0,0,0,30.39-10.71c10.44-4.3,21.63-9.49,33.21-15.46S567,357.18,578.6,350.13a5.3,5.3,0,0,0,.11,1.47,14.25,14.25,0,0,0,.35,2.17,7.83,7.83,0,0,0,.64,1.6,11.81,11.81,0,0,0,1,1.32,7.93,7.93,0,0,0,1.29,1,8.67,8.67,0,0,0,1.54.61,10.45,10.45,0,0,0,1.87.11h19.27a16.91,16.91,0,0,1-1.31-2.17c-.37-.78-.7-1.56-1-2.33s-.42-1.65-.57-2.5a15.18,15.18,0,0,1-.17-2.48V331.67A140.29,140.29,0,0,1,617,321.38a137.28,137.28,0,0,1,16.94-7.6v36.49a7.16,7.16,0,0,0,.1,1.35,17,17,0,0,0,.33,2,5.38,5.38,0,0,0,.58,1.59,4.43,4.43,0,0,0,.77,1.25,6,6,0,0,0,1.18,1,5.69,5.69,0,0,0,1.44.69,10,10,0,0,0,2.33.27H660a41.55,41.55,0,0,1-1.8-4A28.83,28.83,0,0,1,657.11,350.1Zm-432-47.69c-.12.63-.21,1.24-.38,1.85a16.34,16.34,0,0,1-.53,1.76,13.68,13.68,0,0,1-.82,1.73,12.44,12.44,0,0,1-1,1.58c-.4.53-.82,1.1-1.27,1.59a12.8,12.8,0,0,1-1.49,1.45,18.41,18.41,0,0,1-1.86,1.41,17.76,17.76,0,0,1-2.1,1.39,20.4,20.4,0,0,1-2.29,1.15,24.45,24.45,0,0,1-2.7,1.08c-1,.3-2.17.66-3.35,1s-2.57.61-3.89.85V290c.57-.09,1.09-.24,1.66-.33s1-.21,1.6-.3c.75-.1,1.51-.16,2.28-.24s1.52,0,2.3,0l2.22.25a13.41,13.41,0,0,1,2,.38c.62.16,1.21.32,1.82.53s1.13.43,1.63.68,1,.54,1.44.78.81.57,1.21.82.66.62,1,.91a6.82,6.82,0,0,1,.82,1,5.24,5.24,0,0,1,.66,1.06,8,8,0,0,1,.54,1.05c.15.42.25.81.36,1.24a7.16,7.16,0,0,1,.21,1.27,12.75,12.75,0,0,1,0,1.44C225.17,301.09,225.12,301.77,225.08,302.41Z" transform="translate(-93 -254.11)"/><path d="M486.21,284.39a28.34,28.34,0,0,1,.57-3.14c.28-1.06.61-2,1-3s.93-2,1.45-3H462.28a2.63,2.63,0,0,0-.88.19,6.45,6.45,0,0,0-.87.32,10.26,10.26,0,0,0-.92.49c-.29.21-.61.42-.92.66s-.61.61-.92.87a12,12,0,0,0-.91,1.12,9.73,9.73,0,0,0-.85,1.2c-.28.49-.61,1.05-.88,1.58s-.48,1.13-.75,1.68l-13.13,32.73-14.59-32.61c-.25-.55-.52-1.09-.78-1.66s-.68-1.1-1-1.59a12.31,12.31,0,0,0-1.05-1.41,8.63,8.63,0,0,0-1-1.06,7.58,7.58,0,0,0-1-.88,5.94,5.94,0,0,0-.94-.63c-.3-.21-.57-.32-.85-.49s-.66-.21-.95-.32a3,3,0,0,0-1-.19H389.81a22.19,22.19,0,0,1,1.19,2.44,25.9,25.9,0,0,1,1.06,3,28.08,28.08,0,0,1,.71,3.5,33.47,33.47,0,0,1,.23,3.77v57.78a25.13,25.13,0,0,1-.21,3.52,24.43,24.43,0,0,1-.54,3.14,17.09,17.09,0,0,1-1,3,20.56,20.56,0,0,1-1.41,3h24a24.37,24.37,0,0,1-1.2-2.4,21.73,21.73,0,0,1-1.05-3,27.18,27.18,0,0,1-.73-3.46c-.12-1.27-.23-2.54-.23-3.84V301.51l15.14,28.59a19.72,19.72,0,0,0,1.74,2.46,38,38,0,0,0,2.91,3.29,28.71,28.71,0,0,0,3.11,2.61,15.13,15.13,0,0,0,2.85,1.5,11.12,11.12,0,0,0,3.2.78,15.45,15.45,0,0,0,3.62.08,35,35,0,0,0,3.59-.56,17.53,17.53,0,0,0,2.31-.72c.62-2.45,1.41-4.9,2.44-7.87s2.35-6.42,3.72-9.84,2.9-6.82,4.21-9.68,2.51-5.21,3.72-7.57,2.38-4.7,3.65-6.95v48.06c0,1.21-.1,2.4-.2,3.52a30.13,30.13,0,0,1-.58,3.14,15.64,15.64,0,0,1-1,3,21.53,21.53,0,0,1-1.39,3h25.61a10.56,10.56,0,0,1-.84-1.65,25.46,25.46,0,0,1-1.34-3.59,19,19,0,0,1-.78-3.64,27.22,27.22,0,0,1-.25-3.84V287.91A29.43,29.43,0,0,1,486.21,284.39Z" transform="translate(-93 -254.11)"/><path d="M301.63,338.41a28.71,28.71,0,0,0,1.16,5.87,19.81,19.81,0,0,0,2.29,5,25.92,25.92,0,0,0,3.39,4.25,25.11,25.11,0,0,0,4.48,3.34,28.47,28.47,0,0,0,5.71,2.47,38.07,38.07,0,0,0,6.91,1.47,41.19,41.19,0,0,0,7.67.45,29.35,29.35,0,0,0,6.45-1,37.84,37.84,0,0,0,5.8-2.13,38.48,38.48,0,0,0,4.23-2.38c1.3-.82,2.61-1.67,3.86-2.58a4,4,0,0,0,.27,1c.15.32.25.62.39.95s.31.55.53.83a3.39,3.39,0,0,0,.49.64,6.57,6.57,0,0,1,.59.59c.25.17.47.31.72.45s.49.23.73.35.54.16.82.26a4,4,0,0,0,.82.11h19.67a12,12,0,0,1-1.19-2.29,23.43,23.43,0,0,1-1.06-3.11,23.08,23.08,0,0,1-.7-3.52,24.93,24.93,0,0,1-.25-3.8v-70.5h-26c.42.77.79,1.56,1.19,2.43a20.63,20.63,0,0,1,1.06,3,24.77,24.77,0,0,1,.7,3.49,31.38,31.38,0,0,1,.24,3.8v36.95c0,1.06,0,2.1-.09,3.14a30.44,30.44,0,0,1-.3,3.25,32.12,32.12,0,0,1-.76,3.6,17.12,17.12,0,0,1-1.27,3.08,11.1,11.1,0,0,1-3.75,4.23,11.23,11.23,0,0,1-2.61,1.41,15.5,15.5,0,0,1-3.26.94,15,15,0,0,1-4.19.4,15.72,15.72,0,0,1-4.29-.82,7.4,7.4,0,0,1-2.56-1.54,16.42,16.42,0,0,1-2-2.17,17.18,17.18,0,0,1-2.92-6.66,28.52,28.52,0,0,1-.61-3.74,24,24,0,0,1-.1-2.51l-.09-45.54a4.19,4.19,0,0,0-.17-1.25,10,10,0,0,0-.56-1.8,6.38,6.38,0,0,0-.84-1.51,7.13,7.13,0,0,0-1.17-1.16,5.72,5.72,0,0,0-1.32-.7,4.35,4.35,0,0,0-1.51-.32H298.1a23,23,0,0,1,1.23,2.43,26.13,26.13,0,0,1,1,3,22.23,22.23,0,0,1,.69,3.49,24.59,24.59,0,0,1,.25,3.8v46A27.87,27.87,0,0,0,301.63,338.41Z" transform="translate(-93 -254.11)"/><path d="M503.76,349.21a24.26,24.26,0,0,1-.61,3.14,14.88,14.88,0,0,1-1,3,19.63,19.63,0,0,1-1.42,3h20.76a3.62,3.62,0,0,0,.85-.09,5.25,5.25,0,0,0,1-.32,6.39,6.39,0,0,0,1-.45c.27-.22.55-.47.79-.71a4.68,4.68,0,0,0,.74-.9,4.37,4.37,0,0,0,.63-1.09,5.19,5.19,0,0,0,.43-1.25,11.2,11.2,0,0,0,.33-1.65,15.44,15.44,0,0,0,.06-1.68l0-17.1c1.14-.22,2.17-.43,4.17-.85s4.94-1.17,7.24-1.77a51.39,51.39,0,0,0,6-1.91,64.33,64.33,0,0,0,6.71-2.89,47.64,47.64,0,0,0,6-3.64,35.32,35.32,0,0,0,4.72-4,24.94,24.94,0,0,0,3.43-4.18,21.85,21.85,0,0,0,2.21-4.22,22.31,22.31,0,0,0,1.25-4.63,24,24,0,0,0,.29-5.14,28.6,28.6,0,0,0-.68-5.41,23.44,23.44,0,0,0-1.58-4.86,23.21,23.21,0,0,0-2.41-4.28,26.44,26.44,0,0,0-3.23-3.69,31.34,31.34,0,0,0-4.14-3.08,26.79,26.79,0,0,0-4.76-2.38,27.73,27.73,0,0,0-5-1.36,29.86,29.86,0,0,0-5.15-.39c-1.72,0-3.59.07-5.51.14l-5.64.21c-1.95,0-4,.12-5.94.17s-4,.16-6.52.16-5.68,0-8.79,0h-9.28a20.53,20.53,0,0,1,1.18,2.44c.37.89.75,1.89,1.08,3a22,22,0,0,1,.68,3.52,36,36,0,0,1,.24,3.77v57.78A30.87,30.87,0,0,1,503.76,349.21ZM527.32,290c.53-.09,1.1-.24,1.63-.33s1.06-.21,1.63-.3c.73-.1,1.51-.16,2.29-.2a21.43,21.43,0,0,1,2.29-.08l2.23.25a13.63,13.63,0,0,1,2,.38,19.12,19.12,0,0,1,1.85.53c.53.21,1.08.48,1.61.68s1,.54,1.42.78l1.21.82c.33.3.7.62,1,.91a8.31,8.31,0,0,1,.8,1,5.85,5.85,0,0,1,.69,1.06,5.94,5.94,0,0,1,.49,1.05c.14.42.28.81.38,1.24s.16.84.21,1.27a9.4,9.4,0,0,1,.07,1.48c0,.6-.07,1.26-.12,1.92s-.19,1.24-.37,1.85a16.45,16.45,0,0,1-.57,1.76c-.25.6-.49,1.17-.78,1.73a15.57,15.57,0,0,1-1.06,1.58,13.41,13.41,0,0,1-1.27,1.59,11.21,11.21,0,0,1-1.47,1.45,21.4,21.4,0,0,1-1.88,1.41,14.77,14.77,0,0,1-2.08,1.39,15.65,15.65,0,0,1-2.28,1.15,23.29,23.29,0,0,1-2.68,1.08c-1,.3-2.16.66-3.39,1s-2.55.61-3.86.85V290Z" transform="translate(-93 -254.11)"/><path d="M260.71,351.5c.05.45.12.85.15,1.27a7.31,7.31,0,0,0,.25,1,5.24,5.24,0,0,0,.33.87,6.53,6.53,0,0,0,.37.82,4.27,4.27,0,0,0,.46.74,3.09,3.09,0,0,0,.54.6c.18.14.34.32.55.49a2.16,2.16,0,0,0,.63.4,6.19,6.19,0,0,0,.68.35,9,9,0,0,0,.91.26,10,10,0,0,0,1.31.11h19.8a15,15,0,0,1-1.22-2.4,28.71,28.71,0,0,1-1-3,33.6,33.6,0,0,1-.72-3.46,37.51,37.51,0,0,1-.24-3.84V283.36c0-.4,0-.89,0-1.43a11.3,11.3,0,0,0-.38-2,8.3,8.3,0,0,0-.7-1.75,7.21,7.21,0,0,0-1-1.33,4,4,0,0,0-1.24-.88,5.9,5.9,0,0,0-1.4-.61,4,4,0,0,0-1.25-.16H257.45c.24.38.43.77.64,1.16s.36.82.66,1.47a21.64,21.64,0,0,1,.94,2.8,18.28,18.28,0,0,1,.72,3.52,32.46,32.46,0,0,1,.27,3.77v62.36C260.68,350.66,260.68,351.12,260.71,351.5Z" transform="translate(-93 -254.11)"/></svg>