<svg id="b299dacc-5bc4-49ba-8c93-747969e99dee" data-name="Capa 1" xmlns="http://www.w3.org/2000/svg" viewBox="0 0 645.96 645.91"><title>volsvaweng</title><path d="M438,176a243.11,243.11,0,0,0-122.44-.27l61.36,169.31Z" transform="translate(-53 -87.09)"/><path d="M618,410.19a241.79,241.79,0,0,0-15.32-85.75L487.56,624.74C564.79,584.3,618,503.34,618,410.19Z" transform="translate(-53 -87.09)"/><path d="M497.85,200.89,426.93,396.13H327l-71.23-196a245.26,245.26,0,0,0-68.34,58.46L288.55,520.77l37-95.79h97.19l37,95.79L561.88,255.39A242.85,242.85,0,0,0,497.85,200.89Z" transform="translate(-53 -87.09)"/><path d="M376.13,87.09C198.33,87.09,53,232.08,53,410.19,53,587.77,198.33,733,376.13,733S699,587.77,699,410.19C699,232.08,554,87.09,376.13,87.09Zm0,604.6c-155.07,0-281.87-126.46-281.87-281.53,0-155.33,126.8-282,281.87-282s281.8,126.7,281.8,282C657.93,565.23,531.19,691.69,376.13,691.69Z" transform="translate(-53 -87.09)"/><path d="M374,476.34,311.6,638.28l-.3,5A238.78,238.78,0,0,0,376.13,652a245.14,245.14,0,0,0,61.08-7.67l-.75-6.07Z" transform="translate(-53 -87.09)"/><path d="M134.08,410.19c0,91,50.8,170.93,125.9,211.92L147.8,329.76A238.07,238.07,0,0,0,134.08,410.19Z" transform="translate(-53 -87.09)"/></svg>