<svg id="Capa_1" data-name="Capa 1" xmlns="http://www.w3.org/2000/svg" viewBox="0 0 372.27 324.4"><defs><style>.cls-1{fill-rule:evenodd;}</style></defs><path class="cls-1" d="M514.8,321.87c-17,0-30.86,10.1-30.86,22.54S497.76,367,514.8,367s30.86-10.1,30.86-22.55-13.82-22.54-30.86-22.54ZM375.94,198.66h0c-62.6,0-117.07,41.66-135.77,99.37h44.18c16.12-35.62,51.62-60.87,92.37-60.87,40.57,0,76.13,25.31,92.32,60.87h42.6a155.53,155.53,0,0,0-19.2-38.93L527,225.83l14.67,17.27-.91-68.16-69.52,4,20.27,14.94-32.23,31.65c-25.11-17-52.5-26.89-83.35-26.89ZM233,298.22c19-61.55,76.83-106.5,142.94-106.51h0a149.36,149.36,0,0,1,82.57,25l22.39-22-29-21,95.63-6.07,1.61,94.46-22.61-26.18-25.15,24.19a149.32,149.32,0,0,1,17.64,38c23.41,1.47,43.82,20.49,43.83,45.13,0,25-21.18,44.24-44.9,45.19C498,448.46,441,492,375.94,492h0c-65.44,0-122.34-43.44-142.1-103.65-23.18-1.73-43.27-20.64-43.27-45.08,0-24.12,19.73-42.91,42.43-45Zm233.87,90.25a103.61,103.61,0,0,1-18.28,25.37,100.32,100.32,0,0,1-143.72,0,104,104,0,0,1-18.27-25.37H241.17c19.65,56.13,73.5,96.58,134.76,96.58h0c61.59,0,115.31-40.32,134.84-96.58Zm-172.46,0a96,96,0,0,0,15.31,20.47,93.53,93.53,0,0,0,134,0,96.55,96.55,0,0,0,15.35-20.47ZM291.9,298H461.55c-15.61-31.71-47.91-53.94-84.82-53.94S307.51,266.3,291.9,298ZM237.28,305c-20.83,0-39.89,16.47-39.89,38.29s19.2,38.3,39.89,38.3H516.11c20.83,0,39.88-16.47,39.89-38.29S536.8,305,516.1,305Zm167,18.15v6.08h10l19.63,36.61h24.14l19.63-36.67,10-.07V323.1h-30v6h8l-13.85,26-15-25.93,10.94-.05,0-6Zm-49.34,0v6.08h10v29.89H354.4v6.66l10.57.06H415V345.91h-6.52c-.36,10.53-9.54,13.17-13.39,13.17H384.71v-29.9l9.88-.05,0-6Zm-33.75-1.23c-17.05,0-30.86,10.1-30.86,22.54S304.12,367,321.17,367,352,356.86,352,344.41s-13.81-22.54-30.85-22.54Zm-.44,38.34c-4.45,0-8.05-7.29-8.05-16.26s3.6-16.26,8.05-16.26,8,7.28,8,16.26-3.6,16.26-8,16.26Zm-110-37.11v6.08h10l19.63,36.61h24.14l19.63-36.67,10-.07,0-5.95h-30v6h8l-13.85,26-15-25.93,10.93-.05,0-6Zm303.62,37.11c-4.44,0-8-7.29-8-16.26s3.6-16.26,8-16.26,8,7.28,8,16.26-3.6,16.26-8,16.26Z" transform="translate(-190.56 -167.6)"/></svg>