<svg id="bf2af77e-0e83-474a-9141-4def2f70b863" data-name="Capa 1" xmlns="http://www.w3.org/2000/svg" viewBox="0 0 117.79 117.79"><defs><style>.ba453acd-4e6e-4f16-aa51-b1bd4255fd8a{fill:#010202;}</style></defs><path class="ba453acd-4e6e-4f16-aa51-b1bd4255fd8a" d="M403.56,260.77a56.41,56.41,0,1,1,16.51-39.87,57.08,57.08,0,0,1-16.51,39.87Zm1.77-81.52a58.89,58.89,0,1,0,17.25,41.65,59.62,59.62,0,0,0-17.25-41.65Z" transform="translate(-304.79 -162)"/><polygon points="55.66 57.03 55.66 60.77 58.9 62.64 62.14 60.77 62.14 57.03 58.9 55.16 55.66 57.03 55.66 57.03"/><path d="M366.5,210.06v-7.94a2.81,2.81,0,0,0-.83-2,2.81,2.81,0,0,0-4.8,2v7.94l2.81,1.63,2.82-1.63Z" transform="translate(-304.79 -162)"/><path d="M346,227.85a2.8,2.8,0,0,0-1,3.84,2.8,2.8,0,0,0,1.7,1.31,2.86,2.86,0,0,0,2.14-.28l6.88-4V225.5l-2.82-1.62-6.88,4Z" transform="translate(-304.79 -162)"/><path d="M381.35,227.85h0l-6.88-4-2.81,1.62v3.25l6.87,4a2.86,2.86,0,0,0,2.14.28,2.81,2.81,0,0,0,.68-5.15Z" transform="translate(-304.79 -162)"/><path class="ba453acd-4e6e-4f16-aa51-b1bd4255fd8a" d="M404.37,245a.84.84,0,0,1-.52.07l-12.37-2.32a1.36,1.36,0,0,1-.79-.44,1.39,1.39,0,0,1-.36-.83,4.35,4.35,0,0,0-5.79-3.77,11.13,11.13,0,0,1-9.22-.85l-3.66-2.12v24.07H366.5v-27l-2.82-1.63-2.81,1.63v27h-5.16V234.71L352,236.83a11.1,11.1,0,0,1-9.21.85,4.36,4.36,0,0,0-5.8,3.77,1.39,1.39,0,0,1-.36.83,1.33,1.33,0,0,1-.79.44L323.51,245A.85.85,0,0,1,323,245a.88.88,0,0,1-.39-.35.86.86,0,0,1-.11-.52.82.82,0,0,1,.2-.49l8.19-9.55a1.44,1.44,0,0,1,.78-.47,1.47,1.47,0,0,1,.9.11,4.35,4.35,0,0,0,6.16-3.13,11,11,0,0,1,1.85-4.36,11.16,11.16,0,0,1,3.5-3.2l3.66-2.11-20.84-12,2.58-4.47,23.42,13.53,2.82-1.63V213l-23.43-13.52,2.58-4.47,20.85,12v-4.23a11,11,0,0,1,3.87-8.41,4.35,4.35,0,0,0,1.24-4.83,4.44,4.44,0,0,0-1.61-2.07,1.39,1.39,0,0,1-.54-.72,1.42,1.42,0,0,1,0-.91L362.86,174a.84.84,0,0,1,.32-.42.88.88,0,0,1,.5-.16.93.93,0,0,1,.51.16.88.88,0,0,1,.31.42l4.19,11.87a1.49,1.49,0,0,1,0,.91,1.41,1.41,0,0,1-.55.72,4.44,4.44,0,0,0-1.61,2.07,4.39,4.39,0,0,0-.14,2.61,4.44,4.44,0,0,0,1.39,2.22,11.12,11.12,0,0,1,3.87,8.41v4.23l20.84-12,2.58,4.47L371.66,213v3.25l2.81,1.63,23.43-13.53,2.58,4.47-20.85,12L383.3,223a11.27,11.27,0,0,1,3.5,3.2,11.12,11.12,0,0,1,1.85,4.36,4.39,4.39,0,0,0,1.23,2.31,4.37,4.37,0,0,0,4.92.82,1.47,1.47,0,0,1,.9-.11,1.4,1.4,0,0,1,.78.47l8.19,9.55a.9.9,0,0,1,.21.49.8.8,0,0,1-.12.52.79.79,0,0,1-.39.35Zm-5.31-59.45a50,50,0,1,0,14.65,35.38,50.64,50.64,0,0,0-14.65-35.38Z" transform="translate(-304.79 -162)"/></svg>